<svg width="79" height="35" viewBox="0 0 79 35" fill="none" xmlns="http://www.w3.org/2000/svg">
<path d="M39.7144 24.9238H41.349C42.1451 24.9238 42.6702 25.2735 42.6702 25.9473C42.6719 26.3191 42.4514 26.6555 42.1112 26.8001C42.5552 26.8912 42.8698 27.2907 42.8566 27.7468C42.8566 28.4888 42.2637 28.8812 41.4083 28.8812H39.7144V24.9238ZM41.2135 26.6296C41.6624 26.6296 41.891 26.3908 41.891 26.024C41.891 25.6573 41.6623 25.4697 41.1881 25.4697H40.4681V26.621L41.2135 26.6296ZM41.2812 28.3865C41.8317 28.3865 42.0858 28.1392 42.0858 27.7639C42.0858 27.3886 41.7979 27.1328 41.2389 27.1328H40.4343V28.3865H41.2812Z" fill="#AAB4BA"/>
<path d="M45.6253 24.8292C46.1764 24.8157 46.71 25.0245 47.1075 25.4092L46.7518 25.9465C46.4581 25.6611 46.0673 25.4994 45.6592 25.4945C45.2871 25.487 44.9286 25.635 44.6687 25.9031C44.4088 26.1713 44.2707 26.5359 44.2871 26.9102C44.2731 27.2899 44.415 27.6587 44.6794 27.9298C44.9437 28.2009 45.3073 28.3504 45.6846 28.3431C46.1453 28.3315 46.5831 28.1386 46.9042 27.8058L47.2091 28.3601C46.789 28.7753 46.2224 29.0054 45.6338 28.9998C44.4901 28.9998 43.563 28.0662 43.563 26.9145C43.563 25.7628 44.4901 24.8292 45.6338 24.8292" fill="#AAB4BA"/>
<path d="M49.6571 24.8267C50.1341 24.8248 50.5898 25.0254 50.9122 25.3793C51.2347 25.7332 51.394 26.2076 51.351 26.686C51.3585 26.7939 51.3585 26.9022 51.351 27.0101H48.4629C48.4604 27.3689 48.6037 27.7133 48.8597 27.963C49.1157 28.2127 49.4619 28.346 49.8181 28.332C50.2472 28.3238 50.6591 28.1603 50.9784 27.8715L51.3002 28.4258C50.8718 28.7908 50.3284 28.9904 49.7672 28.9887C49.2092 29.0126 48.6663 28.8021 48.2681 28.4077C47.87 28.0132 47.6522 27.47 47.6668 26.9077C47.631 26.3605 47.8253 25.8232 48.2023 25.4274C48.5793 25.0315 49.1042 24.8136 49.6487 24.8267H49.6571ZM50.6057 26.4387C50.6296 26.1686 50.5393 25.901 50.3572 25.7013C50.1751 25.5017 49.9179 25.3886 49.6487 25.3896C49.0499 25.3824 48.5455 25.8384 48.4883 26.4387H50.6057ZM48.6577 23.3171H49.2845V24.1103H48.6577V23.3171ZM49.9705 23.3171H50.5888V24.1103H49.9705V23.3171Z" fill="#AAB4BA"/>
<path d="M54.231 24.9238H57.6865V28.8982H56.9243V25.572H54.9932V28.8982H54.231V24.9238Z" fill="#AAB4BA"/>
<path d="M58.8543 24.9226H59.5573V25.2722C59.565 25.3716 59.565 25.4714 59.5573 25.5707C59.8234 25.0869 60.3383 24.7963 60.887 24.8202C61.9542 24.8202 62.5809 25.6731 62.5809 26.9012C62.648 27.4197 62.4952 27.9426 62.16 28.3418C61.8247 28.741 61.3381 28.9797 60.8193 28.9993C60.3222 29.0018 59.8586 28.7475 59.5912 28.3255C59.6027 28.4418 59.6027 28.5589 59.5912 28.6752V30.4833H58.8374L58.8543 24.9226ZM60.7007 28.3341C61.3274 28.3341 61.8441 27.8223 61.8441 26.9183C61.8441 26.0142 61.3867 25.494 60.7261 25.494C60.0655 25.494 59.5827 25.9204 59.5827 26.9268C59.5827 27.6347 59.9723 28.3341 60.7007 28.3341Z" fill="#AAB4BA"/>
<path d="M65.411 24.8283C66.5452 24.8611 67.441 25.8085 67.4179 26.9508C67.3948 28.0931 66.4614 29.003 65.3269 28.9893C64.1923 28.9755 63.281 28.0433 63.2852 26.9008C63.2849 26.3391 63.511 25.8013 63.9117 25.4106C64.3125 25.0199 64.8535 24.8098 65.411 24.8283ZM66.7584 27.4989C66.9965 26.9701 66.8921 26.3487 66.4945 25.9283C66.0969 25.5078 65.4856 25.3725 64.9495 25.5863C64.4134 25.8001 64.0599 26.3201 64.0559 26.9008C64.0422 27.273 64.1783 27.6351 64.4335 27.9049C64.6886 28.1747 65.0411 28.3292 65.411 28.3336C65.9871 28.3579 66.5202 28.0277 66.7584 27.4989Z" fill="#AAB4BA"/>
<path d="M68.2988 24.9238H69.0272V28.2415H70.484V24.9238H71.2208V28.2415H72.6776V24.9238H73.406V28.2415H73.9649V29.8449H73.2704V28.8982H68.2988V24.9238Z" fill="#AAB4BA"/>
<path d="M76.4446 24.8286C76.9215 24.8267 77.3772 25.0273 77.6996 25.3812C78.0221 25.7351 78.1814 26.2095 78.1385 26.6879C78.1458 26.7958 78.1458 26.9041 78.1385 27.012H75.2504C75.2478 27.3709 75.3911 27.7152 75.6471 27.9649C75.9031 28.2146 76.2494 28.3479 76.6055 28.3339C77.0346 28.3257 77.4465 28.1622 77.7658 27.8734L78.0877 28.4278C77.6627 28.7939 77.1225 28.9964 76.5631 28.9992C76.0051 29.023 75.4622 28.8126 75.064 28.4181C74.6659 28.0236 74.4481 27.4804 74.4627 26.9182C74.4269 26.3709 74.6212 25.8337 74.9982 25.4378C75.3752 25.042 75.9001 24.824 76.4446 24.8372V24.8286ZM77.3932 26.4406C77.417 26.1705 77.3268 25.9029 77.1446 25.7033C76.9625 25.5036 76.7053 25.3905 76.4361 25.3915C75.8373 25.3843 75.333 25.8403 75.2758 26.4406H77.3932Z" fill="#AAB4BA"/>
<path d="M43.4478 15.6864C45.2179 15.6864 46.2766 14.1427 46.2766 11.6267C46.2766 9.11077 45.2179 7.56707 43.4478 7.56707C41.6776 7.56707 40.602 9.05107 40.602 11.6267C40.602 14.2024 41.7115 15.6864 43.4478 15.6864ZM48.377 21.3239C48.3352 21.3716 48.2751 21.399 48.2119 21.399C48.1487 21.399 48.0885 21.3716 48.0467 21.3239L47.1998 20.1469C46.3572 18.9383 44.9437 18.2671 43.4817 18.3815C39.9075 18.3815 37.6631 15.8229 37.6631 11.6779C37.6631 7.53295 39.9075 4.95728 43.4817 4.95728C47.0558 4.95728 49.2833 7.5159 49.2833 11.6779C49.2833 13.7675 48.5549 15.9423 47.3353 16.6331C47.1151 16.761 47.1151 16.8207 47.3353 16.889C48.1928 17.1689 48.9362 17.7228 49.4527 18.4668L50.2996 19.5841C50.347 19.6261 50.3742 19.6867 50.3742 19.7504C50.3742 19.814 50.347 19.8746 50.2996 19.9167L48.377 21.3239Z" fill="#858F9A"/>
<path d="M51.4821 5.1001H54.0236C54.138 5.1001 54.2308 5.19285 54.2308 5.30728V17.9163C54.2308 18.0307 54.138 18.1235 54.0236 18.1235H51.4821C51.3677 18.1235 51.2749 18.0307 51.2749 17.9163V5.30728C51.2749 5.19285 51.3677 5.1001 51.4821 5.1001Z" fill="#858F9A"/>
<path d="M71.1446 14.1756C70.8143 15.4464 70.5432 16.6575 70.2976 17.9027C70.2957 17.967 70.2671 18.0275 70.2188 18.0696C70.1706 18.1118 70.107 18.1316 70.0435 18.1245H66.6896C66.6261 18.1316 66.5626 18.1118 66.5143 18.0696C66.4661 18.0275 66.4375 17.967 66.4355 17.9027C66.2322 16.8366 66.0374 15.8643 65.7749 14.8494L65.2159 12.4699C65.1058 11.9923 64.9618 11.2247 64.8517 10.5765C64.8517 10.3207 64.5976 10.3207 64.5637 10.5765C64.4536 11.2162 64.3097 11.9752 64.1996 12.4699L63.6321 14.8579C63.395 15.8643 63.1917 16.8451 62.9715 17.9112C62.9695 17.9755 62.9409 18.036 62.8927 18.0782C62.8444 18.1203 62.7809 18.1402 62.7174 18.133H59.3804C59.3169 18.1402 59.2534 18.1203 59.2051 18.0782C59.1568 18.036 59.1283 17.9755 59.1263 17.9112C58.8892 16.666 58.6181 15.4464 58.2794 14.1842L56.0349 5.35694C55.9841 5.21195 56.0349 5.10108 56.2382 5.10108H58.7791C58.9069 5.09364 59.0214 5.18012 59.0501 5.30577L60.2697 10.2354C60.5885 11.5654 60.8149 12.9162 60.9473 14.278C60.9473 14.5168 61.2352 14.5339 61.2776 14.278C61.4619 12.9156 61.7278 11.5656 62.0737 10.2354L63.4034 5.28018C63.4279 5.15913 63.5348 5.073 63.6575 5.07549H65.741C65.8637 5.073 65.9706 5.15913 65.9951 5.28018L67.3502 10.2354C67.6988 11.5654 67.9675 12.9154 68.1548 14.278C68.1548 14.5339 68.4428 14.5168 68.4682 14.278C68.5917 12.9151 68.8182 11.5636 69.1458 10.2354L70.3823 5.28018C70.4259 5.17473 70.5318 5.10937 70.6449 5.11814H73.1857C73.3466 5.11814 73.4398 5.22901 73.389 5.374L71.1446 14.1756Z" fill="#858F9A"/>
<path d="M75.3844 5.1001H77.9259C78.0404 5.1001 78.1331 5.19285 78.1331 5.30728V17.9163C78.1331 18.0307 78.0404 18.1235 77.9259 18.1235H75.3844C75.27 18.1235 75.1772 18.0307 75.1772 17.9163V5.30728C75.1772 5.19285 75.27 5.1001 75.3844 5.1001Z" fill="#858F9A"/>
<path d="M32.6758 33.5439C32.9807 33.9277 32.5148 34.3115 32.1676 34.0044C28.7035 30.9085 25.7816 30.0386 22.9019 29.9107C21.3517 29.8833 19.8013 29.9574 18.2606 30.1324L17.2951 30.2177H16.8716C16.309 30.2793 15.7436 30.3106 15.1777 30.3115C12.5078 30.3245 9.88061 29.6367 7.55512 28.3158C5.24509 27.0251 3.32962 25.1228 2.01605 22.8147C0.689042 20.5087 -0.0065433 17.8894 0.000302625 15.2242C-0.0165772 12.5329 0.672961 9.88494 1.99911 7.54832C4.65722 2.86969 9.60472 -0.0121066 14.9575 0.000391619C17.655 -0.0188175 20.3111 0.668946 22.6648 1.99611C24.9801 3.29314 26.9009 5.20079 28.2208 7.5142C29.5649 9.84455 30.2639 12.4952 30.245 15.1901C30.2448 16.2268 30.1427 17.261 29.9401 18.2775C29.9401 18.4224 29.8808 18.6016 29.8215 18.8062C29.7622 19.0109 29.7368 19.1389 29.6945 19.3009C29.273 20.5854 28.7045 21.8161 28.0006 22.9683C27.8989 23.1303 27.8481 22.9683 27.8312 22.9171C27.6418 20.7925 26.4964 18.8724 24.7229 17.706L24.6382 17.6549C24.3391 17.469 24.0278 17.3037 23.7065 17.1602C23.262 16.9635 22.8033 16.801 22.3345 16.6741C22.0296 16.5888 21.3605 16.6314 21.6061 16.3841C22.6782 16.2602 23.7609 16.2602 24.833 16.3841H24.9346C24.9628 16.0316 24.9798 15.6705 24.9854 15.3009C25.0602 12.5685 23.9833 9.93176 22.0211 8.04299C20.2044 6.14195 17.6873 5.08299 15.0676 5.11763C12.4316 5.04499 9.89096 6.11305 8.0887 8.05151C6.22681 9.94724 5.21159 12.5246 5.27682 15.1901C5.21239 17.8629 6.25934 20.4413 8.16493 22.303C9.95914 24.199 12.4587 25.2534 15.0591 25.2113H15.4403V25.109C15.2878 23.1133 15.2539 21.4587 15.6605 22.1239C15.8044 22.3627 15.9484 22.5845 16.0924 22.7977C16.5601 23.5119 17.0902 24.1826 17.6762 24.8019L17.7524 24.8787C19.6666 26.8403 21.5553 27.3179 23.5625 27.8211H23.6896L24.689 28.077C27.0774 28.7166 29.6606 29.7827 32.6673 33.5098L32.6758 33.5439ZM26.0526 21.4843C25.7561 21.399 25.5359 21.4843 25.4258 21.6634C25.2917 22.16 25.3984 22.6912 25.7138 23.0962C26.0526 23.625 26.3405 23.8979 26.5608 23.8979C26.639 23.8987 26.7135 23.8643 26.764 23.8041C26.9133 23.5465 26.9559 23.2401 26.8826 22.9512C26.83 22.3577 26.5201 21.8178 26.0356 21.4757L26.0526 21.4843ZM22.7156 23.9661C22.4446 23.9449 22.18 24.0559 22.0041 24.2646C21.6309 24.9055 21.7992 25.7267 22.3937 26.1665C22.6812 26.4086 23.0439 26.5413 23.4186 26.5418C23.7654 26.5567 24.0987 26.4048 24.3163 26.1324C24.672 25.6548 24.4688 24.9725 23.7997 24.4267C23.5009 24.157 23.1167 24.0028 22.7156 23.9917" fill="#C5CCD3"/>
</svg>
