<svg width="77" height="20" viewBox="0 0 77 20" fill="none" xmlns="http://www.w3.org/2000/svg">
<path d="M16.9606 6.32042H11.7373C11.7373 5.50627 11.6365 4.96005 11.4359 4.68175C11.125 4.27042 10.2672 4.06429 8.86321 4.06429C7.49941 4.06429 6.59551 4.18269 6.15448 4.41995C5.71346 4.65816 5.49245 5.17561 5.49245 5.97231C5.49245 6.69354 5.68813 7.16901 6.07998 7.39637C6.36059 7.55816 6.73159 7.65297 7.19347 7.68127L8.24687 7.75203C10.5046 7.89401 11.9146 7.99448 12.4768 8.05156C14.2623 8.22231 15.5566 8.67325 16.3596 9.40391C16.9914 9.9742 17.3683 10.7195 17.4885 11.6393C17.559 12.1898 17.5938 12.8129 17.5938 13.5049C17.5938 15.1001 17.4334 16.2681 17.1131 17.0082C16.5315 18.3667 15.2248 19.2247 13.192 19.585C12.3403 19.7374 11.0375 19.8133 9.28486 19.8133C6.3596 19.8133 4.32135 19.6483 3.17011 19.3157C1.75764 18.9086 0.825928 18.0836 0.375467 16.8417C0.124162 16.1501 0 14.9983 0 13.386H5.22326C5.22326 13.5657 5.22376 13.7034 5.22376 13.7983C5.22376 14.6586 5.484 15.2115 6.004 15.4582C6.36407 15.628 6.79864 15.7171 7.30969 15.728H9.23023C10.2101 15.728 10.8354 15.6803 11.1051 15.5846C11.5853 15.4053 11.9007 15.1167 12.0512 14.7171C12.1312 14.4709 12.1709 14.153 12.1709 13.7633C12.1709 12.8912 11.8357 12.3605 11.1662 12.17C10.9154 12.095 9.75122 11.9898 7.67224 11.8572C6.00251 11.744 4.84283 11.635 4.19371 11.5294C2.48374 11.2256 1.34393 10.6006 0.77527 9.65203C0.275144 8.84637 0.0253291 7.62703 0.0253291 5.99542C0.0253291 4.75344 0.160418 3.75722 0.430595 3.00816C0.700773 2.25863 1.13633 1.68976 1.73728 1.30061C2.61784 0.702972 3.74474 0.3525 5.11599 0.247783C6.25729 0.152972 7.52325 0.104858 8.91585 0.104858C11.1081 0.104858 12.6705 0.22467 13.6017 0.461934C15.8749 1.04212 17.0112 2.66665 17.0112 5.33646C17.0112 5.55533 16.9944 5.88269 16.9606 6.32042Z" fill="#858F9A"/>
<path d="M39.9297 19.8133V0.00012207H48.113H49.3973H50.3901C51.8249 0.00012207 52.9196 0.110971 53.672 0.333613C55.3924 0.845405 56.5466 1.89399 57.1381 3.47795C57.4431 4.30956 57.596 5.56144 57.596 7.23314C57.596 9.24305 57.4267 10.6869 57.0914 11.5666C56.4204 13.3053 55.0398 14.3072 52.9543 14.5666C52.709 14.6058 51.6655 14.6402 49.8234 14.6685L48.8917 14.6978H45.5443V19.8133H39.9297ZM45.5443 10.1015H49.0442C50.1542 10.0638 50.8292 9.98267 51.072 9.85578C51.4038 9.68267 51.6268 9.3355 51.7375 8.81522C51.8086 8.46899 51.8438 7.9539 51.8438 7.26993C51.8438 6.43173 51.7733 5.8105 51.6318 5.40484C51.4301 4.83644 50.9464 4.49069 50.1805 4.36474C50.0286 4.34588 49.666 4.3355 49.0914 4.3355H45.5443V10.1015Z" fill="#858F9A"/>
<path d="M69.5812 16.3892H62.0743L61.0656 19.8132H55.2568L61.525 0H69.9944L76.3391 19.8132H70.6525L69.5812 16.3892ZM68.4662 12.5292L65.8355 3.94057L63.2827 12.5292H68.4662Z" fill="#858F9A"/>
<path d="M32.1801 2.78722C34.4954 2.78722 36.5625 3.80043 37.9208 5.38722L39.1312 2.9226C37.2384 1.22354 34.6623 0.175903 31.821 0.175903C27.3968 0.175903 23.6124 2.71364 22.0593 6.30609H19.6993L18.3057 9.14336H21.3417C21.3188 9.40656 21.3039 9.66977 21.3039 9.93864C21.3039 10.2636 21.3218 10.5853 21.3556 10.9028H19.8299L18.4368 13.741H22.1319C23.7291 17.2424 27.4664 19.7004 31.821 19.7004C34.0157 19.7004 36.0519 19.0759 37.7381 18.0089V14.5306C36.3802 15.999 34.3941 16.9268 32.1801 16.9268C29.592 16.9268 27.3154 15.6594 25.9898 13.741H33.7266L35.1202 10.9028H24.8515C24.7984 10.5613 24.7701 10.2122 24.7701 9.85656C24.7701 9.616 24.783 9.37826 24.8078 9.14336H35.9839L37.377 6.30609H25.7738C27.0571 4.20279 29.445 2.78722 32.1801 2.78722Z" fill="#C5CCD3"/>
<path d="M32.1805 2.87256C34.3871 2.87256 36.4542 3.80936 37.8517 5.44143L37.9421 5.54709L38.0032 5.42398L39.213 2.95935L39.2399 2.90322L39.1937 2.86077C37.2041 1.07492 34.5858 0.0914307 31.8214 0.0914307C29.6625 0.0914307 27.5855 0.690487 25.8139 1.82398C24.0841 2.93058 22.7571 4.46973 21.9773 6.27398L22.0598 6.22115H19.6997H19.6421L19.6182 6.2702L18.2251 9.10794L18.1655 9.22917H18.3061H21.3421L21.2527 9.13671C21.2274 9.43152 21.215 9.69332 21.215 9.93907C21.215 10.2575 21.2323 10.5853 21.2666 10.9117L21.356 10.8183H19.8303H19.7737L19.7498 10.8674L18.3557 13.7051L18.2966 13.8263H18.4372H22.1323L22.0498 13.7749C23.7156 17.4263 27.5512 19.7858 31.8214 19.7858C33.962 19.7858 36.0246 19.1966 37.7882 18.0806L37.8274 18.0556V18.0094V14.5311V14.3051L37.6709 14.4749C36.2798 15.9792 34.2788 16.8414 32.1805 16.8414C29.7121 16.8414 27.4261 15.6645 26.0647 13.6943L25.9902 13.8263H33.727H33.7847L33.8085 13.7777L35.2021 10.9391L35.2617 10.8183H35.1206H24.8519L24.9408 10.891C24.8877 10.5471 24.8604 10.1999 24.8604 9.857C24.8604 9.6235 24.8728 9.38671 24.8976 9.15228L24.8082 9.22917H35.9843H36.0419L36.0658 9.18011L37.4589 6.34237L37.519 6.22115H37.3774H25.7742L25.8517 6.34898C27.1599 4.20464 29.5855 2.87256 32.1805 2.87256ZM25.7742 6.39143H37.3774L37.296 6.2702L35.9034 9.10794L35.9843 9.05888H24.8082H24.7273L24.7183 9.13577C24.6935 9.37539 24.6811 9.61832 24.6811 9.857C24.6811 10.2079 24.7089 10.5645 24.763 10.916L24.7749 10.9886H24.8519H35.1206L35.0397 10.8674L33.6466 13.7051L33.727 13.6561H25.9902H25.8239L25.9152 13.7872C27.3093 15.807 29.652 17.0112 32.1805 17.0112C34.33 17.0112 36.3806 16.1282 37.806 14.5872L37.6486 14.5311V18.0094L37.6883 17.9391C35.9545 19.0358 33.9262 19.6155 31.8214 19.6155C27.6222 19.6155 23.8517 17.2961 22.2147 13.707L22.1909 13.6561H22.1323H18.4372L18.5191 13.7777L19.9117 10.9391L19.8303 10.9886H21.356H21.4548L21.4454 10.8947C21.4116 10.574 21.3938 10.2518 21.3938 9.93907C21.3938 9.6985 21.4062 9.44049 21.4315 9.15086L21.4394 9.05888H21.3421H18.3061L18.387 9.18011L19.7806 6.34237L19.6997 6.39143H22.0598H22.1199L22.1422 6.3386C22.9095 4.56549 24.2137 3.05322 25.9143 1.96502C27.6555 0.851336 29.6987 0.262185 31.8214 0.262185C34.5401 0.262185 37.1137 1.22869 39.07 2.98483L39.0501 2.88671L37.8408 5.35181L37.9913 5.33388C36.5584 3.66171 34.4412 2.70228 32.1805 2.70228C29.5209 2.70228 27.0372 4.0669 25.6962 6.2636L25.6183 6.39143H25.7742Z" fill="#C5CCD3"/>
</svg>
