<svg width="36" height="36" viewBox="0 0 36 36" fill="none" xmlns="http://www.w3.org/2000/svg">
<mask id="mask0" mask-type="alpha" maskUnits="userSpaceOnUse" x="0" y="0" width="36" height="36">
<path d="M0 0H35.9745V35.9744H0V0Z" fill="white"/>
</mask>
<g mask="url(#mask0)">
<path fill-rule="evenodd" clip-rule="evenodd" d="M30.0355 30.1204C29.9833 30.1698 29.9326 30.221 29.9326 30.221C27.314 32.7738 23.8672 34.4594 20.2286 34.9674C20.2286 34.9674 20.0251 34.991 19.8507 35.0121C20.0303 34.8946 20.2521 34.7494 20.2521 34.7494C21.2486 34.0452 23.1635 32.511 24.788 30.1454C24.788 30.1454 24.7969 30.1326 24.8054 30.1204H30.0355ZM23.7483 30.1204C23.7135 30.1674 23.6787 30.2135 23.6787 30.2135C22.1755 32.2224 20.4862 33.6029 19.3336 34.4072C19.3336 34.4072 18.6371 34.8659 18.3908 35.0272V30.1204H23.7483ZM17.587 30.1204V35.0272C17.4371 34.928 16.645 34.4086 16.6431 34.4072C15.4915 33.6029 13.8031 32.2224 12.3 30.2135C12.3 30.2135 12.2647 30.1674 12.23 30.1204H17.587ZM11.1723 30.1204C11.1813 30.1326 11.1898 30.1454 11.1898 30.1454C12.3667 31.8581 13.8943 33.4135 15.7289 34.7681C15.7308 34.7681 15.9084 34.8819 16.0626 34.9811C15.8906 34.9576 15.7111 34.9341 15.7111 34.9341C12.0453 34.441 8.70273 32.8109 6.04564 30.221C6.04564 30.221 5.99442 30.1698 5.94313 30.1204H11.1723ZM33.9556 24.1406C33.9406 24.18 33.9246 24.22 33.9246 24.22C33.2022 26.0564 32.1723 27.7458 30.8633 29.2391C30.8633 29.2391 30.8548 29.249 30.8459 29.2593H25.3595C25.3854 29.2156 25.4113 29.1709 25.4113 29.1709C26.3433 27.602 26.9981 25.9253 27.3558 24.1876C27.3558 24.1876 27.361 24.164 27.3662 24.1406H33.9556ZM26.4886 24.1406C26.4796 24.1753 26.4726 24.2111 26.4726 24.2111C26.0904 25.9648 25.3803 27.6541 24.3607 29.233C24.3607 29.233 24.3518 29.2452 24.3433 29.2593H18.3908V24.1406H26.4886ZM17.587 24.1406V29.2593H11.6349C11.6264 29.2452 11.6175 29.233 11.6175 29.233C10.598 27.6541 9.88772 25.9648 9.50607 24.2111C9.50607 24.2111 9.49805 24.1753 9.49061 24.1406H17.587ZM8.61205 24.1406C8.61678 24.164 8.62145 24.1876 8.62145 24.1876C8.98009 25.9253 9.63442 27.602 10.5665 29.1709C10.5665 29.1709 10.5928 29.2156 10.6191 29.2593H5.13287C5.12387 29.249 5.11545 29.2391 5.11545 29.2391C3.80591 27.7458 2.77558 26.0564 2.05363 24.22C2.05363 24.22 2.03806 24.18 2.02214 24.1406H8.61205ZM34.264 12.6665C34.2706 12.6866 34.2767 12.7064 34.2767 12.7064C34.828 14.4037 35.1096 16.1795 35.1129 17.9849C35.1096 19.7993 34.8257 21.584 34.2678 23.2893C34.2678 23.2893 34.2616 23.31 34.2555 23.3297H1.71992C1.71328 23.31 1.70671 23.2893 1.70671 23.2893C1.15021 21.584 0.865814 19.7993 0.862526 17.9849C0.865814 16.1809 1.14738 14.4046 1.69829 12.7064C1.69829 12.7064 1.70486 12.6866 1.71144 12.6665H34.264ZM30.8459 6.68565C30.8548 6.69552 30.8633 6.70544 30.8633 6.70544C32.1723 8.19963 33.2031 9.88846 33.9246 11.7244C33.9246 11.7244 33.9406 11.7644 33.9556 11.8044H27.3662C27.361 11.7809 27.3558 11.7579 27.3558 11.7574C26.9981 10.0196 26.3433 8.34298 25.4113 6.77403C25.4113 6.77403 25.3854 6.72938 25.3595 6.68565H30.8459ZM24.3433 6.68565C24.3518 6.69881 24.3607 6.71248 24.3607 6.71248C25.3803 8.29037 26.0904 9.98012 26.4726 11.7334C26.4726 11.7334 26.4796 11.7691 26.4886 11.8044H18.3908V6.68565H24.3433ZM17.587 6.68565V11.8044H9.49061C9.49805 11.7691 9.50607 11.7334 9.50607 11.7334C9.88772 9.98012 10.5985 8.29037 11.6175 6.71196C11.6175 6.71196 11.6264 6.69881 11.6349 6.68565H17.587ZM10.6191 6.68565C10.5928 6.72938 10.5665 6.77403 10.5665 6.77403C9.63442 8.34298 8.98009 10.0196 8.62145 11.7574C8.62145 11.7574 8.61678 11.7809 8.61205 11.8044H2.02214C2.03806 11.7644 2.05363 11.7244 2.05363 11.7244C2.77558 9.88846 3.80545 8.19963 5.11545 6.70544C5.11545 6.70544 5.12387 6.69552 5.13287 6.68565H10.6191ZM24.788 5.79919C23.6119 4.08683 22.0853 2.53143 20.2497 1.1773C20.2469 1.17586 20.0697 1.06216 19.916 0.963402C20.0871 0.98688 20.2672 1.01088 20.2672 1.01088C23.933 1.503 27.2754 3.1331 29.9326 5.72443C29.9326 5.72443 29.9833 5.77473 30.0355 5.82451H24.8054C24.7969 5.81182 24.788 5.79919 24.788 5.79919ZM18.3908 0.918233C18.5417 1.01693 19.336 1.53825 19.336 1.53825C20.4862 2.34153 22.1755 3.72254 23.6787 5.731C23.6787 5.731 23.7135 5.77802 23.7483 5.82451H18.3908V0.918233ZM12.3 5.731C13.8031 3.72254 15.4921 2.34153 16.6441 1.53686C16.6441 1.53686 17.3416 1.07947 17.587 0.918233V5.82451H12.23C12.2647 5.77802 12.3 5.731 12.3 5.731ZM6.04564 5.72443C8.6642 3.17117 12.1106 1.48517 15.7492 0.977535C15.7492 0.977535 15.9526 0.953076 16.128 0.932367C15.948 1.05034 15.728 1.19461 15.728 1.19461C14.7296 1.89971 12.8147 3.43393 11.1898 5.79919C11.1898 5.79919 11.1808 5.81182 11.1723 5.82451H5.94313C5.99442 5.77473 6.04564 5.72443 6.04564 5.72443ZM17.87 0.000732422C8.01603 0.0646489 0 8.13243 0 17.9849C0 27.9032 8.06916 35.9738 17.987 35.9752C27.9053 35.9738 35.9745 27.9032 35.9745 17.9849C35.9745 8.13243 27.9584 0.0646489 18.1045 0.000732422H17.87Z" fill="#858F9A"/>
</g>
<path fill-rule="evenodd" clip-rule="evenodd" d="M20.5711 14.2093C20.2417 14.3339 20.1529 14.8061 19.9375 15.6212L18.7649 20.3242C18.5386 21.2614 18.5432 21.5401 18.6753 21.7414L18.6762 21.8334H16.7152L16.7144 21.7414C17.0231 21.5644 17.0867 21.3115 17.3281 20.3884L18.5011 15.7044C18.7241 14.7886 18.7784 14.454 18.6097 14.2123V14.1213L20.5699 14.1199L20.5711 14.2093Z" fill="#858F9A"/>
<path fill-rule="evenodd" clip-rule="evenodd" d="M2.99942 19.7993C3.12449 20.8585 3.64999 21.3848 4.78319 21.3117C5.57584 21.2611 5.97718 20.6556 5.98024 20.0121C5.98372 19.4806 5.67767 19.032 5.11805 18.6055L4.78887 18.3721C4.0972 17.852 3.47818 17.3008 3.48382 16.362C3.49127 15.0282 4.50734 14.1877 5.86396 14.1236C6.25871 14.1043 6.75582 14.1615 7.1379 14.2684C7.33594 14.3237 7.60438 14.4183 7.71459 14.4583L7.39496 15.7593L7.30359 15.7611C7.13001 14.964 6.81179 14.5173 5.78525 14.6068C5.06343 14.6691 4.72331 15.2901 4.71976 15.8216C4.71676 16.3751 5.02324 16.7224 5.60508 17.1241L5.93431 17.3463C6.69197 17.8744 7.34077 18.4336 7.33466 19.4225C7.32591 20.9017 6.24341 21.832 4.65377 21.8334C3.73744 21.8334 2.89012 21.5034 2.57227 21.2021C2.58584 21.0647 2.76204 20.4344 2.91287 19.8045L2.99942 19.7993Z" fill="#858F9A"/>
<path fill-rule="evenodd" clip-rule="evenodd" d="M28.2839 14.1199C28.1876 14.4241 28.0147 15.0108 27.8756 15.4749H27.7914C27.4565 14.5369 26.6494 14.6599 26.0787 14.6599L26.0183 14.6584C25.6231 14.6584 25.5137 14.7561 25.4129 15.1541L24.7755 17.6523H24.9902C25.9598 17.6523 26.6377 17.7479 26.9141 17.3388H26.9996L26.6297 18.7501H26.545C26.3636 18.1236 25.6799 18.1912 24.8277 18.1897H24.6248L24.0526 20.3161C23.8428 21.1092 23.7726 21.517 23.9554 21.7293L23.9568 21.8295L21.856 21.8334V21.7386C22.2215 21.5845 22.2962 21.2297 22.5393 20.3418L23.801 15.6193C24.0314 14.761 24.0751 14.4567 23.8982 14.2113L23.8959 14.1204L28.2839 14.1199Z" fill="#858F9A"/>
<path fill-rule="evenodd" clip-rule="evenodd" d="M34.7126 14.1199C34.5581 14.558 34.4245 14.9898 34.2541 15.4757L34.1588 15.4747C33.8021 14.5473 32.8435 14.6582 32.4257 14.6582H32.3249L30.6549 20.3292C30.4324 21.1706 30.3421 21.5231 30.5532 21.7376L30.5516 21.8334H28.2872L28.2847 21.7376C28.679 21.5552 28.7694 21.1691 29.0233 20.3166L30.6997 14.6582H30.5332C29.9898 14.6582 29.1266 14.5765 28.4942 15.4757L28.3894 15.4747C28.532 15.0822 28.688 14.6033 28.8609 14.1199H34.7126Z" fill="#858F9A"/>
<path fill-rule="evenodd" clip-rule="evenodd" d="M19.2836 14.2166C18.9403 14.4484 18.7415 14.8348 18.3249 15.5769C17.623 16.8263 15.1583 21.4902 14.9727 21.8334H14.0826L13.5908 16.9745H13.5516L10.7949 21.8334H10.0595L9.38144 15.6269C9.29705 14.8989 9.25379 14.4232 9.00049 14.2098L9.00355 14.1209H11.2984L11.2969 14.2098C11.0187 14.4965 10.9495 14.8075 11.0151 15.5331L11.3986 19.2231H11.4235L14.3008 14.1899H14.9472L15.4462 19.2333H15.4777C16.0997 18.0947 16.9791 16.4662 17.5264 15.4379C18.0065 14.5368 17.8194 14.3327 17.7548 14.2166V14.1199L19.2851 14.1228L19.2836 14.2166Z" fill="#858F9A"/>
</svg>
