<svg width="40" height="26" viewBox="0 0 40 26" fill="none" xmlns="http://www.w3.org/2000/svg">
  <path d="M31.3014 13.5762C31.4966 13.3809 31.4966 13.0644 31.3014 12.8691L28.1194 9.68712C27.9241 9.49186 27.6075 9.49186 27.4123 9.68712C27.217 9.88239 27.217 10.199 27.4123 10.3942L30.2407 13.2227L27.4123 16.0511C27.217 16.2463 27.217 16.5629 27.4123 16.7582C27.6075 16.9535 27.9241 16.9535 28.1194 16.7582L31.3014 13.5762ZM14.6133 13.7227L30.9478 13.7227L30.9478 12.7227L14.6133 12.7227L14.6133 13.7227Z" fill="white"/>
  <path d="M0.647629 12.8691C0.452367 13.0644 0.452367 13.3809 0.647629 13.5762L3.82961 16.7582C4.02487 16.9535 4.34145 16.9535 4.53672 16.7582C4.73198 16.5629 4.73198 16.2463 4.53672 16.0511L1.70829 13.2227L4.53672 10.3942C4.73198 10.199 4.73198 9.88238 4.53672 9.68712C4.34145 9.49186 4.02487 9.49186 3.82961 9.68712L0.647629 12.8691ZM14.6133 12.7227L1.00118 12.7227L1.00118 13.7227L14.6133 13.7227L14.6133 12.7227Z" fill="white"/>
  <circle cx="26.4117" cy="13.2242" r="12.2046" stroke="white"/>
</svg>
