<svg width="44" height="21" viewBox="0 0 44 21" fill="none" xmlns="http://www.w3.org/2000/svg">
  <path d="M0.645418 16.1679C0.450157 16.3632 0.450157 16.6798 0.645418 16.875L3.8274 20.057C4.02266 20.2523 4.33924 20.2523 4.53451 20.057C4.72977 19.8618 4.72977 19.5452 4.53451 19.3499L1.70608 16.5215L4.53451 13.6931C4.72977 13.4978 4.72977 13.1812 4.53451 12.986C4.33924 12.7907 4.02266 12.7907 3.8274 12.986L0.645418 16.1679ZM19.1484 16.0215L0.998972 16.0215L0.998972 17.0215L19.1484 17.0215L19.1484 16.0215Z" fill="white"/>
  <path d="M43.0982 4.16996C43.2935 3.9747 43.2935 3.65811 43.0982 3.46285L39.9162 0.280872C39.721 0.0856102 39.4044 0.0856102 39.2091 0.280872C39.0139 0.476135 39.0139 0.792717 39.2091 0.987979L42.0376 3.81641L39.2091 6.64483C39.0139 6.8401 39.0139 7.15668 39.2091 7.35194C39.4044 7.5472 39.721 7.5472 39.9162 7.35194L43.0982 4.16996ZM26.4102 4.31641L42.7447 4.31641V3.31641L26.4102 3.31641V4.31641Z" fill="white"/>
  <circle cx="22.3268" cy="9.71421" r="7.21352" transform="rotate(-90 22.3268 9.71421)" stroke="white"/>
</svg>
