<svg width="118" height="26" viewBox="0 0 118 26" fill="none" xmlns="http://www.w3.org/2000/svg">
<path fill-rule="evenodd" clip-rule="evenodd" d="M4.74081 21.3767V14.4407L0 2.00483H2.38425L5.87789 11.5959L9.89749 0H12.0879L6.9312 14.5221V21.3767H4.74081Z" fill="#C5CCD3"/>
<path fill-rule="evenodd" clip-rule="evenodd" d="M59.5254 7.72092L56.9193 14.115L59.8302 21.376H57.5849L55.4222 15.7405L53.3151 21.376H51.1808L54.0917 14.3045L51.458 7.72092H53.7035L55.5055 12.679L57.4183 7.72092H59.5254ZM44.3329 13.3022H47.9094C47.9094 10.9721 47.5213 9.2652 46.2734 9.2652C44.9429 9.2652 44.4714 10.8636 44.3329 13.3022ZM46.7172 21.5655C43.8338 21.5655 42.0595 19.3169 42.0595 15.1175C42.0595 10.7283 43.3071 7.53125 46.2734 7.53125C48.6023 7.53125 50.1271 9.23814 50.1271 13.8712V15.0361H44.3053C44.3053 18.1247 45.1924 19.7506 46.9113 19.7506C48.131 19.7506 49.0184 19.2084 49.5727 18.8292L50.0717 20.4547C49.1843 21.1322 48.1033 21.5655 46.7172 21.5655ZM37.7348 9.91566C37.291 9.48195 36.8197 9.2652 36.0992 9.2652C34.3524 9.2652 33.5206 11.8391 33.5206 14.6297C33.5206 17.8267 34.1306 19.7776 35.711 19.7776C36.792 19.7776 37.3743 19.2625 37.7348 18.7208V9.91566ZM31.2197 15.0634C31.2197 9.99663 33.1601 7.53125 35.9605 7.53125C36.6258 7.53125 37.3187 7.74799 37.7348 8.04593V2.00415H39.8972V21.376H38.2891L38.123 20.2923H37.9843C37.3743 21.0508 36.5982 21.5655 35.4615 21.5655C32.7168 21.5655 31.2197 19.2898 31.2197 15.0634ZM23.4013 21.376H21.2393V7.69363H23.4013V8.88584H23.5403C23.9285 8.37116 24.9818 7.53125 26.285 7.53125C28.1149 7.53125 29.0849 8.53355 29.0849 10.6198V21.376H26.895V10.8097C26.895 9.77988 26.4235 9.42759 25.5917 9.42759C24.6769 9.42759 23.9008 10.1051 23.4013 10.7826V21.376ZM16.4152 14.2505H16.1657C13.4766 14.2505 12.8944 15.4157 12.8944 17.1767C12.8944 18.7478 13.421 19.7776 14.5299 19.7776C15.2786 19.7776 16.027 19.2898 16.4152 18.6937V14.2505ZM18.7995 21.376H16.9698C16.8867 21.0779 16.8036 20.6446 16.7757 20.2923H16.637C16.027 21.0508 15.2509 21.5655 14.031 21.5655C12.0351 21.5655 10.6763 20.1024 10.6763 17.4205C10.6763 14.4944 12.2013 12.6519 16.1104 12.6519H16.4152V11.8391C16.4152 10.051 15.8053 9.29249 14.5856 9.29249C13.4766 9.29249 12.5339 9.8613 11.8134 10.4847L11.3972 8.61497C12.0351 8.10029 13.3105 7.53125 14.7243 7.53125C17.1914 7.53125 18.55 8.56061 18.55 11.8664V18.2875C18.55 19.5877 18.6885 20.7256 18.7995 21.376Z" fill="#858F9A"/>
<path fill-rule="evenodd" clip-rule="evenodd" d="M67.2992 8.12735L66.7172 21.376H65.5806L66.4398 2.00415H67.9644L70.9306 13.9526C71.1806 14.9006 71.3191 15.8217 71.4024 16.6345H71.4578C71.5406 15.8217 71.7072 14.9006 71.9567 13.9526L75.0063 2.00415H76.5586L77.418 21.376H76.0871L75.5053 8.01886C75.4224 6.50143 75.4499 5.33651 75.4499 4.14475H75.3661C75.2004 5.36358 75.0063 6.50143 74.7015 7.63996L71.929 18.3419H70.8478L68.1031 7.63996C67.8259 6.58285 67.6043 5.49935 67.4654 4.17182H67.3821C67.3821 5.22848 67.3548 6.79959 67.2992 8.12735Z" fill="#858F9A"/>
<path fill-rule="evenodd" clip-rule="evenodd" d="M86.8195 14.5486C86.8195 10.2674 85.4886 8.50682 83.8528 8.50682C82.2167 8.50682 80.8858 10.4032 80.8858 14.5486C80.8858 18.8021 82.2167 20.6174 83.8528 20.6174C85.4886 20.6174 86.8195 18.6663 86.8195 14.5486ZM79.583 14.6296C79.583 10.0779 81.4411 7.44971 83.8528 7.44971C86.2643 7.44971 88.1214 9.77977 88.1214 14.4672C88.1214 18.9915 86.2643 21.6468 83.8528 21.6468C81.4411 21.6468 79.583 19.2897 79.583 14.6296Z" fill="#858F9A"/>
<path fill-rule="evenodd" clip-rule="evenodd" d="M91.812 11.4057V21.3759H90.5083V7.72081H91.701L91.7564 9.96944H91.812C92.1997 8.96714 93.3087 7.44971 95.1939 7.44971C97.052 7.44971 98.1328 8.58778 98.1328 10.7555V21.3759H96.83V10.9178C96.83 9.29237 96.22 8.53343 94.9445 8.53343C93.5581 8.53343 92.5048 9.67173 91.812 11.4057Z" fill="#858F9A"/>
<path fill-rule="evenodd" clip-rule="evenodd" d="M101.712 13.7626H106.787C107.008 10.1321 105.899 8.50682 104.485 8.50682C103.016 8.50682 101.823 10.3488 101.712 13.7626ZM104.762 20.536C106.619 20.536 107.59 19.0729 107.59 19.0729L108.006 20.1023C108.006 20.1023 106.953 21.6468 104.735 21.6468C101.769 21.6468 100.41 19.0188 100.41 14.5486C100.41 10.0779 102.129 7.44971 104.485 7.44971C106.897 7.44971 108.449 9.91554 108.006 14.7651H101.685C101.741 18.5041 102.739 20.536 104.762 20.536Z" fill="#858F9A"/>
<path fill-rule="evenodd" clip-rule="evenodd" d="M110.058 25.6561L109.919 24.4641C110.141 24.5183 110.418 24.5726 110.779 24.5726C111.721 24.5726 112.386 23.6784 112.802 22.1611L112.913 21.7549L109.448 7.72046H110.751L112.968 16.634C113.218 17.6639 113.412 18.6659 113.551 19.723H113.634C113.828 18.6389 114.05 17.6366 114.299 16.634L116.462 7.72046H117.627L114.05 22.0802C113.578 23.9222 112.747 25.7105 110.779 25.7105C110.474 25.7105 110.252 25.6834 110.058 25.6561Z" fill="#858F9A"/>
</svg>
