<svg width="60" height="60" viewBox="0 0 60 60" fill="none" xmlns="http://www.w3.org/2000/svg">
<path d="M59 30C59 46.0163 46.0163 59 30 59C13.9837 59 1 46.0163 1 30C1 13.9837 13.9837 1 30 1C31.8805 1 33.7192 1.17899 35.5 1.52086M50.0001 9C51.4309 10.3631 52.7226 11.8709 53.8517 13.5M56.8411 19C57.5606 20.7538 58.1132 22.5937 58.4791 24.5M40.6043 3C42.3309 3.67865 43.9766 4.51813 45.523 5.5" stroke="white" stroke-width="2" stroke-linecap="round"/>
<circle cx="30.5" cy="31.5" r="8" stroke="white" stroke-width="3" stroke-linecap="round"/>
<path d="M42 55L40.6964 48.1093C40.3755 46.4133 39.4742 44.8819 38.1473 43.778V43.778C33.4259 39.8501 26.5741 39.8501 21.8527 43.778V43.778C20.5258 44.8819 19.6245 46.4133 19.3036 48.1093L18 55" stroke="white" stroke-width="3" stroke-linecap="round"/>
</svg>
