<svg width="114" height="34" viewBox="0 0 114 34" fill="none" xmlns="http://www.w3.org/2000/svg">
<g clip-path="url(#clip0)">
<path d="M108.935 0H4.18982C1.87584 0 0 1.85382 0 4.14063V28.9844C0 31.2712 1.87584 33.125 4.18982 33.125H108.935C111.249 33.125 113.125 31.2712 113.125 28.9844V4.14063C113.125 1.85382 111.249 0 108.935 0Z" fill="white"/>
<path d="M26.9096 15.9923C26.8864 13.4492 29.0166 12.212 29.114 12.1544C27.9076 10.4162 26.0377 10.1787 25.3806 10.1597C23.8101 9.99639 22.2867 11.0884 21.4867 11.0884C20.6707 11.0884 19.4388 10.1755 18.111 10.2023C16.4024 10.2284 14.804 11.206 13.9273 12.7241C12.1181 15.8195 13.4674 20.3684 15.2008 22.8704C16.0679 24.0958 17.0811 25.464 18.4072 25.4159C19.7047 25.363 20.1893 24.5984 21.755 24.5984C23.3063 24.5984 23.7614 25.4159 25.1139 25.3851C26.5064 25.363 27.383 24.1542 28.2198 22.9178C29.2218 21.5133 29.6242 20.1301 29.6402 20.0591C29.6074 20.048 26.9359 19.0404 26.9096 15.9923Z" fill="black"/>
<path d="M24.3561 8.51497C25.0539 7.65255 25.5314 6.47924 25.3988 5.28857C24.3888 5.33276 23.1257 5.97899 22.3984 6.82247C21.7549 7.56575 21.18 8.78404 21.3285 9.92973C22.463 10.0134 23.6279 9.36398 24.3561 8.51497Z" fill="black"/>
<path d="M45.6854 25.2398H43.8722L42.879 22.1555H39.4266L38.4805 25.2398H36.7152L40.1356 14.7393H42.2482L45.6854 25.2398ZM42.5796 20.8614L41.6814 18.1195C41.5864 17.8394 41.4083 17.1798 41.1456 16.1414H41.1137C41.0091 16.588 40.8406 17.2476 40.6091 18.1195L39.7268 20.8614H42.5796Z" fill="black"/>
<path d="M54.4801 21.3613C54.4801 22.6491 54.128 23.6669 53.4238 24.4142C52.7931 25.0793 52.0098 25.4115 51.0749 25.4115C50.0657 25.4115 49.3407 25.0533 48.8992 24.3368H48.8673V28.3254H47.165V20.1612C47.165 19.3517 47.1435 18.5208 47.102 17.6686H48.599L48.694 18.8688H48.7259C49.2936 17.9645 50.1551 17.5132 51.3112 17.5132C52.215 17.5132 52.9695 17.8659 53.5731 18.5721C54.1783 19.2791 54.4801 20.2086 54.4801 21.3613ZM52.746 21.4229C52.746 20.6859 52.5783 20.0784 52.2414 19.6002C51.8733 19.1015 51.3791 18.8522 50.7595 18.8522C50.3395 18.8522 49.9579 18.9911 49.617 19.2649C49.2752 19.541 49.0517 19.9016 48.9471 20.3482C48.8944 20.5565 48.8681 20.727 48.8681 20.8611V22.1236C48.8681 22.6743 49.0389 23.1391 49.3806 23.5186C49.7224 23.8981 50.1663 24.0875 50.7124 24.0875C51.3535 24.0875 51.8525 23.8429 52.2094 23.3553C52.5671 22.8668 52.746 22.223 52.746 21.4229Z" fill="black"/>
<path d="M63.2927 21.3613C63.2927 22.6491 62.9406 23.6669 62.2356 24.4142C61.6057 25.0793 60.8224 25.4115 59.8875 25.4115C58.8783 25.4115 58.1533 25.0533 57.7126 24.3368H57.6807V28.3254H55.9785V20.1612C55.9785 19.3517 55.9569 18.5208 55.9154 17.6686H57.4124L57.5074 18.8688H57.5394C58.1062 17.9645 58.9677 17.5132 60.1246 17.5132C61.0276 17.5132 61.7821 17.8659 62.3873 18.5721C62.9901 19.2791 63.2927 20.2086 63.2927 21.3613ZM61.5586 21.4229C61.5586 20.6859 61.3901 20.0784 61.0532 19.6002C60.6851 19.1015 60.1925 18.8522 59.5721 18.8522C59.1514 18.8522 58.7705 18.9911 58.4288 19.2649C58.0871 19.541 57.8643 19.9016 57.7597 20.3482C57.7078 20.5565 57.6807 20.727 57.6807 20.8611V22.1236C57.6807 22.6743 57.8515 23.1391 58.1917 23.5186C58.5334 23.8973 58.9773 24.0875 59.525 24.0875C60.1661 24.0875 60.6652 23.8429 61.0221 23.3553C61.3797 22.8668 61.5586 22.223 61.5586 21.4229Z" fill="black"/>
<path d="M73.1457 22.2962C73.1457 23.1894 72.832 23.9161 72.202 24.4771C71.5098 25.0902 70.5461 25.3963 69.3077 25.3963C68.1644 25.3963 67.2478 25.1785 66.554 24.7422L66.9484 23.3401C67.6957 23.7867 68.5157 24.0108 69.4091 24.0108C70.0503 24.0108 70.5493 23.8671 70.9078 23.5815C71.2647 23.2959 71.4427 22.9124 71.4427 22.4342C71.4427 22.0082 71.2958 21.6491 71.0012 21.358C70.7082 21.0668 70.2187 20.7962 69.5353 20.5461C67.675 19.8604 66.7456 18.8559 66.7456 17.5351C66.7456 16.6719 67.0714 15.9641 67.7237 15.4133C68.3736 14.8618 69.2407 14.5864 70.3249 14.5864C71.2918 14.5864 72.095 14.7529 72.7361 15.0851L72.3106 16.4565C71.7118 16.1345 71.0347 15.9736 70.277 15.9736C69.6782 15.9736 69.2103 16.1195 68.875 16.4099C68.5916 16.6695 68.4494 16.9859 68.4494 17.3607C68.4494 17.7757 68.6115 18.119 68.9373 18.3888C69.2207 18.6382 69.7357 18.908 70.483 19.1992C71.3972 19.5629 72.0687 19.9882 72.5006 20.4758C72.931 20.9619 73.1457 21.5702 73.1457 22.2962Z" fill="black"/>
<path d="M78.7733 18.9303H76.897V22.6065C76.897 23.5415 77.2275 24.0086 77.8902 24.0086C78.1944 24.0086 78.4467 23.9826 78.6463 23.9305L78.6934 25.2079C78.3581 25.3318 77.9166 25.3942 77.3696 25.3942C76.6974 25.3942 76.172 25.1914 75.7928 24.7866C75.4151 24.381 75.2251 23.7009 75.2251 22.7453V18.9287H74.1073V17.6663H75.2251V16.2799L76.897 15.7812V17.6663H78.7733V18.9303Z" fill="black"/>
<path d="M87.2403 21.3933C87.2403 22.5571 86.9034 23.5127 86.2311 24.2599C85.5261 25.0292 84.5904 25.4127 83.4239 25.4127C82.2997 25.4127 81.4047 25.0442 80.7372 24.3072C80.0698 23.5703 79.736 22.64 79.736 21.5187C79.736 20.3454 80.0793 19.3844 80.7684 18.6372C81.4558 17.8891 82.3836 17.5151 83.5501 17.5151C84.6742 17.5151 85.5788 17.8836 86.2615 18.6214C86.9146 19.337 87.2403 20.261 87.2403 21.3933ZM85.4742 21.4477C85.4742 20.7494 85.3233 20.1505 85.0175 19.6511C84.6606 19.0467 84.1505 18.7453 83.4894 18.7453C82.8051 18.7453 82.2854 19.0475 81.9285 19.6511C81.6227 20.1513 81.4718 20.7597 81.4718 21.4793C81.4718 22.1776 81.6227 22.7765 81.9285 23.2752C82.2965 23.8796 82.8107 24.181 83.4742 24.181C84.1241 24.181 84.6343 23.8732 85.0024 23.2594C85.3162 22.7504 85.4742 22.1452 85.4742 21.4477Z" fill="black"/>
<path d="M92.7733 19.1481C92.6049 19.1173 92.4252 19.1015 92.2368 19.1015C91.638 19.1015 91.1749 19.3248 90.8492 19.7722C90.5657 20.1667 90.4236 20.6654 90.4236 21.2674V25.2403H88.7222L88.7381 20.0531C88.7381 19.1804 88.7166 18.3859 88.6743 17.6694H90.1569L90.2192 19.1181H90.2663C90.446 18.6202 90.7294 18.2194 91.1174 17.9188C91.4967 17.6481 91.9063 17.5132 92.3478 17.5132C92.5051 17.5132 92.6472 17.5242 92.7733 17.544V19.1481Z" fill="black"/>
<path d="M100.386 21.0968C100.386 21.3982 100.366 21.6522 100.323 21.8598H95.2166C95.2366 22.6078 95.4833 23.1798 95.9576 23.5744C96.3879 23.9271 96.9444 24.1038 97.6278 24.1038C98.3839 24.1038 99.0738 23.9847 99.6941 23.7456L99.9608 24.9134C99.2358 25.2258 98.3799 25.3813 97.3923 25.3813C96.2043 25.3813 95.2717 25.0357 94.5931 24.3452C93.916 23.6548 93.5767 22.7277 93.5767 21.5647C93.5767 20.4229 93.8921 19.4721 94.5236 18.7138C95.1847 17.9043 96.0781 17.4995 97.2023 17.4995C98.3065 17.4995 99.1424 17.9043 99.7101 18.7138C100.16 19.3569 100.386 20.1523 100.386 21.0968ZM98.7624 20.6604C98.7736 20.1617 98.6626 19.7309 98.4318 19.3672C98.1372 18.8993 97.6845 18.6657 97.0753 18.6657C96.5188 18.6657 96.0661 18.8938 95.7204 19.3514C95.437 19.7151 95.2685 20.1515 95.2166 20.6596H98.7624V20.6604Z" fill="black"/>
<path d="M42.8178 12.1749H41.9323V10.8696H38.3943V12.1749H37.4941L37.4646 10.1331H37.8962C38.1102 9.92893 38.2812 9.63238 38.4091 9.24348C38.537 8.85214 38.6193 8.40976 38.6562 7.91634L38.7964 5.56104H42.1832V10.1331H42.8657L42.8178 12.1749ZM38.9514 10.1331H41.2535V6.30482H39.6856L39.597 7.79967C39.5306 8.79867 39.3154 9.57648 38.9514 10.1331Z" fill="black"/>
<path d="M43.6899 8.86065C43.6899 8.47418 43.7674 8.12659 43.9223 7.8179C44.0773 7.50678 44.295 7.26857 44.5754 7.10329C44.8557 6.93557 45.1779 6.85171 45.5419 6.85171C46.0806 6.85171 46.5172 7.02308 46.8517 7.3658C47.1886 7.70852 47.3706 8.16305 47.3977 8.7294L47.4014 8.93722C47.4014 9.32612 47.3251 9.67371 47.1726 9.97997C47.0226 10.2862 46.8061 10.5232 46.5233 10.6909C46.2429 10.8587 45.9183 10.9425 45.5493 10.9425C44.9861 10.9425 44.5348 10.7578 44.1954 10.3883C43.8584 10.0164 43.6899 9.52179 43.6899 8.9044V8.86065ZM44.5864 8.93722C44.5864 9.34314 44.6713 9.66155 44.841 9.89247C45.0107 10.1209 45.2468 10.2352 45.5493 10.2352C45.8518 10.2352 46.0867 10.1185 46.254 9.88517C46.4237 9.65183 46.5085 9.31032 46.5085 8.86065C46.5085 8.46202 46.4212 8.14604 46.2466 7.9127C46.0744 7.67935 45.8396 7.56268 45.5419 7.56268C45.2493 7.56268 45.0168 7.67814 44.8447 7.90905C44.6725 8.13753 44.5864 8.48025 44.5864 8.93722Z" fill="black"/>
<path d="M50.1772 10.2352C50.401 10.2352 50.5867 10.1708 50.7343 10.042C50.8818 9.91313 50.9605 9.75392 50.9704 9.56433H51.8152C51.8054 9.80982 51.7279 10.0395 51.5828 10.2534C51.4377 10.4649 51.2409 10.6326 50.9925 10.7566C50.7441 10.8805 50.476 10.9425 50.1883 10.9425C49.6299 10.9425 49.1872 10.7639 48.8601 10.4065C48.533 10.0492 48.3694 9.55582 48.3694 8.92628V8.83513C48.3694 8.23476 48.5318 7.7547 48.8564 7.39497C49.1811 7.0328 49.6238 6.85171 50.1846 6.85171C50.6593 6.85171 51.0454 6.98905 51.343 7.26371C51.6431 7.53594 51.8005 7.89447 51.8152 8.33928H50.9704C50.9605 8.11322 50.8818 7.92728 50.7343 7.78144C50.5892 7.6356 50.4035 7.56268 50.1772 7.56268C49.887 7.56268 49.6631 7.6672 49.5057 7.87624C49.3483 8.08284 49.2684 8.39761 49.2659 8.82055V8.96274C49.2659 9.39053 49.3434 9.71017 49.4984 9.92163C49.6558 10.1307 49.882 10.2352 50.1772 10.2352Z" fill="black"/>
<path d="M56.0114 7.62831H54.7165V10.8696H53.82V7.62831H52.5398V6.92463H56.0114V7.62831Z" fill="black"/>
<path d="M58.4294 9.60079L59.2411 6.92463H60.1966L58.6102 11.4675C58.3667 12.1311 57.9535 12.4629 57.3706 12.4629C57.2402 12.4629 57.0963 12.441 56.9389 12.3973V11.7118L57.1086 11.7227C57.3349 11.7227 57.5046 11.6814 57.6178 11.5988C57.7334 11.5186 57.8244 11.3825 57.8908 11.1904L58.0199 10.8514L56.618 6.92463H57.5846L58.4294 9.60079Z" fill="black"/>
<path d="M64.4776 10.8696H63.5811V7.63925H62.0243V10.8696H61.1278V6.92463H64.4776V10.8696Z" fill="black"/>
<path d="M69.1903 10.8696H68.2938V9.27629H66.7407V10.8696H65.8442V6.92463H66.7407V8.56897H68.2938V6.92463H69.1903V10.8696Z" fill="black"/>
<path d="M70.3576 8.86065C70.3576 8.47418 70.4351 8.12659 70.5901 7.8179C70.745 7.50678 70.9627 7.26857 71.2431 7.10329C71.5235 6.93557 71.8457 6.85171 72.2097 6.85171C72.7483 6.85171 73.1849 7.02308 73.5194 7.3658C73.8563 7.70852 74.0383 8.16305 74.0654 8.7294L74.0691 8.93722C74.0691 9.32612 73.9928 9.67371 73.8403 9.97997C73.6903 10.2862 73.4739 10.5232 73.191 10.6909C72.9106 10.8587 72.586 10.9425 72.217 10.9425C71.6538 10.9425 71.2025 10.7578 70.8631 10.3883C70.5261 10.0164 70.3576 9.52179 70.3576 8.9044V8.86065ZM71.2541 8.93722C71.2541 9.34314 71.339 9.66155 71.5087 9.89247C71.6784 10.1209 71.9145 10.2352 72.217 10.2352C72.5196 10.2352 72.7545 10.1185 72.9217 9.88517C73.0914 9.65183 73.1763 9.31032 73.1763 8.86065C73.1763 8.46202 73.089 8.14604 72.9143 7.9127C72.7422 7.67935 72.5073 7.56268 72.2097 7.56268C71.917 7.56268 71.6846 7.67814 71.5124 7.90905C71.3402 8.13753 71.2541 8.48025 71.2541 8.93722Z" fill="black"/>
<path d="M77.5326 10.8696V6.92463H79.1522C79.6982 6.92463 80.1139 7.01943 80.3992 7.20902C80.6845 7.39618 80.8271 7.66598 80.8271 8.01843C80.8271 8.20073 80.7693 8.3648 80.6537 8.51064C80.5406 8.65405 80.3721 8.76464 80.1483 8.84242C80.409 8.8959 80.6156 9.00406 80.7681 9.16691C80.9206 9.32977 80.9968 9.52179 80.9968 9.74298C80.9968 10.11 80.8591 10.3895 80.5836 10.5816C80.3106 10.7736 79.9171 10.8696 79.4031 10.8696H77.5326ZM78.4291 9.18879V10.1696H79.4104C79.8704 10.1696 80.1003 10.0067 80.1003 9.681C80.1003 9.35286 79.8667 9.18879 79.3994 9.18879H78.4291ZM78.4291 8.55439H79.167C79.6761 8.55439 79.9306 8.40612 79.9306 8.10958C79.9306 7.79845 79.6896 7.63803 79.2075 7.62831H78.4291V8.55439Z" fill="black"/>
</g>
<defs>
<clipPath id="clip0">
<rect width="113.125" height="33.125" fill="white"/>
</clipPath>
</defs>
</svg>
