<svg width="88" height="24" viewBox="0 0 88 24" fill="none" xmlns="http://www.w3.org/2000/svg">
  <path d="M13.9095 10.9923C13.8864 8.44924 16.0166 7.21202 16.114 7.15442C14.9076 5.41616 13.0377 5.17865 12.3806 5.15972C10.8101 4.99639 9.28671 6.08842 8.48669 6.08842C7.67071 6.08842 6.43875 5.1755 5.11099 5.20233C3.40238 5.22836 1.80395 6.20599 0.927287 7.72411C-0.881924 10.8195 0.4674 15.3684 2.20076 17.8704C3.06784 19.0958 4.08103 20.464 5.4072 20.4159C6.70463 20.363 7.18927 19.5984 8.75496 19.5984C10.3063 19.5984 10.7614 20.4159 12.1139 20.3851C13.5063 20.363 14.383 19.1542 15.2197 17.9178C16.2217 16.5133 16.6242 15.1301 16.6401 15.0591C16.6074 15.048 13.9359 14.0404 13.9095 10.9923Z" fill="white"/>
  <path d="M11.356 3.51497C12.0538 2.65255 12.5313 1.47924 12.3988 0.288574C11.3888 0.332761 10.1257 0.978987 9.39832 1.82247C8.75479 2.56575 8.17993 3.78404 8.32844 4.92973C9.46299 5.01336 10.6279 4.36398 11.356 3.51497Z" fill="white"/>
  <path d="M32.6854 20.2398H30.8722L29.879 17.1555H26.4266L25.4805 20.2398H23.7152L27.1356 9.73926H29.2482L32.6854 20.2398ZM29.5796 15.8614L28.6814 13.1195C28.5864 12.8394 28.4083 12.1798 28.1456 11.1414H28.1137C28.0091 11.588 27.8406 12.2476 27.6091 13.1195L26.7268 15.8614H29.5796Z" fill="white"/>
  <path d="M41.4801 16.3613C41.4801 17.6491 41.128 18.6669 40.4238 19.4142C39.793 20.0793 39.0098 20.4115 38.0748 20.4115C37.0656 20.4115 36.3407 20.0533 35.8992 19.3368H35.8672V23.3254H34.165V15.1612C34.165 14.3517 34.1434 13.5208 34.1019 12.6686H35.599L35.694 13.8688H35.7259C36.2936 12.9645 37.1551 12.5132 38.3112 12.5132C39.215 12.5132 39.9695 12.8659 40.5731 13.5721C41.1783 14.2791 41.4801 15.2086 41.4801 16.3613ZM39.7459 16.4229C39.7459 15.6859 39.5783 15.0784 39.2413 14.6002C38.8733 14.1015 38.379 13.8522 37.7595 13.8522C37.3395 13.8522 36.9579 13.9911 36.6169 14.2649C36.2752 14.541 36.0517 14.9016 35.9471 15.3482C35.8944 15.5565 35.868 15.727 35.868 15.8611V17.1236C35.868 17.6743 36.0389 18.1391 36.3806 18.5186C36.7223 18.8981 37.1662 19.0875 37.7124 19.0875C38.3535 19.0875 38.8525 18.8429 39.2094 18.3553C39.5671 17.8668 39.7459 17.223 39.7459 16.4229Z" fill="white"/>
  <path d="M50.2928 16.3613C50.2928 17.6491 49.9407 18.6669 49.2357 19.4142C48.6057 20.0793 47.8225 20.4115 46.8875 20.4115C45.8783 20.4115 45.1534 20.0533 44.7126 19.3368H44.6807V23.3254H42.9785V15.1612C42.9785 14.3517 42.9569 13.5208 42.9154 12.6686H44.4124L44.5075 13.8688H44.5394C45.1063 12.9645 45.9678 12.5132 47.1247 12.5132C48.0277 12.5132 48.7822 12.8659 49.3874 13.5721C49.9902 14.2791 50.2928 15.2086 50.2928 16.3613ZM48.5586 16.4229C48.5586 15.6859 48.3901 15.0784 48.0532 14.6002C47.6851 14.1015 47.1925 13.8522 46.5722 13.8522C46.1514 13.8522 45.7705 13.9911 45.4288 14.2649C45.0871 14.541 44.8643 14.9016 44.7597 15.3482C44.7078 15.5565 44.6807 15.727 44.6807 15.8611V17.1236C44.6807 17.6743 44.8516 18.1391 45.1917 18.5186C45.5334 18.8973 45.9773 19.0875 46.5251 19.0875C47.1662 19.0875 47.6652 18.8429 48.0221 18.3553C48.3798 17.8668 48.5586 17.223 48.5586 16.4229Z" fill="white"/>
  <path d="M60.1457 17.2962C60.1457 18.1894 59.8319 18.9161 59.202 19.4771C58.5097 20.0902 57.546 20.3963 56.3077 20.3963C55.1644 20.3963 54.2478 20.1785 53.554 19.7422L53.9484 18.3401C54.6957 18.7867 55.5157 19.0108 56.4091 19.0108C57.0502 19.0108 57.5492 18.8671 57.9077 18.5815C58.2646 18.2959 58.4427 17.9124 58.4427 17.4342C58.4427 17.0082 58.2958 16.6491 58.0011 16.358C57.7081 16.0668 57.2187 15.7962 56.5352 15.5461C54.6749 14.8604 53.7456 13.8559 53.7456 12.5351C53.7456 11.6719 54.0713 10.9641 54.7236 10.4133C55.3736 9.8618 56.2406 9.58643 57.3249 9.58643C58.2918 9.58643 59.095 9.75291 59.7361 10.0851L59.3105 11.4565C58.7117 11.1345 58.0347 10.9736 57.277 10.9736C56.6782 10.9736 56.2103 11.1195 55.875 11.4099C55.5915 11.6695 55.4494 11.9859 55.4494 12.3607C55.4494 12.7757 55.6115 13.119 55.9372 13.3888C56.2207 13.6382 56.7357 13.908 57.483 14.1992C58.3972 14.5629 59.0686 14.9882 59.5006 15.4758C59.9309 15.9619 60.1457 16.5702 60.1457 17.2962Z" fill="white"/>
  <path d="M65.7732 13.9303H63.897V17.6065C63.897 18.5415 64.2275 19.0086 64.8902 19.0086C65.1944 19.0086 65.4467 18.9826 65.6463 18.9305L65.6934 20.2079C65.3581 20.3318 64.9165 20.3942 64.3696 20.3942C63.6974 20.3942 63.172 20.1914 62.7928 19.7866C62.4151 19.381 62.2251 18.7009 62.2251 17.7453V13.9287H61.1073V12.6663H62.2251V11.2799L63.897 10.7812V12.6663H65.7732V13.9303Z" fill="white"/>
  <path d="M74.2403 16.3933C74.2403 17.5571 73.9034 18.5127 73.2311 19.2599C72.5261 20.0292 71.5904 20.4127 70.4239 20.4127C69.2997 20.4127 68.4047 20.0442 67.7372 19.3072C67.0698 18.5703 66.736 17.64 66.736 16.5187C66.736 15.3454 67.0793 14.3844 67.7684 13.6372C68.4558 12.8891 69.3836 12.5151 70.5501 12.5151C71.6742 12.5151 72.5788 12.8836 73.2615 13.6214C73.9146 14.337 74.2403 15.261 74.2403 16.3933ZM72.4742 16.4477C72.4742 15.7494 72.3233 15.1505 72.0175 14.6511C71.6606 14.0467 71.1505 13.7453 70.4894 13.7453C69.8051 13.7453 69.2854 14.0475 68.9285 14.6511C68.6227 15.1513 68.4718 15.7597 68.4718 16.4793C68.4718 17.1776 68.6227 17.7765 68.9285 18.2752C69.2965 18.8796 69.8107 19.181 70.4742 19.181C71.1241 19.181 71.6343 18.8732 72.0024 18.2594C72.3162 17.7504 72.4742 17.1452 72.4742 16.4477Z" fill="white"/>
  <path d="M79.7733 14.1481C79.6049 14.1173 79.4252 14.1015 79.2368 14.1015C78.638 14.1015 78.1749 14.3248 77.8491 14.7722C77.5657 15.1667 77.4236 15.6654 77.4236 16.2674V20.2403H75.7222L75.7381 15.0531C75.7381 14.1804 75.7166 13.3859 75.6743 12.6694H77.1569L77.2192 14.1181H77.2663C77.4459 13.6202 77.7294 13.2194 78.1174 12.9188C78.4967 12.6481 78.9062 12.5132 79.3478 12.5132C79.5051 12.5132 79.6472 12.5242 79.7733 12.544V14.1481Z" fill="white"/>
  <path d="M87.3855 16.0968C87.3855 16.3982 87.3656 16.6522 87.3233 16.8598H82.2166C82.2366 17.6078 82.4833 18.1798 82.9575 18.5744C83.3879 18.9271 83.9444 19.1038 84.6278 19.1038C85.3839 19.1038 86.0738 18.9847 86.6941 18.7456L86.9608 19.9134C86.2358 20.2258 85.3799 20.3813 84.3923 20.3813C83.2042 20.3813 82.2717 20.0357 81.593 19.3452C80.916 18.6548 80.5767 17.7277 80.5767 16.5647C80.5767 15.4229 80.892 14.4721 81.5236 13.7138C82.1847 12.9043 83.0781 12.4995 84.2023 12.4995C85.3065 12.4995 86.1424 12.9043 86.7101 13.7138C87.1596 14.3569 87.3855 15.1523 87.3855 16.0968ZM85.7624 15.6604C85.7735 15.1617 85.6626 14.7309 85.4318 14.3672C85.1372 13.8993 84.6845 13.6657 84.0753 13.6657C83.5188 13.6657 83.0661 13.8938 82.7204 14.3514C82.437 14.7151 82.2685 15.1515 82.2166 15.6596H85.7624V15.6604Z" fill="white"/>
  <path d="M29.8178 7.17485H28.9323V5.86959H25.3943V7.17485H24.4941L24.4646 5.1331H24.8962C25.1102 4.92893 25.2812 4.63238 25.4091 4.24348C25.537 3.85214 25.6193 3.40976 25.6562 2.91634L25.7964 0.561035H29.1832V5.1331H29.8657L29.8178 7.17485ZM25.9514 5.1331H28.2535V1.30482H26.6856L26.597 2.79967C26.5306 3.79867 26.3154 4.57648 25.9514 5.1331Z" fill="white"/>
  <path d="M30.6899 3.86065C30.6899 3.47418 30.7674 3.12659 30.9223 2.8179C31.0773 2.50678 31.295 2.26857 31.5754 2.10329C31.8557 1.93557 32.1779 1.85171 32.5419 1.85171C33.0806 1.85171 33.5172 2.02308 33.8517 2.3658C34.1886 2.70852 34.3706 3.16305 34.3977 3.7294L34.4014 3.93722C34.4014 4.32612 34.3251 4.67371 34.1726 4.97997C34.0226 5.28623 33.8061 5.52322 33.5233 5.69094C33.2429 5.85865 32.9183 5.94251 32.5493 5.94251C31.9861 5.94251 31.5348 5.75778 31.1954 5.38832C30.8584 5.01643 30.6899 4.52179 30.6899 3.9044V3.86065ZM31.5864 3.93722C31.5864 4.34314 31.6713 4.66155 31.841 4.89247C32.0107 5.12095 32.2468 5.23519 32.5493 5.23519C32.8518 5.23519 33.0867 5.11852 33.254 4.88517C33.4237 4.65183 33.5085 4.31032 33.5085 3.86065C33.5085 3.46202 33.4212 3.14604 33.2466 2.9127C33.0744 2.67935 32.8396 2.56268 32.5419 2.56268C32.2493 2.56268 32.0168 2.67814 31.8447 2.90905C31.6725 3.13753 31.5864 3.48025 31.5864 3.93722Z" fill="white"/>
  <path d="M37.1772 5.23519C37.401 5.23519 37.5867 5.17077 37.7343 5.04195C37.8818 4.91313 37.9605 4.75392 37.9704 4.56433H38.8152C38.8054 4.80982 38.7279 5.03952 38.5828 5.25342C38.4377 5.46488 38.2409 5.6326 37.9925 5.75656C37.7441 5.88053 37.476 5.94251 37.1883 5.94251C36.6299 5.94251 36.1872 5.76385 35.8601 5.40655C35.533 5.04924 35.3694 4.55582 35.3694 3.92628V3.83513C35.3694 3.23476 35.5318 2.7547 35.8564 2.39497C36.1811 2.0328 36.6238 1.85171 37.1846 1.85171C37.6593 1.85171 38.0454 1.98905 38.343 2.26371C38.6431 2.53594 38.8005 2.89447 38.8152 3.33928H37.9704C37.9605 3.11322 37.8818 2.92728 37.7343 2.78144C37.5892 2.6356 37.4035 2.56268 37.1772 2.56268C36.887 2.56268 36.6631 2.6672 36.5057 2.87624C36.3483 3.08284 36.2684 3.39761 36.2659 3.82055V3.96274C36.2659 4.39053 36.3434 4.71017 36.4984 4.92163C36.6558 5.13067 36.882 5.23519 37.1772 5.23519Z" fill="white"/>
  <path d="M43.0114 2.62831H41.7165V5.86959H40.82V2.62831H39.5398V1.92463H43.0114V2.62831Z" fill="white"/>
  <path d="M45.4294 4.60079L46.2411 1.92463H47.1966L45.6102 6.46753C45.3667 7.1311 44.9535 7.46288 44.3706 7.46288C44.2402 7.46288 44.0963 7.44101 43.9389 7.39726V6.71181L44.1086 6.72275C44.3349 6.72275 44.5046 6.68143 44.6178 6.59879C44.7334 6.51857 44.8244 6.38246 44.8908 6.19044L45.0199 5.85136L43.618 1.92463H44.5846L45.4294 4.60079Z" fill="white"/>
  <path d="M51.4776 5.86959H50.5811V2.63925H49.0243V5.86959H48.1278V1.92463H51.4776V5.86959Z" fill="white"/>
  <path d="M56.1903 5.86959H55.2938V4.27629H53.7407V5.86959H52.8442V1.92463H53.7407V3.56897H55.2938V1.92463H56.1903V5.86959Z" fill="white"/>
  <path d="M57.3576 3.86065C57.3576 3.47418 57.4351 3.12659 57.5901 2.8179C57.745 2.50678 57.9627 2.26857 58.2431 2.10329C58.5235 1.93557 58.8457 1.85171 59.2097 1.85171C59.7483 1.85171 60.1849 2.02308 60.5194 2.3658C60.8563 2.70852 61.0383 3.16305 61.0654 3.7294L61.0691 3.93722C61.0691 4.32612 60.9928 4.67371 60.8403 4.97997C60.6903 5.28623 60.4739 5.52322 60.191 5.69094C59.9106 5.85865 59.586 5.94251 59.217 5.94251C58.6538 5.94251 58.2025 5.75778 57.8631 5.38832C57.5261 5.01643 57.3576 4.52179 57.3576 3.9044V3.86065ZM58.2541 3.93722C58.2541 4.34314 58.339 4.66155 58.5087 4.89247C58.6784 5.12095 58.9145 5.23519 59.217 5.23519C59.5196 5.23519 59.7545 5.11852 59.9217 4.88517C60.0914 4.65183 60.1763 4.31032 60.1763 3.86065C60.1763 3.46202 60.089 3.14604 59.9143 2.9127C59.7422 2.67935 59.5073 2.56268 59.2097 2.56268C58.917 2.56268 58.6846 2.67814 58.5124 2.90905C58.3402 3.13753 58.2541 3.48025 58.2541 3.93722Z" fill="white"/>
  <path d="M64.5326 5.86959V1.92463H66.1522C66.6982 1.92463 67.1139 2.01943 67.3992 2.20902C67.6845 2.39618 67.8271 2.66598 67.8271 3.01843C67.8271 3.20073 67.7693 3.3648 67.6537 3.51064C67.5406 3.65405 67.3721 3.76464 67.1483 3.84242C67.409 3.8959 67.6156 4.00406 67.7681 4.16691C67.9206 4.32977 67.9968 4.52179 67.9968 4.74298C67.9968 5.11001 67.8591 5.38953 67.5836 5.58156C67.3106 5.77358 66.9171 5.86959 66.4031 5.86959H64.5326ZM65.4291 4.18879V5.16956H66.4104C66.8704 5.16956 67.1003 5.00671 67.1003 4.681C67.1003 4.35286 66.8667 4.18879 66.3994 4.18879H65.4291ZM65.4291 3.55439H66.167C66.6761 3.55439 66.9306 3.40612 66.9306 3.10958C66.9306 2.79845 66.6896 2.63803 66.2075 2.62831H65.4291V3.55439Z" fill="white"/>
</svg>
