<svg width="592" height="349" viewBox="0 0 592 349" fill="none" xmlns="http://www.w3.org/2000/svg">
<mask id="path-1-inside-1" fill="white">
<path fill-rule="evenodd" clip-rule="evenodd" d="M591.601 0C556.588 49.25 536 109.471 536 174.5C536 239.529 556.588 299.75 591.601 349H0V0L591.601 0Z"/>
</mask>
<path fill-rule="evenodd" clip-rule="evenodd" d="M591.601 0C556.588 49.25 536 109.471 536 174.5C536 239.529 556.588 299.75 591.601 349H0V0L591.601 0Z" fill="#0B0B0B"/>
<path d="M591.601 0L592.008 0.289711L592.57 -0.5H591.601V0ZM591.601 349V349.5H592.57L592.008 348.71L591.601 349ZM0 349H-0.5V349.5H0V349ZM0 0L0 -0.5H-0.5V0H0ZM536.5 174.5C536.5 109.578 557.053 49.4579 592.008 0.289711L591.193 -0.289711C556.122 49.0421 535.5 109.364 535.5 174.5H536.5ZM592.008 348.71C557.053 299.542 536.5 239.422 536.5 174.5H535.5C535.5 239.636 556.122 299.958 591.193 349.29L592.008 348.71ZM591.601 348.5H0V349.5H591.601V348.5ZM0.5 349V0H-0.5V349H0.5ZM0 0.5H591.601V-0.5H0L0 0.5Z" fill="#444444" mask="url(#path-1-inside-1)"/>
</svg>
