<svg width="30" height="30" viewBox="0 0 30 30" fill="none" xmlns="http://www.w3.org/2000/svg">
  <circle cx="15.1504" cy="14.5879" r="14.0196" stroke="#D8004E"/>
  <path d="M27.2916 7.57861C27.5703 8.06136 27.6064 8.72284 27.3218 9.5764C27.0374 10.4292 26.4497 11.4151 25.5806 12.4716C23.8447 14.5815 21.0568 16.8881 17.6227 18.8708C14.1885 20.8534 10.797 22.1146 8.10187 22.5629C6.75234 22.7874 5.60472 22.8034 4.72398 22.6232C3.84247 22.4429 3.28767 22.0809 3.00895 21.5982C2.73023 21.1154 2.69413 20.454 2.97873 19.6004C3.26308 18.7476 3.85079 17.7617 4.71995 16.7052C6.45578 14.5953 9.24371 12.2887 12.6778 10.306C16.112 8.32335 19.5035 7.06221 22.1986 6.61391C23.5482 6.38943 24.6958 6.37339 25.5765 6.55354C26.458 6.73385 27.0128 7.09586 27.2916 7.57861Z" stroke="#D8004E"/>
  <path d="M19.1419 18.3456C19.2134 18.0789 19.0551 17.8047 18.7884 17.7332L14.4417 16.5685C14.175 16.4971 13.9008 16.6554 13.8293 16.9221C13.7578 17.1888 13.9161 17.463 14.1829 17.5345L18.0466 18.5697L17.0113 22.4334C16.9398 22.7002 17.0981 22.9743 17.3648 23.0458C17.6316 23.1173 17.9057 22.959 17.9772 22.6923L19.1419 18.3456ZM18.123 19.1029L18.9089 18.6492L18.4089 17.7832L17.623 18.2369L18.123 19.1029Z" fill="#D8004E"/>
</svg>
