<svg width="17" height="23" viewBox="0 0 17 23" fill="none" xmlns="http://www.w3.org/2000/svg">
<path d="M16.9058 1.52163C16.9204 1.10767 16.5967 0.760227 16.1828 0.745586L9.43698 0.507001C9.02302 0.49236 8.67558 0.816068 8.66094 1.23002C8.6463 1.64398 8.97 1.99142 9.38396 2.00606L15.3802 2.21814L15.1681 8.21439C15.1535 8.62834 15.4772 8.97579 15.8912 8.99043C16.3051 9.00507 16.6526 8.68136 16.6672 8.26741L16.9058 1.52163ZM1.14487 14.4559C0.841806 14.7382 0.825022 15.2128 1.10738 15.5159C1.38974 15.8189 1.86431 15.8357 2.16738 15.5533L1.14487 14.4559ZM15.645 0.946374L1.14487 14.4559L2.16738 15.5533L16.6675 2.04386L15.645 0.946374Z" fill="#969696"/>
<path d="M6.90676 20.9762C6.89147 21.3902 7.21464 21.7381 7.62857 21.7534L14.374 22.0025C14.7879 22.0178 15.1359 21.6946 15.1511 21.2807C15.1664 20.8668 14.8433 20.5188 14.4293 20.5035L8.43342 20.2821L8.65486 14.2862C8.67015 13.8723 8.34699 13.5243 7.93306 13.509C7.51912 13.4937 7.17117 13.8169 7.15589 14.2308L6.90676 20.9762ZM13.5543 16.5495C13.8578 16.2677 13.8754 15.7931 13.5935 15.4896C13.3116 15.1861 12.8371 15.1686 12.5335 15.4505L13.5543 16.5495ZM14.5136 13.4697C14.2207 13.7626 14.2207 14.2374 14.5136 14.5303C14.8065 14.8232 15.2814 14.8232 15.5743 14.5303L14.5136 13.4697ZM16.5743 13.5303C16.8672 13.2374 16.8672 12.7626 16.5743 12.4697C16.2814 12.1768 15.8065 12.1768 15.5136 12.4697L16.5743 13.5303ZM8.16665 21.5534L13.5543 16.5495L12.5335 15.4505L7.14585 20.4544L8.16665 21.5534ZM15.5743 14.5303L16.5743 13.5303L15.5136 12.4697L14.5136 13.4697L15.5743 14.5303Z" fill="#D8004E"/>
</svg>
