<svg width="17" height="16" viewBox="0 0 17 16" fill="none" xmlns="http://www.w3.org/2000/svg">
<path d="M16.9058 1.52163C16.9204 1.10767 16.5967 0.760227 16.1828 0.745586L9.43698 0.507001C9.02302 0.49236 8.67558 0.816068 8.66094 1.23002C8.6463 1.64398 8.97 1.99142 9.38396 2.00606L15.3802 2.21814L15.1681 8.21439C15.1535 8.62834 15.4772 8.97579 15.8912 8.99043C16.3051 9.00507 16.6526 8.68136 16.6672 8.26741L16.9058 1.52163ZM1.14487 14.4559C0.841806 14.7382 0.825022 15.2128 1.10738 15.5159C1.38974 15.8189 1.86431 15.8357 2.16738 15.5533L1.14487 14.4559ZM15.645 0.946374L1.14487 14.4559L2.16738 15.5533L16.6675 2.04386L15.645 0.946374Z" fill="#969696"/>
<path d="M12.6558 8.50049L7.64893 13.5239" stroke="#D8004E" stroke-width="1.5" stroke-linecap="round" stroke-linejoin="round"/>
</svg>
