<svg width="807" height="216" viewBox="0 0 807 216" fill="none" xmlns="http://www.w3.org/2000/svg">
<g opacity="0.2" clip-path="url(#clip0)">
<path d="M214.219 0.334106H0.0727539V215.664H214.219V0.334106Z" stroke="white" stroke-width="0.5" stroke-miterlimit="10"/>
<path d="M13.3935 215.664L8.17578 116.464L10.8031 0.334106L220.583 2.08294L221.471 213.916L13.3935 215.664Z" stroke="white" stroke-width="0.5" stroke-miterlimit="10"/>
<path d="M26.7156 215.664L16.2803 118.957L21.4979 0.334106L226.948 3.83178L228.688 212.167L26.7156 215.664Z" stroke="white" stroke-width="0.5" stroke-miterlimit="10"/>
<path d="M40.0387 215.664L24.3486 121.413L32.1936 0.334106L233.278 5.58062L235.905 210.418L40.0387 215.664Z" stroke="white" stroke-width="0.5" stroke-miterlimit="10"/>
<path d="M53.3593 215.702L32.4517 123.906L42.887 0.334106L239.641 7.32946L243.12 208.669L53.3593 215.702Z" stroke="white" stroke-width="0.5" stroke-miterlimit="10"/>
<path d="M66.644 215.702L40.5557 126.399L53.5813 0.334106L245.969 9.1155L250.336 206.92L66.644 215.702Z" stroke="white" stroke-width="0.5" stroke-miterlimit="10"/>
<path d="M79.9671 215.702L48.624 128.892L64.277 0.334106L252.335 10.8643L257.553 205.171L79.9671 215.702Z" stroke="white" stroke-width="0.5" stroke-miterlimit="10"/>
<path d="M93.2883 215.702L56.7275 131.348L74.9709 0.334106L258.663 12.6132L264.768 203.422L93.2883 215.702Z" stroke="white" stroke-width="0.5" stroke-miterlimit="10"/>
<path d="M106.61 215.703L64.8315 133.843L85.6652 0.372925L265.027 14.3636L271.984 201.712L106.61 215.703Z" stroke="white" stroke-width="0.5" stroke-miterlimit="10"/>
<path d="M119.931 215.703L72.8975 136.336L96.3955 0.372925L271.391 16.1125L279.236 199.964L119.931 215.703Z" stroke="white" stroke-width="0.5" stroke-miterlimit="10"/>
<path d="M133.215 215.703L81.001 138.829L107.089 0.372925L277.718 17.8613L286.451 198.215L133.215 215.703Z" stroke="white" stroke-width="0.5" stroke-miterlimit="10"/>
<path d="M146.538 215.703L89.0693 141.285L117.785 0.372925L284.084 19.6473L293.669 196.466L146.538 215.703Z" stroke="white" stroke-width="0.5" stroke-miterlimit="10"/>
<path d="M159.859 215.703L97.1733 143.778L128.479 0.372925L290.412 21.3962L300.885 194.717L159.859 215.703Z" stroke="white" stroke-width="0.5" stroke-miterlimit="10"/>
<path d="M173.18 215.703L105.276 146.271L139.173 0.372925L296.776 23.145L308.099 192.968L173.18 215.703Z" stroke="white" stroke-width="0.5" stroke-miterlimit="10"/>
<path d="M186.503 215.703L113.344 148.764L149.868 0.372925L303.105 24.8938L315.316 191.219L186.503 215.703Z" stroke="white" stroke-width="0.5" stroke-miterlimit="10"/>
<path d="M199.788 215.74L121.449 151.219L160.563 0.372925L309.47 26.6427L322.533 189.471L199.788 215.74Z" stroke="white" stroke-width="0.5" stroke-miterlimit="10"/>
<path d="M213.109 215.74L129.552 153.712L171.257 0.372925L315.797 28.3915L329.748 187.722L213.109 215.74Z" stroke="white" stroke-width="0.5" stroke-miterlimit="10"/>
<path d="M226.432 215.74L137.62 156.205L181.989 0.372925L322.163 30.1404L336.965 185.973L226.432 215.74Z" stroke="white" stroke-width="0.5" stroke-miterlimit="10"/>
<path d="M239.753 215.74L145.724 158.698L192.683 0.409302L328.491 31.9256L344.181 184.223L239.753 215.74Z" stroke="white" stroke-width="0.5" stroke-miterlimit="10"/>
<path d="M253.038 215.74L153.828 161.153L203.377 0.409302L334.855 33.6744L351.397 182.474L253.038 215.74Z" stroke="white" stroke-width="0.5" stroke-miterlimit="10"/>
<path d="M266.358 215.74L161.894 163.647L214.07 0.409302L341.182 35.4233L358.611 180.726L266.358 215.74Z" stroke="white" stroke-width="0.5" stroke-miterlimit="10"/>
<path d="M279.682 215.74L170 166.14L224.767 0.409302L347.549 37.1721L365.829 178.977L279.682 215.74Z" stroke="white" stroke-width="0.5" stroke-miterlimit="10"/>
<path d="M293.003 215.74L178.066 168.633L235.46 0.409302L353.876 38.9209L373.081 177.228L293.003 215.74Z" stroke="white" stroke-width="0.5" stroke-miterlimit="10"/>
<path d="M306.324 215.74L186.169 171.088L246.154 0.409302L360.24 40.6698L380.296 175.479L306.324 215.74Z" stroke="white" stroke-width="0.5" stroke-miterlimit="10"/>
<path d="M319.611 215.74L194.276 173.581L256.851 0.409302L366.57 42.4558L387.515 173.73L319.611 215.74Z" stroke="white" stroke-width="0.5" stroke-miterlimit="10"/>
<path d="M332.931 215.777L202.341 176.074L267.544 0.409302L372.933 44.2046L394.729 171.981L332.931 215.777Z" stroke="white" stroke-width="0.5" stroke-miterlimit="10"/>
<path d="M346.253 215.777L210.445 178.567L278.275 0.409302L379.261 45.9535L401.945 170.233L346.253 215.777Z" stroke="white" stroke-width="0.5" stroke-miterlimit="10"/>
<path d="M359.573 215.777L218.548 181.023L288.968 0.409302L385.625 47.7023L409.16 168.484L359.573 215.777Z" stroke="white" stroke-width="0.5" stroke-miterlimit="10"/>
<path d="M372.897 215.777L226.617 183.516L299.664 0.409302L391.991 49.4512L416.377 166.735L372.897 215.777Z" stroke="white" stroke-width="0.5" stroke-miterlimit="10"/>
<path d="M386.181 215.776L234.72 186.009L310.358 0.446167L398.318 51.1997L423.593 164.986L386.181 215.776Z" stroke="white" stroke-width="0.5" stroke-miterlimit="10"/>
<path d="M399.502 215.776L242.824 188.502L321.052 0.446167L404.683 52.9485L430.808 163.274L399.502 215.776Z" stroke="white" stroke-width="0.5" stroke-miterlimit="10"/>
<path d="M412.825 215.776L250.893 190.958L331.748 0.446167L411.012 54.7345L438.026 161.525L412.825 215.776Z" stroke="white" stroke-width="0.5" stroke-miterlimit="10"/>
<path d="M426.147 215.776L258.996 193.451L342.442 0.446167L417.376 56.4834L445.241 159.776L426.147 215.776Z" stroke="white" stroke-width="0.5" stroke-miterlimit="10"/>
<path d="M439.468 215.776L267.062 195.944L353.136 0.446167L423.704 58.2322L452.456 158.028L439.468 215.776Z" stroke="white" stroke-width="0.5" stroke-miterlimit="10"/>
<path d="M452.751 215.776L275.166 198.437L363.866 0.446167L430.067 59.9811L459.708 156.279L452.751 215.776Z" stroke="white" stroke-width="0.5" stroke-miterlimit="10"/>
<path d="M466.076 215.776L283.272 200.893L374.563 0.446167L436.398 61.7299L466.927 154.53L466.076 215.776Z" stroke="white" stroke-width="0.5" stroke-miterlimit="10"/>
<path d="M476.769 215.814L288.711 203.386L382.629 0.446167L440.135 63.4787L471.515 152.781L476.769 215.814Z" stroke="white" stroke-width="0.5" stroke-miterlimit="10"/>
<path d="M487.019 215.814L293.78 205.879L390.251 0.446167L443.427 65.2276L475.658 151.032L487.019 215.814Z" stroke="white" stroke-width="0.5" stroke-miterlimit="10"/>
<path d="M497.305 215.814L298.812 208.372L397.91 0.446167L446.72 67.0136L479.839 149.283L497.305 215.814Z" stroke="white" stroke-width="0.5" stroke-miterlimit="10"/>
<path d="M507.557 215.814L303.846 210.828L405.572 0.446167L450.015 68.7625L484.022 147.535L507.557 215.814Z" stroke="white" stroke-width="0.5" stroke-miterlimit="10"/>
<path d="M517.844 215.815L308.878 213.322L413.231 0.484497L453.308 70.5124L488.166 145.787L517.844 215.815Z" stroke="white" stroke-width="0.5" stroke-miterlimit="10"/>
<path d="M528.093 215.815H313.947L420.854 0.484497L528.093 215.815Z" stroke="white" stroke-width="0.5" stroke-miterlimit="10"/>
<path d="M322.053 215.814C320.609 215.814 371.602 109.581 371.602 108.13C371.602 106.679 424.926 0.446167 426.369 0.446167C427.812 0.446167 533.609 211.721 533.609 213.172C533.609 214.623 323.496 215.814 322.053 215.814Z" stroke="white" stroke-width="0.5122" stroke-miterlimit="10"/>
<path d="M330.193 215.814C327.306 215.814 375.82 111.032 375.82 108.13C375.82 105.228 429.032 0.446167 431.919 0.446167C434.805 0.446167 539.159 207.628 539.159 210.53C539.159 213.432 333.079 215.814 330.193 215.814Z" stroke="white" stroke-width="0.5244" stroke-miterlimit="10"/>
<path d="M338.37 215.814C334.041 215.814 380.075 112.483 380.075 108.13C380.075 103.776 433.14 0.446167 437.469 0.446167C441.799 0.446167 544.709 203.572 544.709 207.925C544.709 212.279 342.7 215.814 338.37 215.814Z" stroke="white" stroke-width="0.5366" stroke-miterlimit="10"/>
<path d="M346.586 215.814C340.813 215.814 384.367 113.935 384.367 108.13C384.367 102.325 437.321 0.446167 443.094 0.446167C448.867 0.446167 550.334 199.479 550.334 205.283C550.334 211.088 352.358 215.814 346.586 215.814Z" stroke="white" stroke-width="0.5488" stroke-miterlimit="10"/>
<path d="M354.836 215.814C347.62 215.814 388.696 115.386 388.696 108.13C388.696 100.874 441.501 0.446167 448.717 0.446167C455.933 0.446167 555.957 195.423 555.957 202.679C555.957 209.935 362.089 215.814 354.836 215.814Z" stroke="white" stroke-width="0.561" stroke-miterlimit="10"/>
<path d="M363.164 215.814C354.505 215.814 393.101 116.837 393.101 108.13C393.101 99.4229 445.759 0.446167 454.418 0.446167C463.077 0.446167 561.658 191.33 561.658 200.037C561.658 208.744 371.824 215.814 363.164 215.814Z" stroke="white" stroke-width="0.5732" stroke-miterlimit="10"/>
<path d="M371.526 215.814C361.424 215.814 397.578 118.288 397.578 108.13C397.578 97.9718 450.124 0.446167 460.227 0.446167C470.329 0.446167 567.467 187.274 567.467 197.432C567.43 207.59 381.629 215.814 371.526 215.814Z" stroke="white" stroke-width="0.5854" stroke-miterlimit="10"/>
<path d="M379.925 215.814C368.38 215.814 402.054 119.74 402.054 108.13C402.054 96.5209 454.453 0.409302 465.999 0.409302C477.544 0.409302 573.238 183.144 573.238 194.753C573.238 206.4 391.471 215.814 379.925 215.814Z" stroke="white" stroke-width="0.5976" stroke-miterlimit="10"/>
<path d="M388.401 215.814C375.412 215.814 406.607 121.191 406.607 108.093C406.607 94.9953 458.858 0.409302 471.883 0.409302C484.909 0.409302 579.123 179.088 579.123 192.149C579.123 205.209 401.389 215.814 388.401 215.814Z" stroke="white" stroke-width="0.6098" stroke-miterlimit="10"/>
<path d="M396.948 215.814C382.517 215.814 411.232 122.642 411.232 108.093C411.232 93.5442 463.372 0.409302 477.804 0.409302C492.236 0.409302 585.044 174.995 585.044 189.507C585.044 204.019 411.38 215.814 396.948 215.814Z" stroke="white" stroke-width="0.622" stroke-miterlimit="10"/>
<path d="M405.571 215.814C389.696 215.814 415.932 124.093 415.932 108.093C415.932 92.093 467.924 0.409302 483.836 0.409302C499.711 0.409302 591.076 170.94 591.076 186.902C591.076 202.865 421.446 215.814 405.571 215.814Z" stroke="white" stroke-width="0.6341" stroke-miterlimit="10"/>
<path d="M414.267 215.815C396.948 215.815 420.705 125.545 420.705 108.094C420.705 90.6427 472.586 0.372925 489.904 0.372925C507.223 0.372925 597.144 166.81 597.144 184.261C597.144 201.712 431.622 215.815 414.267 215.815Z" stroke="white" stroke-width="0.6463" stroke-miterlimit="10"/>
<path d="M423.074 215.815C404.313 215.815 425.591 126.996 425.591 108.094C425.591 89.1915 477.323 0.372925 496.122 0.372925C514.92 0.372925 603.362 162.754 603.362 181.619C603.362 200.485 441.873 215.815 423.074 215.815Z" stroke="white" stroke-width="0.6585" stroke-miterlimit="10"/>
<path d="M431.993 215.815C411.789 215.815 430.587 128.41 430.587 108.094C430.587 87.7776 482.209 0.372925 502.413 0.372925C522.618 0.372925 609.653 158.661 609.653 179.015C609.653 199.368 452.235 215.815 431.993 215.815Z" stroke="white" stroke-width="0.6707" stroke-miterlimit="10"/>
<path d="M441.023 215.815C419.375 215.815 435.694 129.861 435.694 108.094C435.694 86.3264 487.167 0.372925 508.852 0.372925C530.537 0.372925 616.092 154.605 616.092 176.373C616.092 198.14 462.707 215.815 441.023 215.815Z" stroke="white" stroke-width="0.6829" stroke-miterlimit="10"/>
<path d="M450.198 215.815C427.107 215.815 440.947 131.312 440.947 108.094C440.947 84.8752 492.31 0.372925 515.401 0.372925C538.492 0.372925 622.641 150.512 622.641 173.768C622.641 197.024 473.289 215.815 450.198 215.815Z" stroke="white" stroke-width="0.6951" stroke-miterlimit="10"/>
<path d="M459.524 215.813C434.953 215.813 446.351 132.762 446.351 108.092C446.351 83.4225 497.565 0.334106 522.099 0.334106C546.67 0.334106 629.339 146.418 629.339 171.088C629.339 195.757 484.058 215.813 459.524 215.813Z" stroke="white" stroke-width="0.7073" stroke-miterlimit="10"/>
<path d="M468.995 215.815C442.981 215.815 451.899 134.215 451.899 108.094C451.899 81.9729 502.965 0.372925 528.98 0.372925C554.994 0.372925 636.22 142.364 636.22 168.522C636.22 194.68 494.972 215.815 468.995 215.815Z" stroke="white" stroke-width="0.7195" stroke-miterlimit="10"/>
<path d="M478.619 215.813C451.162 215.813 457.637 135.664 457.637 108.092C457.637 80.5202 508.593 0.334106 536.014 0.334106C563.434 0.334106 643.253 138.269 643.253 165.841C643.253 193.413 506.077 215.813 478.619 215.813Z" stroke="white" stroke-width="0.7317" stroke-miterlimit="10"/>
<path d="M488.461 215.813C459.56 215.813 463.557 137.116 463.557 108.055C463.557 78.9946 514.327 0.334106 543.228 0.334106C572.129 0.334106 650.468 134.176 650.468 163.236C650.468 192.297 517.362 215.813 488.461 215.813Z" stroke="white" stroke-width="0.7439" stroke-miterlimit="10"/>
<path d="M498.417 215.813C468.073 215.813 469.591 138.567 469.591 108.055C469.591 77.5434 520.25 0.334106 550.594 0.334106C580.938 0.334106 657.834 130.12 657.834 160.595C657.834 191.069 528.761 215.813 498.417 215.813Z" stroke="white" stroke-width="0.7561" stroke-miterlimit="10"/>
<path d="M508.482 215.813C476.695 215.813 475.732 140.018 475.732 108.055C475.732 76.0922 526.281 0.334106 558.031 0.334106C589.781 0.334106 665.271 126.027 665.271 157.99C665.271 189.953 540.269 215.813 508.482 215.813Z" stroke="white" stroke-width="0.7683" stroke-miterlimit="10"/>
<path d="M518.546 215.813C485.316 215.813 481.874 141.469 481.874 108.055C481.874 74.6413 532.274 0.297119 565.505 0.297119C598.735 0.297119 672.745 121.934 672.745 155.311C672.745 188.688 551.776 215.813 518.546 215.813Z" stroke="white" stroke-width="0.7805" stroke-miterlimit="10"/>
<path d="M528.612 215.813C493.939 215.813 488.018 142.92 488.018 108.055C488.018 73.1902 538.271 0.297119 572.944 0.297119C607.617 0.297119 680.184 117.841 680.184 152.706C680.184 187.572 563.249 215.813 528.612 215.813Z" stroke="white" stroke-width="0.7927" stroke-miterlimit="10"/>
<path d="M538.64 215.813C502.524 215.813 494.124 144.372 494.124 108.055C494.124 71.739 544.265 0.297119 580.382 0.297119C616.498 0.297119 687.621 113.748 687.621 150.065C687.621 186.381 574.757 215.813 538.64 215.813Z" stroke="white" stroke-width="0.8049" stroke-miterlimit="10"/>
<path d="M548.705 215.813C511.146 215.813 500.266 145.823 500.266 108.055C500.266 70.2878 550.297 0.297119 587.856 0.297119C625.416 0.297119 695.096 109.692 695.096 147.46C695.096 185.227 586.265 215.813 548.705 215.813Z" stroke="white" stroke-width="0.8171" stroke-miterlimit="10"/>
<path d="M558.772 215.813C519.769 215.813 506.41 147.274 506.41 108.055C506.41 68.8367 556.293 0.297119 595.296 0.297119C634.299 0.297119 702.535 105.599 702.535 144.818C702.535 184.037 597.775 215.813 558.772 215.813Z" stroke="white" stroke-width="0.8293" stroke-miterlimit="10"/>
<path d="M568.836 215.814C528.39 215.814 512.552 148.726 512.552 108.056C512.552 67.3863 562.286 0.260742 602.732 0.260742C643.179 0.260742 709.972 101.507 709.972 142.177C709.972 182.847 609.282 215.814 568.836 215.814Z" stroke="white" stroke-width="0.8415" stroke-miterlimit="10"/>
<path d="M578.9 215.813C537.011 215.813 518.693 150.176 518.693 108.055C518.693 65.9343 568.28 0.297119 610.169 0.297119C652.059 0.297119 717.409 97.4506 717.409 139.572C717.409 181.692 620.79 215.813 578.9 215.813Z" stroke="white" stroke-width="0.8537" stroke-miterlimit="10"/>
<path d="M588.967 215.814C545.635 215.814 524.875 151.591 524.875 108.056C524.875 64.5212 574.313 0.260742 617.646 0.260742C660.979 0.260742 724.886 93.3584 724.886 136.931C724.886 180.503 632.263 215.814 588.967 215.814Z" stroke="white" stroke-width="0.8659" stroke-miterlimit="10"/>
<path d="M598.997 215.814C554.221 215.814 530.982 153.042 530.982 108.019C530.982 62.9956 580.309 0.260742 625.085 0.260742C669.861 0.260742 732.325 89.2654 732.325 134.289C732.325 179.312 643.772 215.814 598.997 215.814Z" stroke="white" stroke-width="0.878" stroke-miterlimit="10"/>
<path d="M609.06 215.815C562.841 215.815 537.123 154.494 537.123 108.019C537.123 61.5448 586.339 0.223877 632.558 0.223877C678.777 0.223877 739.798 85.1727 739.798 131.647C739.798 178.122 655.279 215.815 609.06 215.815Z" stroke="white" stroke-width="0.8902" stroke-miterlimit="10"/>
<path d="M619.124 215.815C571.462 215.815 543.265 155.945 543.265 108.019C543.265 60.0936 592.333 0.223877 639.995 0.223877C687.657 0.223877 747.235 81.0797 747.235 129.005C747.235 176.931 666.787 215.815 619.124 215.815Z" stroke="white" stroke-width="0.9024" stroke-miterlimit="10"/>
<path d="M629.192 215.815C580.086 215.815 549.409 157.396 549.409 108.019C549.409 58.6425 598.329 0.223877 647.435 0.223877C696.54 0.223877 754.675 77.0239 754.675 126.401C754.675 175.777 678.297 215.815 629.192 215.815Z" stroke="white" stroke-width="0.9146" stroke-miterlimit="10"/>
<path d="M639.258 215.815C588.709 215.815 555.553 158.847 555.553 108.019C555.553 57.1913 604.325 0.223877 654.874 0.223877C705.422 0.223877 762.113 72.9309 762.113 123.759C762.113 174.587 689.806 215.815 639.258 215.815Z" stroke="white" stroke-width="0.9268" stroke-miterlimit="10"/>
<path d="M649.283 215.815C597.292 215.815 561.656 160.298 561.656 108.019C561.656 55.7401 610.318 0.223877 662.309 0.223877C714.301 0.223877 769.512 68.875 769.512 121.154C769.512 173.433 701.275 215.815 649.283 215.815Z" stroke="white" stroke-width="0.939" stroke-miterlimit="10"/>
<path d="M659.351 215.815C605.916 215.815 567.801 161.749 567.801 108.019C567.801 54.289 616.351 0.223877 669.786 0.223877C723.221 0.223877 777.026 64.782 777.026 118.512C777.026 172.242 712.785 215.815 659.351 215.815Z" stroke="white" stroke-width="0.9512" stroke-miterlimit="10"/>
<path d="M669.415 215.815C614.537 215.815 573.943 163.201 573.943 108.019C573.943 52.8378 622.345 0.223877 677.223 0.223877C732.101 0.223877 784.463 60.7262 784.463 115.908C784.463 171.089 724.293 215.815 669.415 215.815Z" stroke="white" stroke-width="0.9634" stroke-miterlimit="10"/>
<path d="M679.479 215.813C623.158 215.813 580.084 164.651 580.084 108.018C580.084 51.3854 628.375 0.185425 684.696 0.185425C741.018 0.185425 791.899 56.6319 791.899 113.264C791.899 169.897 735.8 215.813 679.479 215.813Z" stroke="white" stroke-width="0.9756" stroke-miterlimit="10"/>
<path d="M689.545 215.813C631.781 215.813 586.228 166.102 586.228 108.018C586.228 49.9343 634.371 0.185425 692.136 0.185425C749.9 0.185425 799.375 52.5389 799.375 110.623C799.375 168.706 747.31 215.813 689.545 215.813Z" stroke="white" stroke-width="0.9878" stroke-miterlimit="10"/>
<path d="M699.575 215.814C758.802 215.814 806.815 167.535 806.815 107.981C806.815 48.4268 758.802 0.14856 699.575 0.14856C640.348 0.14856 592.335 48.4268 592.335 107.981C592.335 167.535 640.348 215.814 699.575 215.814Z" stroke="white" stroke-miterlimit="10"/>
</g>
<defs>
<clipPath id="clip0">
<rect width="807" height="216" fill="white"/>
</clipPath>
</defs>
</svg>
