<svg width="23" height="30" viewBox="0 0 23 30" fill="none" xmlns="http://www.w3.org/2000/svg">
<path fill-rule="evenodd" clip-rule="evenodd" d="M3 1.5H20C20.8284 1.5 21.5 2.17157 21.5 3V11V27C21.5 27.8284 20.8284 28.5 20 28.5H3C2.17157 28.5 1.5 27.8284 1.5 27V11V3C1.5 2.17157 2.17157 1.5 3 1.5ZM0 3C0 1.34315 1.34315 0 3 0H20C21.6569 0 23 1.34315 23 3V11V27C23 28.6569 21.6569 30 20 30H3C1.34315 30 0 28.6569 0 27V11V3ZM13.4193 13.4997V15.9306H12.9354L12.9354 23.827H13.4193V26.8641C13.4193 26.9977 13.5276 27.106 13.6612 27.106C13.7948 27.106 13.9031 26.9977 13.9031 26.8641V23.827H14.387V15.9306H13.9031V13.4997C13.9031 13.3661 13.7948 13.2578 13.6612 13.2578C13.5276 13.2578 13.4193 13.3661 13.4193 13.4997ZM6.92087 15.9306C6.92087 15.797 6.81255 15.6886 6.67893 15.6886C6.54531 15.6886 6.437 15.797 6.437 15.9306V18.0962H5.95312V24.1704H6.437V26.864C6.437 26.9976 6.54531 27.1059 6.67893 27.1059C6.81255 27.1059 6.92087 26.9976 6.92087 26.864V24.1704H7.40474V18.0962H6.92087V15.9306ZM10.1692 16.267C10.3028 16.267 10.4111 16.3753 10.4111 16.509V18.9677H10.895V22.6121H10.4111V23.8269C10.4111 23.9605 10.3028 24.0688 10.1692 24.0688C10.0355 24.0688 9.92722 23.9605 9.92722 23.8269V22.6121H9.44335V18.9677H9.92722V16.509C9.92722 16.3753 10.0355 16.267 10.1692 16.267ZM17.3931 16.538C17.3931 16.4044 17.2848 16.2961 17.1512 16.2961C17.0176 16.2961 16.9093 16.4044 16.9093 16.538V18.3603H16.4254V24.7381H16.9093V25.8062C16.9093 25.9398 17.0176 26.0482 17.1512 26.0482C17.2848 26.0482 17.3931 25.9398 17.3931 25.8062V24.7381H17.877V18.3603H17.3931V16.538Z" fill="#969696"/>
<path d="M16.4231 4.61366C16.4784 4.70946 16.4892 4.88904 16.3399 5.19564C16.1952 5.49278 15.926 5.85193 15.541 6.2499C14.7733 7.04328 13.5863 7.9491 12.1607 8.77215C10.7351 9.5952 9.35715 10.1703 8.28624 10.4384C7.74908 10.5729 7.30344 10.6264 6.97378 10.6032C6.63361 10.5791 6.48347 10.48 6.42815 10.3842C6.37284 10.2884 6.3621 10.1089 6.51138 9.80225C6.65605 9.50512 6.92524 9.14596 7.31028 8.748C8.07791 7.95461 9.26498 7.04879 10.6905 6.22575C12.1161 5.4027 13.4941 4.82757 14.565 4.55948C15.1022 4.42501 15.5478 4.37146 15.8775 4.39474C16.2176 4.41876 16.3678 4.51785 16.4231 4.61366Z" stroke="#D8004E" stroke-width="0.5"/>
<g filter="url(#filter0_f)">
<circle cx="11.5817" cy="7.4997" r="2.76923" fill="#D8004E"/>
</g>
<line x1="13.3499" y1="11.5469" x2="8.85832" y2="3.76723" stroke="#D8004E" stroke-width="0.5"/>
<defs>
<filter id="filter0_f" x="7.8125" y="3.73047" width="7.53846" height="7.53846" filterUnits="userSpaceOnUse" color-interpolation-filters="sRGB">
<feFlood flood-opacity="0" result="BackgroundImageFix"/>
<feBlend mode="normal" in="SourceGraphic" in2="BackgroundImageFix" result="shape"/>
<feGaussianBlur stdDeviation="0.5" result="effect1_foregroundBlur"/>
</filter>
</defs>
</svg>
