<svg width="8" height="15" viewBox="0 0 8 15" fill="none" xmlns="http://www.w3.org/2000/svg">
  <path d="M2.03495 14.47V13H0.654951V2.29H2.03495V0.774999H2.99495V2.29H3.11495C3.45495 2.29 3.76495 2.305 4.04495 2.335V0.774999H5.00495V2.485C5.63495 2.645 6.10995 2.925 6.42995 3.325C6.75995 3.715 6.92495 4.255 6.92495 4.945C6.92495 5.575 6.76995 6.1 6.45995 6.52C6.15995 6.93 5.71995 7.195 5.13995 7.315V7.39C5.53995 7.46 5.89495 7.59 6.20495 7.78C6.52495 7.97 6.77495 8.24 6.95495 8.59C7.14495 8.94 7.23995 9.395 7.23995 9.955C7.23995 10.735 7.03995 11.375 6.63995 11.875C6.24995 12.365 5.70495 12.695 5.00495 12.865V14.47H4.04495V13C3.97495 13 3.89995 13 3.81995 13H2.99495V14.47H2.03495ZM3.38495 6.85C4.20495 6.85 4.76495 6.705 5.06495 6.415C5.37495 6.115 5.52995 5.675 5.52995 5.095C5.52995 4.505 5.33995 4.085 4.95995 3.835C4.58995 3.575 3.99495 3.445 3.17495 3.445H2.00495V6.85H3.38495ZM2.00495 7.975V11.86H3.56495C4.39495 11.86 4.97495 11.675 5.30495 11.305C5.63495 10.935 5.79995 10.45 5.79995 9.85C5.79995 9.29 5.62995 8.84 5.28995 8.5C4.94995 8.15 4.33995 7.975 3.45995 7.975H2.00495Z" fill="#999999"/>
</svg>
