<svg width="25" height="25" viewBox="0 0 25 25" fill="none" xmlns="http://www.w3.org/2000/svg">
<path d="M0.927002 12.4609C0.927002 18.8337 6.09321 24 12.466 24C18.8389 24 24.0051 18.8337 24.0051 12.4609C24.0051 6.08808 18.8389 0.921875 12.466 0.921875" stroke="white" stroke-width="1.5" stroke-linecap="round"/>
<circle cx="0.733362" cy="9.04098" r="0.733362" fill="white"/>
<circle cx="2.57711" cy="5.3486" r="0.733362" fill="white"/>
<circle cx="5.34811" cy="2.58004" r="0.733362" fill="white"/>
<circle cx="9.04098" cy="0.733362" r="0.733362" fill="white"/>
<path d="M14.5464 12.191C15.1172 12.0786 15.6052 11.6883 15.792 10.9912C16.0697 9.95471 15.4113 9.1098 13.9346 8.71411L12.0204 8.2012C11.4869 8.05826 10.9386 8.37484 10.7956 8.90831L9.59286 13.3971C9.44992 13.9306 9.7665 14.4789 10.3 14.6218L12.3976 15.1839C14.0211 15.6189 15.0254 15.2097 15.3203 14.109C15.5489 13.256 15.2169 12.587 14.5464 12.191ZM13.6529 9.43495C14.5885 9.68563 15.0271 10.1767 14.8452 10.8555C14.6634 11.5342 14.038 11.7402 13.1024 11.4895L11.705 11.1151C11.4383 11.0437 11.28 10.7695 11.3515 10.5028L11.6432 9.41408C11.7147 9.14734 11.9888 8.98905 12.2556 9.06052L13.6529 9.43495ZM12.56 14.4311L10.9333 13.9952C10.6666 13.9238 10.5083 13.6496 10.5798 13.3829L10.8936 12.2116C10.9651 11.9449 11.2392 11.7866 11.506 11.8581L13.1326 12.294C14.1508 12.5668 14.6126 13.0444 14.4135 13.7874C14.2145 14.5303 13.5781 14.7039 12.56 14.4311Z" fill="#D8014E"/>
<path d="M12.7492 8.33479L13.0176 7.33301" stroke="#D8014E" stroke-width="1.2" stroke-linecap="round" stroke-linejoin="round"/>
<path d="M14.496 8.91682L14.7644 7.91504" stroke="#D8014E" stroke-width="1.2" stroke-linecap="round" stroke-linejoin="round"/>
<path d="M10.42 15.9002L10.6885 14.8984" stroke="#D8014E" stroke-width="1.2" stroke-linecap="round" stroke-linejoin="round"/>
<path d="M12.1669 16.4813L12.4353 15.4795" stroke="#D8014E" stroke-width="1.2" stroke-linecap="round" stroke-linejoin="round"/>
</svg>
