<svg width="54" height="18" viewBox="0 0 54 18" fill="none" xmlns="http://www.w3.org/2000/svg">
<path d="M23.1322 16.9077H18.8076L21.5104 0.296814H25.8356L23.1322 16.9077ZM15.1694 0.296814L11.0464 11.7219L10.5585 9.26167L10.559 9.26256L9.10378 1.79244C9.10378 1.79244 8.92782 0.296814 7.05229 0.296814H0.23623L0.15625 0.578076C0.15625 0.578076 2.24061 1.01174 4.68 2.47671L8.43728 16.9082H12.9433L19.8237 0.296814H15.1694ZM49.1852 16.9077H53.1562L49.694 0.29637H46.2176C44.6122 0.29637 44.2212 1.53428 44.2212 1.53428L37.7712 16.9077H42.2794L43.181 14.4404H48.6787L49.1852 16.9077ZM44.4264 11.0319L46.6988 4.81568L47.9771 11.0319H44.4264ZM38.1094 4.29136L38.7265 0.724261C38.7265 0.724261 36.8221 0 34.8369 0C32.6907 0 27.5942 0.937986 27.5942 5.49906C27.5942 9.79043 33.5758 9.84375 33.5758 12.0978C33.5758 14.3519 28.2105 13.948 26.4399 12.5266L25.7969 16.2564C25.7969 16.2564 27.728 17.1943 30.6784 17.1943C33.6296 17.1943 38.0818 15.6663 38.0818 11.5073C38.0818 7.18841 32.0465 6.78629 32.0465 4.90854C32.0469 3.03035 36.2587 3.27162 38.1094 4.29136Z" fill="#2566AF"/>
</svg>
