<svg width="377" height="377" viewBox="0 0 377 377" fill="none" xmlns="http://www.w3.org/2000/svg">
  <line x1="188.438" y1="318.254" x2="188.438" y2="356.626" stroke="#222222" stroke-width="3"/>
  <line x1="113.17" y1="132.295" x2="113.17" y2="242.984" stroke="#222222" stroke-width="3"/>
  <line x1="113.01" y1="205.068" x2="113.01" y2="243.577" stroke="white" stroke-width="3"/>
  <line x1="290.27" y1="58.5039" x2="290.27" y2="204.614" stroke="#222222" stroke-width="3"/>
  <line x1="282.889" y1="167.715" x2="282.889" y2="242.983" stroke="#222222" stroke-width="3"/>
  <path d="M216.068 95.0468C215.873 94.8516 215.557 94.8516 215.361 95.0468L212.179 98.2288C211.984 98.4241 211.984 98.7407 212.179 98.9359C212.375 99.1312 212.691 99.1312 212.886 98.9359L215.715 96.1075L218.543 98.9359C218.739 99.1312 219.055 99.1312 219.25 98.9359C219.446 98.7407 219.446 98.4241 219.25 98.2288L216.068 95.0468ZM215.215 95.4004L215.215 242.986L216.215 242.986L216.215 95.4004L215.215 95.4004Z" fill="white"/>
  <path d="M205.115 134.918C204.92 134.723 204.603 134.723 204.408 134.918L201.226 138.1C201.031 138.295 201.031 138.612 201.226 138.807C201.421 139.002 201.738 139.002 201.933 138.807L204.762 135.979L207.59 138.807C207.785 139.002 208.102 139.002 208.297 138.807C208.493 138.612 208.493 138.295 208.297 138.1L205.115 134.918ZM204.262 135.271L204.262 170.17L205.262 170.17L205.262 135.271L204.262 135.271Z" fill="white"/>
  <line x1="105.789" y1="132.295" x2="105.789" y2="242.984" stroke="#222222" stroke-width="3"/>
  <path d="M230.83 56.6738C230.635 56.4785 230.318 56.4785 230.123 56.6738L226.941 59.8558C226.746 60.051 226.746 60.3676 226.941 60.5629C227.136 60.7581 227.453 60.7581 227.648 60.5629L230.477 57.7345L233.305 60.5629C233.5 60.7581 233.817 60.7581 234.012 60.5629C234.207 60.3676 234.207 60.051 234.012 59.8558L230.83 56.6738ZM229.977 57.0273L229.977 169.192L230.977 169.192L230.977 57.0273L229.977 57.0273Z" fill="white"/>
  <line x1="135.305" y1="242.984" x2="135.305" y2="318.253" stroke="#222222" stroke-width="3"/>
  <line x1="120.549" y1="204.611" x2="120.549" y2="281.356" stroke="#222222" stroke-width="3"/>
  <line x1="120.23" y1="205.068" x2="120.23" y2="243.577" stroke="white" stroke-width="3"/>
  <line x1="105.789" y1="168.967" x2="105.789" y2="243.577" stroke="white" stroke-width="3"/>
  <line x1="150.064" y1="242.984" x2="150.064" y2="318.253" stroke="#222222" stroke-width="3"/>
  <line x1="209.098" y1="242.984" x2="209.098" y2="356.625" stroke="#222222" stroke-width="3"/>
  <line x1="201.723" y1="242.984" x2="201.723" y2="281.357" stroke="#222222" stroke-width="3"/>
  <line x1="175.152" y1="242.984" x2="175.152" y2="318.253" stroke="#222222" stroke-width="3"/>
  <path d="M261.48 167.538C262.36 167.586 263.028 167.826 263.484 168.258C263.948 168.682 264.18 169.238 264.18 169.926C264.18 170.406 264.064 170.834 263.832 171.21C263.6 171.578 263.256 171.87 262.8 172.086C262.344 172.302 261.788 172.41 261.132 172.41C260.524 172.41 259.948 172.314 259.404 172.122C258.868 171.922 258.436 171.658 258.108 171.33L258.528 170.646C258.808 170.934 259.18 171.17 259.644 171.354C260.108 171.53 260.604 171.618 261.132 171.618C261.82 171.618 262.352 171.47 262.728 171.174C263.104 170.87 263.292 170.454 263.292 169.926C263.292 169.406 263.104 168.998 262.728 168.702C262.352 168.406 261.784 168.258 261.024 168.258H260.424V167.622L262.752 164.706H258.456V163.938H263.856V164.55L261.48 167.538ZM266.057 171.09C266.241 171.09 266.393 171.154 266.513 171.282C266.633 171.402 266.693 171.554 266.693 171.738C266.693 171.834 266.677 171.938 266.645 172.05C266.621 172.162 266.581 172.29 266.525 172.434L266.021 174.09H265.445L265.853 172.35C265.725 172.31 265.621 172.238 265.541 172.134C265.461 172.022 265.421 171.89 265.421 171.738C265.421 171.554 265.481 171.402 265.601 171.282C265.721 171.154 265.873 171.09 266.057 171.09ZM270.128 163.938V172.338H269.264V164.706H267.284V163.938H270.128ZM279.276 170.13H277.596V172.338H276.732V170.13H271.992V169.506L276.444 163.938H277.404L273.108 169.362H276.756V167.418H277.596V169.362H279.276V170.13ZM282.093 163.938V172.338H281.229V164.706H279.249V163.938H282.093ZM286.309 167.382C287.525 167.382 288.409 167.602 288.961 168.042C289.521 168.474 289.801 169.082 289.801 169.866C289.801 170.354 289.685 170.79 289.453 171.174C289.229 171.558 288.889 171.862 288.433 172.086C287.977 172.302 287.417 172.41 286.753 172.41C286.153 172.41 285.581 172.314 285.037 172.122C284.501 171.922 284.069 171.658 283.741 171.33L284.161 170.646C284.441 170.934 284.809 171.17 285.265 171.354C285.721 171.53 286.213 171.618 286.741 171.618C287.437 171.618 287.973 171.462 288.349 171.15C288.733 170.838 288.925 170.422 288.925 169.902C288.925 169.326 288.709 168.89 288.277 168.594C287.853 168.298 287.133 168.15 286.117 168.15H284.329L284.761 163.938H289.357V164.706H285.517L285.229 167.382H286.309ZM293.513 163.866C294.625 163.866 295.477 164.234 296.069 164.97C296.661 165.698 296.957 166.73 296.957 168.066C296.957 169.002 296.797 169.794 296.477 170.442C296.157 171.09 295.709 171.582 295.133 171.918C294.557 172.246 293.885 172.41 293.117 172.41C292.285 172.41 291.621 172.258 291.125 171.954L291.473 171.258C291.873 171.522 292.417 171.654 293.105 171.654C294.033 171.654 294.761 171.362 295.289 170.778C295.817 170.186 296.081 169.33 296.081 168.21C296.081 168.002 296.069 167.774 296.045 167.526C295.837 167.982 295.505 168.338 295.049 168.594C294.593 168.842 294.069 168.966 293.477 168.966C292.925 168.966 292.433 168.862 292.001 168.654C291.577 168.446 291.245 168.154 291.005 167.778C290.765 167.394 290.645 166.95 290.645 166.446C290.645 165.934 290.769 165.482 291.017 165.09C291.265 164.698 291.605 164.398 292.037 164.19C292.477 163.974 292.969 163.866 293.513 163.866ZM293.609 168.234C294.033 168.234 294.405 168.154 294.725 167.994C295.053 167.834 295.309 167.614 295.493 167.334C295.677 167.054 295.769 166.742 295.769 166.398C295.769 166.078 295.681 165.782 295.505 165.51C295.337 165.238 295.085 165.018 294.749 164.85C294.413 164.682 294.013 164.598 293.549 164.598C292.941 164.598 292.445 164.766 292.061 165.102C291.685 165.43 291.497 165.87 291.497 166.422C291.497 166.974 291.685 167.414 292.061 167.742C292.445 168.07 292.961 168.234 293.609 168.234ZM303.923 171.57V172.338H298.031V171.726L301.523 168.306C301.963 167.874 302.259 167.502 302.411 167.19C302.571 166.87 302.651 166.55 302.651 166.23C302.651 165.734 302.479 165.35 302.135 165.078C301.799 164.798 301.315 164.658 300.683 164.658C299.699 164.658 298.935 164.97 298.391 165.594L297.779 165.066C298.107 164.682 298.523 164.386 299.027 164.178C299.539 163.97 300.115 163.866 300.755 163.866C301.611 163.866 302.287 164.07 302.783 164.478C303.287 164.878 303.539 165.43 303.539 166.134C303.539 166.566 303.443 166.982 303.251 167.382C303.059 167.782 302.695 168.242 302.159 168.762L299.303 171.57H303.923ZM308.44 167.31C308.992 167.31 309.48 167.414 309.904 167.622C310.336 167.83 310.672 168.126 310.912 168.51C311.152 168.886 311.272 169.326 311.272 169.83C311.272 170.342 311.148 170.794 310.9 171.186C310.652 171.578 310.308 171.882 309.868 172.098C309.436 172.306 308.948 172.41 308.404 172.41C307.292 172.41 306.44 172.046 305.848 171.318C305.256 170.582 304.96 169.546 304.96 168.21C304.96 167.274 305.12 166.482 305.44 165.834C305.76 165.186 306.208 164.698 306.784 164.37C307.36 164.034 308.032 163.866 308.8 163.866C309.632 163.866 310.296 164.018 310.792 164.322L310.444 165.018C310.044 164.754 309.5 164.622 308.812 164.622C307.884 164.622 307.156 164.918 306.628 165.51C306.1 166.094 305.836 166.946 305.836 168.066C305.836 168.266 305.848 168.494 305.872 168.75C306.08 168.294 306.412 167.942 306.868 167.694C307.324 167.438 307.848 167.31 308.44 167.31ZM308.368 171.678C308.976 171.678 309.468 171.514 309.844 171.186C310.228 170.85 310.42 170.406 310.42 169.854C310.42 169.302 310.228 168.862 309.844 168.534C309.468 168.206 308.956 168.042 308.308 168.042C307.884 168.042 307.508 168.122 307.18 168.282C306.86 168.442 306.608 168.662 306.424 168.942C306.24 169.222 306.148 169.534 306.148 169.878C306.148 170.198 306.232 170.494 306.4 170.766C306.576 171.038 306.832 171.258 307.168 171.426C307.504 171.594 307.904 171.678 308.368 171.678ZM314.48 167.382C315.696 167.382 316.58 167.602 317.132 168.042C317.692 168.474 317.972 169.082 317.972 169.866C317.972 170.354 317.856 170.79 317.624 171.174C317.4 171.558 317.06 171.862 316.604 172.086C316.148 172.302 315.588 172.41 314.924 172.41C314.324 172.41 313.752 172.314 313.208 172.122C312.672 171.922 312.24 171.658 311.912 171.33L312.332 170.646C312.612 170.934 312.98 171.17 313.436 171.354C313.892 171.53 314.384 171.618 314.912 171.618C315.608 171.618 316.144 171.462 316.52 171.15C316.904 170.838 317.096 170.422 317.096 169.902C317.096 169.326 316.88 168.89 316.448 168.594C316.024 168.298 315.304 168.15 314.288 168.15H312.5L312.932 163.938H317.528V164.706H313.688L313.4 167.382H314.48ZM321.867 167.538C322.747 167.586 323.415 167.826 323.871 168.258C324.335 168.682 324.567 169.238 324.567 169.926C324.567 170.406 324.451 170.834 324.219 171.21C323.987 171.578 323.643 171.87 323.187 172.086C322.731 172.302 322.175 172.41 321.519 172.41C320.911 172.41 320.335 172.314 319.791 172.122C319.255 171.922 318.823 171.658 318.495 171.33L318.915 170.646C319.195 170.934 319.567 171.17 320.031 171.354C320.495 171.53 320.991 171.618 321.519 171.618C322.207 171.618 322.739 171.47 323.115 171.174C323.491 170.87 323.679 170.454 323.679 169.926C323.679 169.406 323.491 168.998 323.115 168.702C322.739 168.406 322.171 168.258 321.411 168.258H320.811V167.622L323.139 164.706H318.843V163.938H324.243V164.55L321.867 167.538ZM327.875 167.382C329.091 167.382 329.975 167.602 330.527 168.042C331.087 168.474 331.367 169.082 331.367 169.866C331.367 170.354 331.251 170.79 331.019 171.174C330.795 171.558 330.455 171.862 329.999 172.086C329.543 172.302 328.983 172.41 328.319 172.41C327.719 172.41 327.147 172.314 326.603 172.122C326.067 171.922 325.635 171.658 325.307 171.33L325.727 170.646C326.007 170.934 326.375 171.17 326.831 171.354C327.287 171.53 327.779 171.618 328.307 171.618C329.003 171.618 329.539 171.462 329.915 171.15C330.299 170.838 330.491 170.422 330.491 169.902C330.491 169.326 330.275 168.89 329.843 168.594C329.419 168.298 328.699 168.15 327.683 168.15H325.895L326.327 163.938H330.923V164.706H327.083L326.795 167.382H327.875Z" fill="white"/>
  <line x1="229.762" y1="169.191" x2="229.762" y2="204.612" stroke="#D9014F" stroke-width="3"/>
  <g filter="url(#filter0_f)">
    <circle cx="230.474" cy="168.454" r="18.4482" fill="#D9014F"/>
  </g>
  <circle cx="230.476" cy="168.455" r="5.16549" fill="white"/>
  <path d="M239.195 167.716L247.716 154.934H345V180.499H247.716L239.195 167.716Z" stroke="white"/>
  <line x1="215.5" y1="170" x2="215.5" y2="243" stroke="#D9014F" stroke-width="3"/>
  <line x1="231" y1="169.5" x2="35" y2="169.5" stroke="white" stroke-dasharray="10 10"/>
  <circle cx="368.5" cy="359.5" r="2.5" fill="#D8014E"/>
  <circle cx="188.5" cy="188.5" r="188" stroke="#2E2E2E"/>
  <path d="M92.65 98V105H91.66V98.87H90.08V98H92.65ZM96.8612 100.94C97.5478 101.007 98.0712 101.22 98.4312 101.58C98.7912 101.933 98.9712 102.387 98.9712 102.94C98.9712 103.34 98.8712 103.703 98.6712 104.03C98.4712 104.35 98.1712 104.607 97.7712 104.8C97.3778 104.987 96.8945 105.08 96.3212 105.08C95.8212 105.08 95.3412 105.007 94.8812 104.86C94.4212 104.707 94.0445 104.497 93.7512 104.23L94.2112 103.44C94.4512 103.667 94.7578 103.85 95.1312 103.99C95.5045 104.123 95.9012 104.19 96.3212 104.19C96.8412 104.19 97.2445 104.08 97.5312 103.86C97.8245 103.64 97.9712 103.337 97.9712 102.95C97.9712 102.563 97.8278 102.263 97.5412 102.05C97.2545 101.837 96.8212 101.73 96.2412 101.73H95.6812V101.03L97.4412 98.87H94.0712V98H98.6912V98.68L96.8612 100.94ZM102.764 105.08C102.21 105.08 101.717 104.94 101.284 104.66C100.857 104.373 100.52 103.96 100.274 103.42C100.027 102.88 99.9038 102.24 99.9038 101.5C99.9038 100.76 100.027 100.12 100.274 99.58C100.52 99.04 100.857 98.63 101.284 98.35C101.717 98.0633 102.21 97.92 102.764 97.92C103.31 97.92 103.797 98.0633 104.224 98.35C104.657 98.63 104.997 99.04 105.244 99.58C105.49 100.12 105.614 100.76 105.614 101.5C105.614 102.24 105.49 102.88 105.244 103.42C104.997 103.96 104.657 104.373 104.224 104.66C103.797 104.94 103.31 105.08 102.764 105.08ZM102.764 104.19C103.324 104.19 103.77 103.96 104.104 103.5C104.444 103.04 104.614 102.373 104.614 101.5C104.614 100.627 104.444 99.96 104.104 99.5C103.77 99.04 103.324 98.81 102.764 98.81C102.197 98.81 101.744 99.04 101.404 99.5C101.07 99.96 100.904 100.627 100.904 101.5C100.904 102.373 101.07 103.04 101.404 103.5C101.744 103.96 102.197 104.19 102.764 104.19ZM108.844 97.92C109.784 97.92 110.507 98.2233 111.014 98.83C111.527 99.4367 111.784 100.297 111.784 101.41C111.784 102.19 111.644 102.857 111.364 103.41C111.09 103.957 110.704 104.373 110.204 104.66C109.71 104.94 109.134 105.08 108.474 105.08C108.134 105.08 107.814 105.047 107.514 104.98C107.214 104.907 106.954 104.803 106.734 104.67L107.114 103.89C107.454 104.11 107.904 104.22 108.464 104.22C109.19 104.22 109.757 103.997 110.164 103.55C110.577 103.097 110.784 102.44 110.784 101.58V101.33C110.584 101.63 110.307 101.86 109.954 102.02C109.6 102.173 109.204 102.25 108.764 102.25C108.304 102.25 107.89 102.163 107.524 101.99C107.164 101.817 106.88 101.57 106.674 101.25C106.474 100.923 106.374 100.55 106.374 100.13C106.374 99.69 106.48 99.3033 106.694 98.97C106.914 98.6367 107.21 98.38 107.584 98.2C107.957 98.0133 108.377 97.92 108.844 97.92ZM108.934 101.44C109.247 101.44 109.527 101.38 109.774 101.26C110.02 101.14 110.21 100.977 110.344 100.77C110.484 100.563 110.554 100.333 110.554 100.08C110.554 99.8333 110.487 99.61 110.354 99.41C110.227 99.2033 110.037 99.04 109.784 98.92C109.537 98.7933 109.237 98.73 108.884 98.73C108.424 98.73 108.05 98.8533 107.764 99.1C107.484 99.3467 107.344 99.6767 107.344 100.09C107.344 100.503 107.487 100.833 107.774 101.08C108.06 101.32 108.447 101.44 108.934 101.44ZM113.298 103.69C113.485 103.69 113.638 103.757 113.758 103.89C113.885 104.017 113.948 104.177 113.948 104.37C113.948 104.47 113.935 104.567 113.908 104.66C113.888 104.753 113.845 104.897 113.778 105.09L113.308 106.48H112.678L113.048 104.99C112.922 104.943 112.818 104.867 112.738 104.76C112.665 104.647 112.628 104.517 112.628 104.37C112.628 104.17 112.692 104.007 112.818 103.88C112.945 103.753 113.105 103.69 113.298 103.69ZM117.637 105.08C117.084 105.08 116.59 104.94 116.157 104.66C115.73 104.373 115.394 103.96 115.147 103.42C114.9 102.88 114.777 102.24 114.777 101.5C114.777 100.76 114.9 100.12 115.147 99.58C115.394 99.04 115.73 98.63 116.157 98.35C116.59 98.0633 117.084 97.92 117.637 97.92C118.184 97.92 118.67 98.0633 119.097 98.35C119.53 98.63 119.87 99.04 120.117 99.58C120.364 100.12 120.487 100.76 120.487 101.5C120.487 102.24 120.364 102.88 120.117 103.42C119.87 103.96 119.53 104.373 119.097 104.66C118.67 104.94 118.184 105.08 117.637 105.08ZM117.637 104.19C118.197 104.19 118.644 103.96 118.977 103.5C119.317 103.04 119.487 102.373 119.487 101.5C119.487 100.627 119.317 99.96 118.977 99.5C118.644 99.04 118.197 98.81 117.637 98.81C117.07 98.81 116.617 99.04 116.277 99.5C115.944 99.96 115.777 100.627 115.777 101.5C115.777 102.373 115.944 103.04 116.277 103.5C116.617 103.96 117.07 104.19 117.637 104.19ZM124.029 100.94C124.716 101.007 125.239 101.22 125.599 101.58C125.959 101.933 126.139 102.387 126.139 102.94C126.139 103.34 126.039 103.703 125.839 104.03C125.639 104.35 125.339 104.607 124.939 104.8C124.546 104.987 124.062 105.08 123.489 105.08C122.989 105.08 122.509 105.007 122.049 104.86C121.589 104.707 121.212 104.497 120.919 104.23L121.379 103.44C121.619 103.667 121.926 103.85 122.299 103.99C122.672 104.123 123.069 104.19 123.489 104.19C124.009 104.19 124.412 104.08 124.699 103.86C124.992 103.64 125.139 103.337 125.139 102.95C125.139 102.563 124.996 102.263 124.709 102.05C124.422 101.837 123.989 101.73 123.409 101.73H122.849V101.03L124.609 98.87H121.239V98H125.859V98.68L124.029 100.94Z" fill="#5AC06A"/>
  <path d="M133.354 97.6464C133.158 97.4512 132.842 97.4512 132.646 97.6464L129.464 100.828C129.269 101.024 129.269 101.34 129.464 101.536C129.66 101.731 129.976 101.731 130.172 101.536L133 98.7071L135.828 101.536C136.024 101.731 136.34 101.731 136.536 101.536C136.731 101.34 136.731 101.024 136.536 100.828L133.354 97.6464ZM133.5 105L133.5 98L132.5 98L132.5 105L133.5 105Z" fill="#5AC06A"/>
  <defs>
    <filter id="filter0_f" x="197.025" y="135.006" width="66.8964" height="66.8964" filterUnits="userSpaceOnUse" color-interpolation-filters="sRGB">
      <feFlood flood-opacity="0" result="BackgroundImageFix"/>
      <feBlend mode="normal" in="SourceGraphic" in2="BackgroundImageFix" result="shape"/>
      <feGaussianBlur stdDeviation="7.5" result="effect1_foregroundBlur"/>
    </filter>
  </defs>
</svg>
