<svg width="43" height="21" viewBox="0 0 43 21" fill="none" xmlns="http://www.w3.org/2000/svg">
<path d="M0.647371 16.8535C0.45211 17.0487 0.45211 17.3653 0.647371 17.5606L3.82935 20.7426C4.02461 20.9378 4.3412 20.9378 4.53646 20.7426C4.73172 20.5473 4.73172 20.2307 4.53646 20.0355L1.70803 17.207L4.53646 14.3786C4.73172 14.1833 4.73172 13.8668 4.53646 13.6715C4.3412 13.4762 4.02461 13.4762 3.82935 13.6715L0.647371 16.8535ZM19.1504 16.707L1.00093 16.707L1.00093 17.707L19.1504 17.707L19.1504 16.707Z" fill="#D8004E"/>
<path d="M42.4264 4.85551C42.6216 4.66024 42.6216 4.34366 42.4264 4.1484L39.2444 0.966419C39.0491 0.771157 38.7325 0.771157 38.5373 0.966419C38.342 1.16168 38.342 1.47826 38.5373 1.67353L41.3657 4.50195L38.5373 7.33038C38.342 7.52564 38.342 7.84222 38.5373 8.03749C38.7325 8.23275 39.0491 8.23275 39.2444 8.03749L42.4264 4.85551ZM25.7383 5.00195L42.0728 5.00195V4.00195L25.7383 4.00195V5.00195Z" fill="#D8004E"/>
<circle cx="21.6549" cy="10.3998" r="7.21352" transform="rotate(-90 21.6549 10.3998)" stroke="#D8004E"/>
</svg>
