<svg width="39" height="26" viewBox="0 0 39 26" fill="none" xmlns="http://www.w3.org/2000/svg">
<path d="M30.7994 13.4844C30.9947 13.2892 30.9947 12.9726 30.7994 12.7773L27.6174 9.59533C27.4222 9.40006 27.1056 9.40006 26.9103 9.59533C26.7151 9.79059 26.7151 10.1072 26.9103 10.3024L29.7387 13.1309L26.9103 15.9593C26.7151 16.1545 26.7151 16.4711 26.9103 16.6664C27.1056 16.8617 27.4222 16.8617 27.6174 16.6664L30.7994 13.4844ZM14.1113 13.6309L30.4458 13.6309L30.4458 12.6309L14.1113 12.6309L14.1113 13.6309Z" fill="#D8004E"/>
<path d="M0.145676 12.7773C-0.0495863 12.9726 -0.0495863 13.2891 0.145676 13.4844L3.32766 16.6664C3.52292 16.8617 3.8395 16.8617 4.03476 16.6664C4.23002 16.4711 4.23003 16.1545 4.03476 15.9593L1.20634 13.1309L4.03476 10.3024C4.23003 10.1072 4.23003 9.79059 4.03476 9.59532C3.8395 9.40006 3.52292 9.40006 3.32766 9.59532L0.145676 12.7773ZM14.1113 12.6309L0.499229 12.6309L0.499229 13.6309L14.1113 13.6309L14.1113 12.6309Z" fill="#D8004E"/>
<circle cx="25.9078" cy="13.1324" r="12.2046" stroke="#D8004E"/>
</svg>
