<svg width="755" height="349" viewBox="0 0 755 349" fill="none" xmlns="http://www.w3.org/2000/svg" xmlns:xlink="http://www.w3.org/1999/xlink">
<rect x="0.25" y="0.25" width="754.5" height="348.5" fill="black" stroke="#777777" stroke-width="0.5"/>
<mask id="path-2-inside-1" fill="white">
<path fill-rule="evenodd" clip-rule="evenodd" d="M329.601 0C294.588 49.25 274 109.471 274 174.5C274 239.529 294.588 299.75 329.601 349H0V0L329.601 0Z"/>
</mask>
<path fill-rule="evenodd" clip-rule="evenodd" d="M329.601 0C294.588 49.25 274 109.471 274 174.5C274 239.529 294.588 299.75 329.601 349H0V0L329.601 0Z" fill="#0B0B0B"/>
<path d="M329.601 0L330.008 0.289711L330.569 -0.5H329.601V0ZM329.601 349V349.5H330.569L330.008 348.71L329.601 349ZM0 349H-0.5V349.5H0V349ZM0 0L0 -0.5H-0.5V0H0ZM274.5 174.5C274.5 109.578 295.053 49.4579 330.008 0.289711L329.193 -0.289711C294.122 49.0421 273.5 109.364 273.5 174.5H274.5ZM330.008 348.71C295.053 299.542 274.5 239.422 274.5 174.5H273.5C273.5 239.636 294.122 299.958 329.193 349.29L330.008 348.71ZM329.601 348.5H0V349.5H329.601V348.5ZM0.5 349V0H-0.5V349H0.5ZM0 0.5H329.601V-0.5H0L0 0.5Z" fill="#444444" mask="url(#path-2-inside-1)"/>
<rect x="421.25" y="20.25" width="308.5" height="308.5" rx="154.25" fill="black" stroke="#777777" stroke-width="0.5"/>
<line x1="559.5" y1="253" x2="559.5" y2="279" stroke="#222222"/>
<line x1="508.5" y1="127" x2="508.5" y2="202" stroke="#222222"/>
<line x1="628.5" y1="77" x2="628.5" y2="176" stroke="#222222"/>
<line x1="623.5" y1="151" x2="623.5" y2="202" stroke="#222222"/>
<path d="M578.854 101.646C578.658 101.451 578.342 101.451 578.146 101.646L574.964 104.828C574.769 105.024 574.769 105.34 574.964 105.536C575.16 105.731 575.476 105.731 575.672 105.536L578.5 102.707L581.328 105.536C581.524 105.731 581.84 105.731 582.036 105.536C582.231 105.34 582.231 105.024 582.036 104.828L578.854 101.646ZM578 102L578 202L579 202L579 102L578 102Z" fill="white"/>
<path d="M569.354 131.646C569.158 131.451 568.842 131.451 568.646 131.646L565.464 134.828C565.269 135.024 565.269 135.34 565.464 135.536C565.66 135.731 565.976 135.731 566.172 135.536L569 132.707L571.828 135.536C572.024 135.731 572.34 135.731 572.536 135.536C572.731 135.34 572.731 135.024 572.536 134.828L569.354 131.646ZM568.5 132L568.5 185L569.5 185L569.5 132L568.5 132Z" fill="white"/>
<line x1="503.5" y1="127" x2="503.5" y2="202" stroke="#222222"/>
<path d="M588.854 75.6464C588.658 75.4512 588.342 75.4512 588.146 75.6464L584.964 78.8284C584.769 79.0237 584.769 79.3403 584.964 79.5355C585.16 79.7308 585.476 79.7308 585.672 79.5355L588.5 76.7071L591.328 79.5355C591.524 79.7308 591.84 79.7308 592.036 79.5355C592.231 79.3403 592.231 79.0237 592.036 78.8284L588.854 75.6464ZM588 76L588 152L589 152L589 76L588 76Z" fill="white"/>
<line x1="523.5" y1="202" x2="523.5" y2="253" stroke="#222222"/>
<line x1="513.5" y1="176" x2="513.5" y2="228" stroke="#222222"/>
<line x1="533.5" y1="202" x2="533.5" y2="253" stroke="#222222"/>
<line x1="573.5" y1="202" x2="573.5" y2="279" stroke="#222222"/>
<line x1="568.5" y1="202" x2="568.5" y2="228" stroke="#222222"/>
<line x1="550.5" y1="202" x2="550.5" y2="253" stroke="#222222"/>
<path d="M671.006 154.072C672.473 154.072 673.571 152.902 673.571 150.85C673.571 148.798 672.473 147.628 671.006 147.628C669.53 147.628 668.432 148.798 668.432 150.85C668.432 152.902 669.53 154.072 671.006 154.072ZM671.006 153.271C670.016 153.271 669.332 152.461 669.332 150.85C669.332 149.239 670.016 148.429 671.006 148.429C671.987 148.429 672.671 149.239 672.671 150.85C672.671 152.461 671.987 153.271 671.006 153.271ZM674.923 154.054C675.247 154.054 675.517 153.793 675.517 153.433C675.517 153.073 675.247 152.821 674.923 152.821C674.59 152.821 674.311 153.073 674.311 153.433C674.311 153.793 674.59 154.054 674.923 154.054ZM678.837 154.072C680.304 154.072 681.402 152.902 681.402 150.85C681.402 148.798 680.304 147.628 678.837 147.628C677.361 147.628 676.263 148.798 676.263 150.85C676.263 152.902 677.361 154.072 678.837 154.072ZM678.837 153.271C677.847 153.271 677.163 152.461 677.163 150.85C677.163 149.239 677.847 148.429 678.837 148.429C679.818 148.429 680.502 149.239 680.502 150.85C680.502 152.461 679.818 153.271 678.837 153.271ZM683.437 153.217L685.363 151.363C686.218 150.544 686.398 149.995 686.398 149.383C686.398 148.303 685.552 147.628 684.238 147.628C683.257 147.628 682.42 147.979 681.934 148.582L682.546 149.113C682.933 148.645 683.482 148.429 684.157 148.429C685.039 148.429 685.498 148.825 685.498 149.473C685.498 149.869 685.372 150.265 684.706 150.913L682.141 153.388V154H686.668V153.217H683.437ZM690.099 150.175C689.316 150.175 688.65 150.463 688.29 151.003C688.281 150.922 688.281 150.85 688.281 150.778C688.281 149.203 689.1 148.402 690.378 148.402C690.828 148.402 691.26 148.483 691.584 148.699L691.926 147.997C691.521 147.745 690.954 147.628 690.36 147.628C688.596 147.628 687.381 148.78 687.381 150.931C687.381 152.938 688.335 154.072 690.027 154.072C691.278 154.072 692.259 153.298 692.259 152.083C692.259 150.922 691.35 150.175 690.099 150.175ZM689.991 153.343C689.019 153.343 688.497 152.776 688.497 152.128C688.497 151.435 689.091 150.904 689.946 150.904C690.828 150.904 691.386 151.381 691.386 152.119C691.386 152.866 690.81 153.343 689.991 153.343ZM692.712 147.7V149.608H693.576V148.483H696.456L693.963 154H694.917L697.464 148.312V147.7H692.712ZM703.145 151.678H701.948V150.31H701.102V151.678H698.681L701.768 147.7H700.796L697.574 151.822V152.452H701.075V154H701.948V152.452H703.145V151.678Z" fill="white"/>
<line x1="588.5" y1="152" x2="588.5" y2="176" stroke="#D9014F" stroke-width="3"/>
<line x1="578.5" y1="151" x2="578.5" y2="202" stroke="#D9014F" stroke-width="3"/>
<line x1="568.5" y1="181" x2="568.5" y2="202" stroke="#D9014F" stroke-width="3"/>
<g filter="url(#filter0_f)">
<circle cx="588.5" cy="151.5" r="12.5" fill="#D9014F"/>
</g>
<circle cx="588.5" cy="151.5" r="3.5" fill="white"/>
<path d="M656.601 151L662.268 142.5H711.5V159.5H662.268L656.601 151Z" stroke="white"/>
<circle cx="536.5" cy="42.5" r="1.5" fill="#D8014E"/>
<circle cx="645.5" cy="251.5" r="1.5" fill="#D8014E"/>
<path d="M687.345 41.6404C687.146 41.4485 686.83 41.454 686.638 41.6526L683.511 44.8889C683.319 45.0875 683.325 45.404 683.523 45.5959C683.722 45.7878 684.038 45.7823 684.23 45.5837L687.01 42.707L689.886 45.4863C690.085 45.6782 690.402 45.6727 690.593 45.4741C690.785 45.2755 690.78 44.959 690.581 44.7671L687.345 41.6404ZM492.5 249C492.5 196.047 535.296 153.122 588.084 153.122V152.122C534.741 152.122 491.5 195.497 491.5 249H492.5ZM588.084 153.122C613.386 153.122 632.277 146.179 646.37 135.739C660.457 125.303 669.718 111.396 675.806 97.5118C681.893 83.6284 684.815 69.752 686.215 59.3514C686.916 54.1498 687.236 49.8142 687.382 46.7772C687.455 45.2586 687.483 44.0645 687.494 43.2489C687.5 42.8411 687.5 42.5279 687.5 42.3161C687.5 42.2102 687.499 42.1296 687.498 42.0752C687.498 42.048 687.498 42.0273 687.498 42.0133C687.498 42.0063 687.498 42.001 687.497 41.9973C687.497 41.9955 687.497 41.994 687.497 41.9931C687.497 41.992 687.497 41.9914 686.997 42C686.498 42.0086 686.498 42.0088 686.498 42.0094C686.498 42.0102 686.498 42.0112 686.498 42.0128C686.498 42.0158 686.498 42.0206 686.498 42.027C686.498 42.0398 686.498 42.0592 686.499 42.0852C686.499 42.1371 686.5 42.2152 686.5 42.3186C686.5 42.5254 686.5 42.8333 686.494 43.2358C686.484 44.0406 686.455 45.2231 686.383 46.7294C686.239 49.742 685.921 54.0488 685.224 59.2179C683.832 69.5589 680.929 83.3381 674.89 97.1102C668.852 110.881 659.686 124.63 645.775 134.936C631.869 145.237 613.191 152.122 588.084 152.122V153.122Z" fill="white"/>
<rect x="0.5" y="0.5" width="754" height="348" stroke="#777777"/>
<path d="M433.25 348.75V243.528L503 230.254L572.75 243.528V348.75H433.25Z" fill="#1C1C1C" stroke="#777777" stroke-width="0.5"/>
<rect x="491.5" y="277.5" width="23" height="71" fill="black" stroke="#777777"/>
<path d="M491.758 143.978C491.758 142.606 492.322 141.294 493.318 140.349L499.743 134.26C501.672 132.432 504.694 132.432 506.622 134.26L513.047 140.349C514.043 141.294 514.607 142.606 514.607 143.978V194.378L573 239.762V249.714L514.607 234.188V301.069L524.445 312.535V324L503.183 315.719L481.92 324V312.535L491.758 301.069V234.188L434 249.714L434 239.762L491.758 194.378V143.978Z" fill="#C4C4C4"/>
<path d="M491.179 144.029C491.179 142.627 491.768 141.289 492.802 140.342L499.623 134.094C501.534 132.343 504.466 132.343 506.377 134.094L513.198 140.342C514.232 141.289 514.821 142.627 514.821 144.029V301.069L525 312.535V324L503 315.719L481 324L481 312.535L491.179 301.069V144.029Z" fill="#EDEDED"/>
</svg>
