<svg width="19" height="20" viewBox="0 0 19 20" fill="none" xmlns="http://www.w3.org/2000/svg">
<circle cx="9.5" cy="9.5" r="9.5" fill="#27AE60"/>
<path d="M10.9463 13.1592H8.74512V14.7383H7.02246V13.1592H5.62109V11.7715H7.02246V11.04H5.62109V9.65234H7.02246V4.78516H10.8301C11.9284 4.78516 12.8057 5.07227 13.4619 5.64648C14.1182 6.21615 14.4463 6.97493 14.4463 7.92285C14.4463 8.889 14.1341 9.64779 13.5098 10.1992C12.8854 10.7461 12.0173 11.0264 10.9053 11.04H8.74512V11.7715H10.9463V13.1592ZM8.74512 9.65234H10.8027C11.4225 9.65234 11.8965 9.50879 12.2246 9.22168C12.5527 8.93457 12.7168 8.50618 12.7168 7.93652C12.7168 7.42611 12.555 7.00911 12.2314 6.68555C11.9124 6.36198 11.4704 6.19336 10.9053 6.17969H8.74512V9.65234Z" fill="white"/>
</svg>
