<svg width="21" height="15" viewBox="0 0 21 15" fill="none" xmlns="http://www.w3.org/2000/svg">
<path fill-rule="evenodd" clip-rule="evenodd" d="M3.04374 2.5068C3.28483 1.06024 4.5364 0 6.00292 0H14.7663C16.2328 0 17.4844 1.06024 17.7255 2.5068L17.8846 3.46154H19.1154C19.3915 3.46154 19.6154 3.6854 19.6154 3.96154V4.19231C19.6154 4.74459 19.1677 5.19231 18.6154 5.19231H18.1731L18.3187 6.06576C19.7568 6.65804 20.7692 8.07342 20.7692 9.72528C20.7692 11.1373 19.7828 12.319 18.4615 12.6188V14C18.4615 14.5523 18.0138 15 17.4615 15H16C15.4477 15 15 14.5523 15 14V12.6923H5.76923V14C5.76923 14.5523 5.32152 15 4.76923 15H3.30769C2.75541 15 2.30769 14.5523 2.30769 14V12.6188C0.986381 12.319 0 11.1373 0 9.72528C0 8.07342 1.01241 6.65803 2.45058 6.06576L2.59615 5.19231H2.15385C1.60156 5.19231 1.15385 4.74459 1.15385 4.19231V3.96154C1.15385 3.6854 1.3777 3.46154 1.65385 3.46154H2.88462L3.04374 2.5068ZM4.61527 5.76923H16.1537L15.8784 4.61283C15.5566 3.26143 14.3492 2.30769 12.96 2.30769H7.80902C6.41984 2.30769 5.21237 3.26143 4.89061 4.61283L4.61527 5.76923ZM16.7308 10.7143C17.6867 10.7143 18.4616 10.7143 18.4616 9.23079C18.4616 8.41147 18.2636 8.24178 17.3077 8.24178C16.3519 8.24178 15.577 8.90597 15.577 9.7253C15.577 10.5446 15.7749 10.7143 16.7308 10.7143ZM5.19236 9.7253C5.19236 10.5446 4.9944 10.7143 4.03852 10.7143C3.08264 10.7143 2.30775 10.7143 2.30775 9.23079C2.30775 8.41147 2.50572 8.24178 3.46159 8.24178C4.41747 8.24178 5.19236 8.90597 5.19236 9.7253Z" fill="white"/>
</svg>
