<svg width="47" height="15" viewBox="0 0 47 15" fill="none" xmlns="http://www.w3.org/2000/svg">
  <path d="M42.3897 13.941C42.5849 14.1363 42.9015 14.1363 43.0968 13.941L46.2788 10.759C46.474 10.5637 46.474 10.2472 46.2788 10.0519C46.0835 9.85664 45.7669 9.85664 45.5717 10.0519L42.7432 12.8803L39.9148 10.0519C39.7195 9.85664 39.403 9.85664 39.2077 10.0519C39.0124 10.2472 39.0124 10.5637 39.2077 10.759L42.3897 13.941ZM17.834 13.5874C17.834 6.84701 23.2982 1.38281 30.0386 1.38281V0.382812C22.7459 0.382812 16.834 6.29472 16.834 13.5874H17.834ZM30.0386 1.38281C36.779 1.38281 42.2432 6.84701 42.2432 13.5874H43.2432C43.2432 6.29472 37.3313 0.382812 30.0386 0.382812V1.38281Z" fill="#D8004E"/>
  <path d="M4.98336 0.52971C4.7881 0.334449 4.47152 0.334448 4.27625 0.52971L1.09427 3.71169C0.899011 3.90695 0.899011 4.22354 1.09427 4.4188C1.28954 4.61406 1.60612 4.61406 1.80138 4.4188L4.62981 1.59037L7.45823 4.4188C7.6535 4.61406 7.97008 4.61406 8.16534 4.4188C8.3606 4.22354 8.3606 3.90695 8.16534 3.71169L4.98336 0.52971ZM29.5391 0.883266C29.5391 7.62369 24.0749 13.0879 17.3344 13.0879L17.3344 14.0879C24.6271 14.0879 30.5391 8.17598 30.5391 0.883266L29.5391 0.883266ZM17.3344 13.0879C10.594 13.0879 5.12981 7.62369 5.12981 0.883264L4.12981 0.883264C4.12981 8.17598 10.0417 14.0879 17.3344 14.0879L17.3344 13.0879Z" fill="#D8004E"/>
</svg>
