<svg width="26" height="31" viewBox="0 0 26 31" fill="none" xmlns="http://www.w3.org/2000/svg">
<path fill-rule="evenodd" clip-rule="evenodd" d="M16.4297 0.813477C16.7058 0.813477 16.9297 1.03733 16.9297 1.31348V7.59007H17.9297V23.9092H16.9297V30.1859C16.9297 30.462 16.7058 30.6859 16.4297 30.6859C16.1535 30.6859 15.9297 30.462 15.9297 30.1859V23.9092H14.9297L14.9297 7.59007H15.9297V1.31348C15.9297 1.03733 16.1535 0.813477 16.4297 0.813477ZM2 7.09007C2.27614 7.09007 2.5 7.31393 2.5 7.59007V12.0658H3.5V24.619H2.5V30.1858C2.5 30.462 2.27614 30.6858 2 30.6858C1.72386 30.6858 1.5 30.4619 1.5 30.1858V24.619H0.5V12.0658H1.5V7.59007C1.5 7.31393 1.72386 7.09007 2 7.09007ZM9.71289 8.78532C9.71289 8.50918 9.48903 8.28532 9.21289 8.28532C8.93675 8.28532 8.71289 8.50918 8.71289 8.78532V13.8667H7.71289V21.3986H8.71289V23.9089C8.71289 24.1851 8.93675 24.4089 9.21289 24.4089C9.48903 24.4089 9.71289 24.1851 9.71289 23.9089V21.3986H10.7129V13.8667H9.71289V8.78532ZM23.6426 8.34539C23.9187 8.34539 24.1426 8.56925 24.1426 8.84539V12.6113H25.1426V25.7922H24.1426V27.9996C24.1426 28.2758 23.9187 28.4996 23.6426 28.4996C23.3664 28.4996 23.1426 28.2758 23.1426 27.9996V25.7922H22.1426V12.6113H23.1426V8.84539C23.1426 8.56925 23.3664 8.34539 23.6426 8.34539Z" fill="#999999"/>
</svg>
