<svg width="31" height="24" viewBox="0 0 31 24" fill="none" xmlns="http://www.w3.org/2000/svg">
<circle cx="15.5136" cy="11.5919" r="1.24624" fill="#D8014E"/>
<path d="M5.04907 11.4075C5.04907 5.6596 9.70867 1 15.4566 1C16.1146 1 16.7583 1.06106 17.3824 1.17783M22.3407 3.60188C21.7774 3.10468 21.1598 2.66752 20.498 2.30039" stroke="white" stroke-width="2" stroke-linecap="round"/>
<path d="M1.79282 7.75614L4.93421 12.8849L9.15383 8.59919" stroke="white" stroke-width="2" stroke-linecap="round"/>
<path d="M25.9514 11.8239C25.9514 17.5718 21.2918 22.2314 15.5439 22.2314C14.8859 22.2314 14.2422 22.1704 13.618 22.0536M8.65979 19.6296C9.22311 20.1268 9.84067 20.5639 10.5025 20.9311" stroke="white" stroke-width="2" stroke-linecap="round"/>
<path d="M29.2074 15.4753L26.066 10.3465L21.8464 14.6323" stroke="white" stroke-width="2" stroke-linecap="round"/>
</svg>
