<svg width="32" height="31" viewBox="0 0 32 31" fill="none" xmlns="http://www.w3.org/2000/svg">
<path fill-rule="evenodd" clip-rule="evenodd" d="M19.5859 0.813477C19.8621 0.813477 20.0859 1.03733 20.0859 1.31348V7.59007H21.0859V23.9092H20.0859V30.1859C20.0859 30.462 19.8621 30.6859 19.5859 30.6859C19.3098 30.6859 19.0859 30.462 19.0859 30.1859V23.9092H18.0859L18.0859 7.59007H19.0859V1.31348C19.0859 1.03733 19.3098 0.813477 19.5859 0.813477ZM5.15625 7.09007C5.43239 7.09007 5.65625 7.31393 5.65625 7.59007V12.0658H6.65625V24.619H5.65625V30.1858C5.65625 30.462 5.43239 30.6858 5.15625 30.6858C4.88011 30.6858 4.65625 30.4619 4.65625 30.1858V24.619H3.65625V12.0658H4.65625V7.59007C4.65625 7.31393 4.88011 7.09007 5.15625 7.09007ZM12.8691 8.78532C12.8691 8.50918 12.6453 8.28532 12.3691 8.28532C12.093 8.28532 11.8691 8.50918 11.8691 8.78532V13.8667H10.8691V21.3986H11.8691V23.9089C11.8691 24.1851 12.093 24.4089 12.3691 24.4089C12.6453 24.4089 12.8691 24.1851 12.8691 23.9089V21.3986H13.8691V13.8667H12.8691V8.78532ZM26.7988 8.34539C27.075 8.34539 27.2988 8.56925 27.2988 8.84539V12.6113H28.2988V25.7922H27.2988V27.9996C27.2988 28.2758 27.075 28.4996 26.7988 28.4996C26.5227 28.4996 26.2988 28.2758 26.2988 27.9996V25.7922H25.2988V12.6113H26.2988V8.84539C26.2988 8.56925 26.5227 8.34539 26.7988 8.34539Z" fill="white"/>
</svg>
