<svg width="24" height="30" viewBox="0 0 24 30" fill="none" xmlns="http://www.w3.org/2000/svg">
<path d="M0.90625 3C0.90625 1.75736 1.91361 0.75 3.15625 0.75H20.1562C21.3989 0.75 22.4062 1.75736 22.4062 3V11V27C22.4062 28.2426 21.3989 29.25 20.1562 29.25H3.15625C1.91361 29.25 0.90625 28.2426 0.90625 27V11V3Z" stroke="#969696" stroke-width="1.5"/>
<path fill-rule="evenodd" clip-rule="evenodd" d="M13.5755 15.9306V13.4997C13.5755 13.3661 13.6838 13.2578 13.8175 13.2578C13.9511 13.2578 14.0594 13.3661 14.0594 13.4997V15.9306H14.5433V23.827H14.0594V26.8641C14.0594 26.9977 13.9511 27.106 13.8175 27.106C13.6838 27.106 13.5755 26.9977 13.5755 26.8641V23.827H13.0917L13.0917 15.9306H13.5755ZM6.83518 15.6886C6.9688 15.6886 7.07712 15.797 7.07712 15.9306V18.0962H7.56099V24.1704H7.07712V26.864C7.07712 26.9976 6.9688 27.1059 6.83518 27.1059C6.70156 27.1059 6.59325 26.9976 6.59325 26.864V24.1704H6.10938V18.0962H6.59325V15.9306C6.59325 15.797 6.70156 15.6886 6.83518 15.6886ZM10.5673 16.509C10.5673 16.3753 10.459 16.267 10.3254 16.267C10.1918 16.267 10.0835 16.3753 10.0835 16.509V18.9677H9.5996V22.6121H10.0835V23.8268C10.0835 23.9605 10.1918 24.0688 10.3254 24.0688C10.459 24.0688 10.5673 23.9605 10.5673 23.8268V22.6121H11.0512V18.9677H10.5673V16.509ZM17.3074 16.2961C17.4411 16.2961 17.5494 16.4044 17.5494 16.538V18.3603H18.0332V24.7381H17.5494V25.8062C17.5494 25.9398 17.4411 26.0482 17.3074 26.0482C17.1738 26.0482 17.0655 25.9398 17.0655 25.8062V24.7381H16.5816V18.3603H17.0655V16.538C17.0655 16.4044 17.1738 16.2961 17.3074 16.2961Z" fill="#969696"/>
<path d="M16.5793 4.61366C16.6347 4.70946 16.6454 4.88904 16.4961 5.19564C16.3515 5.49278 16.0823 5.85193 15.6972 6.2499C14.9296 7.04328 13.7425 7.9491 12.317 8.77215C10.8914 9.5952 9.5134 10.1703 8.44249 10.4384C7.90533 10.5729 7.45969 10.6264 7.13003 10.6032C6.78986 10.5791 6.63972 10.48 6.5844 10.3842C6.52909 10.2884 6.51835 10.1089 6.66763 9.80225C6.8123 9.50512 7.08149 9.14596 7.46653 8.748C8.23416 7.95461 9.42123 7.04879 10.8468 6.22575C12.2724 5.4027 13.6503 4.82757 14.7213 4.55948C15.2584 4.42501 15.7041 4.37146 16.0337 4.39474C16.3739 4.41876 16.524 4.51785 16.5793 4.61366Z" stroke="#D8004E" stroke-width="0.5"/>
<g filter="url(#filter0_f)">
<circle cx="11.738" cy="7.4997" r="2.76923" fill="#D8004E"/>
</g>
<line x1="13.5061" y1="11.5469" x2="9.01457" y2="3.76723" stroke="#D8004E" stroke-width="0.5"/>
<defs>
<filter id="filter0_f" x="7.96875" y="3.73047" width="7.53846" height="7.53846" filterUnits="userSpaceOnUse" color-interpolation-filters="sRGB">
<feFlood flood-opacity="0" result="BackgroundImageFix"/>
<feBlend mode="normal" in="SourceGraphic" in2="BackgroundImageFix" result="shape"/>
<feGaussianBlur stdDeviation="0.5" result="effect1_foregroundBlur"/>
</filter>
</defs>
</svg>
