<svg width="113" height="33" viewBox="0 0 113 33" fill="none" xmlns="http://www.w3.org/2000/svg">
<path d="M108.815 0H4.18518C1.87377 0 0 1.84683 0 4.125V28.875C0 31.1532 1.87377 33 4.18518 33H108.815C111.126 33 113 31.1532 113 28.875V4.125C113 1.84683 111.126 0 108.815 0Z" fill="white"/>
<path d="M108.815 0.66C109.747 0.66 110.641 1.02506 111.301 1.67487C111.96 2.32469 112.33 3.20602 112.33 4.125V28.875C112.33 29.794 111.96 30.6753 111.301 31.3251C110.641 31.9749 109.747 32.34 108.815 32.34H4.18519C3.2528 32.34 2.35861 31.9749 1.69931 31.3251C1.04002 30.6753 0.66963 29.794 0.66963 28.875V4.125C0.66963 3.20602 1.04002 2.32469 1.69931 1.67487C2.35861 1.02506 3.2528 0.66 4.18519 0.66H108.815ZM108.815 0H4.18519C3.07521 0 2.01069 0.434597 1.22581 1.20818C0.440938 1.98177 0 3.03098 0 4.125V28.875C0 29.969 0.440938 31.0182 1.22581 31.7918C2.01069 32.5654 3.07521 33 4.18519 33H108.815C109.925 33 110.989 32.5654 111.774 31.7918C112.559 31.0182 113 29.969 113 28.875V4.125C113 3.03098 112.559 1.98177 111.774 1.20818C110.989 0.434597 109.925 0 108.815 0Z" fill="white"/>
<path d="M57.0349 17.9444C56.3321 17.9476 55.6459 18.156 55.0631 18.5433C54.4803 18.9305 54.027 19.4793 53.7603 20.1202C53.4936 20.7612 53.4255 21.4656 53.5647 22.1447C53.7038 22.8238 54.0439 23.447 54.5421 23.9357C55.0403 24.4244 55.6742 24.7567 56.3638 24.8906C57.0534 25.0246 57.7678 24.9542 58.4169 24.6884C59.0659 24.4225 59.6205 23.9731 60.0107 23.3969C60.4008 22.8206 60.6091 22.1434 60.6091 21.4506C60.6159 20.9869 60.528 20.5266 60.3506 20.0971C60.1732 19.6675 59.9099 19.2776 59.5764 18.9505C59.2429 18.6233 58.846 18.3656 58.4094 18.1928C57.9728 18.0199 57.5054 17.9355 57.0349 17.9444ZM57.0349 23.5791C56.6027 23.6089 56.1713 23.5098 55.7969 23.2948C55.4225 23.0798 55.1224 22.7587 54.9357 22.3733C54.7489 21.988 54.684 21.5561 54.7495 21.1339C54.8151 20.7118 55.0079 20.3188 55.3031 20.0061C55.5982 19.6934 55.982 19.4754 56.4044 19.3805C56.8269 19.2856 57.2686 19.3182 57.6721 19.474C58.0755 19.6298 58.4221 19.9016 58.6667 20.2541C58.9114 20.6066 59.0428 21.0235 59.0438 21.4506C59.0573 21.7212 59.0157 21.9918 58.9214 22.2463C58.8271 22.5008 58.6821 22.7341 58.4948 22.9325C58.3076 23.1308 58.082 23.2903 57.8312 23.4013C57.5805 23.5124 57.3097 23.5728 57.0349 23.5791ZM49.2421 17.9444C48.5389 17.946 47.8519 18.153 47.268 18.5393C46.6841 18.9255 46.2294 19.4737 45.9615 20.1145C45.6935 20.7554 45.6242 21.4601 45.7625 22.1397C45.9007 22.8193 46.2401 23.4433 46.738 23.9328C47.2358 24.4223 47.8697 24.7555 48.5595 24.8901C49.2494 25.0247 49.9642 24.9548 50.6138 24.6892C51.2633 24.4235 51.8184 23.9741 52.2089 23.3977C52.5995 22.8213 52.8079 22.1437 52.8079 21.4506C52.8147 20.9869 52.7268 20.5266 52.5494 20.0971C52.372 19.6675 52.1087 19.2776 51.7752 18.9505C51.4417 18.6233 51.0448 18.3656 50.6082 18.1928C50.1716 18.0199 49.7042 17.9355 49.2337 17.9444H49.2421ZM49.2421 23.5791C48.8096 23.6106 48.3776 23.513 48.0022 23.2991C47.6267 23.0851 47.3254 22.7648 47.1373 22.3796C46.9492 21.9945 46.8831 21.5625 46.9475 21.1399C47.012 20.7172 47.2041 20.3235 47.4988 20.0099C47.7935 19.6964 48.1772 19.4775 48.5998 19.3819C49.0225 19.2862 49.4646 19.3182 49.8685 19.4737C50.2725 19.6291 50.6196 19.9008 50.8647 20.2534C51.1098 20.606 51.2415 21.0232 51.2426 21.4506C51.2561 21.7212 51.2145 21.9918 51.1202 22.2463C51.0259 22.5008 50.8809 22.7341 50.6937 22.9325C50.5064 23.1308 50.2808 23.2903 50.0301 23.4013C49.7793 23.5124 49.5086 23.5728 49.2337 23.5791H49.2421ZM39.9594 19.0251V20.5101H43.5754C43.5187 21.2095 43.2237 21.8695 42.7383 22.3829C42.3766 22.7461 41.9417 23.0306 41.4616 23.2181C40.9816 23.4057 40.467 23.4921 39.951 23.4719C38.8854 23.4719 37.8635 23.0546 37.11 22.312C36.3565 21.5694 35.9332 20.5621 35.9332 19.5119C35.9332 18.4616 36.3565 17.4544 37.11 16.7117C37.8635 15.9691 38.8854 15.5519 39.951 15.5519C40.9703 15.5355 41.9547 15.9182 42.6881 16.6161L43.7512 15.5684C43.256 15.0742 42.6653 14.683 42.014 14.418C41.3627 14.153 40.664 14.0196 39.9594 14.0256C39.2152 13.9971 38.4729 14.1169 37.7769 14.3779C37.0809 14.6388 36.4455 15.0356 35.9087 15.5444C35.372 16.0533 34.945 16.6636 34.6534 17.339C34.3617 18.0143 34.2114 18.7408 34.2114 19.4747C34.2114 20.2087 34.3617 20.9351 34.6534 21.6105C34.945 22.2858 35.372 22.8962 35.9087 23.405C36.4455 23.9138 37.0809 24.3106 37.7769 24.5716C38.4729 24.8326 39.2152 24.9524 39.9594 24.9239C40.6758 24.9558 41.3909 24.8361 42.0565 24.5728C42.7221 24.3095 43.3228 23.9088 43.8181 23.3976C44.6951 22.448 45.1633 21.1996 45.1239 19.9161C45.1266 19.6034 45.0986 19.2912 45.0402 18.9839L39.9594 19.0251ZM77.8855 20.1801C77.6672 19.5471 77.259 18.9944 76.7149 18.5952C76.1708 18.1959 75.5166 17.969 74.8387 17.9444C74.3808 17.9435 73.9277 18.0352 73.5072 18.2137C73.0867 18.3923 72.7078 18.654 72.394 18.9826C72.0802 19.3113 71.8381 19.6998 71.6827 20.1243C71.5273 20.5488 71.4619 21.0002 71.4906 21.4506C71.4804 21.9117 71.5646 22.3701 71.7382 22.7984C71.9118 23.2267 72.1712 23.6161 72.5009 23.9434C72.8306 24.2707 73.2239 24.5291 73.6572 24.7032C74.0905 24.8774 74.555 24.9636 75.0229 24.9569C75.6084 24.96 76.1855 24.8199 76.7026 24.5492C77.2197 24.2786 77.6607 23.8857 77.986 23.4059L76.7723 22.5809C76.5911 22.8785 76.3347 23.1247 76.028 23.2953C75.7214 23.466 75.375 23.5552 75.0229 23.5544C74.6603 23.568 74.3019 23.4738 73.9944 23.284C73.6869 23.0942 73.4444 22.8175 73.2986 22.4901L78.0613 20.5514L77.8855 20.1801ZM73.0307 21.3516C73.0137 21.0964 73.0486 20.8405 73.1333 20.5987C73.2179 20.357 73.3506 20.1344 73.5237 19.9438C73.6967 19.7533 73.9066 19.5987 74.1411 19.4891C74.3755 19.3795 74.6297 19.3171 74.8889 19.3056C75.1589 19.2881 75.4282 19.3491 75.6633 19.4811C75.8984 19.6131 76.089 19.8103 76.2114 20.0481L73.0307 21.3516ZM69.1636 24.7506H70.7289V14.4381H69.1636V24.7506ZM66.6023 18.7281H66.5437C66.3078 18.4682 66.0188 18.2603 65.6957 18.1181C65.3725 17.9759 65.0226 17.9027 64.6687 17.9031C63.754 17.9468 62.8914 18.3358 62.2597 18.9893C61.628 19.6428 61.2756 20.5109 61.2756 21.4135C61.2756 22.3161 61.628 23.1841 62.2597 23.8377C62.8914 24.4912 63.754 24.8801 64.6687 24.9239C65.0234 24.9297 65.3751 24.8589 65.699 24.7164C66.023 24.5738 66.3113 24.3631 66.5437 24.0989H66.5939V24.6021C66.5939 25.9469 65.8657 26.6646 64.6938 26.6646C64.3035 26.6556 63.9248 26.5323 63.6058 26.3105C63.2868 26.0886 63.042 25.7783 62.9026 25.4189L61.5382 25.9799C61.795 26.5956 62.2326 27.1217 62.7949 27.4906C63.3571 27.8596 64.0184 28.0546 64.6938 28.0506C66.5269 28.0506 68.042 26.9864 68.042 24.3959V18.1506H66.6023V18.7281ZM64.811 23.5791C64.2711 23.5322 63.7685 23.2877 63.4025 22.8937C63.0364 22.4997 62.8334 21.9848 62.8334 21.4506C62.8334 20.9164 63.0364 20.4015 63.4025 20.0075C63.7685 19.6136 64.2711 19.369 64.811 19.3221C65.0787 19.3356 65.341 19.4019 65.5823 19.5168C65.8236 19.6318 66.0392 19.7932 66.2163 19.9916C66.3933 20.1899 66.5283 20.4212 66.6133 20.6718C66.6983 20.9224 66.7315 21.1872 66.7111 21.4506C66.7339 21.7152 66.7021 21.9816 66.6175 22.2337C66.5329 22.4858 66.3973 22.7183 66.2189 22.9173C66.0405 23.1162 65.823 23.2775 65.5796 23.3912C65.3361 23.505 65.0718 23.5689 64.8026 23.5791H64.811ZM85.218 14.4381H81.4764V24.7506H83.0417V20.8401H85.2263C85.6724 20.8717 86.1204 20.8124 86.5422 20.6658C86.964 20.5193 87.3506 20.2886 87.678 19.9883C88.0054 19.688 88.2665 19.3244 88.4451 18.9202C88.6236 18.516 88.7157 18.0799 88.7157 17.6391C88.7157 17.1983 88.6236 16.7622 88.4451 16.358C88.2665 15.9538 88.0054 15.5903 87.678 15.2899C87.3506 14.9896 86.964 14.759 86.5422 14.6124C86.1204 14.4659 85.6724 14.4065 85.2263 14.4381H85.218ZM85.218 19.3881H83.0333V15.8736H85.2514C85.7276 15.8736 86.1843 16.0601 86.521 16.3919C86.8577 16.7238 87.0469 17.1739 87.0469 17.6432C87.0469 18.1126 86.8577 18.5627 86.521 18.8945C86.1843 19.2264 85.7276 19.4129 85.2514 19.4129L85.218 19.3881ZM94.869 17.9031C94.2992 17.8695 93.7318 18.0008 93.2366 18.2807C92.7414 18.5607 92.34 18.9771 92.0817 19.4789L93.4711 20.0481C93.6081 19.7992 93.8156 19.595 94.0682 19.4603C94.3209 19.3255 94.6078 19.266 94.8941 19.2891C95.0928 19.2662 95.2941 19.2826 95.4864 19.3372C95.6786 19.3919 95.8578 19.4837 96.0137 19.6073C96.1695 19.731 96.2988 19.884 96.394 20.0574C96.4892 20.2308 96.5484 20.4212 96.5682 20.6174V20.7246C96.0655 20.4623 95.5048 20.3262 94.936 20.3286C93.4377 20.3286 91.9226 21.1536 91.9226 22.6469C91.9374 22.9653 92.0168 23.2775 92.1562 23.5651C92.2955 23.8528 92.4919 24.1099 92.7338 24.3214C92.9757 24.533 93.2582 24.6945 93.5646 24.7966C93.8709 24.8986 94.1949 24.9391 94.5174 24.9156C94.9116 24.9435 95.3061 24.8663 95.6596 24.6921C96.0131 24.5179 96.3125 24.2532 96.5263 23.9256H96.5765V24.7506H98.0832V20.7824C98.0832 18.9756 96.6937 17.9279 94.9108 17.9279L94.869 17.9031ZM94.6765 23.5544C94.1659 23.5544 93.4544 23.2986 93.4544 22.6799C93.4544 21.8549 94.3417 21.5826 95.1285 21.5826C95.6257 21.5705 96.1171 21.6902 96.5514 21.9291C96.4991 22.3758 96.2848 22.7887 95.9479 23.0919C95.6111 23.3951 95.1744 23.5682 94.7183 23.5791L94.6765 23.5544ZM103.574 18.1506L101.783 22.6221H101.733L99.8745 18.1506H98.2004L100.988 24.4041L99.3974 27.8774H101.03L105.315 18.1506H103.574ZM89.5036 24.7506H91.0689V14.4381H89.5036V24.7506Z" fill="black"/>
<path d="M35.2472 11.7734H34.6278V10.1234H35.1551C35.3956 9.87229 35.5771 9.5722 35.6871 9.24433C35.797 8.91647 35.8325 8.56882 35.7913 8.22593V5.77568H39.1394V10.1152H39.7002V11.7652H39.0808V10.7257H35.2472V11.7734ZM36.4107 8.25068C36.4497 8.91615 36.2834 9.57769 35.9335 10.1482H38.4447V6.38618H36.4107V8.25068ZM44.7057 10.0822C44.2164 10.5618 43.5543 10.831 42.8642 10.831C42.1741 10.831 41.5121 10.5618 41.0227 10.0822C40.5471 9.58596 40.2821 8.92919 40.2821 8.24655C40.2821 7.56392 40.5471 6.90715 41.0227 6.41093C41.2639 6.17147 41.5508 5.98141 41.8669 5.85172C42.1829 5.72202 42.5219 5.65525 42.8642 5.65525C43.2066 5.65525 43.5455 5.72202 43.8616 5.85172C44.1776 5.98141 44.4645 6.17147 44.7057 6.41093C45.1832 6.9062 45.4495 7.56332 45.4495 8.24655C45.4495 8.92978 45.1832 9.5869 44.7057 10.0822ZM41.4998 9.66968C41.8622 10.0254 42.3528 10.225 42.8642 10.225C43.3756 10.225 43.8662 10.0254 44.2286 9.66968C44.5862 9.28112 44.7843 8.77529 44.7843 8.25068C44.7843 7.72607 44.5862 7.22024 44.2286 6.83168C43.8662 6.476 43.3756 6.27631 42.8642 6.27631C42.3528 6.27631 41.8622 6.476 41.4998 6.83168C41.1422 7.22024 40.9441 7.72607 40.9441 8.25068C40.9441 8.77529 41.1422 9.28112 41.4998 9.66968ZM48.6984 10.8329C48.3528 10.8397 48.0094 10.7775 47.6889 10.65C47.3684 10.5225 47.0774 10.3324 46.8334 10.0912C46.5894 9.8499 46.3975 9.56246 46.2692 9.24616C46.1409 8.92986 46.0788 8.59123 46.0868 8.25068C46.0788 7.91012 46.1409 7.57149 46.2692 7.25519C46.3975 6.93889 46.5894 6.65146 46.8334 6.4102C47.0774 6.16894 47.3684 5.97884 47.6889 5.85136C48.0094 5.72388 48.3528 5.66166 48.6984 5.66843C49.0486 5.65988 49.3962 5.72967 49.7152 5.87256C50.0341 6.01545 50.3161 6.22772 50.5398 6.49343L50.0878 6.92243C49.9225 6.71556 49.7094 6.55069 49.4662 6.44161C49.223 6.33253 48.9568 6.28241 48.69 6.29543C48.4331 6.28884 48.1774 6.33371 47.9386 6.4273C47.6998 6.52089 47.4827 6.66126 47.3005 6.83993C46.9376 7.23081 46.7363 7.74145 46.7363 8.2713C46.7363 8.80115 46.9376 9.31179 47.3005 9.70268C47.4827 9.88134 47.6998 10.0217 47.9386 10.1153C48.1774 10.2089 48.4331 10.2538 48.69 10.2472C48.9846 10.2446 49.2749 10.1773 49.5399 10.0503C49.8049 9.92333 50.0378 9.73975 50.2218 9.51293L50.6738 9.95843C50.446 10.2308 50.1602 10.4505 49.8367 10.6019C49.4794 10.7614 49.0905 10.8403 48.6984 10.8329ZM53.3021 10.7257H52.6575V6.38618H51.2513V5.77568H54.6999V6.38618H53.3021V10.7257ZM59.1362 5.77568L57.2361 9.95018C57.1601 10.1971 57.0081 10.4147 56.8012 10.5728C56.5943 10.7309 56.3426 10.8218 56.081 10.8329C55.908 10.8308 55.7372 10.7943 55.5788 10.7257L55.7462 10.1399C55.8479 10.1983 55.9633 10.2296 56.081 10.2307C56.2041 10.2398 56.3269 10.211 56.4326 10.1482C56.5334 10.064 56.6111 9.95622 56.6586 9.83468L56.8427 9.43868L55.1687 5.78393H55.9304L57.1692 8.62193L58.3745 5.77568H59.1362ZM59.8644 10.7257V5.77568H63.4972V10.7257H62.8526V6.38618H60.5089V10.7257H59.8644ZM64.6439 10.7257V5.77568H65.2884V7.89593H67.7995V5.77568H68.444V10.7257H67.7995V8.48993H65.2884V10.7257H64.6439ZM73.709 10.0822C73.2197 10.5618 72.5576 10.831 71.8675 10.831C71.1774 10.831 70.5154 10.5618 70.0261 10.0822C69.5504 9.58596 69.2854 8.92919 69.2854 8.24655C69.2854 7.56392 69.5504 6.90715 70.0261 6.41093C70.2672 6.17147 70.5541 5.98141 70.8702 5.85172C71.1862 5.72202 71.5252 5.65525 71.8675 5.65525C72.2099 5.65525 72.5488 5.72202 72.8649 5.85172C73.1809 5.98141 73.4678 6.17147 73.709 6.41093C74.1865 6.9062 74.4528 7.56332 74.4528 8.24655C74.4528 8.92978 74.1865 9.5869 73.709 10.0822ZM70.5032 9.66968C70.8655 10.0254 71.3561 10.225 71.8675 10.225C72.3789 10.225 72.8695 10.0254 73.2319 9.66968C73.5895 9.28112 73.7876 8.77529 73.7876 8.25068C73.7876 7.72607 73.5895 7.22024 73.2319 6.83168C72.8695 6.476 72.3789 6.27631 71.8675 6.27631C71.3561 6.27631 70.8655 6.476 70.5032 6.83168C70.1456 7.22024 69.9475 7.72607 69.9475 8.25068C69.9475 8.77529 70.1456 9.28112 70.5032 9.66968ZM77.0823 10.7257V5.77568H78.8986C79.2758 5.76866 79.6413 5.90449 79.9198 6.15518C80.0597 6.27481 80.1712 6.42328 80.2464 6.59008C80.3216 6.75688 80.3587 6.93793 80.3551 7.12043C80.359 7.34034 80.2948 7.5562 80.1709 7.73918C80.048 7.91691 79.8769 8.05699 79.6771 8.14343C79.9199 8.22265 80.1328 8.37214 80.2881 8.57243C80.4491 8.77455 80.5348 9.02501 80.5309 9.28193C80.5351 9.47211 80.4968 9.6609 80.4187 9.83485C80.3406 10.0088 80.2246 10.1637 80.0789 10.2884C79.7874 10.5534 79.4039 10.6981 79.0075 10.6927L77.0823 10.7257ZM77.7268 7.89593H78.8986C79.0081 7.90043 79.1172 7.88136 79.2184 7.84004C79.3196 7.79872 79.4104 7.73614 79.4846 7.65668C79.5587 7.59044 79.6185 7.51018 79.6604 7.42067C79.7024 7.33116 79.7256 7.23423 79.7288 7.13568C79.7319 7.03713 79.7148 6.93897 79.6786 6.84705C79.6424 6.75513 79.5878 6.67134 79.5181 6.60068C79.4481 6.52269 79.3616 6.46083 79.2647 6.41949C79.1678 6.37814 79.0628 6.35832 78.9572 6.36143H77.7603L77.7268 7.89593ZM77.7268 10.1152H79.0242C79.1376 10.1189 79.2504 10.0979 79.3545 10.0537C79.4587 10.0095 79.5517 9.94317 79.6269 9.85943C79.7744 9.70855 79.8582 9.50798 79.8612 9.29843C79.8612 9.07962 79.773 8.86978 79.6161 8.71506C79.4591 8.56035 79.2462 8.47343 79.0242 8.47343H77.7519L77.7268 10.1152Z" fill="black"/>
<path fill-rule="evenodd" clip-rule="evenodd" d="M42.8642 5.73775C42.5329 5.73775 42.2049 5.80237 41.899 5.92788C41.5935 6.05326 41.3161 6.23693 41.0829 6.46832C40.6224 6.94914 40.3658 7.58532 40.3658 8.24655C40.3658 8.90769 40.6223 9.54379 41.0827 10.0246C41.5562 10.4883 42.1967 10.7485 42.8642 10.7485C43.5318 10.7485 44.1723 10.4882 44.6458 10.0245C45.108 9.54467 45.3658 8.90824 45.3658 8.24655C45.3658 7.58478 45.108 6.94827 44.6456 6.46841C44.4124 6.23697 44.135 6.05327 43.8294 5.92788C43.5235 5.80237 43.1955 5.73775 42.8642 5.73775ZM41.8347 5.77556C42.1609 5.64168 42.5108 5.57275 42.8642 5.57275C43.2176 5.57275 43.5675 5.64168 43.8937 5.77556C44.22 5.90943 44.5161 6.10562 44.7651 6.3528L44.7664 6.35408C45.2587 6.86469 45.5332 7.54217 45.5332 8.24655C45.5332 8.95093 45.2587 9.6284 44.7664 10.139L44.7647 10.1407C44.2597 10.6357 43.5764 10.9135 42.8642 10.9135C42.152 10.9135 41.4687 10.6357 40.9637 10.1407L40.9619 10.1389C40.4715 9.62733 40.1984 8.95026 40.1984 8.24655C40.1984 7.54285 40.4716 6.86581 40.9619 6.35427L40.9633 6.35279C41.2123 6.1056 41.5084 5.90943 41.8347 5.77556ZM71.8675 5.73775C71.5362 5.73775 71.2082 5.80237 70.9024 5.92788C70.5968 6.05325 70.3195 6.23691 70.0862 6.46828C69.6257 6.94911 69.3691 7.58531 69.3691 8.24655C69.3691 8.90769 69.6256 9.5438 70.086 10.0246C70.5596 10.4883 71.2 10.7485 71.8675 10.7485C72.5351 10.7485 73.1756 10.4882 73.6492 10.0245C74.1114 9.54462 74.3691 8.90822 74.3691 8.24655C74.3691 7.58479 74.1113 6.94829 73.649 6.46843C73.4157 6.23699 73.1383 6.05328 72.8327 5.92788C72.5269 5.80237 72.1988 5.73775 71.8675 5.73775ZM70.838 5.77556C71.1642 5.64168 71.5141 5.57275 71.8675 5.57275C72.2209 5.57275 72.5708 5.64168 72.8971 5.77556C73.2233 5.90943 73.5194 6.10562 73.7684 6.3528L73.7697 6.35408C74.262 6.8647 74.5365 7.54217 74.5365 8.24655C74.5365 8.95093 74.262 9.6284 73.7697 10.139L73.7681 10.1407C73.263 10.6357 72.5798 10.9135 71.8675 10.9135C71.1553 10.9135 70.4721 10.6357 69.967 10.1407L69.9652 10.1389C69.4749 9.62733 69.2017 8.95026 69.2017 8.24655C69.2017 7.54285 69.4749 6.86581 69.9652 6.35427L69.9666 6.35279C70.2156 6.1056 70.5118 5.90943 70.838 5.77556ZM49.6806 5.94767C49.3731 5.80994 49.038 5.74266 48.7004 5.7509L48.6967 5.75099C48.3624 5.74444 48.0303 5.80456 47.7203 5.92787C47.4102 6.05118 47.1287 6.23506 46.8927 6.46844C46.6567 6.70181 46.471 6.97986 46.3469 7.28582C46.2228 7.59179 46.1628 7.91935 46.1705 8.24877L46.1706 8.25258C46.1629 8.58201 46.2228 8.90957 46.3469 9.21553C46.471 9.5215 46.6567 9.79954 46.8927 10.0329C47.1287 10.2663 47.4102 10.4502 47.7203 10.5735C48.0303 10.6968 48.3624 10.757 48.6967 10.7504L48.6984 10.8329L48.7 10.7504C49.0794 10.7576 49.4557 10.6813 49.8015 10.5271C50.0907 10.3915 50.3487 10.1995 50.5599 9.96292L50.2272 9.63498C50.0458 9.83905 49.8246 10.0056 49.5765 10.1245C49.3006 10.2568 48.9983 10.3269 48.6914 10.3297C48.4234 10.3364 48.1568 10.2896 47.9077 10.192C47.6583 10.0943 47.4317 9.9477 47.2415 9.76116L47.2387 9.75843C46.8617 9.35234 46.6526 8.82176 46.6526 8.2713C46.6526 7.72084 46.8617 7.19032 47.2388 6.78423L47.2414 6.78138C47.4316 6.59484 47.6583 6.44835 47.9077 6.35063C48.1561 6.2533 48.4218 6.20645 48.689 6.21288C48.9681 6.19975 49.2465 6.25242 49.5008 6.36652C49.7282 6.46848 49.9305 6.61686 50.0946 6.80145L50.4248 6.48808C50.2178 6.259 49.9644 6.07483 49.6806 5.94767ZM48.6984 10.9154C48.3421 10.9222 47.9881 10.8579 47.6576 10.7265C47.3266 10.5948 47.0261 10.3985 46.7741 10.1494C46.5222 9.90026 46.324 9.60343 46.1915 9.27679C46.0592 8.95074 45.9951 8.60172 46.0031 8.25068C45.9951 7.89963 46.0592 7.55061 46.1915 7.22456C46.324 6.89793 46.5222 6.6011 46.7741 6.35195C47.0261 6.10281 47.3266 5.9065 47.6576 5.77486C47.988 5.64344 48.3419 5.57918 48.6982 5.58591C49.0604 5.57735 49.4199 5.64966 49.7498 5.79746C50.0803 5.9455 50.3724 6.16544 50.6042 6.44074L50.6539 6.4997L50.0793 7.04507L50.0221 6.97348C49.865 6.77695 49.6625 6.62033 49.4315 6.5167C49.2005 6.41308 48.9476 6.36546 48.6941 6.37783L48.6878 6.37813C48.4422 6.37184 48.1979 6.41449 47.9695 6.50396C47.7418 6.59319 47.5348 6.7269 47.3609 6.89705C47.013 7.27254 46.82 7.76272 46.82 8.2713C46.82 8.77989 47.013 9.27007 47.3609 9.64555C47.5348 9.8157 47.7418 9.94941 47.9695 10.0386C48.1979 10.1281 48.4422 10.171 48.6878 10.1647L48.6892 10.1647C48.9714 10.1622 49.2495 10.0978 49.5033 9.97614C49.7571 9.8545 49.9802 9.67866 50.1564 9.46141L50.2148 9.38939L50.7867 9.95308L50.7383 10.0109C50.5027 10.2926 50.2072 10.5198 49.8726 10.6764L49.8713 10.6771C49.5031 10.8414 49.1025 10.9228 48.6984 10.9154ZM79.8634 6.2161C79.6007 5.97965 79.2559 5.85154 78.9002 5.85816L78.8986 5.85818H77.166V10.6417L79.006 10.6102L79.0086 10.6102C79.3837 10.6153 79.7464 10.4784 80.0221 10.2278L80.0239 10.2261C80.1604 10.1093 80.269 9.96434 80.3422 9.80146C80.4153 9.63858 80.4512 9.46183 80.4472 9.28375L80.4472 9.28069C80.4508 9.04267 80.3714 8.81063 80.2223 8.62336L80.2216 8.62252C80.0765 8.43542 79.8776 8.29575 79.6508 8.22175L79.4438 8.15423L79.6434 8.06788C79.8288 7.98773 79.9875 7.85787 80.1015 7.69311C80.2157 7.52416 80.275 7.32489 80.2714 7.12188V7.11881C80.2748 6.9484 80.2401 6.77934 80.1699 6.62359C80.0997 6.46784 79.9956 6.3292 79.865 6.21748L79.8634 6.2161ZM79.9755 6.09358C79.6814 5.82926 79.2958 5.68597 78.8979 5.69318H76.9986V10.8096L79.0063 10.7752L79.0076 10.7752C79.4246 10.7806 79.8279 10.6284 80.1347 10.3499C80.2892 10.2173 80.4123 10.0529 80.4953 9.86824C80.5782 9.68368 80.6189 9.48343 80.6146 9.28165L80.6146 9.28316L80.5309 9.28193L80.6145 9.2801L80.6146 9.28165C80.6184 9.00654 80.5266 8.73841 80.3543 8.52189C80.2263 8.35694 80.0616 8.22435 79.8739 8.1337C80.0184 8.04406 80.1432 7.92576 80.2401 7.78564L80.2406 7.78496C80.3736 7.58843 80.4427 7.35666 80.4388 7.12049L80.4388 7.12204L80.3551 7.12043L80.4388 7.11897L80.4388 7.12049C80.4424 6.92643 80.4029 6.73395 80.3229 6.55658C80.2428 6.37906 80.1243 6.22102 79.9755 6.09358ZM35.7075 5.69318H39.2231V10.0327H39.7839V11.8477H38.9971V10.8082H35.3309V11.8559H34.5441V10.0409H35.1186C35.3386 9.80394 35.5053 9.52367 35.6076 9.21845C35.7137 8.90205 35.748 8.56656 35.7081 8.23565L35.7075 8.2308V5.69318ZM35.875 5.85818V8.22109C35.9168 8.57439 35.8798 8.93245 35.7665 9.27022C35.6528 9.60955 35.4648 9.92013 35.216 10.18L35.1912 10.2059H34.7115V11.6909H35.1635V10.6432H39.1645V11.6827H39.6165V10.1977H39.0557V5.85818H35.875ZM51.1676 5.69318H54.7836V6.46868H53.3858V10.8082H52.5738V6.46868H51.1676V5.69318ZM51.335 5.85818V6.30368H52.7412V10.6432H53.2184V6.30368H54.6162V5.85818H51.335ZM58.3187 5.69318H59.2655L57.3146 9.97924C57.233 10.2404 57.0717 10.4705 56.8525 10.638C56.6318 10.8066 56.3635 10.9035 56.0846 10.9153L56.08 10.9155C55.8957 10.9132 55.7138 10.8743 55.5451 10.8012L55.4785 10.7723L55.6949 10.015L55.7883 10.0686C55.8775 10.1198 55.9786 10.1472 56.0818 10.1482L56.0873 10.1482C56.1908 10.1559 56.2942 10.1325 56.3836 10.0809C56.4713 10.0063 56.5389 9.9116 56.5805 9.80506L56.5823 9.80023L56.7508 9.43842L55.039 5.70143H55.9855L57.168 8.4105L58.3187 5.69318ZM58.4303 5.85818L57.1703 8.83335L55.8752 5.86643H55.2983L56.9347 9.43893L56.7357 9.86677C56.6832 10.0002 56.5975 10.1186 56.4867 10.2111L56.4815 10.2154L56.4758 10.2188C56.3561 10.29 56.2169 10.3229 56.0775 10.3131C55.9818 10.3119 55.8876 10.2929 55.7996 10.2575L55.6797 10.6769C55.8077 10.7235 55.943 10.7484 56.0798 10.7504C56.3232 10.7396 56.5573 10.6548 56.7499 10.5076C56.9431 10.36 57.085 10.1568 57.156 9.92621L57.1576 9.92119L59.0069 5.85818H58.4303ZM59.7807 5.69318H63.5809V10.8082H62.7689V6.46868H60.5926V10.8082H59.7807V5.69318ZM59.9481 5.85818V10.6432H60.4252V6.30368H62.9363V10.6432H63.4135V5.85818H59.9481ZM64.5602 5.69318H65.3721V7.81343H67.7158V5.69318H68.5278V10.8082H67.7158V8.57243H65.3721V10.8082H64.5602V5.69318ZM64.7276 5.85818V10.6432H65.2047V8.40743H67.8832V10.6432H68.3604V5.85818H67.8832V7.97843H65.2047V5.85818H64.7276ZM41.4408 6.77322C41.8188 6.40215 42.3307 6.19381 42.8642 6.19381C43.3978 6.19381 43.9096 6.40215 44.2876 6.77322L44.2907 6.77618C44.6622 7.17991 44.868 7.70558 44.868 8.25068C44.868 8.79578 44.6622 9.32137 44.2906 9.72511L44.2877 9.72821C43.9097 10.0993 43.3978 10.3075 42.8642 10.3075C42.3307 10.3075 41.8188 10.0992 41.4408 9.72813L41.4998 9.66968L41.4378 9.72511C41.0663 9.32137 40.8604 8.79578 40.8604 8.25068C40.8604 7.70557 41.0663 7.17998 41.4378 6.77625L41.4408 6.77322ZM41.5604 9.61269C41.907 9.95205 42.3756 10.1425 42.8642 10.1425C43.3528 10.1425 43.8215 9.95205 44.168 9.61269C44.5108 9.23952 44.7006 8.75409 44.7006 8.25068C44.7006 7.74726 44.5108 7.26184 44.168 6.88866C43.8215 6.5493 43.3528 6.35881 42.8642 6.35881C42.3756 6.35881 41.907 6.5493 41.5604 6.88866C41.2177 7.26184 41.0278 7.74726 41.0278 8.25068C41.0278 8.75409 41.2177 9.23952 41.5604 9.61269ZM70.4441 6.77322C70.8222 6.40215 71.334 6.19381 71.8675 6.19381C72.4011 6.19381 72.9129 6.40215 73.291 6.77322L73.294 6.77618C73.6656 7.17991 73.8713 7.70557 73.8713 8.25068C73.8713 8.79578 73.6655 9.32137 73.2939 9.72511L73.291 9.72821C72.913 10.0993 72.4011 10.3075 71.8675 10.3075C71.334 10.3075 70.8222 10.0992 70.4441 9.72813L70.5032 9.66968L70.4412 9.72511C70.0696 9.32137 69.8638 8.79578 69.8638 8.25068C69.8638 7.70557 70.0696 7.17998 70.4412 6.77625L70.4441 6.77322ZM70.5637 9.6127C70.9103 9.95205 71.379 10.1425 71.8675 10.1425C72.3561 10.1425 72.8248 9.95205 73.1713 9.6127C73.5141 9.23952 73.7039 8.7541 73.7039 8.25068C73.7039 7.74726 73.5141 7.26183 73.1713 6.88865C72.8248 6.5493 72.3561 6.35881 71.8675 6.35881C71.379 6.35881 70.9103 6.5493 70.5637 6.88865C70.221 7.26183 70.0312 7.74726 70.0312 8.25068C70.0312 8.7541 70.221 9.23952 70.5637 9.6127ZM78.956 6.27893C79.0734 6.27565 79.1901 6.29779 79.2979 6.34377C79.4055 6.38968 79.5016 6.45822 79.5795 6.5446C79.6564 6.6229 79.7166 6.71558 79.7567 6.8172C79.7969 6.91944 79.8159 7.02863 79.8124 7.13826C79.8089 7.24788 79.7831 7.35569 79.7364 7.45526C79.6903 7.5537 79.6247 7.64209 79.5436 7.71528C79.4617 7.80226 79.3617 7.87082 79.2504 7.91625C79.1385 7.96194 79.0179 7.98315 78.8969 7.97843H77.6413L77.6784 6.27893H78.956ZM79.2314 6.4952C79.1458 6.45866 79.053 6.44114 78.9597 6.44389L78.9572 6.44393H77.8422L77.8123 7.81343H78.9021C78.9994 7.81743 79.0964 7.80055 79.1864 7.76382C79.2763 7.72709 79.357 7.67147 79.423 7.60083L79.4255 7.59808L79.4283 7.59556C79.4941 7.53677 79.5472 7.46552 79.5845 7.38607C79.6217 7.30662 79.6423 7.22059 79.6451 7.1331C79.6479 7.04563 79.6327 6.95849 79.6006 6.8769C79.5685 6.79531 79.52 6.72094 79.4581 6.65821L79.4553 6.65538C79.3935 6.58647 79.3171 6.53174 79.2314 6.4952ZM36.327 6.30368H38.5284V10.2307H35.7852L35.8619 10.1055C36.203 9.54928 36.3652 8.90428 36.3271 8.25544L36.3268 8.25068L36.327 6.30368ZM36.4944 6.46868V8.24831C36.5311 8.88147 36.3864 9.51106 36.0783 10.0657H38.361V6.46868H36.4944ZM77.6695 8.39093H79.0242C79.2684 8.39093 79.5026 8.48654 79.6753 8.65673C79.8479 8.82691 79.9449 9.05774 79.9449 9.29843L79.9449 9.29959C79.9416 9.52953 79.8499 9.74964 79.6883 9.91546C79.6052 10.0077 79.5026 10.0807 79.3877 10.1295C79.2726 10.1783 79.148 10.2016 79.0228 10.1977H77.6418L77.6695 8.39093ZM77.8344 8.55593L77.8118 10.0327H79.027C79.128 10.036 79.2286 10.0174 79.3215 9.97796C79.4143 9.93855 79.4972 9.87942 79.5642 9.80477L79.5665 9.80211C79.6992 9.66646 79.7747 9.48622 79.7775 9.29783C79.7774 9.10112 79.698 8.9125 79.5569 8.7734C79.4156 8.63415 79.224 8.55593 79.0242 8.55593H77.8344Z" fill="black"/>
<path d="M8.82648 26.9773L19.0807 16.4946L8.83507 6.03076C8.56141 6.19367 8.39206 6.57087 8.39206 7.06462V25.9535C8.39573 26.4472 8.55895 26.7968 8.82648 26.9773Z" fill="black"/>
<path d="M19.4476 16.2049L22.502 13.082L10.0635 6.10943C9.85406 5.98502 9.61614 5.91931 9.37384 5.91895L19.4464 16.2036L19.4476 16.2049Z" fill="black"/>
<path d="M19.4476 16.7847L9.34317 27.1145C9.59678 27.1188 9.84659 27.0511 10.0647 26.919L22.5278 19.9276L19.4476 16.7847Z" fill="black"/>
<path d="M27.0079 15.6127L22.8687 13.2881L19.7309 16.4962L22.892 19.7243L27.0067 17.406C27.8817 16.9135 27.8817 16.1027 27.0079 15.6127Z" fill="black"/>
</svg>
