<svg width="113" height="33" viewBox="0 0 113 33" fill="none" xmlns="http://www.w3.org/2000/svg">
<path d="M108.815 0.66C109.747 0.66 110.641 1.02506 111.301 1.67487C111.96 2.32469 112.33 3.20602 112.33 4.125V28.875C112.33 29.794 111.96 30.6753 111.301 31.3251C110.641 31.9749 109.747 32.34 108.815 32.34H4.18519C3.2528 32.34 2.35861 31.9749 1.69931 31.3251C1.04002 30.6753 0.66963 29.794 0.66963 28.875V4.125C0.66963 3.20602 1.04002 2.32469 1.69931 1.67487C2.35861 1.02506 3.2528 0.66 4.18519 0.66H108.815ZM108.815 0H4.18519C3.07521 0 2.01069 0.434597 1.22581 1.20818C0.440938 1.98177 0 3.03098 0 4.125V28.875C0 29.969 0.440938 31.0182 1.22581 31.7918C2.01069 32.5654 3.07521 33 4.18519 33H108.815C109.925 33 110.989 32.5654 111.774 31.7918C112.559 31.0182 113 29.969 113 28.875V4.125C113 3.03098 112.559 1.98177 111.774 1.20818C110.989 0.434597 109.925 0 108.815 0Z" fill="#A6A6A6"/>
<path d="M57.0364 17.9444C56.3336 17.9476 55.6474 18.156 55.0646 18.5433C54.4818 18.9305 54.0285 19.4793 53.7618 20.1202C53.4951 20.7612 53.427 21.4656 53.5662 22.1447C53.7053 22.8238 54.0454 23.447 54.5436 23.9357C55.0418 24.4244 55.6757 24.7567 56.3653 24.8906C57.0549 25.0246 57.7693 24.9542 58.4184 24.6884C59.0674 24.4225 59.622 23.9731 60.0122 23.3969C60.4023 22.8206 60.6106 22.1434 60.6106 21.4506C60.6174 20.9869 60.5295 20.5266 60.3521 20.0971C60.1747 19.6675 59.9114 19.2776 59.5779 18.9505C59.2444 18.6233 58.8475 18.3656 58.4109 18.1928C57.9743 18.0199 57.5069 17.9355 57.0364 17.9444ZM57.0364 23.5791C56.6042 23.6089 56.1728 23.5098 55.7984 23.2948C55.424 23.0798 55.1239 22.7587 54.9371 22.3733C54.7504 21.988 54.6855 21.5561 54.751 21.1339C54.8166 20.7118 55.0094 20.3188 55.3046 20.0061C55.5997 19.6934 55.9835 19.4754 56.4059 19.3805C56.8284 19.2856 57.2701 19.3182 57.6736 19.474C58.077 19.6298 58.4236 19.9016 58.6682 20.2541C58.9129 20.6066 59.0443 21.0235 59.0453 21.4506C59.0588 21.7212 59.0172 21.9918 58.9229 22.2463C58.8286 22.5008 58.6836 22.7341 58.4963 22.9325C58.3091 23.1308 58.0835 23.2903 57.8327 23.4013C57.582 23.5124 57.3112 23.5728 57.0364 23.5791ZM49.2436 17.9444C48.5404 17.946 47.8534 18.153 47.2695 18.5393C46.6856 18.9255 46.2309 19.4737 45.963 20.1145C45.695 20.7554 45.6257 21.4601 45.7639 22.1397C45.9022 22.8193 46.2416 23.4433 46.7395 23.9328C47.2373 24.4223 47.8712 24.7555 48.561 24.8901C49.2509 25.0247 49.9657 24.9548 50.6153 24.6892C51.2648 24.4235 51.8199 23.9741 52.2104 23.3977C52.601 22.8213 52.8094 22.1437 52.8094 21.4506C52.8162 20.9869 52.7283 20.5266 52.5509 20.0971C52.3735 19.6675 52.1102 19.2776 51.7767 18.9505C51.4432 18.6233 51.0463 18.3656 50.6097 18.1928C50.1731 18.0199 49.7057 17.9355 49.2352 17.9444H49.2436ZM49.2436 23.5791C48.8111 23.6106 48.3791 23.513 48.0036 23.2991C47.6282 23.0851 47.3269 22.7648 47.1388 22.3796C46.9507 21.9945 46.8845 21.5625 46.949 21.1399C47.0135 20.7172 47.2056 20.3235 47.5003 20.0099C47.795 19.6964 48.1787 19.4775 48.6013 19.3819C49.024 19.2862 49.4661 19.3182 49.87 19.4737C50.274 19.6291 50.6211 19.9008 50.8662 20.2534C51.1112 20.606 51.2429 21.0232 51.2441 21.4506C51.2576 21.7212 51.216 21.9918 51.1217 22.2463C51.0274 22.5008 50.8824 22.7341 50.6951 22.9325C50.5079 23.1308 50.2823 23.2903 50.0315 23.4013C49.7808 23.5124 49.5101 23.5728 49.2352 23.5791H49.2436ZM39.9609 19.0251V20.5101H43.5769C43.5202 21.2095 43.2252 21.8695 42.7398 22.3829C42.3781 22.7461 41.9432 23.0306 41.4631 23.2181C40.9831 23.4057 40.4685 23.4921 39.9525 23.4719C38.8869 23.4719 37.865 23.0546 37.1115 22.312C36.358 21.5694 35.9347 20.5621 35.9347 19.5119C35.9347 18.4616 36.358 17.4544 37.1115 16.7117C37.865 15.9691 38.8869 15.5519 39.9525 15.5519C40.9718 15.5355 41.9562 15.9182 42.6896 16.6161L43.7526 15.5684C43.2575 15.0742 42.6668 14.683 42.0155 14.418C41.3641 14.153 40.6655 14.0196 39.9609 14.0256C39.2167 13.9971 38.4744 14.1169 37.7784 14.3779C37.0824 14.6388 36.447 15.0356 35.9102 15.5444C35.3735 16.0533 34.9465 16.6636 34.6549 17.339C34.3632 18.0143 34.2129 18.7408 34.2129 19.4747C34.2129 20.2087 34.3632 20.9351 34.6549 21.6105C34.9465 22.2858 35.3735 22.8962 35.9102 23.405C36.447 23.9138 37.0824 24.3106 37.7784 24.5716C38.4744 24.8326 39.2167 24.9524 39.9609 24.9239C40.6773 24.9558 41.3924 24.8361 42.058 24.5728C42.7236 24.3095 43.3243 23.9088 43.8196 23.3976C44.6965 22.448 45.1648 21.1996 45.1254 19.9161C45.1281 19.6034 45.1001 19.2912 45.0417 18.9839L39.9609 19.0251ZM77.887 20.1801C77.6687 19.5471 77.2605 18.9944 76.7164 18.5952C76.1723 18.1959 75.5181 17.969 74.8402 17.9444C74.3823 17.9435 73.9292 18.0352 73.5087 18.2137C73.0882 18.3923 72.7093 18.654 72.3955 18.9826C72.0817 19.3113 71.8396 19.6998 71.6842 20.1243C71.5288 20.5488 71.4634 21.0002 71.4921 21.4506C71.4819 21.9117 71.5661 22.3701 71.7397 22.7984C71.9133 23.2267 72.1727 23.6161 72.5024 23.9434C72.8321 24.2707 73.2254 24.5291 73.6587 24.7032C74.092 24.8774 74.5565 24.9636 75.0243 24.9569C75.6099 24.96 76.187 24.8199 76.7041 24.5492C77.2212 24.2786 77.6622 23.8857 77.9875 23.4059L76.7738 22.5809C76.5926 22.8785 76.3362 23.1247 76.0295 23.2953C75.7228 23.466 75.3765 23.5552 75.0243 23.5544C74.6618 23.568 74.3034 23.4738 73.9959 23.284C73.6884 23.0942 73.4459 22.8175 73.3 22.4901L78.0628 20.5514L77.887 20.1801ZM73.0322 21.3516C73.0152 21.0964 73.0501 20.8405 73.1347 20.5987C73.2194 20.357 73.3521 20.1344 73.5252 19.9438C73.6982 19.7533 73.9081 19.5987 74.1425 19.4891C74.377 19.3795 74.6312 19.3171 74.8904 19.3056C75.1604 19.2881 75.4297 19.3491 75.6648 19.4811C75.8999 19.6131 76.0905 19.8103 76.2129 20.0481L73.0322 21.3516ZM69.1651 24.7506H70.7303V14.4381H69.1651V24.7506ZM66.6038 18.7281H66.5452C66.3093 18.4682 66.0203 18.2603 65.6971 18.1181C65.374 17.9759 65.0241 17.9027 64.6702 17.9031C63.7555 17.9468 62.8929 18.3358 62.2612 18.9893C61.6295 19.6428 61.2771 20.5109 61.2771 21.4135C61.2771 22.3161 61.6295 23.1841 62.2612 23.8377C62.8929 24.4912 63.7555 24.8801 64.6702 24.9239C65.0249 24.9297 65.3766 24.8589 65.7005 24.7164C66.0245 24.5738 66.3128 24.3631 66.5452 24.0989H66.5954V24.6021C66.5954 25.9469 65.8672 26.6646 64.6953 26.6646C64.305 26.6556 63.9263 26.5323 63.6073 26.3105C63.2883 26.0886 63.0435 25.7783 62.9041 25.4189L61.5397 25.9799C61.7965 26.5956 62.2341 27.1217 62.7964 27.4906C63.3586 27.8596 64.0199 28.0546 64.6953 28.0506C66.5284 28.0506 68.0435 26.9864 68.0435 24.3959V18.1506H66.6038V18.7281ZM64.8125 23.5791C64.2726 23.5322 63.77 23.2877 63.404 22.8937C63.0379 22.4997 62.8349 21.9848 62.8349 21.4506C62.8349 20.9164 63.0379 20.4015 63.404 20.0075C63.77 19.6136 64.2726 19.369 64.8125 19.3221C65.0802 19.3356 65.3424 19.4019 65.5838 19.5168C65.8251 19.6318 66.0407 19.7932 66.2178 19.9916C66.3948 20.1899 66.5298 20.4212 66.6148 20.6718C66.6998 20.9224 66.733 21.1872 66.7126 21.4506C66.7354 21.7152 66.7036 21.9816 66.619 22.2337C66.5344 22.4858 66.3988 22.7183 66.2204 22.9173C66.042 23.1162 65.8245 23.2775 65.5811 23.3912C65.3376 23.505 65.0733 23.5689 64.8041 23.5791H64.8125ZM85.2195 14.4381H81.4779V24.7506H83.0432V20.8401H85.2278C85.6739 20.8717 86.1218 20.8124 86.5437 20.6658C86.9655 20.5193 87.3521 20.2886 87.6795 19.9883C88.0069 19.688 88.268 19.3244 88.4465 18.9202C88.6251 18.516 88.7172 18.0799 88.7172 17.6391C88.7172 17.1983 88.6251 16.7622 88.4465 16.358C88.268 15.9538 88.0069 15.5903 87.6795 15.2899C87.3521 14.9896 86.9655 14.759 86.5437 14.6124C86.1218 14.4659 85.6739 14.4065 85.2278 14.4381H85.2195ZM85.2195 19.3881H83.0348V15.8736H85.2529C85.7291 15.8736 86.1858 16.0601 86.5225 16.3919C86.8592 16.7238 87.0484 17.1739 87.0484 17.6432C87.0484 18.1126 86.8592 18.5627 86.5225 18.8945C86.1858 19.2264 85.7291 19.4129 85.2529 19.4129L85.2195 19.3881ZM94.8705 17.9031C94.3006 17.8695 93.7333 18.0008 93.2381 18.2807C92.7429 18.5607 92.3415 18.9771 92.0832 19.4789L93.4726 20.0481C93.6096 19.7992 93.8171 19.595 94.0697 19.4603C94.3224 19.3255 94.6093 19.266 94.8956 19.2891C95.0943 19.2662 95.2956 19.2826 95.4879 19.3372C95.6801 19.3919 95.8593 19.4837 96.0152 19.6073C96.171 19.731 96.3003 19.884 96.3955 20.0574C96.4907 20.2308 96.5499 20.4212 96.5697 20.6174V20.7246C96.0669 20.4623 95.5063 20.3262 94.9375 20.3286C93.4392 20.3286 91.9241 21.1536 91.9241 22.6469C91.9389 22.9653 92.0183 23.2775 92.1576 23.5651C92.297 23.8528 92.4934 24.1099 92.7353 24.3214C92.9772 24.533 93.2597 24.6945 93.5661 24.7966C93.8724 24.8986 94.1964 24.9391 94.5189 24.9156C94.9131 24.9435 95.3076 24.8663 95.6611 24.6921C96.0146 24.5179 96.314 24.2532 96.5278 23.9256H96.578V24.7506H98.0847V20.7824C98.0847 18.9756 96.6952 17.9279 94.9123 17.9279L94.8705 17.9031ZM94.678 23.5544C94.1674 23.5544 93.4559 23.2986 93.4559 22.6799C93.4559 21.8549 94.3432 21.5826 95.13 21.5826C95.6272 21.5705 96.1186 21.6902 96.5529 21.9291C96.5006 22.3758 96.2863 22.7887 95.9494 23.0919C95.6125 23.3951 95.1759 23.5682 94.7198 23.5791L94.678 23.5544ZM103.576 18.1506L101.784 22.6221H101.734L99.876 18.1506H98.2019L100.989 24.4041L99.3989 27.8774H101.031L105.317 18.1506H103.576ZM89.5051 24.7506H91.0703V14.4381H89.5051V24.7506Z" fill="white"/>
<path d="M35.248 11.7729H34.6286V10.1229H35.156C35.3964 9.8718 35.578 9.57171 35.6879 9.24385C35.7978 8.91598 35.8334 8.56833 35.7921 8.22544V5.77519H39.1403V10.1147H39.7011V11.7647H39.0817V10.7252H35.248V11.7729ZM36.4115 8.25019C36.4506 8.91567 36.2842 9.5772 35.9344 10.1477H38.4455V6.38569H36.4115V8.25019ZM44.7065 10.0817C44.2172 10.5613 43.5552 10.8305 42.8651 10.8305C42.175 10.8305 41.5129 10.5613 41.0236 10.0817C40.548 9.58547 40.283 8.9287 40.283 8.24606C40.283 7.56343 40.548 6.90666 41.0236 6.41044C41.2648 6.17098 41.5517 5.98092 41.8677 5.85123C42.1838 5.72154 42.5227 5.65477 42.8651 5.65477C43.2074 5.65477 43.5464 5.72154 43.8624 5.85123C44.1785 5.98092 44.4654 6.17098 44.7065 6.41044C45.1841 6.90571 45.4503 7.56284 45.4503 8.24606C45.4503 8.92929 45.1841 9.58642 44.7065 10.0817ZM41.5007 9.66919C41.8631 10.0249 42.3537 10.2246 42.8651 10.2246C43.3765 10.2246 43.8671 10.0249 44.2294 9.66919C44.5871 9.28063 44.7851 8.7748 44.7851 8.25019C44.7851 7.72558 44.5871 7.21975 44.2294 6.83119C43.8671 6.47551 43.3765 6.27582 42.8651 6.27582C42.3537 6.27582 41.8631 6.47551 41.5007 6.83119C41.1431 7.21975 40.945 7.72558 40.945 8.25019C40.945 8.7748 41.1431 9.28063 41.5007 9.66919ZM48.6992 10.8324C48.3537 10.8392 48.0103 10.777 47.6898 10.6495C47.3693 10.522 47.0783 10.3319 46.8343 10.0907C46.5903 9.84941 46.3983 9.56197 46.27 9.24567C46.1417 8.92937 46.0797 8.59075 46.0877 8.25019C46.0797 7.90963 46.1417 7.57101 46.27 7.2547C46.3983 6.9384 46.5903 6.65097 46.8343 6.40971C47.0783 6.16845 47.3693 5.97835 47.6898 5.85088C48.0103 5.7234 48.3537 5.66117 48.6992 5.66794C49.0495 5.65939 49.3971 5.72918 49.716 5.87207C50.035 6.01496 50.3169 6.22723 50.5407 6.49294L50.0887 6.92194C49.9234 6.71507 49.7102 6.5502 49.467 6.44112C49.2238 6.33205 48.9577 6.28192 48.6908 6.29494C48.4339 6.28836 48.1783 6.33322 47.9395 6.42681C47.7006 6.5204 47.4836 6.66078 47.3014 6.83944C46.9384 7.23032 46.7372 7.74097 46.7372 8.27081C46.7372 8.80066 46.9384 9.31131 47.3014 9.70219C47.4836 9.88085 47.7006 10.0212 47.9395 10.1148C48.1783 10.2084 48.4339 10.2533 48.6908 10.2467C48.9855 10.2441 49.2758 10.1769 49.5408 10.0498C49.8057 9.92284 50.0386 9.73926 50.2226 9.51244L50.6746 9.95794C50.4468 10.2303 50.1611 10.45 49.8376 10.6014C49.4803 10.7609 49.0914 10.8399 48.6992 10.8324ZM53.3029 10.7252H52.6584V6.38569H51.2522V5.77519H54.7008V6.38569H53.3029V10.7252ZM59.1371 5.77519L57.237 9.94969C57.1609 10.1966 57.0089 10.4142 56.802 10.5723C56.5951 10.7305 56.3435 10.8213 56.0819 10.8324C55.9089 10.8303 55.7381 10.7938 55.5797 10.7252L55.7471 10.1394C55.8488 10.1978 55.9642 10.2291 56.0819 10.2302C56.2049 10.2393 56.3278 10.2105 56.4334 10.1477C56.5343 10.0635 56.612 9.95573 56.6594 9.83419L56.8436 9.43819L55.1695 5.78344H55.9312L57.17 8.62144L58.3754 5.77519H59.1371ZM59.8653 10.7252V5.77519H63.498V10.7252H62.8535V6.38569H60.5098V10.7252H59.8653ZM64.6448 10.7252V5.77519H65.2893V7.89544H67.8004V5.77519H68.4449V10.7252H67.8004V8.48944H65.2893V10.7252H64.6448ZM73.7099 10.0817C73.2205 10.5613 72.5585 10.8305 71.8684 10.8305C71.1783 10.8305 70.5162 10.5613 70.0269 10.0817C69.5513 9.58547 69.2863 8.9287 69.2863 8.24606C69.2863 7.56343 69.5513 6.90666 70.0269 6.41044C70.2681 6.17098 70.555 5.98092 70.871 5.85123C71.1871 5.72154 71.526 5.65477 71.8684 5.65477C72.2107 5.65477 72.5497 5.72154 72.8657 5.85123C73.1818 5.98092 73.4687 6.17098 73.7099 6.41044C74.1874 6.90571 74.4536 7.56284 74.4536 8.24606C74.4536 8.92929 74.1874 9.58642 73.7099 10.0817ZM70.504 9.66919C70.8664 10.0249 71.357 10.2246 71.8684 10.2246C72.3798 10.2246 72.8704 10.0249 73.2328 9.66919C73.5904 9.28063 73.7885 8.7748 73.7885 8.25019C73.7885 7.72558 73.5904 7.21975 73.2328 6.83119C72.8704 6.47551 72.3798 6.27582 71.8684 6.27582C71.357 6.27582 70.8664 6.47551 70.504 6.83119C70.1464 7.21975 69.9483 7.72558 69.9483 8.25019C69.9483 8.7748 70.1464 9.28063 70.504 9.66919ZM77.0831 10.7252V5.77519H78.8995C79.2766 5.76817 79.6421 5.904 79.9207 6.15469C80.0606 6.27433 80.172 6.4228 80.2472 6.58959C80.3225 6.75639 80.3596 6.93744 80.3559 7.11994C80.3599 7.33985 80.2956 7.55571 80.1718 7.73869C80.0489 7.91642 79.8778 8.0565 79.6779 8.14294C79.9207 8.22216 80.1337 8.37166 80.289 8.57194C80.4499 8.77407 80.5356 9.02452 80.5317 9.28144C80.536 9.47163 80.4977 9.66041 80.4196 9.83436C80.3415 10.0083 80.2254 10.1632 80.0797 10.2879C79.7883 10.5529 79.4048 10.6976 79.0083 10.6922L77.0831 10.7252ZM77.7276 7.89544H78.8995C79.0089 7.89994 79.1181 7.88087 79.2192 7.83955C79.3204 7.79823 79.4113 7.73565 79.4854 7.65619C79.5595 7.58996 79.6193 7.50969 79.6613 7.42018C79.7033 7.33067 79.7265 7.23375 79.7296 7.13519C79.7327 7.03664 79.7157 6.93848 79.6795 6.84656C79.6433 6.75464 79.5887 6.67085 79.5189 6.60019C79.449 6.5222 79.3625 6.46034 79.2655 6.419C79.1686 6.37765 79.0636 6.35783 78.9581 6.36094H77.7611L77.7276 7.89544ZM77.7276 10.1147H79.0251C79.1384 10.1184 79.2512 10.0975 79.3554 10.0532C79.4596 10.009 79.5526 9.94268 79.6277 9.85894C79.7753 9.70807 79.8591 9.50749 79.8621 9.29794C79.8621 9.07913 79.7739 8.86929 79.6169 8.71457C79.4599 8.55986 79.2471 8.47294 79.0251 8.47294H77.7528L77.7276 10.1147Z" fill="white"/>
<path fill-rule="evenodd" clip-rule="evenodd" d="M42.8651 5.73727C42.5338 5.73727 42.2057 5.80188 41.8999 5.92739C41.5943 6.05277 41.317 6.23644 41.0837 6.46784C40.6232 6.94865 40.3667 7.58484 40.3667 8.24606C40.3667 8.9072 40.6232 9.5433 41.0835 10.0241C41.5571 10.4878 42.1975 10.748 42.8651 10.748C43.5326 10.748 44.1731 10.4877 44.6467 10.024C45.1089 9.54418 45.3666 8.90775 45.3666 8.24606C45.3666 7.58429 45.1088 6.94778 44.6465 6.46792C44.4132 6.23649 44.1358 6.05279 43.8302 5.92739C43.5244 5.80188 43.1964 5.73727 42.8651 5.73727ZM41.8355 5.77507C42.1618 5.64119 42.5117 5.57227 42.8651 5.57227C43.2185 5.57227 43.5684 5.64119 43.8946 5.77507C44.2208 5.90894 44.517 6.10513 44.766 6.35232L44.7672 6.35359C45.2595 6.8642 45.534 7.54168 45.534 8.24606C45.534 8.95044 45.2595 9.62791 44.7672 10.1385L44.7656 10.1402C44.2606 10.6352 43.5773 10.913 42.8651 10.913C42.1528 10.913 41.4696 10.6352 40.9646 10.1402L40.9627 10.1384C40.4724 9.62684 40.1993 8.94977 40.1993 8.24606C40.1993 7.54236 40.4724 6.86532 40.9627 6.35378L40.9642 6.3523C41.2131 6.10511 41.5093 5.90894 41.8355 5.77507ZM71.8684 5.73727C71.5371 5.73727 71.2091 5.80188 70.9032 5.92739C70.5977 6.05276 70.3203 6.23642 70.0871 6.4678C69.6266 6.94862 69.37 7.58482 69.37 8.24606C69.37 8.9072 69.6265 9.54331 70.0869 10.0241C70.5604 10.4878 71.2008 10.748 71.8684 10.748C72.536 10.748 73.1765 10.4877 73.65 10.024C74.1122 9.54413 74.3699 8.90773 74.3699 8.24606C74.3699 7.5843 74.1122 6.9478 73.6498 6.46794C73.4166 6.2365 73.1392 6.05279 72.8336 5.92739C72.5277 5.80188 72.1997 5.73727 71.8684 5.73727ZM70.8389 5.77507C71.1651 5.64119 71.515 5.57227 71.8684 5.57227C72.2218 5.57227 72.5717 5.64119 72.8979 5.77507C73.2242 5.90894 73.5203 6.10513 73.7693 6.35232L73.7706 6.35359C74.2628 6.86421 74.5373 7.54168 74.5373 8.24606C74.5373 8.95044 74.2628 9.62791 73.7705 10.1385L73.7689 10.1402C73.2639 10.6352 72.5806 10.913 71.8684 10.913C71.1562 10.913 70.4729 10.6352 69.9679 10.1402L69.966 10.1384C69.4757 9.62684 69.2026 8.94977 69.2026 8.24606C69.2026 7.54236 69.4758 6.86532 69.9661 6.35378L69.9675 6.3523C70.2165 6.10511 70.5126 5.90894 70.8389 5.77507ZM49.6814 5.94718C49.374 5.80945 49.0389 5.74218 48.7013 5.75041L48.6975 5.75051C48.3633 5.74396 48.0311 5.80407 47.7211 5.92738C47.4111 6.05069 47.1296 6.23457 46.8936 6.46795C46.6575 6.70133 46.4719 6.97937 46.3478 7.28533C46.2236 7.5913 46.1636 7.91886 46.1713 8.24828L46.1714 8.25209C46.1637 8.58152 46.2236 8.90908 46.3478 9.21504C46.4719 9.52101 46.6575 9.79905 46.8936 10.0324C47.1296 10.2658 47.4111 10.4497 47.7211 10.573C48.0311 10.6963 48.3633 10.7565 48.6975 10.75L48.6992 10.8324L48.7008 10.75C49.0803 10.7571 49.4566 10.6808 49.8023 10.5266C50.0916 10.3911 50.3496 10.199 50.5608 9.96243L50.2281 9.6345C50.0467 9.83856 49.8255 10.0051 49.5774 10.124C49.3014 10.2563 48.9991 10.3264 48.6923 10.3292C48.4243 10.3359 48.1577 10.2891 47.9085 10.1915C47.6592 10.0938 47.4326 9.94721 47.2423 9.76067L47.2395 9.75794C46.8625 9.35185 46.6535 8.82128 46.6535 8.27081C46.6535 7.72035 46.8626 7.18984 47.2396 6.78374L47.2423 6.78089C47.4325 6.59436 47.6592 6.44786 47.9085 6.35015C48.1569 6.25282 48.4227 6.20596 48.6899 6.21239C48.969 6.19927 49.2473 6.25193 49.5017 6.36604C49.729 6.46799 49.9313 6.61637 50.0955 6.80096L50.4257 6.48759C50.2187 6.25851 49.9652 6.07434 49.6814 5.94718ZM48.6992 10.915C48.343 10.9217 47.9889 10.8575 47.6585 10.726C47.3275 10.5944 47.027 10.3981 46.775 10.1489C46.523 9.89977 46.3248 9.60294 46.1923 9.2763C46.06 8.95025 45.996 8.60123 46.0039 8.25019C45.996 7.89914 46.06 7.55012 46.1923 7.22408C46.3248 6.89744 46.523 6.60061 46.775 6.35146C47.027 6.10232 47.3275 5.90602 47.6585 5.77437C47.9889 5.64295 48.3428 5.57869 48.699 5.58542C49.0613 5.57686 49.4208 5.64917 49.7507 5.79697C50.0811 5.94502 50.3733 6.16495 50.6051 6.44025L50.6548 6.49921L50.0801 7.04458L50.0229 6.97299C49.8659 6.77646 49.6634 6.61984 49.4324 6.51621C49.2013 6.41259 48.9485 6.36497 48.695 6.37734L48.6887 6.37765C48.4431 6.37135 48.1987 6.414 47.9704 6.50347C47.7427 6.5927 47.5357 6.72642 47.3618 6.89656C47.0138 7.27205 46.8209 7.76223 46.8209 8.27081C46.8209 8.7794 47.0138 9.26958 47.3618 9.64507C47.5357 9.81521 47.7427 9.94893 47.9704 10.0382C48.1987 10.1276 48.4431 10.1705 48.6887 10.1642L48.6901 10.1642C48.9723 10.1617 49.2504 10.0973 49.5041 9.97566C49.7579 9.85401 49.981 9.67817 50.1572 9.46092L50.2157 9.3889L50.7876 9.95259L50.7392 10.0104C50.5036 10.2921 50.2081 10.5193 49.8735 10.676L49.8721 10.6766C49.504 10.8409 49.1033 10.9224 48.6992 10.915ZM79.8642 6.21561C79.6015 5.97916 79.2568 5.85105 78.9011 5.85767L78.8995 5.85769H77.1668V10.6412L79.0069 10.6097L79.0095 10.6097C79.3845 10.6148 79.7473 10.478 80.023 10.2273L80.0248 10.2256C80.1612 10.1088 80.2699 9.96385 80.343 9.80097C80.4162 9.6381 80.452 9.46134 80.448 9.28326L80.448 9.2802C80.4516 9.04218 80.3722 8.81014 80.2231 8.62287L80.2225 8.62203C80.0774 8.43493 79.8785 8.29527 79.6516 8.22126L79.4447 8.15374L79.6443 8.06739C79.8296 7.98724 79.9883 7.85738 80.1023 7.69262C80.2166 7.52368 80.2759 7.3244 80.2723 7.12139V7.11832C80.2756 6.94791 80.241 6.77885 80.1708 6.6231C80.1005 6.46735 79.9964 6.32871 79.8658 6.217L79.8642 6.21561ZM79.9764 6.0931C79.6823 5.82877 79.2967 5.68548 78.8987 5.69269H76.9994V10.8091L79.0072 10.7747L79.0085 10.7747C79.4255 10.7801 79.8288 10.6279 80.1356 10.3494C80.2901 10.2168 80.4132 10.0524 80.4961 9.86776C80.579 9.68319 80.6197 9.48294 80.6154 9.28116L80.6154 9.28267L80.5317 9.28144L80.6154 9.27961L80.6154 9.28116C80.6193 9.00605 80.5274 8.73792 80.3551 8.5214C80.2271 8.35646 80.0624 8.22386 79.8747 8.13321C80.0192 8.04357 80.1441 7.92528 80.241 7.78515L80.2414 7.78447C80.3744 7.58794 80.4436 7.35618 80.4397 7.12L80.4396 7.12155L80.3559 7.11994L80.4396 7.11849L80.4397 7.12C80.4433 6.92594 80.4037 6.73346 80.3237 6.55609C80.2437 6.37858 80.1251 6.22053 79.9764 6.0931ZM35.7084 5.69269H39.224V10.0322H39.7848V11.8472H38.998V10.8077H35.3317V11.8554H34.5449V10.0404H35.1195C35.3394 9.80345 35.5061 9.52318 35.6084 9.21796C35.7145 8.90156 35.7488 8.56607 35.709 8.23516L35.7084 8.23032V5.69269ZM35.8758 5.85769V8.2206C35.9176 8.5739 35.8806 8.93196 35.7674 9.26973C35.6536 9.60906 35.4657 9.91964 35.2168 10.1796L35.1921 10.2054H34.7123V11.6904H35.1643V10.6427H39.1654V11.6822H39.6174V10.1972H39.0565V5.85769H35.8758ZM51.1685 5.69269H54.7845V6.46819H53.3866V10.8077H52.5747V6.46819H51.1685V5.69269ZM51.3359 5.85769V6.30319H52.7421V10.6427H53.2192V6.30319H54.6171V5.85769H51.3359ZM58.3196 5.69269H59.2664L57.3155 9.97875C57.2339 10.2399 57.0725 10.47 56.8533 10.6375C56.6327 10.8061 56.3644 10.903 56.0855 10.9149L56.0808 10.9151C55.8966 10.9128 55.7147 10.8738 55.546 10.8007L55.4794 10.7719L55.6958 10.0145L55.7892 10.0681C55.8783 10.1193 55.9795 10.1467 56.0827 10.1477L56.0882 10.1477C56.1917 10.1554 56.295 10.132 56.3845 10.0804C56.4721 10.0058 56.5397 9.91111 56.5813 9.80457L56.5832 9.79975L56.7516 9.43793L55.0399 5.70094H55.9863L57.1689 8.41001L58.3196 5.69269ZM58.4311 5.85769L57.1712 8.83286L55.8761 5.86594H55.2991L56.9355 9.43845L56.7366 9.86628C56.684 9.99975 56.5984 10.1181 56.4875 10.2107L56.4824 10.2149L56.4767 10.2183C56.3569 10.2895 56.2178 10.3224 56.0783 10.3127C55.9827 10.3114 55.8884 10.2925 55.8004 10.2571L55.6805 10.6764C55.8086 10.723 55.9438 10.7479 56.0806 10.7499C56.324 10.7391 56.5581 10.6543 56.7507 10.5071C56.944 10.3595 57.0859 10.1563 57.1569 9.92572L57.1584 9.9207L59.0078 5.85769H58.4311ZM59.7816 5.69269H63.5817V10.8077H62.7698V6.46819H60.5935V10.8077H59.7816V5.69269ZM59.949 5.85769V10.6427H60.4261V6.30319H62.9372V10.6427H63.4143V5.85769H59.949ZM64.5611 5.69269H65.373V7.81294H67.7167V5.69269H68.5286V10.8077H67.7167V8.57194H65.373V10.8077H64.5611V5.69269ZM64.7285 5.85769V10.6427H65.2056V8.40694H67.8841V10.6427H68.3612V5.85769H67.8841V7.97794H65.2056V5.85769H64.7285ZM41.4416 6.77273C41.8197 6.40166 42.3315 6.19332 42.8651 6.19332C43.3986 6.19332 43.9104 6.40166 44.2885 6.77273L44.2915 6.77569C44.6631 7.17943 44.8688 7.70509 44.8688 8.25019C44.8688 8.79529 44.663 9.32088 44.2914 9.72462L44.2886 9.72772C43.9105 10.0988 43.3986 10.3071 42.8651 10.3071C42.3315 10.3071 41.8197 10.0987 41.4416 9.72765L41.5007 9.66919L41.4387 9.72462C41.0671 9.32088 40.8613 8.79529 40.8613 8.25019C40.8613 7.70509 41.0671 7.1795 41.4387 6.77576L41.4416 6.77273ZM41.5613 9.6122C41.9078 9.95156 42.3765 10.1421 42.8651 10.1421C43.3536 10.1421 43.8223 9.95156 44.1689 9.6122C44.5116 9.23903 44.7014 8.75361 44.7014 8.25019C44.7014 7.74677 44.5116 7.26135 44.1689 6.88817C43.8223 6.54882 43.3536 6.35832 42.8651 6.35832C42.3765 6.35832 41.9078 6.54882 41.5613 6.88817C41.2185 7.26135 41.0287 7.74677 41.0287 8.25019C41.0287 8.75361 41.2185 9.23903 41.5613 9.6122ZM70.445 6.77273C70.823 6.40166 71.3348 6.19332 71.8684 6.19332C72.4019 6.19332 72.9138 6.40166 73.2918 6.77273L73.2948 6.77569C73.6664 7.17942 73.8722 7.70509 73.8722 8.25019C73.8722 8.79529 73.6663 9.32088 73.2948 9.72462L73.2919 9.72772C72.9138 10.0988 72.4019 10.3071 71.8684 10.3071C71.3348 10.3071 70.823 10.0987 70.445 9.72765L70.504 9.66919L70.442 9.72462C70.0704 9.32088 69.8646 8.79529 69.8646 8.25019C69.8646 7.70509 70.0704 7.1795 70.442 6.77576L70.445 6.77273ZM70.5646 9.61221C70.9111 9.95156 71.3798 10.1421 71.8684 10.1421C72.3569 10.1421 72.8256 9.95156 73.1722 9.61221C73.5149 9.23904 73.7048 8.75361 73.7048 8.25019C73.7048 7.74677 73.5149 7.26134 73.1722 6.88816C72.8256 6.54881 72.3569 6.35832 71.8684 6.35832C71.3798 6.35832 70.9111 6.54881 70.5646 6.88816C70.2218 7.26134 70.032 7.74677 70.032 8.25019C70.032 8.75361 70.2218 9.23904 70.5646 9.61221ZM78.9569 6.27844C79.0743 6.27517 79.191 6.2973 79.2988 6.34329C79.4064 6.38919 79.5025 6.45774 79.5803 6.54411C79.6573 6.62241 79.7175 6.71509 79.7575 6.81671C79.7978 6.91895 79.8167 7.02814 79.8133 7.13777C79.8098 7.24739 79.784 7.35521 79.7373 7.45478C79.6912 7.55321 79.6256 7.6416 79.5444 7.71479C79.4625 7.80177 79.3625 7.87033 79.2513 7.91577C79.1394 7.96145 79.0188 7.98266 78.8978 7.97794H77.6421L77.6792 6.27844H78.9569ZM79.2323 6.49471C79.1466 6.45817 79.0539 6.44065 78.9606 6.4434L78.9581 6.44344H77.8431L77.8132 7.81294H78.903C79.0003 7.81694 79.0973 7.80006 79.1872 7.76333C79.2772 7.7266 79.3579 7.67098 79.4238 7.60034L79.4264 7.59759L79.4292 7.59507C79.495 7.53628 79.5481 7.46503 79.5853 7.38558C79.6226 7.30613 79.6432 7.2201 79.6459 7.13262C79.6487 7.04514 79.6336 6.95801 79.6014 6.87642C79.5693 6.79482 79.5208 6.72045 79.4589 6.65772L79.4561 6.65489C79.3943 6.58598 79.3179 6.53125 79.2323 6.49471ZM36.3278 6.30319H38.5292V10.2302H35.786L35.8628 10.105C36.2038 9.54879 36.366 8.90379 36.328 8.25495L36.3277 8.25019L36.3278 6.30319ZM36.4952 6.46819V8.24782C36.5319 8.88099 36.3872 9.51058 36.0791 10.0652H38.3618V6.46819H36.4952ZM77.6703 8.39044H79.0251C79.2693 8.39044 79.5034 8.48605 79.6761 8.65624C79.8488 8.82643 79.9458 9.05725 79.9458 9.29794L79.9458 9.2991C79.9425 9.52904 79.8508 9.74916 79.6892 9.91497C79.6061 10.0072 79.5034 10.0802 79.3885 10.129C79.2734 10.1778 79.1489 10.2011 79.0237 10.1972H77.6427L77.6703 8.39044ZM77.8352 8.55544L77.8126 10.0322H79.0279C79.1289 10.0355 79.2294 10.0169 79.3223 9.97747C79.4152 9.93806 79.498 9.87893 79.565 9.80428L79.5674 9.80162C79.7001 9.66597 79.7756 9.48573 79.7784 9.29734C79.7782 9.10063 79.6989 8.91202 79.5577 8.77291C79.4165 8.63366 79.2248 8.55544 79.0251 8.55544H77.8352Z" fill="white"/>
<path d="M8.82699 26.9758L19.0812 16.4932L8.83558 6.0293C8.56193 6.19221 8.39258 6.56941 8.39258 7.06316V25.952C8.39625 26.4457 8.55947 26.7954 8.82699 26.9758Z" fill="white"/>
<path d="M19.4488 16.2039L22.5032 13.081L10.0647 6.10845C9.85522 5.98404 9.6173 5.91833 9.375 5.91797L19.4476 16.2026L19.4488 16.2039Z" fill="white"/>
<path d="M19.4482 16.7832L9.34375 27.113C9.59736 27.1173 9.84717 27.0496 10.0653 26.9175L22.5284 19.9261L19.4482 16.7832Z" fill="white"/>
<path d="M27.0075 15.6117L22.8683 13.2871L19.7305 16.4952L22.8916 19.7233L27.0063 17.405C27.8813 16.9125 27.8813 16.1017 27.0075 15.6117Z" fill="white"/>
</svg>
