<svg width="35" height="35" viewBox="0 0 35 35" fill="none" xmlns="http://www.w3.org/2000/svg">
  <rect x="11.2707" y="33.5477" width="8.61221" height="4.17772" transform="rotate(-120 11.2707 33.5477)" fill="black" stroke="#D8004E" stroke-width="2" stroke-linecap="round" stroke-linejoin="round"/>
  <mask id="path-2-inside-1" fill="white">
    <path fill-rule="evenodd" clip-rule="evenodd" d="M13.9551 6.5L16.5532 5L26.0532 21.4545L23.4557 22.9541L23.456 22.9545L11.5491 24.0525L4.5 28.1224L0 20.3281L7.05845 16.2529L13.9555 6.50069L13.9551 6.5Z"/>
  </mask>
  <path fill-rule="evenodd" clip-rule="evenodd" d="M13.9551 6.5L16.5532 5L26.0532 21.4545L23.4557 22.9541L23.456 22.9545L11.5491 24.0525L4.5 28.1224L0 20.3281L7.05845 16.2529L13.9555 6.50069L13.9551 6.5Z" fill="black"/>
  <path d="M16.5532 5L18.2852 4C18.02 3.54063 17.5832 3.20543 17.0708 3.06815C16.5584 2.93086 16.0125 3.00273 15.5532 3.26795L16.5532 5ZM13.9551 6.5L12.9551 4.76795C12.4957 5.03319 12.1605 5.47008 12.0232 5.98249C11.8859 6.49491 11.9579 7.04086 12.2232 7.50024L13.9551 6.5ZM26.0532 21.4545L27.0532 23.1865C27.5125 22.9213 27.8477 22.4845 27.985 21.9721C28.1223 21.4598 28.0504 20.9139 27.7852 20.4545L26.0532 21.4545ZM23.4557 22.9541L22.4557 21.222C21.996 21.4875 21.6606 21.9249 21.5235 22.4378C21.3865 22.9507 21.459 23.4971 21.7251 23.9565L23.4557 22.9541ZM23.456 22.9545L23.6396 24.946C24.319 24.8834 24.9196 24.4787 25.2328 23.8726C25.546 23.2664 25.5286 22.5425 25.1866 21.9521L23.456 22.9545ZM11.5491 24.0525L11.3655 22.061C11.0778 22.0875 10.7993 22.176 10.5491 22.3205L11.5491 24.0525ZM4.5 28.1224L2.76795 29.1224C3.32023 30.0789 4.54341 30.4067 5.5 29.8544L4.5 28.1224ZM0 20.3281L-1 18.5961C-1.45937 18.8613 -1.79457 19.2981 -1.93185 19.8105C-2.06914 20.3228 -1.99727 20.8688 -1.73205 21.3281L0 20.3281ZM7.05845 16.2529L8.05845 17.985C8.30863 17.8405 8.52455 17.6436 8.69135 17.4078L7.05845 16.2529ZM13.9555 6.50069L15.5884 7.65552C16.0392 7.01807 16.0779 6.17656 15.6874 5.50045L13.9555 6.50069ZM15.5532 3.26795L12.9551 4.76795L14.9551 8.23205L17.5532 6.73205L15.5532 3.26795ZM27.7852 20.4545L18.2852 4L14.8211 6L24.3211 22.4545L27.7852 20.4545ZM24.4557 24.6861L27.0532 23.1865L25.0532 19.7224L22.4557 21.222L24.4557 24.6861ZM21.7251 23.9565L21.7253 23.9569L25.1866 21.9521L25.1864 21.9517L21.7251 23.9565ZM23.2723 20.9629L11.3655 22.061L11.7328 26.0441L23.6396 24.946L23.2723 20.9629ZM5.5 29.8544L12.5491 25.7846L10.5491 22.3205L3.5 26.3903L5.5 29.8544ZM-1.73205 21.3281L2.76795 29.1224L6.23205 27.1224L1.73205 19.3281L-1.73205 21.3281ZM6.05845 14.5209L-1 18.5961L1 22.0602L8.05845 17.985L6.05845 14.5209ZM8.69135 17.4078L15.5884 7.65552L12.3226 5.34586L5.42555 15.0981L8.69135 17.4078ZM12.2232 7.50024L12.2236 7.50093L15.6874 5.50045L15.687 5.49976L12.2232 7.50024Z" fill="#D8004E" mask="url(#path-2-inside-1)"/>
  <rect x="6.73253" y="17.1648" width="0.932385" height="7.86692" transform="rotate(-30 6.73253 17.1648)" fill="black" stroke="#D8004E" stroke-width="0.932385"/>
  <rect x="13.632" y="8.49525" width="0.785121" height="15.3093" transform="rotate(-30 13.632 8.49525)" fill="black" stroke="#D8004E" stroke-width="0.785121"/>
  <circle cx="34" cy="1" r="1" fill="white"/>
</svg>
