<svg width="686" height="225" viewBox="0 0 686 225" fill="none" xmlns="http://www.w3.org/2000/svg">
<line x1="328.109" y1="32.6016" x2="328.109" y2="182.016" stroke="#222222"/>
<line x1="497.445" y1="32.6016" x2="497.445" y2="130.219" stroke="#222222"/>
<line x1="567.172" y1="-67.0078" x2="567.172" y2="130.219" stroke="#222222"/>
<line x1="507.406" y1="80.4141" x2="507.406" y2="182.016" stroke="#222222"/>
<line x1="557.211" y1="80.4141" x2="557.211" y2="182.016" stroke="#222222"/>
<line x1="467.562" y1="-17.2031" x2="467.562" y2="182.016" stroke="#222222"/>
<line x1="477.523" y1="80.4141" x2="477.523" y2="130.219" stroke="#222222"/>
<line x1="318.148" y1="32.6016" x2="318.148" y2="182.016" stroke="#222222"/>
<line x1="487.484" y1="32.6016" x2="487.484" y2="130.219" stroke="#222222"/>
<line x1="357.992" y1="182.016" x2="357.992" y2="283.617" stroke="#222222"/>
<line x1="338.07" y1="130.219" x2="338.07" y2="233.812" stroke="#222222"/>
<line x1="377.914" y1="182.016" x2="377.914" y2="283.617" stroke="#222222"/>
<line x1="457.602" y1="182.016" x2="457.602" y2="335.414" stroke="#222222"/>
<line x1="447.641" y1="182.016" x2="447.641" y2="233.812" stroke="#222222"/>
<line x1="411.781" y1="182.016" x2="411.781" y2="283.617" stroke="#222222"/>
<line x1="317.156" y1="80.4141" x2="317.156" y2="182.016" stroke="#353535" stroke-width="3"/>
<line x1="486.492" y1="80.4141" x2="486.492" y2="130.219" stroke="#353535" stroke-width="3"/>
<line x1="337.078" y1="130.219" x2="337.078" y2="182.016" stroke="#353535" stroke-width="3"/>
<line x1="347.039" y1="182.016" x2="347.039" y2="233.812" stroke="#353535" stroke-width="3"/>
<line x1="357" y1="182.016" x2="357" y2="233.812" stroke="#353535" stroke-width="3"/>
<line x1="436.688" y1="-69" x2="436.688" y2="335.414" stroke="#353535" stroke-width="3"/>
<line x1="466.57" y1="80.4141" x2="466.57" y2="283.617" stroke="#353535" stroke-width="3"/>
<line x1="446.648" y1="-69" x2="446.648" y2="182.016" stroke="#353535" stroke-width="3"/>
<line x1="536.297" y1="80.4141" x2="536.297" y2="233.812" stroke="#353535" stroke-width="3"/>
<line x1="366.961" y1="182.016" x2="366.961" y2="233.812" stroke="#353535" stroke-width="3"/>
<line x1="506.414" y1="80.4141" x2="506.414" y2="130.219" stroke="#353535" stroke-width="3"/>
<line x1="516.375" y1="30.6094" x2="516.375" y2="80.4141" stroke="#353535" stroke-width="3"/>
<line x1="596.062" y1="32.6016" x2="596.062" y2="82.4062" stroke="#353535" stroke-width="3"/>
<line x1="606.023" y1="32.6016" x2="606.023" y2="132.211" stroke="#353535" stroke-width="3"/>
<line x1="586.102" y1="-67.0078" x2="586.102" y2="32.6016" stroke="#353535" stroke-width="3"/>
<line x1="556.219" y1="132.211" x2="556.219" y2="182.016" stroke="#353535" stroke-width="3"/>
<line x1="566.18" y1="-17.2031" x2="566.18" y2="132.211" stroke="#353535" stroke-width="3"/>
<line x1="526.336" y1="30.6094" x2="526.336" y2="80.4141" stroke="#353535" stroke-width="3"/>
<line x1="376.922" y1="182.016" x2="376.922" y2="233.812" stroke="#353535" stroke-width="3"/>
<line x1="456.609" y1="182.016" x2="456.609" y2="233.812" stroke="#353535" stroke-width="3"/>
<line x1="546.258" y1="182.016" x2="546.258" y2="233.812" stroke="#353535" stroke-width="3"/>
<line x1="327.117" y1="130.219" x2="327.117" y2="182.016" stroke="#353535" stroke-width="3"/>
<line x1="29.1094" y1="-9.39844" x2="29.1094" y2="140.016" stroke="#222222"/>
<line x1="198.445" y1="-9.39844" x2="198.445" y2="88.2188" stroke="#222222"/>
<line x1="268.172" y1="-109.008" x2="268.172" y2="88.2188" stroke="#222222"/>
<line x1="208.406" y1="38.4141" x2="208.406" y2="140.016" stroke="#222222"/>
<line x1="258.211" y1="38.4141" x2="258.211" y2="140.016" stroke="#222222"/>
<line x1="168.562" y1="-59.2031" x2="168.563" y2="140.016" stroke="#222222"/>
<line x1="178.523" y1="38.4141" x2="178.523" y2="88.2188" stroke="#222222"/>
<line x1="19.1484" y1="-9.39844" x2="19.1484" y2="140.016" stroke="#222222"/>
<line x1="188.484" y1="-9.39844" x2="188.484" y2="88.2188" stroke="#222222"/>
<line x1="58.9922" y1="140.016" x2="58.9922" y2="241.617" stroke="#222222"/>
<line x1="39.0703" y1="88.2187" x2="39.0703" y2="191.812" stroke="#222222"/>
<line x1="78.9141" y1="140.016" x2="78.9141" y2="241.617" stroke="#222222"/>
<line x1="158.602" y1="140.016" x2="158.602" y2="293.414" stroke="#222222"/>
<line x1="148.641" y1="140.016" x2="148.641" y2="191.812" stroke="#222222"/>
<line x1="112.781" y1="140.016" x2="112.781" y2="241.617" stroke="#222222"/>
<line x1="18.1562" y1="38.4141" x2="18.1562" y2="140.016" stroke="#353535" stroke-width="3"/>
<line x1="187.492" y1="38.4141" x2="187.492" y2="88.2188" stroke="#353535" stroke-width="3"/>
<line x1="38.0781" y1="88.2188" x2="38.0781" y2="140.016" stroke="#353535" stroke-width="3"/>
<line x1="48.0391" y1="140.016" x2="48.0391" y2="191.812" stroke="#353535" stroke-width="3"/>
<line x1="58" y1="140.016" x2="58" y2="191.812" stroke="#353535" stroke-width="3"/>
<line x1="101.828" y1="191.812" x2="101.828" y2="335.25" stroke="#353535" stroke-width="3"/>
<line x1="137.688" y1="-111" x2="137.688" y2="293.414" stroke="#353535" stroke-width="3"/>
<line x1="167.57" y1="38.4141" x2="167.57" y2="241.617" stroke="#353535" stroke-width="3"/>
<line x1="147.648" y1="-111" x2="147.648" y2="140.016" stroke="#353535" stroke-width="3"/>
<line x1="237.297" y1="38.4141" x2="237.297" y2="191.812" stroke="#353535" stroke-width="3"/>
<line x1="67.9609" y1="140.016" x2="67.9609" y2="191.812" stroke="#353535" stroke-width="3"/>
<line x1="207.414" y1="38.4141" x2="207.414" y2="88.2188" stroke="#353535" stroke-width="3"/>
<line x1="217.375" y1="-11.3906" x2="217.375" y2="38.4141" stroke="#353535" stroke-width="3"/>
<line x1="297.062" y1="-9.39844" x2="297.062" y2="40.4062" stroke="#353535" stroke-width="3"/>
<line x1="307.023" y1="-9.39844" x2="307.023" y2="90.2109" stroke="#353535" stroke-width="3"/>
<line x1="257.219" y1="90.2109" x2="257.219" y2="140.016" stroke="#353535" stroke-width="3"/>
<line x1="267.18" y1="-59.2031" x2="267.18" y2="90.2109" stroke="#353535" stroke-width="3"/>
<line x1="227.336" y1="-11.3906" x2="227.336" y2="38.4141" stroke="#353535" stroke-width="3"/>
<line x1="77.9219" y1="140.016" x2="77.9219" y2="191.812" stroke="#353535" stroke-width="3"/>
<line x1="157.609" y1="140.016" x2="157.609" y2="191.812" stroke="#353535" stroke-width="3"/>
<line x1="247.258" y1="140.016" x2="247.258" y2="191.812" stroke="#353535" stroke-width="3"/>
<line x1="111.789" y1="191.813" x2="111.789" y2="241.617" stroke="#353535" stroke-width="3"/>
<line x1="28.1172" y1="88.2187" x2="28.1172" y2="140.016" stroke="#353535" stroke-width="3"/>
<line x1="615.984" y1="82.4063" x2="615.984" y2="132.211" stroke="#D8004E" stroke-width="3"/>
<path d="M754.656 80.914L0.15625 80.914" stroke="white" stroke-dasharray="5 5"/>
<g filter="url(#filter0_f)">
<ellipse cx="617.412" cy="81.649" rx="21.1388" ry="21.7428" fill="#D8004E"/>
<path d="M638.051 81.649C638.051 93.3945 628.798 102.892 617.412 102.892C606.027 102.892 596.773 93.3945 596.773 81.649C596.773 69.9036 606.027 60.4062 617.412 60.4062C628.798 60.4062 638.051 69.9036 638.051 81.649Z" stroke="#D8004E"/>
</g>
<circle cx="616.205" cy="81.0451" r="4.9357" fill="#D8004E" stroke="#D8004E"/>
<defs>
<filter id="filter0_f" x="571.273" y="34.9062" width="92.2776" height="93.4856" filterUnits="userSpaceOnUse" color-interpolation-filters="sRGB">
<feFlood flood-opacity="0" result="BackgroundImageFix"/>
<feBlend mode="normal" in="SourceGraphic" in2="BackgroundImageFix" result="shape"/>
<feGaussianBlur stdDeviation="12.5" result="effect1_foregroundBlur"/>
</filter>
</defs>
</svg>
