<svg width="25" height="17" viewBox="0 0 25 17" fill="none" xmlns="http://www.w3.org/2000/svg">
<path d="M1.25 2C1.25 1.91862 1.25778 1.83906 1.27263 1.76201L10.8825 8.75103C11.8468 9.45233 13.1532 9.45233 14.1175 8.75103L23.7274 1.76201C23.7422 1.83906 23.75 1.91862 23.75 2V15C23.75 15.6904 23.1904 16.25 22.5 16.25H2.5C1.80964 16.25 1.25 15.6904 1.25 15V2ZM22.5662 0.751725L13.2352 7.53793C12.7969 7.8567 12.2031 7.8567 11.7648 7.53793L2.43376 0.751725C2.45569 0.75058 2.47778 0.75 2.5 0.75H22.5C22.5222 0.75 22.5443 0.75058 22.5662 0.751725Z" stroke="#969696" stroke-width="1.5"/>
<circle cx="12.5" cy="11.5" r="1.5" fill="#D8004E"/>
</svg>
