<svg width="17" height="17" viewBox="0 0 17 17" fill="none" xmlns="http://www.w3.org/2000/svg">
<path d="M5.91196 8.34387C5.91196 6.90351 7.07929 5.73555 8.51966 5.73555C9.96002 5.73555 11.128 6.90351 11.128 8.34387C11.128 9.78424 9.96002 10.9522 8.51966 10.9522C7.07929 10.9522 5.91196 9.78424 5.91196 8.34387ZM4.50195 8.34387C4.50195 10.5629 6.30067 12.3616 8.51966 12.3616C10.7386 12.3616 12.5374 10.5629 12.5374 8.34387C12.5374 6.12489 10.7386 4.32617 8.51966 4.32617C6.30067 4.32617 4.50195 6.12489 4.50195 8.34387ZM11.7575 4.16686C11.7574 4.35257 11.8124 4.53412 11.9155 4.68856C12.0186 4.84301 12.1652 4.96341 12.3368 5.03455C12.5083 5.10568 12.6971 5.12435 12.8792 5.08819C13.0614 5.05204 13.2287 4.96268 13.3601 4.83142C13.4914 4.70016 13.5809 4.5329 13.6172 4.35078C13.6535 4.16866 13.635 3.97987 13.564 3.80828C13.493 3.63668 13.3727 3.49 13.2184 3.38676C13.064 3.28353 12.8825 3.22839 12.6968 3.22832H12.6964C12.4475 3.22843 12.2088 3.32734 12.0328 3.50332C11.8567 3.67929 11.7577 3.91795 11.7575 4.16686ZM5.35862 14.7127C4.59578 14.678 4.18115 14.5509 3.90561 14.4435C3.54031 14.3013 3.27966 14.1319 3.00562 13.8583C2.73158 13.5846 2.56195 13.3242 2.42036 12.9589C2.31295 12.6835 2.18588 12.2688 2.1512 11.5059C2.11327 10.6812 2.1057 10.4334 2.1057 8.34394C2.1057 6.25446 2.1139 6.0074 2.1512 5.18196C2.18594 4.41912 2.31395 4.00518 2.42036 3.72895C2.56258 3.36365 2.73196 3.103 3.00562 2.82896C3.27929 2.55492 3.53968 2.38529 3.90561 2.2437C4.18103 2.13629 4.59578 2.00922 5.35862 1.97455C6.18337 1.93661 6.43112 1.92904 8.51966 1.92904C10.6082 1.92904 10.8562 1.93724 11.6816 1.97455C12.4445 2.00929 12.8584 2.13729 13.1346 2.2437C13.4999 2.38529 13.7606 2.5553 14.0346 2.82896C14.3087 3.10263 14.4777 3.36365 14.6199 3.72895C14.7273 4.00437 14.8544 4.41912 14.889 5.18196C14.927 6.0074 14.9346 6.25446 14.9346 8.34394C14.9346 10.4334 14.927 10.6805 14.889 11.5059C14.8543 12.2688 14.7266 12.6834 14.6199 12.9589C14.4777 13.3242 14.3083 13.5849 14.0346 13.8583C13.761 14.1317 13.4999 14.3013 13.1346 14.4435C12.8592 14.551 12.4445 14.678 11.6816 14.7127C10.8569 14.7506 10.6091 14.7582 8.51966 14.7582C6.43018 14.7582 6.18312 14.7506 5.35862 14.7127ZM5.29384 0.566915C4.46089 0.604848 3.89171 0.736923 3.39465 0.930341C2.87987 1.13008 2.44408 1.39805 2.00861 1.83283C1.57314 2.26761 1.30586 2.70409 1.10612 3.21887C0.912704 3.71624 0.780629 4.28511 0.742697 5.11805C0.704138 5.95232 0.695312 6.21903 0.695312 8.34387C0.695312 10.4687 0.704138 10.7354 0.742697 11.5697C0.780629 12.4027 0.912704 12.9715 1.10612 13.4689C1.30586 13.9833 1.5732 14.4203 2.00861 14.8549C2.44402 15.2895 2.87987 15.5571 3.39465 15.7574C3.89265 15.9508 4.46089 16.0829 5.29384 16.1208C6.12854 16.1588 6.39482 16.1682 8.51966 16.1682C10.6445 16.1682 10.9112 16.1594 11.7455 16.1208C12.5785 16.0829 13.1473 15.9508 13.6447 15.7574C14.1591 15.5571 14.5952 15.2897 15.0307 14.8549C15.4662 14.4201 15.7329 13.9833 15.9332 13.4689C16.1266 12.9715 16.2593 12.4026 16.2966 11.5697C16.3345 10.7348 16.3434 10.4687 16.3434 8.34387C16.3434 6.21903 16.3345 5.95232 16.2966 5.11805C16.2587 4.28504 16.1266 3.71593 15.9332 3.21887C15.7329 2.7044 15.4655 2.2683 15.0307 1.83283C14.5959 1.39736 14.1591 1.13008 13.6453 0.930341C13.1473 0.736923 12.5784 0.604222 11.7461 0.566915C10.9118 0.528983 10.6451 0.519531 8.52028 0.519531C6.39544 0.519531 6.12854 0.528357 5.29384 0.566915Z" fill="white"/>
</svg>
