<svg width="23" height="23" viewBox="0 0 23 23" fill="none" xmlns="http://www.w3.org/2000/svg">
<path d="M7.85524 11.5C7.85524 9.48654 9.48702 7.85387 11.5005 7.85387C13.5139 7.85387 15.1466 9.48654 15.1466 11.5C15.1466 13.5135 13.5139 15.1461 11.5005 15.1461C9.48702 15.1461 7.85524 13.5135 7.85524 11.5ZM5.88421 11.5C5.88421 14.6019 8.39861 17.1163 11.5005 17.1163C14.6024 17.1163 17.1168 14.6019 17.1168 11.5C17.1168 8.39812 14.6024 5.88372 11.5005 5.88372C8.39861 5.88372 5.88421 8.39812 5.88421 11.5ZM16.0266 5.66104C16.0265 5.92062 16.1034 6.17441 16.2475 6.39031C16.3916 6.60621 16.5966 6.77452 16.8363 6.87395C17.0761 6.97339 17.34 6.99948 17.5946 6.94894C17.8493 6.8984 18.0832 6.77349 18.2668 6.59001C18.4504 6.40653 18.5755 6.17271 18.6263 5.91813C18.677 5.66355 18.6511 5.39964 18.5519 5.15977C18.4526 4.91991 18.2845 4.71485 18.0687 4.57055C17.8529 4.42624 17.5992 4.34917 17.3396 4.34906H17.3391C16.9911 4.34922 16.6575 4.48748 16.4114 4.73348C16.1653 4.97947 16.0269 5.31308 16.0266 5.66104ZM7.08174 20.4029C6.01537 20.3543 5.43577 20.1767 5.0506 20.0266C4.53995 19.8278 4.1756 19.591 3.79253 19.2085C3.40945 18.8259 3.17233 18.4619 2.9744 17.9513C2.82425 17.5663 2.64663 16.9865 2.59815 15.9201C2.54513 14.7672 2.53454 14.4209 2.53454 11.5001C2.53454 8.57925 2.546 8.23388 2.59815 7.08002C2.64671 6.01366 2.82565 5.43502 2.9744 5.04889C3.1732 4.53824 3.40998 4.17389 3.79253 3.79081C4.17508 3.40774 4.53907 3.17061 5.0506 2.97269C5.4356 2.82254 6.01537 2.64491 7.08174 2.59644C8.23464 2.54341 8.58096 2.53282 11.5005 2.53282C14.42 2.53282 14.7667 2.54429 15.9205 2.59644C16.9869 2.645 17.5655 2.82394 17.9517 2.97269C18.4623 3.17061 18.8267 3.40826 19.2098 3.79081C19.5928 4.17336 19.8291 4.53824 20.0279 5.04889C20.178 5.43389 20.3557 6.01366 20.4041 7.08002C20.4572 8.23388 20.4677 8.57925 20.4677 11.5001C20.4677 14.4209 20.4572 14.7663 20.4041 15.9201C20.3556 16.9865 20.1771 17.5661 20.0279 17.9513C19.8291 18.4619 19.5923 18.8263 19.2098 19.2085C18.8272 19.5907 18.4623 19.8278 17.9517 20.0266C17.5667 20.1768 16.9869 20.3544 15.9205 20.4029C14.7676 20.4559 14.4213 20.4665 11.5005 20.4665C8.57965 20.4665 8.23429 20.4559 7.08174 20.4029ZM6.99117 0.628737C5.82681 0.681762 5.03117 0.866387 4.33634 1.13676C3.61674 1.41597 3.00756 1.79056 2.39883 2.39834C1.79009 3.00611 1.41646 3.61625 1.13725 4.33585C0.866876 5.03112 0.682251 5.82632 0.629226 6.99069C0.575326 8.15689 0.562988 8.52972 0.562988 11.5C0.562988 14.4703 0.575326 14.8431 0.629226 16.0093C0.682251 17.1738 0.866876 17.9689 1.13725 18.6641C1.41646 19.3833 1.79018 19.9941 2.39883 20.6017C3.00748 21.2092 3.61674 21.5832 4.33634 21.8632C5.03249 22.1336 5.82681 22.3182 6.99117 22.3713C8.15799 22.4243 8.53021 22.4375 11.5005 22.4375C14.4708 22.4375 14.8436 22.4252 16.0098 22.3713C17.1742 22.3182 17.9694 22.1336 18.6646 21.8632C19.3838 21.5832 19.9934 21.2094 20.6021 20.6017C21.2109 19.9939 21.5837 19.3833 21.8637 18.6641C22.1341 17.9689 22.3196 17.1737 22.3717 16.0093C22.4248 14.8422 22.4371 14.4703 22.4371 11.5C22.4371 8.52972 22.4248 8.15689 22.3717 6.99069C22.3187 5.82624 22.1341 5.03069 21.8637 4.33585C21.5837 3.61669 21.2099 3.00707 20.6021 2.39834C19.9944 1.7896 19.3838 1.41597 18.6655 1.13676C17.9694 0.866387 17.1742 0.680887 16.0107 0.628737C14.8445 0.575712 14.4716 0.5625 11.5014 0.5625C8.53109 0.5625 8.15799 0.574837 6.99117 0.628737Z" fill="#9C9C9C"/>
</svg>
