<svg width="29" height="40" viewBox="0 0 29 40" fill="none" xmlns="http://www.w3.org/2000/svg">
<circle cx="14.5" cy="24.9697" r="14" stroke="#D8004E"/>
<path d="M4.66443 14.6122C4.32584 13.5886 4.14258 12.4943 4.14258 11.3571C4.14258 5.63705 8.77963 1 14.4997 1C20.2198 1 24.8569 5.63705 24.8569 11.3571C24.8569 12.4943 24.6736 13.5886 24.335 14.6122" stroke="#D8004E"/>
<path d="M15.853 25.7104C15.7265 25.7567 15.624 25.852 15.5687 25.9749C15.5135 26.0978 15.5102 26.2377 15.5595 26.3631L17.6097 31.5713H11.3899L13.4401 26.3631C13.4894 26.2377 13.4861 26.0978 13.4309 25.9749C13.3756 25.852 13.2731 25.7567 13.1466 25.7104C11.6371 25.1582 10.561 23.7092 10.561 22.0101C10.561 19.8347 12.3245 18.0713 14.4998 18.0713C16.6751 18.0713 18.4386 19.8347 18.4386 22.0101C18.4386 23.7092 17.3625 25.1582 15.853 25.7104Z" stroke="#D8004E" stroke-linejoin="round"/>
</svg>
