<svg width="126" height="38" viewBox="0 0 126 38" fill="none" xmlns="http://www.w3.org/2000/svg">
<path d="M50.142 18.038V20H40.692V7.4H49.89V9.362H43.032V12.638H49.116V14.564H43.032V18.038H50.142ZM61.0888 20L58.6228 16.67L56.1388 20H53.6548L57.3988 15.122L53.8168 10.388H56.3188L58.6768 13.538L61.0348 10.388H63.4648L59.8648 15.086L63.6268 20H61.0888ZM73.6752 19.478C73.4112 19.694 73.0872 19.856 72.7032 19.964C72.3312 20.072 71.9352 20.126 71.5152 20.126C70.4592 20.126 69.6432 19.85 69.0672 19.298C68.4912 18.746 68.2032 17.942 68.2032 16.886V12.26H66.6192V10.46H68.2032V8.264H70.4532V10.46H73.0272V12.26H70.4532V16.832C70.4532 17.3 70.5672 17.66 70.7952 17.912C71.0232 18.152 71.3532 18.272 71.7852 18.272C72.2892 18.272 72.7092 18.14 73.0452 17.876L73.6752 19.478ZM80.2781 11.792C80.9261 10.784 82.0661 10.28 83.6981 10.28V12.422C83.5061 12.386 83.3321 12.368 83.1761 12.368C82.3001 12.368 81.6161 12.626 81.1241 13.142C80.6321 13.646 80.3861 14.378 80.3861 15.338V20H78.1361V10.388H80.2781V11.792ZM91.836 10.28C93.252 10.28 94.332 10.622 95.076 11.306C95.832 11.978 96.21 12.998 96.21 14.366V20H94.086V18.83C93.81 19.25 93.414 19.574 92.898 19.802C92.394 20.018 91.782 20.126 91.062 20.126C90.342 20.126 89.712 20.006 89.172 19.766C88.632 19.514 88.212 19.172 87.912 18.74C87.624 18.296 87.48 17.798 87.48 17.246C87.48 16.382 87.798 15.692 88.434 15.176C89.082 14.648 90.096 14.384 91.476 14.384H93.96V14.24C93.96 13.568 93.756 13.052 93.348 12.692C92.952 12.332 92.358 12.152 91.566 12.152C91.026 12.152 90.492 12.236 89.964 12.404C89.448 12.572 89.01 12.806 88.65 13.106L87.768 11.468C88.272 11.084 88.878 10.79 89.586 10.586C90.294 10.382 91.044 10.28 91.836 10.28ZM91.53 18.488C92.094 18.488 92.592 18.362 93.024 18.11C93.468 17.846 93.78 17.474 93.96 16.994V15.878H91.638C90.342 15.878 89.694 16.304 89.694 17.156C89.694 17.564 89.856 17.888 90.18 18.128C90.504 18.368 90.954 18.488 91.53 18.488Z" fill="white"/>
<path d="M32.1769 4.55363C32.3931 4.92808 32.3854 5.53628 31.9438 6.44331C31.5114 7.33141 30.716 8.38832 29.5958 9.54617C27.3602 11.8568 23.9129 14.4856 19.782 16.8706C15.651 19.2556 11.6508 20.9266 8.53193 21.7074C6.96907 22.0986 5.65607 22.259 4.67075 22.1894C3.66443 22.1184 3.13389 21.8209 2.9177 21.4464C2.70151 21.072 2.70915 20.4638 3.15077 19.5567C3.58318 18.6686 4.37856 17.6117 5.49882 16.4539C7.73443 14.1432 11.1817 11.5144 15.3126 9.12944C19.4435 6.74444 23.4438 5.07345 26.5626 4.29267C28.1255 3.90142 29.4385 3.74106 30.4238 3.81063C31.4302 3.88169 31.9607 4.17918 32.1769 4.55363Z" stroke="#D8004E"/>
<g filter="url(#filter0_f)">
<circle cx="18" cy="13.0002" r="8" fill="#D8004E"/>
</g>
<line x1="23.514" y1="24.4534" x2="10.5383" y2="1.97884" stroke="#D8004E" stroke-width="0.5"/>
<path d="M3.072 31.536H11.072L10.968 32.072H2.968L3.072 31.536ZM16.3244 34.064C15.7751 34.064 15.3031 33.9653 14.9084 33.768C14.5138 33.5707 14.2124 33.296 14.0044 32.944C13.7964 32.5867 13.6924 32.1733 13.6924 31.704C13.6924 31.08 13.8338 30.512 14.1164 30C14.3991 29.488 14.7964 29.0827 15.3084 28.784C15.8258 28.4853 16.4204 28.336 17.0924 28.336C17.6418 28.336 18.1138 28.4347 18.5084 28.632C18.9084 28.8293 19.2124 29.1067 19.4204 29.464C19.6284 29.816 19.7324 30.2267 19.7324 30.696C19.7324 31.32 19.5911 31.888 19.3084 32.4C19.0258 32.912 18.6258 33.3173 18.1084 33.616C17.5911 33.9147 16.9964 34.064 16.3244 34.064ZM16.3964 33.352C16.8978 33.352 17.3404 33.2347 17.7244 33C18.1084 32.7653 18.4044 32.4507 18.6124 32.056C18.8204 31.656 18.9244 31.2187 18.9244 30.744C18.9244 30.2267 18.7591 29.816 18.4284 29.512C18.1031 29.2027 17.6364 29.048 17.0284 29.048C16.5271 29.048 16.0844 29.1653 15.7004 29.4C15.3164 29.6347 15.0178 29.952 14.8044 30.352C14.5964 30.752 14.4924 31.1867 14.4924 31.656C14.4924 32.1733 14.6578 32.5867 14.9884 32.896C15.3191 33.2 15.7884 33.352 16.3964 33.352ZM25.0882 29.76L24.2402 34H23.4722L24.1682 30.432H21.7842L21.0802 34H20.3122L21.1602 29.76H25.0882ZM26.5183 32.12V32.168C26.5183 32.5627 26.6303 32.864 26.8543 33.072C27.0783 33.2747 27.4143 33.376 27.8623 33.376C28.1236 33.376 28.3689 33.3333 28.5983 33.248C28.8276 33.1573 29.0196 33.0373 29.1743 32.888L29.5023 33.44C29.2943 33.632 29.0409 33.7813 28.7423 33.888C28.4436 33.9947 28.1289 34.048 27.7983 34.048C27.3823 34.048 27.0223 33.9733 26.7183 33.824C26.4143 33.6747 26.1796 33.4613 26.0143 33.184C25.8489 32.9067 25.7663 32.5813 25.7663 32.208C25.7663 31.7333 25.8676 31.3067 26.0703 30.928C26.2783 30.5493 26.5636 30.2533 26.9263 30.04C27.2943 29.8267 27.7049 29.72 28.1583 29.72C28.7343 29.72 29.1929 29.8853 29.5343 30.216C29.8809 30.5413 30.0543 30.9867 30.0543 31.552C30.0543 31.7227 30.0356 31.912 29.9983 32.12H26.5183ZM28.1263 30.36C27.7476 30.36 27.4223 30.4667 27.1503 30.68C26.8783 30.8933 26.6943 31.1867 26.5983 31.56H29.3343C29.3556 31.1813 29.2543 30.888 29.0303 30.68C28.8116 30.4667 28.5103 30.36 28.1263 30.36ZM33.6866 29.72C34.0493 29.72 34.372 29.7947 34.6546 29.944C34.9373 30.088 35.1586 30.2987 35.3186 30.576C35.4786 30.848 35.5586 31.1707 35.5586 31.544C35.5586 32.024 35.4546 32.4533 35.2466 32.832C35.0386 33.2107 34.7506 33.5093 34.3826 33.728C34.02 33.9413 33.612 34.048 33.1586 34.048C32.796 34.048 32.484 33.984 32.2226 33.856C31.9613 33.7227 31.7613 33.5307 31.6226 33.28L31.1746 35.552H30.4066L31.5586 29.76H32.2946L32.1906 30.288C32.5853 29.9093 33.084 29.72 33.6866 29.72ZM33.1266 33.376C33.4413 33.376 33.724 33.3013 33.9746 33.152C34.2253 32.9973 34.4226 32.784 34.5666 32.512C34.7106 32.24 34.7826 31.9307 34.7826 31.584C34.7826 31.2053 34.6733 30.912 34.4546 30.704C34.236 30.496 33.924 30.392 33.5186 30.392C33.204 30.392 32.9186 30.4693 32.6626 30.624C32.412 30.7733 32.2146 30.984 32.0706 31.256C31.932 31.528 31.8626 31.8373 31.8626 32.184C31.8626 32.5573 31.972 32.8507 32.1906 33.064C32.4146 33.272 32.7266 33.376 33.1266 33.376ZM37.0339 32.12V32.168C37.0339 32.5627 37.1459 32.864 37.3699 33.072C37.5939 33.2747 37.9299 33.376 38.3779 33.376C38.6392 33.376 38.8845 33.3333 39.1139 33.248C39.3432 33.1573 39.5352 33.0373 39.6899 32.888L40.0179 33.44C39.8099 33.632 39.5565 33.7813 39.2579 33.888C38.9592 33.9947 38.6445 34.048 38.3139 34.048C37.8979 34.048 37.5379 33.9733 37.2339 33.824C36.9299 33.6747 36.6952 33.4613 36.5299 33.184C36.3645 32.9067 36.2819 32.5813 36.2819 32.208C36.2819 31.7333 36.3832 31.3067 36.5859 30.928C36.7939 30.5493 37.0792 30.2533 37.4419 30.04C37.8099 29.8267 38.2205 29.72 38.6739 29.72C39.2499 29.72 39.7085 29.8853 40.0499 30.216C40.3965 30.5413 40.5699 30.9867 40.5699 31.552C40.5699 31.7227 40.5512 31.912 40.5139 32.12H37.0339ZM38.6419 30.36C38.2632 30.36 37.9379 30.4667 37.6659 30.68C37.3939 30.8933 37.2099 31.1867 37.1139 31.56H39.8499C39.8712 31.1813 39.7699 30.888 39.5459 30.68C39.3272 30.4667 39.0259 30.36 38.6419 30.36ZM46.0211 31.864L47.0611 34H46.1651L45.3331 32.176H44.5171L44.1491 34H43.3811L43.7491 32.176H42.9411L41.4131 34H40.4611L42.3731 31.792L41.4371 29.76H42.2531L43.0451 31.568H43.8691L44.2291 29.76H45.0051L44.6371 31.568H45.4451L46.9571 29.76H47.8211L46.0211 31.864ZM52.6531 29.76L51.8131 34H51.0771L51.1811 33.48C50.9891 33.6613 50.7651 33.8027 50.5091 33.904C50.2585 34 49.9838 34.048 49.6851 34.048C49.3225 34.048 48.9998 33.976 48.7171 33.832C48.4345 33.6827 48.2131 33.4693 48.0531 33.192C47.8931 32.9147 47.8131 32.5893 47.8131 32.216C47.8131 31.736 47.9171 31.3067 48.1251 30.928C48.3331 30.5493 48.6185 30.2533 48.9811 30.04C49.3491 29.8267 49.7598 29.72 50.2131 29.72C50.5758 29.72 50.8851 29.784 51.1411 29.912C51.4025 30.04 51.6025 30.2293 51.7411 30.48L51.8851 29.76H52.6531ZM49.8531 33.376C50.1678 33.376 50.4505 33.3013 50.7011 33.152C50.9571 32.9973 51.1545 32.784 51.2931 32.512C51.4371 32.24 51.5091 31.9307 51.5091 31.584C51.5091 31.2053 51.3998 30.912 51.1811 30.704C50.9625 30.496 50.6505 30.392 50.2451 30.392C49.9305 30.392 49.6478 30.4693 49.3971 30.624C49.1465 30.7733 48.9491 30.984 48.8051 31.256C48.6611 31.528 48.5891 31.8373 48.5891 32.184C48.5891 32.5573 48.6985 32.8507 48.9171 33.064C49.1411 33.272 49.4531 33.376 49.8531 33.376ZM57.5604 29.76L56.7204 34H56.0324L56.2964 32.632H55.0884H55.0084L53.8244 34H52.9604L54.3124 32.52C54.051 32.4347 53.851 32.296 53.7124 32.104C53.579 31.912 53.5124 31.68 53.5124 31.408C53.5124 30.8907 53.7044 30.488 54.0884 30.2C54.4777 29.9067 55.0084 29.76 55.6804 29.76H57.5604ZM56.7444 30.424H55.6164C55.2004 30.424 54.8777 30.5093 54.6484 30.68C54.419 30.8453 54.3044 31.0853 54.3044 31.4C54.3044 31.8533 54.6084 32.08 55.2164 32.08H56.4084L56.7444 30.424ZM63.3031 30.056C63.8417 30.056 64.2631 30.2027 64.5671 30.496C64.8711 30.7893 65.0231 31.1947 65.0231 31.712C65.0231 32.16 64.9137 32.5627 64.6951 32.92C64.4764 33.2773 64.1751 33.56 63.7911 33.768C63.4071 33.9707 62.9751 34.072 62.4951 34.072C61.8764 34.072 61.3964 33.8933 61.0551 33.536C60.7137 33.1787 60.5431 32.6587 60.5431 31.976C60.5431 31.3947 60.6604 30.8507 60.8951 30.344C61.1351 29.832 61.4684 29.4027 61.8951 29.056C62.3217 28.7093 62.8124 28.48 63.3671 28.368L65.3751 27.968L65.3831 28.616L63.5431 28.992C63.0204 29.0987 62.5831 29.312 62.2311 29.632C61.8791 29.952 61.6231 30.368 61.4631 30.88C61.9484 30.3307 62.5617 30.056 63.3031 30.056ZM62.5351 33.48C62.8444 33.48 63.1271 33.408 63.3831 33.264C63.6391 33.12 63.8391 32.9253 63.9831 32.68C64.1271 32.4293 64.1991 32.1547 64.1991 31.856C64.1991 31.4933 64.0977 31.216 63.8951 31.024C63.6924 30.832 63.4044 30.736 63.0311 30.736C62.7324 30.736 62.4497 30.8053 62.1831 30.944C61.9217 31.0827 61.7111 31.2667 61.5511 31.496C61.3911 31.72 61.3111 31.9573 61.3111 32.208C61.3111 32.6027 61.4204 32.9147 61.6391 33.144C61.8577 33.368 62.1564 33.48 62.5351 33.48ZM70.2018 29.76L67.1938 34.464C66.9218 34.8907 66.6631 35.1867 66.4178 35.352C66.1725 35.5173 65.8818 35.6 65.5458 35.6C65.3378 35.6 65.1351 35.5653 64.9378 35.496C64.7405 35.432 64.5885 35.3413 64.4818 35.224L64.8818 34.656C65.0738 34.848 65.3138 34.944 65.6018 34.944C65.7831 34.944 65.9431 34.896 66.0818 34.8C66.2205 34.704 66.3645 34.5413 66.5138 34.312L66.7298 33.976L65.7058 29.76H66.4738L67.2898 33.152L69.4258 29.76H70.2018ZM73.7294 33.328H74.3774L74.0494 34.984H73.3294L73.5214 34H69.9774L69.7774 34.984H69.0574L69.3854 33.328H69.5774C69.86 33.312 70.092 33.1147 70.2734 32.736C70.46 32.352 70.6387 31.8293 70.8094 31.168L71.1454 29.76H74.4414L73.7294 33.328ZM71.4974 31.28C71.3587 31.8293 71.2254 32.272 71.0974 32.608C70.9694 32.9387 70.8094 33.1787 70.6174 33.328H72.9614L73.5374 30.432H71.6974L71.4974 31.28ZM79.8581 29.76L76.8501 34.464C76.5781 34.8907 76.3194 35.1867 76.0741 35.352C75.8287 35.5173 75.5381 35.6 75.2021 35.6C74.9941 35.6 74.7914 35.5653 74.5941 35.496C74.3967 35.432 74.2447 35.3413 74.1381 35.224L74.5381 34.656C74.7301 34.848 74.9701 34.944 75.2581 34.944C75.4394 34.944 75.5994 34.896 75.7381 34.8C75.8767 34.704 76.0207 34.5413 76.1701 34.312L76.3861 33.976L75.3621 29.76H76.1301L76.9461 33.152L79.0821 29.76H79.8581ZM86.6922 29.76L85.8522 34H79.8122L80.6602 29.76H81.4282L80.7242 33.328H82.6042L83.3002 29.76H84.0682L83.3722 33.328H85.2282L85.9242 29.76H86.6922ZM86.6282 33.328L86.3082 34.904H85.5882L85.7642 34H85.0522L85.1962 33.328H86.6282ZM88.2917 32.12V32.168C88.2917 32.5627 88.4037 32.864 88.6277 33.072C88.8517 33.2747 89.1877 33.376 89.6357 33.376C89.897 33.376 90.1424 33.3333 90.3717 33.248C90.601 33.1573 90.793 33.0373 90.9477 32.888L91.2757 33.44C91.0677 33.632 90.8144 33.7813 90.5157 33.888C90.217 33.9947 89.9024 34.048 89.5717 34.048C89.1557 34.048 88.7957 33.9733 88.4917 33.824C88.1877 33.6747 87.953 33.4613 87.7877 33.184C87.6224 32.9067 87.5397 32.5813 87.5397 32.208C87.5397 31.7333 87.641 31.3067 87.8437 30.928C88.0517 30.5493 88.337 30.2533 88.6997 30.04C89.0677 29.8267 89.4784 29.72 89.9317 29.72C90.5077 29.72 90.9664 29.8853 91.3077 30.216C91.6544 30.5413 91.8277 30.9867 91.8277 31.552C91.8277 31.7227 91.809 31.912 91.7717 32.12H88.2917ZM89.8997 30.36C89.521 30.36 89.1957 30.4667 88.9237 30.68C88.6517 30.8933 88.4677 31.1867 88.3717 31.56H91.1077C91.129 31.1813 91.0277 30.888 90.8037 30.68C90.585 30.4667 90.2837 30.36 89.8997 30.36ZM93.2761 32.12V32.168C93.2761 32.5627 93.3881 32.864 93.6121 33.072C93.8361 33.2747 94.1721 33.376 94.6201 33.376C94.8814 33.376 95.1267 33.3333 95.3561 33.248C95.5854 33.1573 95.7774 33.0373 95.9321 32.888L96.2601 33.44C96.0521 33.632 95.7987 33.7813 95.5001 33.888C95.2014 33.9947 94.8867 34.048 94.5561 34.048C94.1401 34.048 93.7801 33.9733 93.4761 33.824C93.1721 33.6747 92.9374 33.4613 92.7721 33.184C92.6067 32.9067 92.5241 32.5813 92.5241 32.208C92.5241 31.7333 92.6254 31.3067 92.8281 30.928C93.0361 30.5493 93.3214 30.2533 93.6841 30.04C94.0521 29.8267 94.4627 29.72 94.9161 29.72C95.4921 29.72 95.9507 29.8853 96.2921 30.216C96.6387 30.5413 96.8121 30.9867 96.8121 31.552C96.8121 31.7227 96.7934 31.912 96.7561 32.12H93.2761ZM94.8841 30.36C94.5054 30.36 94.1801 30.4667 93.9081 30.68C93.6361 30.8933 93.4521 31.1867 93.3561 31.56H96.0921C96.1134 31.1813 96.0121 30.888 95.7881 30.68C95.5694 30.4667 95.2681 30.36 94.8841 30.36Z" fill="white"/>
<defs>
<filter id="filter0_f" x="6" y="1.00024" width="24" height="24" filterUnits="userSpaceOnUse" color-interpolation-filters="sRGB">
<feFlood flood-opacity="0" result="BackgroundImageFix"/>
<feBlend mode="normal" in="SourceGraphic" in2="BackgroundImageFix" result="shape"/>
<feGaussianBlur stdDeviation="2" result="effect1_foregroundBlur"/>
</filter>
</defs>
</svg>
