<svg width="31" height="31" viewBox="0 0 31 31" fill="none" xmlns="http://www.w3.org/2000/svg">
<path d="M28.25 14C28.25 19.5247 22.6925 24.25 15.5 24.25C13.1258 24.25 10.9093 23.7275 9.01298 22.8231C8.64506 22.6476 8.24578 22.7234 8.01396 22.7826C7.73824 22.853 7.43682 22.9742 7.13945 23.1109C6.56821 23.3735 5.89689 23.7481 5.26005 24.1035C5.23178 24.1193 5.20359 24.135 5.17547 24.1507C4.49482 24.5304 3.86059 24.8813 3.3535 25.1049C3.30916 25.1245 3.26697 25.1425 3.22689 25.1591C3.22906 25.1521 3.23127 25.145 3.23353 25.1378C3.38548 24.6529 3.65586 24.0311 3.95576 23.3542C3.97679 23.3068 3.99797 23.259 4.01924 23.2111C4.29081 22.5989 4.57759 21.9524 4.76655 21.4082C4.86791 21.1162 4.9554 20.8145 4.99095 20.5395C5.02028 20.3127 5.04794 19.8802 4.76883 19.5314C3.48273 17.9242 2.75 16.0254 2.75 14C2.75 8.47534 8.3075 3.75 15.5 3.75C22.6925 3.75 28.25 8.47534 28.25 14ZM2.71909 25.3141C2.71947 25.3136 2.72581 25.313 2.73696 25.3136C2.72427 25.3149 2.7187 25.3146 2.71909 25.3141ZM3.1224 25.6574C3.12363 25.6658 3.12371 25.6706 3.12345 25.6709C3.12319 25.6712 3.12257 25.667 3.1224 25.6574Z" stroke="#999999" stroke-width="1.5"/>
</svg>
