<svg width="79" height="23" viewBox="0 0 79 23" fill="none" xmlns="http://www.w3.org/2000/svg">
<path fill-rule="evenodd" clip-rule="evenodd" d="M70.3018 0.683594H55.2715C56.0796 5.46596 60.928 9.93978 66.2614 9.93978H78.2209C78.3826 9.47697 78.3826 8.85989 78.3826 8.39708C78.3826 4.07753 74.827 0.683594 70.3018 0.683594Z" fill="url(#paint0_linear)"/>
<path fill-rule="evenodd" clip-rule="evenodd" d="M56.5645 10.7109V22.2812H63.8372V16.1104H70.3018C73.8574 16.1104 76.9281 13.7963 77.8978 10.7109H56.5645Z" fill="#858F9A"/>
<path fill-rule="evenodd" clip-rule="evenodd" d="M30.707 0.683594V22.2814H37.1717C37.1717 22.2814 38.7878 22.2814 39.5959 20.7387C43.9595 12.4081 45.2525 9.93978 45.2525 9.93978H46.0605V22.2814H53.3333V0.683594H46.8686C46.8686 0.683594 45.2525 0.837863 44.4444 2.22629C40.7272 9.3227 38.7878 13.0252 38.7878 13.0252H37.9797V0.683594H30.707Z" fill="#858F9A"/>
<path fill-rule="evenodd" clip-rule="evenodd" d="M0 22.2814V0.683594H7.27272C7.27272 0.683594 9.37372 0.683594 10.505 3.76899C13.4141 11.9453 13.7374 13.0252 13.7374 13.0252C13.7374 13.0252 14.3838 11.0197 16.9697 3.76899C18.101 0.683594 20.202 0.683594 20.202 0.683594H27.4747V22.2814H20.202V10.7111H19.3939L15.3535 22.2814H12.1212L8.0808 10.7111H7.27272V22.2814H0Z" fill="#858F9A"/>
<defs>
<linearGradient id="paint0_linear" x1="55.2298" y1="5.31169" x2="78.3826" y2="5.31169" gradientUnits="userSpaceOnUse">
<stop stop-color="#C5CCD3"/>
<stop offset="1" stop-color="#9AA5AB"/>
</linearGradient>
</defs>
</svg>
