<svg width="755" height="349" viewBox="0 0 755 349" fill="none" xmlns="http://www.w3.org/2000/svg">
<rect x="0.5" y="0.5" width="754" height="348" fill="black" stroke="white"/>
<line x1="370.419" y1="54" x2="370.419" y2="286.416" stroke="#323232" stroke-width="2"/>
<line x1="387.72" y1="54" x2="387.72" y2="286.416" stroke="#323232" stroke-width="2"/>
<line x1="404.265" y1="54" x2="404.265" y2="286.416" stroke="#323232" stroke-width="2"/>
<line x1="420.813" y1="54" x2="420.813" y2="286.416" stroke="#323232" stroke-width="2"/>
<line x1="437.362" y1="54" x2="437.362" y2="286.416" stroke="#323232" stroke-width="2"/>
<line x1="453.907" y1="54" x2="453.907" y2="286.416" stroke="#323232" stroke-width="2"/>
<line x1="470.832" y1="54" x2="470.832" y2="286.416" stroke="#323232" stroke-width="2"/>
<line x1="487.38" y1="54" x2="487.38" y2="286.416" stroke="#323232" stroke-width="2"/>
<line x1="503.928" y1="54" x2="503.928" y2="286.416" stroke="#323232" stroke-width="2"/>
<line x1="520.473" y1="54" x2="520.473" y2="286.416" stroke="#323232" stroke-width="2"/>
<line x1="537.398" y1="54" x2="537.398" y2="286.416" stroke="#323232" stroke-width="2"/>
<line x1="553.946" y1="54" x2="553.946" y2="286.416" stroke="#323232" stroke-width="2"/>
<line x1="570.491" y1="54" x2="570.491" y2="286.416" stroke="#323232" stroke-width="2"/>
<line x1="587.04" y1="54" x2="587.04" y2="286.416" stroke="#323232" stroke-width="2"/>
<line x1="603.964" y1="54" x2="603.964" y2="286.416" stroke="#323232" stroke-width="2"/>
<line x1="620.509" y1="54" x2="620.509" y2="286.416" stroke="#323232" stroke-width="2"/>
<line x1="637.058" y1="54" x2="637.058" y2="286.416" stroke="#323232" stroke-width="2"/>
<line x1="653.606" y1="54" x2="653.606" y2="286.416" stroke="#323232" stroke-width="2"/>
<line x1="670.531" y1="54" x2="670.531" y2="286.416" stroke="#323232" stroke-width="2"/>
<line x1="687.075" y1="54" x2="687.075" y2="286.416" stroke="#323232" stroke-width="2"/>
<line x1="354" y1="69.172" x2="702.624" y2="69.172" stroke="#323232" stroke-width="2"/>
<line x1="354" y1="85.7186" x2="702.624" y2="85.7186" stroke="#323232" stroke-width="2"/>
<line x1="354" y1="102.642" x2="702.624" y2="102.642" stroke="#323232" stroke-width="2"/>
<line x1="354" y1="119.19" x2="702.624" y2="119.19" stroke="#323232" stroke-width="2"/>
<line x1="354" y1="135.737" x2="702.624" y2="135.737" stroke="#323232" stroke-width="2"/>
<line x1="354" y1="152.285" x2="702.624" y2="152.285" stroke="#323232" stroke-width="2"/>
<line x1="354" y1="168.832" x2="702.624" y2="168.832" stroke="#323232" stroke-width="2"/>
<line x1="354" y1="185.755" x2="702.624" y2="185.755" stroke="#323232" stroke-width="2"/>
<line x1="354" y1="202.303" x2="702.624" y2="202.303" stroke="#323232" stroke-width="2"/>
<line x1="354" y1="218.85" x2="702.624" y2="218.85" stroke="#323232" stroke-width="2"/>
<line x1="354" y1="235.398" x2="702.624" y2="235.398" stroke="#323232" stroke-width="2"/>
<line x1="354" y1="252.321" x2="702.624" y2="252.321" stroke="#323232" stroke-width="2"/>
<line x1="354" y1="268.869" x2="702.624" y2="268.869" stroke="#323232" stroke-width="2"/>
<rect x="355" y="55" width="347" height="230.416" stroke="#323232" stroke-width="2"/>
<path d="M465.64 143.096C467.144 143.096 468.2 142.008 468.2 140.6C468.2 139.288 467.112 138.296 465.64 138.296C464.168 138.296 463.08 139.352 463.08 140.696C463.08 142.04 464.168 143.096 465.64 143.096ZM463.624 163H467.624V145.912H463.624V163ZM482.57 145.72C480.074 145.72 477.994 146.552 476.682 148.12V145.912H472.874V163H476.874V154.36C476.874 150.936 478.794 149.208 481.642 149.208C484.202 149.208 485.706 150.68 485.706 153.72V163H489.706V153.208C489.706 148.056 486.666 145.72 482.57 145.72ZM502.777 163.224C506.105 163.224 508.76 161.784 510.073 159.224L507.001 157.432C505.977 159.064 504.441 159.8 502.745 159.8C499.801 159.8 497.561 157.784 497.561 154.456C497.561 151.16 499.801 149.112 502.745 149.112C504.441 149.112 505.977 149.848 507.001 151.48L510.073 149.688C508.76 147.096 506.105 145.72 502.777 145.72C497.369 145.72 493.529 149.336 493.529 154.456C493.529 159.576 497.369 163.224 502.777 163.224ZM520.96 163.224C526.272 163.224 530.08 159.576 530.08 154.456C530.08 149.336 526.272 145.72 520.96 145.72C515.712 145.72 511.872 149.336 511.872 154.456C511.872 159.576 515.712 163.224 520.96 163.224ZM520.96 159.8C518.08 159.8 515.904 157.72 515.904 154.456C515.904 151.192 518.08 149.112 520.96 149.112C523.872 149.112 526.048 151.192 526.048 154.456C526.048 157.72 523.872 159.8 520.96 159.8ZM555.473 145.72C552.753 145.72 550.449 146.808 549.073 148.568C547.889 146.648 545.809 145.72 543.313 145.72C540.977 145.72 538.993 146.552 537.713 148.088V145.912H533.905V163H537.905V154.328C537.905 150.936 539.697 149.208 542.353 149.208C544.785 149.208 546.193 150.68 546.193 153.72V163H550.193V154.328C550.193 150.936 552.017 149.208 554.641 149.208C557.073 149.208 558.481 150.68 558.481 153.72V163H562.481V153.208C562.481 148.056 559.601 145.72 555.473 145.72ZM577.065 145.72C574.729 145.72 572.745 146.52 571.401 148.152V145.912H567.593V169.208H571.593V160.92C572.969 162.488 574.889 163.224 577.065 163.224C582.057 163.224 585.737 159.768 585.737 154.456C585.737 149.176 582.057 145.72 577.065 145.72ZM576.617 159.8C573.737 159.8 571.529 157.72 571.529 154.456C571.529 151.192 573.737 149.112 576.617 149.112C579.497 149.112 581.673 151.192 581.673 154.456C581.673 157.72 579.497 159.8 576.617 159.8ZM595.84 145.72C593.088 145.72 590.432 146.424 588.608 147.832L590.176 150.744C591.456 149.688 593.44 149.048 595.36 149.048C598.208 149.048 599.616 150.424 599.616 152.76V153.016H595.2C590.016 153.016 588.096 155.256 588.096 158.104C588.096 161.08 590.56 163.224 594.464 163.224C597.024 163.224 598.88 162.392 599.84 160.92V163H603.616V152.984C603.616 148.056 600.768 145.72 595.84 145.72ZM595.296 160.312C593.248 160.312 592.032 159.384 592.032 157.944C592.032 156.696 592.768 155.672 595.488 155.672H599.616V157.656C598.944 159.416 597.248 160.312 595.296 160.312ZM620.597 145.912L615.189 158.552L609.812 145.912H605.652L613.109 163.064L612.821 163.736C612.053 165.432 611.221 166.104 609.812 166.104C608.725 166.104 607.637 165.656 606.868 164.92L605.268 167.864C606.357 168.856 608.149 169.432 609.845 169.432C612.693 169.432 614.869 168.248 616.437 164.376L624.437 145.912H620.597ZM467.432 187.408V184.912H463.624V202H467.624V193.712C467.624 190.224 469.544 188.432 472.584 188.432C472.872 188.432 473.16 188.464 473.512 188.528V184.72C470.664 184.72 468.584 185.616 467.432 187.408ZM492.813 193.552C492.813 188.208 489.165 184.72 484.173 184.72C479.085 184.72 475.341 188.368 475.341 193.456C475.341 198.544 479.053 202.224 484.781 202.224C487.725 202.224 490.125 201.264 491.661 199.44L489.517 196.976C488.301 198.224 486.797 198.832 484.877 198.832C481.901 198.832 479.821 197.232 479.341 194.736H492.749C492.781 194.352 492.813 193.872 492.813 193.552ZM484.173 187.92C486.797 187.92 488.685 189.616 489.005 192.08H479.309C479.693 189.584 481.581 187.92 484.173 187.92ZM501.935 202.224C506.735 202.224 509.679 200.144 509.679 196.944C509.679 190.256 499.119 193.328 499.119 189.872C499.119 188.752 500.271 187.952 502.703 187.952C504.335 187.952 505.967 188.272 507.599 189.232L509.135 186.192C507.599 185.264 505.007 184.72 502.735 184.72C498.127 184.72 495.215 186.832 495.215 190.064C495.215 196.88 505.775 193.808 505.775 197.072C505.775 198.256 504.719 198.96 502.191 198.96C500.047 198.96 497.743 198.256 496.239 197.264L494.703 200.304C496.239 201.392 499.087 202.224 501.935 202.224ZM529.188 193.552C529.188 188.208 525.54 184.72 520.548 184.72C515.46 184.72 511.716 188.368 511.716 193.456C511.716 198.544 515.428 202.224 521.156 202.224C524.1 202.224 526.5 201.264 528.036 199.44L525.892 196.976C524.676 198.224 523.172 198.832 521.252 198.832C518.276 198.832 516.196 197.232 515.716 194.736H529.124C529.156 194.352 529.188 193.872 529.188 193.552ZM520.548 187.92C523.172 187.92 525.06 189.616 525.38 192.08H515.684C516.068 189.584 517.956 187.92 520.548 187.92ZM539.09 184.72C536.338 184.72 533.682 185.424 531.858 186.832L533.426 189.744C534.706 188.688 536.69 188.048 538.61 188.048C541.458 188.048 542.866 189.424 542.866 191.76V192.016H538.45C533.266 192.016 531.346 194.256 531.346 197.104C531.346 200.08 533.81 202.224 537.714 202.224C540.274 202.224 542.13 201.392 543.09 199.92V202H546.866V191.984C546.866 187.056 544.018 184.72 539.09 184.72ZM538.546 199.312C536.498 199.312 535.282 198.384 535.282 196.944C535.282 195.696 536.018 194.672 538.738 194.672H542.866V196.656C542.194 198.416 540.498 199.312 538.546 199.312ZM555.807 187.408V184.912H551.999V202H555.999V193.712C555.999 190.224 557.919 188.432 560.959 188.432C561.247 188.432 561.535 188.464 561.887 188.528V184.72C559.039 184.72 556.959 185.616 555.807 187.408ZM572.964 202.224C576.292 202.224 578.948 200.784 580.26 198.224L577.188 196.432C576.164 198.064 574.628 198.8 572.932 198.8C569.988 198.8 567.748 196.784 567.748 193.456C567.748 190.16 569.988 188.112 572.932 188.112C574.628 188.112 576.164 188.848 577.188 190.48L580.26 188.688C578.948 186.096 576.292 184.72 572.964 184.72C567.556 184.72 563.716 188.336 563.716 193.456C563.716 198.576 567.556 202.224 572.964 202.224ZM593.258 184.72C590.89 184.72 588.874 185.488 587.562 186.896V178.256H583.562V202H587.562V193.36C587.562 189.936 589.482 188.208 592.33 188.208C594.89 188.208 596.394 189.68 596.394 192.72V202H600.394V192.208C600.394 187.056 597.354 184.72 593.258 184.72Z" fill="white"/>
<path d="M76.4258 58.5859H85.9434V56.1367H76.4258V46.5117H73.9551V56.1367H64.416V58.5859H73.9551V68.3828H76.4258V58.5859Z" fill="white"/>
<path d="M76.4258 172.508H85.9434V170.058H76.4258V160.433H73.9551V170.058H64.416V172.508H73.9551V182.304H76.4258V172.508Z" fill="white"/>
<path d="M76.4258 288.012H85.9434V285.562H76.4258V275.937H73.9551V285.562H64.416V288.012H73.9551V297.808H76.4258V288.012Z" fill="white"/>
<path d="M216.455 58.5859H225.972V56.1367H216.455V46.5117H213.984V56.1367H204.445V58.5859H213.984V68.3828H216.455V58.5859Z" fill="white"/>
<path d="M216.455 172.508H225.972V170.058H216.455V160.433H213.984V170.058H204.445V172.508H213.984V182.304H216.455V172.508Z" fill="white"/>
<path d="M216.455 288.012H225.972V285.562H216.455V275.937H213.984V285.562H204.445V288.012H213.984V297.808H216.455V288.012Z" fill="white"/>
<path d="M356.483 58.5859H366.001V56.1367H356.483V46.5117H354.012V56.1367H344.473V58.5859H354.012V68.3828H356.483V58.5859Z" fill="white"/>
<path d="M356.483 172.508H366.001V170.058H356.483V160.433H354.012V170.058H344.473V172.508H354.012V182.304H356.483V172.508Z" fill="white"/>
<path d="M356.483 288.012H366.001V285.562H356.483V275.937H354.012V285.562H344.473V288.012H354.012V297.808H356.483V288.012Z" fill="white"/>
<path d="M419.191 135.951C420.341 137.942 420.18 140.95 418.176 145.067C416.199 149.127 412.592 153.906 407.568 159.099C397.534 169.469 382.095 181.237 363.623 191.902C345.151 202.566 327.241 210.053 313.243 213.557C306.234 215.312 300.292 216.046 295.787 215.728C291.22 215.405 288.535 214.041 287.385 212.049C286.235 210.058 286.396 207.05 288.4 202.933C290.377 198.873 293.984 194.094 299.008 188.901C309.042 178.531 324.48 166.763 342.952 156.098C361.424 145.434 379.335 137.947 393.333 134.443C400.342 132.688 406.284 131.954 410.789 132.272C415.356 132.595 418.041 133.959 419.191 135.951Z" stroke="#D8004E" stroke-width="3"/>
<g filter="url(#filter0_f)">
<ellipse cx="355.5" cy="174.001" rx="35.5" ry="36" fill="#D8004E"/>
</g>
<line x1="380.009" y1="225.042" x2="322.117" y2="124.771" stroke="#D8004E" stroke-width="2"/>
<defs>
<filter id="filter0_f" x="300" y="118.001" width="111" height="112" filterUnits="userSpaceOnUse" color-interpolation-filters="sRGB">
<feFlood flood-opacity="0" result="BackgroundImageFix"/>
<feBlend mode="normal" in="SourceGraphic" in2="BackgroundImageFix" result="shape"/>
<feGaussianBlur stdDeviation="10" result="effect1_foregroundBlur"/>
</filter>
</defs>
</svg>
