<svg width="309" height="329" viewBox="0 0 309 329" fill="none" xmlns="http://www.w3.org/2000/svg">
<rect x="0.25" y="0.25" width="308.5" height="308.5" rx="154.25" fill="black" stroke="#777777" stroke-width="0.5"/>
<line x1="138.5" y1="233" x2="138.5" y2="259" stroke="#222222"/>
<line x1="87.5" y1="107" x2="87.5" y2="182" stroke="#222222"/>
<line x1="207.5" y1="57" x2="207.5" y2="156" stroke="#222222"/>
<line x1="202.5" y1="131" x2="202.5" y2="182" stroke="#222222"/>
<path d="M157.854 81.6464C157.658 81.4512 157.342 81.4512 157.146 81.6464L153.964 84.8284C153.769 85.0237 153.769 85.3403 153.964 85.5355C154.16 85.7308 154.476 85.7308 154.672 85.5355L157.5 82.7071L160.328 85.5355C160.524 85.7308 160.84 85.7308 161.036 85.5355C161.231 85.3403 161.231 85.0237 161.036 84.8284L157.854 81.6464ZM157 82L157 182L158 182L158 82L157 82Z" fill="white"/>
<path d="M148.354 111.646C148.158 111.451 147.842 111.451 147.646 111.646L144.464 114.828C144.269 115.024 144.269 115.34 144.464 115.536C144.66 115.731 144.976 115.731 145.172 115.536L148 112.707L150.828 115.536C151.024 115.731 151.34 115.731 151.536 115.536C151.731 115.34 151.731 115.024 151.536 114.828L148.354 111.646ZM147.5 112L147.5 165L148.5 165L148.5 112L147.5 112Z" fill="white"/>
<line x1="82.5" y1="107" x2="82.5" y2="182" stroke="#222222"/>
<path d="M167.854 55.6464C167.658 55.4512 167.342 55.4512 167.146 55.6464L163.964 58.8284C163.769 59.0237 163.769 59.3403 163.964 59.5355C164.16 59.7308 164.476 59.7308 164.672 59.5355L167.5 56.7071L170.328 59.5355C170.524 59.7308 170.84 59.7308 171.036 59.5355C171.231 59.3403 171.231 59.0237 171.036 58.8284L167.854 55.6464ZM167 56L167 132L168 132L168 56L167 56Z" fill="white"/>
<line x1="102.5" y1="182" x2="102.5" y2="233" stroke="#222222"/>
<line x1="92.5" y1="156" x2="92.5" y2="208" stroke="#222222"/>
<line x1="112.5" y1="182" x2="112.5" y2="233" stroke="#222222"/>
<line x1="152.5" y1="182" x2="152.5" y2="259" stroke="#222222"/>
<line x1="147.5" y1="182" x2="147.5" y2="208" stroke="#222222"/>
<line x1="129.5" y1="182" x2="129.5" y2="233" stroke="#222222"/>
<path d="M250.006 134.072C251.473 134.072 252.571 132.902 252.571 130.85C252.571 128.798 251.473 127.628 250.006 127.628C248.53 127.628 247.432 128.798 247.432 130.85C247.432 132.902 248.53 134.072 250.006 134.072ZM250.006 133.271C249.016 133.271 248.332 132.461 248.332 130.85C248.332 129.239 249.016 128.429 250.006 128.429C250.987 128.429 251.671 129.239 251.671 130.85C251.671 132.461 250.987 133.271 250.006 133.271ZM253.923 134.054C254.247 134.054 254.517 133.793 254.517 133.433C254.517 133.073 254.247 132.821 253.923 132.821C253.59 132.821 253.311 133.073 253.311 133.433C253.311 133.793 253.59 134.054 253.923 134.054ZM257.837 134.072C259.304 134.072 260.402 132.902 260.402 130.85C260.402 128.798 259.304 127.628 257.837 127.628C256.361 127.628 255.263 128.798 255.263 130.85C255.263 132.902 256.361 134.072 257.837 134.072ZM257.837 133.271C256.847 133.271 256.163 132.461 256.163 130.85C256.163 129.239 256.847 128.429 257.837 128.429C258.818 128.429 259.502 129.239 259.502 130.85C259.502 132.461 258.818 133.271 257.837 133.271ZM262.437 133.217L264.363 131.363C265.218 130.544 265.398 129.995 265.398 129.383C265.398 128.303 264.552 127.628 263.238 127.628C262.257 127.628 261.42 127.979 260.934 128.582L261.546 129.113C261.933 128.645 262.482 128.429 263.157 128.429C264.039 128.429 264.498 128.825 264.498 129.473C264.498 129.869 264.372 130.265 263.706 130.913L261.141 133.388V134H265.668V133.217H262.437ZM269.099 130.175C268.316 130.175 267.65 130.463 267.29 131.003C267.281 130.922 267.281 130.85 267.281 130.778C267.281 129.203 268.1 128.402 269.378 128.402C269.828 128.402 270.26 128.483 270.584 128.699L270.926 127.997C270.521 127.745 269.954 127.628 269.36 127.628C267.596 127.628 266.381 128.78 266.381 130.931C266.381 132.938 267.335 134.072 269.027 134.072C270.278 134.072 271.259 133.298 271.259 132.083C271.259 130.922 270.35 130.175 269.099 130.175ZM268.991 133.343C268.019 133.343 267.497 132.776 267.497 132.128C267.497 131.435 268.091 130.904 268.946 130.904C269.828 130.904 270.386 131.381 270.386 132.119C270.386 132.866 269.81 133.343 268.991 133.343ZM271.712 127.7V129.608H272.576V128.483H275.456L272.963 134H273.917L276.464 128.312V127.7H271.712ZM282.145 131.678H280.948V130.31H280.102V131.678H277.681L280.768 127.7H279.796L276.574 131.822V132.452H280.075V134H280.948V132.452H282.145V131.678Z" fill="white"/>
<line x1="167.5" y1="132" x2="167.5" y2="156" stroke="#D9014F" stroke-width="3"/>
<line x1="157.5" y1="131" x2="157.5" y2="182" stroke="#D9014F" stroke-width="3"/>
<line x1="147.5" y1="161" x2="147.5" y2="182" stroke="#D9014F" stroke-width="3"/>
<g filter="url(#filter0_f)">
<circle cx="167.5" cy="131.5" r="12.5" fill="#D9014F"/>
</g>
<circle cx="167.5" cy="131.5" r="3.5" fill="white"/>
<path d="M235.601 131L241.268 122.5H290.5V139.5H241.268L235.601 131Z" stroke="white"/>
<circle cx="115.5" cy="22.5" r="1.5" fill="#D8014E"/>
<path d="M266.345 21.6404C266.146 21.4485 265.83 21.454 265.638 21.6526L262.511 24.8889C262.319 25.0875 262.325 25.404 262.523 25.5959C262.722 25.7878 263.038 25.7823 263.23 25.5837L266.01 22.707L268.886 25.4863C269.085 25.6782 269.402 25.6727 269.593 25.4741C269.785 25.2755 269.78 24.959 269.581 24.7671L266.345 21.6404ZM71.5 229C71.5 176.047 114.296 133.122 167.084 133.122V132.122C113.741 132.122 70.5 175.497 70.5 229H71.5ZM167.084 133.122C192.386 133.122 211.277 126.179 225.37 115.739C239.457 105.303 248.718 91.396 254.806 77.5118C260.893 63.6284 263.815 49.752 265.215 39.3514C265.916 34.1498 266.236 29.8142 266.382 26.7772C266.455 25.2586 266.483 24.0645 266.494 23.2489C266.5 22.8411 266.5 22.5279 266.5 22.3161C266.5 22.2102 266.499 22.1296 266.498 22.0752C266.498 22.048 266.498 22.0273 266.498 22.0133C266.498 22.0063 266.498 22.001 266.497 21.9973C266.497 21.9955 266.497 21.994 266.497 21.9931C266.497 21.992 266.497 21.9914 265.997 22C265.498 22.0086 265.498 22.0088 265.498 22.0094C265.498 22.0102 265.498 22.0112 265.498 22.0128C265.498 22.0158 265.498 22.0206 265.498 22.027C265.498 22.0398 265.498 22.0592 265.499 22.0852C265.499 22.1371 265.5 22.2152 265.5 22.3186C265.5 22.5254 265.5 22.8333 265.494 23.2358C265.484 24.0406 265.455 25.2231 265.383 26.7294C265.239 29.742 264.921 34.0488 264.224 39.2179C262.832 49.5589 259.929 63.3381 253.89 77.1102C247.852 90.8815 238.686 104.63 224.775 114.936C210.869 125.237 192.191 132.122 167.084 132.122V133.122Z" fill="white"/>
<path d="M12.25 328.75V223.528L82 210.254L151.75 223.528V328.75H12.25Z" fill="#1C1C1C" stroke="#777777" stroke-width="0.5"/>
<rect x="70.5" y="257.5" width="23" height="71" fill="black" stroke="#777777"/>
<path d="M70.758 123.978C70.758 122.606 71.3222 121.294 72.3184 120.349L78.7431 114.26C80.6718 112.432 83.6935 112.432 85.6222 114.26L92.0469 120.349C93.0431 121.294 93.6073 122.606 93.6073 123.978V174.378L152 219.762V229.714L93.6073 214.188V281.069L103.445 292.535V304L82.1826 295.719L60.9201 304V292.535L70.758 281.069V214.188L13 229.714L13 219.762L70.758 174.378V123.978Z" fill="#C4C4C4"/>
<path d="M70.1791 124.029C70.1791 122.627 70.7678 121.289 71.8017 120.342L78.6226 114.094C80.5339 112.343 83.4661 112.343 85.3774 114.094L92.1983 120.342C93.2322 121.289 93.8209 122.627 93.8209 124.029V281.069L104 292.535V304L82 295.719L60 304L60 292.535L70.1791 281.069V124.029Z" fill="#EDEDED"/>
<defs>
<filter id="filter0_f" x="140" y="104" width="55" height="55" filterUnits="userSpaceOnUse" color-interpolation-filters="sRGB">
<feFlood flood-opacity="0" result="BackgroundImageFix"/>
<feBlend mode="normal" in="SourceGraphic" in2="BackgroundImageFix" result="shape"/>
<feGaussianBlur stdDeviation="7.5" result="effect1_foregroundBlur"/>
</filter>
</defs>
</svg>
