<svg width="21" height="21" viewBox="0 0 21 21" fill="none" xmlns="http://www.w3.org/2000/svg">
<path fill-rule="evenodd" clip-rule="evenodd" d="M18.4133 10.0255C18.3853 9.95892 18.3646 9.88953 18.3516 9.81851L17.5169 5.26936C17.3214 4.20349 16.7659 3.23702 15.9434 2.53144C12.9044 -0.0755847 8.41786 -0.0755854 5.37882 2.53144C4.55633 3.23701 4.00089 4.20349 3.80533 5.26936L2.97068 9.81851C2.95765 9.88953 2.93697 9.95892 2.909 10.0255L1.02837 14.5006C0.751405 15.1596 1.23539 15.888 1.95027 15.888H10.6611L19.372 15.888C20.0869 15.888 20.5709 15.1596 20.2939 14.5006L18.4133 10.0255ZM9.08667 20.4073C8.63026 20.0274 8.34667 19.4957 8.34667 18.9073H9.84667H11.7252H13.2252C13.2252 19.4957 12.9416 20.0274 12.4852 20.4073C12.046 20.773 11.4466 20.9981 10.7859 20.9981C10.1253 20.9981 9.52592 20.773 9.08667 20.4073Z" fill="#3A3A3A"/>
</svg>
