<svg width="21" height="23" viewBox="0 0 21 23" fill="none" xmlns="http://www.w3.org/2000/svg">
<path d="M18.3516 11.8182C18.3646 11.8892 18.3853 11.9586 18.4133 12.0252L20.2939 16.5003C20.5709 17.1593 20.0869 17.8877 19.372 17.8877L10.6611 17.8877L1.95027 17.8877C1.23539 17.8877 0.75141 17.1593 1.02837 16.5003L2.909 12.0252C2.93698 11.9586 2.95766 11.8892 2.97068 11.8182L3.80534 7.26905C4.0009 6.20318 4.55633 5.23671 5.37882 4.53113C8.41786 1.92411 12.9044 1.92411 15.9434 4.53113C16.7659 5.23671 17.3214 6.20318 17.5169 7.26905L18.3516 11.8182Z" fill="white"/>
<path d="M12.1785 21.6572C11.8925 21.996 11.4108 22.248 10.7855 22.248C10.1601 22.248 9.67847 21.996 9.39238 21.6572H12.1785Z" stroke="white" stroke-width="1.5"/>
</svg>
