<svg width="18" height="24" viewBox="0 0 18 24" fill="none" xmlns="http://www.w3.org/2000/svg">
<rect x="18" width="24" height="18" rx="1" transform="rotate(90 18 0)" fill="white"/>
<line x1="13.5" y1="19.5" x2="4.5" y2="19.5" stroke="#333333" stroke-width="2" stroke-linecap="round"/>
<path d="M9 14.5C12.0376 14.5 14.5 12.0376 14.5 9C14.5 5.96243 12.0376 3.5 9 3.5C5.96243 3.5 3.5 5.96243 3.5 9C3.5 12.0376 5.96243 14.5 9 14.5Z" stroke="#333333" stroke-width="1.5" stroke-linecap="round" stroke-linejoin="round"/>
<path d="M3.5 8.5H14.5" stroke="#333333" stroke-width="1.5" stroke-linecap="round" stroke-linejoin="round"/>
<path d="M8.99927 3.5C10.5626 5.00609 11.451 6.96062 11.4993 9C11.451 11.0394 10.5626 12.9939 8.99927 14.5C7.43597 12.9939 6.54755 11.0394 6.49927 9C6.54755 6.96062 7.43597 5.00609 8.99927 3.5V3.5Z" stroke="#333333" stroke-width="1.5" stroke-linecap="round" stroke-linejoin="round"/>
</svg>
