<svg width="33" height="22" viewBox="0 0 33 22" fill="none" xmlns="http://www.w3.org/2000/svg">
  <path fill-rule="evenodd" clip-rule="evenodd" d="M26.7573 2.39977C27.0133 2.1438 27.3605 2 27.7225 2C27.9017 2 28.0792 2.0353 28.2448 2.1039C28.4104 2.17249 28.5609 2.27303 28.6876 2.39977C28.8144 2.52652 28.9149 2.67699 28.9835 2.84258C29.0521 3.00818 29.0874 3.18567 29.0874 3.36491C29.0874 3.54415 29.0521 3.72164 28.9835 3.88724C28.9149 4.05284 28.8144 4.20331 28.6876 4.33005L14.9481 18.0696L12.3744 18.713L13.0178 16.1393L26.7573 2.39977ZM27.7225 0C26.8301 0 25.9742 0.354516 25.3431 0.98556L11.4077 14.9209C11.2796 15.0491 11.1887 15.2097 11.1447 15.3855L10.0299 19.8448C9.94468 20.1856 10.0445 20.5461 10.2929 20.7945C10.5413 21.0429 10.9018 21.1427 11.2426 21.0575L15.7019 19.9427C15.8777 19.8987 16.0383 19.8078 16.1665 19.6797L30.1018 5.74427C30.4143 5.43181 30.6622 5.06086 30.8313 4.65261C31.0004 4.24436 31.0874 3.8068 31.0874 3.36491C31.0874 2.92302 31.0004 2.48546 30.8313 2.07722C30.6622 1.66897 30.4143 1.29802 30.1018 0.98556C29.7894 0.673099 29.4184 0.425242 29.0102 0.256139C28.6019 0.0870363 28.1644 0 27.7225 0ZM21.0313 19.0879C20.479 19.0879 20.0313 19.5356 20.0313 20.0879C20.0313 20.6402 20.479 21.0879 21.0313 21.0879H31.0648C31.617 21.0879 32.0648 20.6402 32.0648 20.0879C32.0648 19.5356 31.617 19.0879 31.0648 19.0879H21.0313Z" fill="#D8014E"/>
  <circle cx="22" cy="20" r="2" fill="white"/>
  <circle cx="1" cy="2" r="1" fill="white"/>
</svg>
