<svg width="97" height="85" viewBox="0 0 97 85" fill="none" xmlns="http://www.w3.org/2000/svg">
<path d="M9.92942 51.7494C7.24202 42.5429 7.9973 32.6805 12.0557 23.9846C16.1141 15.2887 23.2013 8.34692 32.0078 4.44199C38.0892 1.74545 44.7066 0.622898 51.2557 1.11111M82.165 19.7192C78.4705 13.8171 73.3084 9.02369 67.2342 5.76377" stroke="#27AE60" stroke-width="1.5"/>
<path d="M1.15625 45.3706L10.477 51.7351L16.4524 43.1854" stroke="#27AE60" stroke-width="1.5"/>
<path d="M87.5081 32.712C90.1955 41.9185 89.4402 51.7809 85.3818 60.4768C81.3234 69.1727 74.2362 76.1145 65.4297 80.0194C56.6231 83.9244 46.6925 84.5285 37.4728 81.7203M15.2725 64.7422C18.0481 69.1763 21.6521 72.9848 25.8489 75.9872" stroke="#27AE60" stroke-width="1.5"/>
<path d="M96.1562 38.6294L86.947 32.0229L81.2398 41.7545" stroke="#27AE60" stroke-width="1.5"/>
<path d="M75.5348 22.8769L48.6576 8.50098L21.7812 22.8769" stroke="#27AE60" stroke-width="1.5"/>
<path d="M21.9062 23.0019H75.4099V29.0024H21.9062V23.0019Z" stroke="#27AE60" stroke-width="1.5"/>
<path d="M21.9062 59.2543H75.4099V65.2548H21.9062V59.2543Z" stroke="#27AE60" stroke-width="1.5"/>
<path fill-rule="evenodd" clip-rule="evenodd" d="M26.9062 28.5021V32.7525H36.657V28.5021H38.157V33.5025V34.2525H37.407H35.6568V54.0039H37.407H38.157V54.7539V59.7542H36.657V55.5039H26.9062V59.7542H25.4062V54.7539V54.0039H26.1562H27.9064V34.2525H26.1562H25.4062V33.5025V28.5021H26.9062ZM34.1568 54.0039V34.2525H29.4064V54.0039H34.1568Z" fill="#27AE60"/>
<path fill-rule="evenodd" clip-rule="evenodd" d="M44.0938 28.5021V32.7525H53.8445V28.5021H55.3445V33.5025V34.2525H54.5945H52.8443V54.0039H54.5945H55.3445V54.7539V59.7542H53.8445V55.5039H44.0938V59.7542H42.5938V54.7539V54.0039H43.3438H45.0939V34.2525H43.3438H42.5938V33.5025V28.5021H44.0938ZM51.3443 54.0039V34.2525H46.5939V54.0039H51.3443Z" fill="#27AE60"/>
<path fill-rule="evenodd" clip-rule="evenodd" d="M61.2852 28.5021V32.7525H71.0359V28.5021H72.5359V33.5025V34.2525H71.7859H70.0357V54.0039H71.7859H72.5359V54.7539V59.7542H71.0359V55.5039H61.2852V59.7542H59.7852V54.7539V54.0039H60.5352H62.2853V34.2525H60.5352H59.7852V33.5025V28.5021H61.2852ZM68.5357 54.0039V34.2525H63.7853V54.0039H68.5357Z" fill="#27AE60"/>
</svg>
