<svg width="31" height="26" viewBox="0 0 31 26" fill="none" xmlns="http://www.w3.org/2000/svg">
  <circle cx="28.5" cy="2.5" r="2.5" fill="#D8014E"/>
  <path d="M23.9993 19.2199V22.6823C24.0006 23.0038 23.9346 23.3219 23.8056 23.6164C23.6766 23.911 23.4873 24.1753 23.25 24.3926C23.0127 24.6099 22.7325 24.7754 22.4274 24.8783C22.1223 24.9813 21.799 25.0196 21.4783 24.9906C17.9197 24.6047 14.5015 23.3912 11.4982 21.4474C8.7041 19.6754 6.33515 17.3112 4.55964 14.5226C2.60524 11.5116 1.38898 8.08359 1.00939 4.51614C0.980488 4.19698 1.01849 3.87532 1.12098 3.57162C1.22347 3.26792 1.3882 2.98885 1.60468 2.75218C1.82116 2.5155 2.08464 2.3264 2.37836 2.19692C2.67208 2.06744 2.98959 2.00041 3.31069 2.00011H6.77999C7.34122 1.9946 7.8853 2.19294 8.31083 2.55818C8.73637 2.92341 9.01431 3.43061 9.09286 3.98524C9.23929 5.09329 9.51085 6.18126 9.90236 7.22838C10.058 7.64147 10.0916 8.09042 9.99939 8.52203C9.90716 8.95364 9.69289 9.34982 9.38197 9.66362L7.9133 11.1294C9.55954 14.0188 11.9567 16.4112 14.8519 18.0542L16.3206 16.5885C16.635 16.2782 17.032 16.0643 17.4644 15.9723C17.8969 15.8802 18.3467 15.9138 18.7606 16.0691C19.8098 16.4598 20.9 16.7309 22.0102 16.877C22.572 16.9561 23.085 17.2385 23.4518 17.6705C23.8185 18.1025 24.0134 18.6539 23.9993 19.2199Z" stroke="white" stroke-width="1.5" stroke-linecap="round" stroke-linejoin="round"/>
</svg>
