<svg width="31" height="26" viewBox="0 0 31 26" fill="none" xmlns="http://www.w3.org/2000/svg">
  <path d="M25.9994 17.2251V20.0854C26.0005 20.3509 25.946 20.6138 25.8394 20.8571C25.7328 21.1004 25.5765 21.3188 25.3804 21.4983C25.1844 21.6778 24.9529 21.8144 24.7009 21.8995C24.4489 21.9846 24.1818 22.0162 23.9168 21.9923C20.9772 21.6735 18.1534 20.671 15.6725 19.0653C13.3643 17.6014 11.4073 15.6484 9.94057 13.3447C8.32607 10.8574 7.32133 8.02557 7.00775 5.07855C6.98388 4.8149 7.01528 4.54917 7.09994 4.2983C7.18461 4.04742 7.32069 3.81688 7.49952 3.62136C7.67835 3.42585 7.89601 3.26963 8.13865 3.16267C8.38128 3.05571 8.64358 3.00034 8.90883 3.00009H11.7748C12.2384 2.99554 12.6879 3.15939 13.0394 3.4611C13.3909 3.76282 13.6205 4.18181 13.6854 4.63998C13.8064 5.55533 14.0307 6.45408 14.3541 7.31909C14.4827 7.66035 14.5105 8.03122 14.4343 8.38777C14.3581 8.74431 14.1811 9.07159 13.9242 9.33081L12.711 10.5417C14.0709 12.9286 16.0512 14.9049 18.4429 16.2622L19.6561 15.0513C19.9159 14.795 20.2438 14.6183 20.601 14.5423C20.9583 14.4663 21.3299 14.494 21.6718 14.6223C22.5386 14.9451 23.4391 15.169 24.3563 15.2897C24.8203 15.355 25.2441 15.5883 25.5471 15.9452C25.8501 16.302 26.011 16.7576 25.9994 17.2251Z" stroke="#D8014E" stroke-width="2" stroke-linecap="round" stroke-linejoin="round"/>
  <circle cx="2" cy="24" r="2" fill="white"/>
  <circle cx="30" cy="1" r="1" fill="white"/>
</svg>
