<svg width="79" height="35" viewBox="0 0 79 35" fill="none" xmlns="http://www.w3.org/2000/svg">
<path d="M39.7148 25.4355H41.3495C42.1456 25.4355 42.6707 25.7852 42.6707 26.459C42.6724 26.8308 42.4519 27.1673 42.1117 27.3119C42.5557 27.4029 42.8703 27.8025 42.857 28.2586C42.857 29.0006 42.2642 29.3929 41.4088 29.3929H39.7148V25.4355ZM41.214 27.1413C41.6628 27.1413 41.8915 26.9025 41.8915 26.5358C41.8915 26.169 41.6628 25.9814 41.1885 25.9814H40.4686V27.1328L41.214 27.1413ZM41.2817 28.8982C41.8322 28.8982 42.0863 28.6509 42.0863 28.2756C42.0863 27.9004 41.7983 27.6445 41.2394 27.6445H40.4348V28.8982H41.2817Z" fill="#AAB4BA"/>
<path d="M45.6248 25.3405C46.1759 25.327 46.7095 25.5358 47.107 25.9204L46.7513 26.4577C46.4576 26.1723 46.0668 26.0106 45.6587 26.0057C45.2867 25.9983 44.9281 26.1462 44.6682 26.4144C44.4083 26.6826 44.2702 27.0471 44.2866 27.4215C44.2726 27.8012 44.4145 28.1699 44.6789 28.441C44.9433 28.7121 45.3069 28.8616 45.6841 28.8543C46.1448 28.8427 46.5826 28.6498 46.9037 28.317L47.2086 28.8714C46.7886 29.2865 46.2219 29.5166 45.6333 29.511C44.4896 29.511 43.5625 28.5774 43.5625 27.4257C43.5625 26.2741 44.4896 25.3405 45.6333 25.3405" fill="#AAB4BA"/>
<path d="M49.6567 25.3377C50.1336 25.3358 50.5893 25.5364 50.9117 25.8903C51.2342 26.2442 51.3935 26.7186 51.3506 27.197C51.358 27.3049 51.358 27.4132 51.3506 27.5211H48.4625C48.4599 27.8799 48.6032 28.2242 48.8592 28.4739C49.1152 28.7237 49.4615 28.857 49.8176 28.843C50.2467 28.8348 50.6586 28.6713 50.9779 28.3825L51.2997 28.9368C50.8713 29.3018 50.3279 29.5013 49.7668 29.4997C49.2087 29.5236 48.6658 29.3131 48.2677 28.9186C47.8695 28.5242 47.6517 27.981 47.6663 27.4187C47.6305 26.8715 47.8248 26.3342 48.2018 25.9384C48.5788 25.5425 49.1037 25.3245 49.6482 25.3377H49.6567ZM50.6052 26.9496C50.6291 26.6796 50.5389 26.412 50.3567 26.2123C50.1746 26.0127 49.9174 25.8995 49.6482 25.9006C49.0494 25.8934 48.5451 26.3494 48.4879 26.9496H50.6052ZM48.6573 23.8281H49.284V24.6213H48.6573V23.8281ZM49.97 23.8281H50.5883V24.6213H49.97V23.8281Z" fill="#AAB4BA"/>
<path d="M54.2305 25.4355H57.686V29.4099H56.9238V26.0837H54.9927V29.4099H54.2305V25.4355Z" fill="#AAB4BA"/>
<path d="M58.8548 25.4338H59.5578V25.7835C59.5655 25.8828 59.5655 25.9826 59.5578 26.082C59.8239 25.5982 60.3388 25.3075 60.8875 25.3315C61.9547 25.3315 62.5814 26.1843 62.5814 27.4125C62.6485 27.9309 62.4957 28.4538 62.1604 28.853C61.8252 29.2523 61.3386 29.4909 60.8198 29.5105C60.3227 29.513 59.8591 29.2587 59.5917 28.8368C59.6032 28.953 59.6032 29.0702 59.5917 29.1864V30.9945H58.8379L58.8548 25.4338ZM60.7012 28.8453C61.3279 28.8453 61.8446 28.3336 61.8446 27.4295C61.8446 26.5255 61.3872 26.0052 60.7266 26.0052C60.066 26.0052 59.5832 26.4317 59.5832 27.438C59.5832 28.1459 59.9728 28.8453 60.7012 28.8453Z" fill="#AAB4BA"/>
<path d="M65.411 25.339C66.5452 25.3718 67.441 26.3192 67.4179 27.4615C67.3948 28.6038 66.4614 29.5138 65.3269 29.5C64.1923 29.4863 63.281 28.554 63.2852 27.4115C63.2849 26.8498 63.511 26.3121 63.9117 25.9214C64.3125 25.5307 64.8535 25.3205 65.411 25.339ZM66.7584 28.0096C66.9965 27.4809 66.8921 26.8595 66.4945 26.439C66.0969 26.0186 65.4856 25.8833 64.9495 26.097C64.4134 26.3108 64.0599 26.8309 64.0559 27.4115C64.0422 27.7838 64.1783 28.1459 64.4335 28.4156C64.6886 28.6854 65.0411 28.84 65.411 28.8443C65.9871 28.8686 66.5202 28.5384 66.7584 28.0096Z" fill="#AAB4BA"/>
<path d="M68.2988 25.4355H69.0272V28.7532H70.484V25.4355H71.2208V28.7532H72.6776V25.4355H73.406V28.7532H73.9649V30.3566H73.2704V29.4099H68.2988V25.4355Z" fill="#AAB4BA"/>
<path d="M76.4451 25.3399C76.922 25.3379 77.3777 25.5385 77.7001 25.8925C78.0226 26.2464 78.1819 26.7208 78.139 27.1991C78.1463 27.307 78.1463 27.4153 78.139 27.5232H75.2509C75.2483 27.8821 75.3916 28.2264 75.6476 28.4761C75.9036 28.7258 76.2499 28.8592 76.606 28.8452C77.0351 28.8369 77.447 28.6735 77.7663 28.3846L78.0881 28.939C77.6631 29.3051 77.1229 29.5076 76.5636 29.5104C76.0056 29.5342 75.4627 29.3238 75.0645 28.9293C74.6664 28.5348 74.4486 27.9917 74.4632 27.4294C74.4274 26.8821 74.6217 26.3449 74.9987 25.9491C75.3757 25.5532 75.9006 25.3352 76.4451 25.3484V25.3399ZM77.3936 26.9518C77.4175 26.6818 77.3273 26.4141 77.1451 26.2145C76.963 26.0148 76.7058 25.9017 76.4366 25.9028C75.8378 25.8956 75.3335 26.3516 75.2763 26.9518H77.3936Z" fill="#AAB4BA"/>
<path d="M43.4468 16.1979C45.2169 16.1979 46.2756 14.6542 46.2756 12.1382C46.2756 9.62224 45.2169 8.07854 43.4468 8.07854C41.6767 8.07854 40.601 9.56254 40.601 12.1382C40.601 14.7139 41.7105 16.1979 43.4468 16.1979ZM48.3761 21.8354C48.3343 21.8831 48.2741 21.9105 48.2109 21.9105C48.1477 21.9105 48.0876 21.8831 48.0458 21.8354L47.1988 20.6584C46.3562 19.4498 44.9428 18.7786 43.4807 18.893C39.9065 18.893 37.6621 16.3344 37.6621 12.1894C37.6621 8.04443 39.9065 5.46875 43.4807 5.46875C47.0548 5.46875 49.2823 8.02737 49.2823 12.1894C49.2823 14.2789 48.5539 16.4538 47.3343 17.1446C47.1141 17.2725 47.1141 17.3322 47.3343 17.4004C48.1918 17.6803 48.9352 18.2343 49.4517 18.9783L50.2986 20.0955C50.346 20.1376 50.3732 20.1982 50.3732 20.2618C50.3732 20.3255 50.346 20.3861 50.2986 20.4281L48.3761 21.8354Z" fill="#858F9A"/>
<path d="M51.4826 5.61133H54.0241C54.1385 5.61133 54.2313 5.70408 54.2313 5.81851V18.4275C54.2313 18.5419 54.1385 18.6347 54.0241 18.6347H51.4826C51.3681 18.6347 51.2754 18.5419 51.2754 18.4275V5.81851C51.2754 5.70408 51.3681 5.61133 51.4826 5.61133Z" fill="#858F9A"/>
<path d="M71.1436 14.6881C70.8133 15.9589 70.5423 17.17 70.2966 18.4152C70.2947 18.4794 70.2661 18.54 70.2178 18.5821C70.1696 18.6242 70.106 18.6441 70.0426 18.6369H66.6886C66.6252 18.6441 66.5616 18.6242 66.5133 18.5821C66.4651 18.54 66.4365 18.4794 66.4345 18.4152C66.2313 17.3491 66.0365 16.3768 65.7739 15.3619L65.2149 12.9824C65.1048 12.5047 64.9608 11.7372 64.8507 11.089C64.8507 10.8331 64.5966 10.8331 64.5628 11.089C64.4527 11.7286 64.3087 12.4877 64.1986 12.9824L63.6311 15.3704C63.394 16.3768 63.1907 17.3576 62.9705 18.4237C62.9685 18.488 62.94 18.5485 62.8917 18.5906C62.8434 18.6327 62.7799 18.6526 62.7164 18.6454H59.3794C59.316 18.6526 59.2524 18.6327 59.2041 18.5906C59.1559 18.5485 59.1273 18.488 59.1253 18.4237C58.8882 17.1785 58.6172 15.9589 58.2784 14.6966L56.034 5.86939C55.9831 5.7244 56.034 5.61353 56.2372 5.61353H58.7781C58.9059 5.60609 59.0204 5.69257 59.0491 5.81822L60.2687 10.7478C60.5875 12.0779 60.8139 13.4287 60.9463 14.7904C60.9463 15.0293 61.2342 15.0463 61.2766 14.7904C61.461 13.428 61.7268 12.078 62.0727 10.7478L63.4024 5.79263C63.427 5.67158 63.5339 5.58545 63.6565 5.58794H65.74C65.8627 5.58545 65.9696 5.67158 65.9941 5.79263L67.3492 10.7478C67.6978 12.0779 67.9665 13.4279 68.1538 14.7904C68.1538 15.0463 68.4418 15.0293 68.4672 14.7904C68.5908 13.4275 68.8173 12.0761 69.1448 10.7478L70.3813 5.79263C70.4249 5.68718 70.5308 5.62182 70.6439 5.63059H73.1848C73.3457 5.63059 73.4388 5.74146 73.388 5.88645L71.1436 14.6881Z" fill="#858F9A"/>
<path d="M75.3849 5.61133H77.9264C78.0408 5.61133 78.1336 5.70408 78.1336 5.81851V18.4275C78.1336 18.5419 78.0408 18.6347 77.9264 18.6347H75.3849C75.2705 18.6347 75.1777 18.5419 75.1777 18.4275V5.81851C75.1777 5.70408 75.2705 5.61133 75.3849 5.61133Z" fill="#858F9A"/>
<path d="M32.6758 34.0556C32.9807 34.4394 32.5148 34.8232 32.1676 34.5162C28.7035 31.4202 25.7816 30.5503 22.9019 30.4224C21.3517 30.395 19.8013 30.4691 18.2606 30.6441L17.2951 30.7294H16.8716C16.309 30.791 15.7436 30.8223 15.1777 30.8232C12.5078 30.8362 9.88061 30.1484 7.55512 28.8275C5.24509 27.5369 3.32962 25.6345 2.01605 23.3265C0.689042 21.0204 -0.0065433 18.4011 0.000302625 15.7359C-0.0165772 13.0446 0.672961 10.3967 1.99911 8.06004C4.65722 3.3814 9.60472 0.499612 14.9575 0.51211C17.655 0.492901 20.3111 1.18066 22.6648 2.50783C24.9801 3.80485 26.9009 5.71251 28.2208 8.02592C29.5649 10.3563 30.2639 13.0069 30.245 15.7018C30.2448 16.7385 30.1427 17.7727 29.9401 18.7892C29.9401 18.9342 29.8808 19.1133 29.8215 19.318C29.7622 19.5227 29.7368 19.6506 29.6945 19.8126C29.273 21.0971 28.7045 22.3278 28.0006 23.48C27.8989 23.642 27.8481 23.48 27.8312 23.4288C27.6418 21.3043 26.4964 19.3841 24.7229 18.2178L24.6382 18.1666C24.3391 17.9807 24.0278 17.8154 23.7065 17.6719C23.262 17.4752 22.8033 17.3127 22.3345 17.1858C22.0296 17.1005 21.3605 17.1431 21.6061 16.8958C22.6782 16.7719 23.7609 16.7719 24.833 16.8958H24.9346C24.9628 16.5433 24.9798 16.1822 24.9854 15.8127C25.0602 13.0802 23.9833 10.4435 22.0211 8.5547C20.2044 6.65367 17.6873 5.59471 15.0676 5.62935C12.4316 5.55671 9.89096 6.62477 8.0887 8.56323C6.22681 10.459 5.21159 13.0363 5.27682 15.7018C5.21239 18.3746 6.25934 20.9531 8.16493 22.8147C9.95914 24.7107 12.4587 25.7651 15.0591 25.723H15.4403V25.6207C15.2878 23.625 15.2539 21.9704 15.6605 22.6356C15.8044 22.8744 15.9484 23.0962 16.0924 23.3094C16.5601 24.0236 17.0902 24.6943 17.6762 25.3137L17.7524 25.3904C19.6666 27.352 21.5553 27.8296 23.5625 28.3328H23.6896L24.689 28.5887C27.0774 29.2283 29.6606 30.2944 32.6673 34.0215L32.6758 34.0556ZM26.0526 21.996C25.7561 21.9107 25.5359 21.996 25.4258 22.1751C25.2917 22.6717 25.3984 23.2029 25.7138 23.6079C26.0526 24.1367 26.3405 24.4096 26.5608 24.4096C26.639 24.4104 26.7135 24.376 26.764 24.3158C26.9133 24.0583 26.9559 23.7519 26.8826 23.4629C26.83 22.8694 26.5201 22.3295 26.0356 21.9875L26.0526 21.996ZM22.7156 24.4778C22.4446 24.4566 22.18 24.5677 22.0041 24.7764C21.6309 25.4172 21.7992 26.2384 22.3937 26.6783C22.6812 26.9203 23.0439 27.0531 23.4186 27.0535C23.7654 27.0684 24.0987 26.9165 24.3163 26.6441C24.672 26.1665 24.4688 25.4842 23.7997 24.9384C23.5009 24.6687 23.1167 24.5145 22.7156 24.5034" fill="#C5CCD3"/>
</svg>
