<svg width="23" height="36" viewBox="0 0 23 36" fill="none" xmlns="http://www.w3.org/2000/svg">
<path fill-rule="evenodd" clip-rule="evenodd" d="M3.06445 29.6608V17.0479H19.5806V29.6608H3.06445ZM1.56445 16.2575C1.56445 15.8656 1.88219 15.5479 2.27413 15.5479H20.3709C20.7628 15.5479 21.0806 15.8656 21.0806 16.2575V30.4511C21.0806 30.843 20.7628 31.1608 20.3709 31.1608H2.27413C1.88219 31.1608 1.56445 30.843 1.56445 30.4511V16.2575ZM16.8225 24.064C17.4104 24.064 17.887 23.5874 17.887 22.9995C17.887 22.4115 17.4104 21.9349 16.8225 21.9349C16.2346 21.9349 15.758 22.4115 15.758 22.9995C15.758 23.5874 16.2346 24.064 16.8225 24.064Z" fill="white"/>
<path d="M2.46452 15.5253C2.06041 15.6162 1.80652 16.0175 1.89744 16.4217C1.98837 16.8258 2.38967 17.0797 2.79378 16.9887L2.46452 15.5253ZM2.79378 16.9887L16.1219 13.9899L15.7926 12.5265L2.46452 15.5253L2.79378 16.9887ZM16.0727 13.9506V16.6119H17.5727V13.9506H16.0727ZM16.1219 13.9899C16.1182 13.9907 16.1109 13.9911 16.103 13.9892C16.0961 13.9876 16.0912 13.9848 16.0878 13.9821C16.0844 13.9793 16.0807 13.9752 16.0775 13.9688C16.0739 13.9615 16.0727 13.9544 16.0727 13.9506H17.5727C17.5727 13.0152 16.7052 12.3212 15.7926 12.5265L16.1219 13.9899Z" fill="white"/>
<path d="M12.605 1C12.605 0.585786 12.2692 0.25 11.855 0.25C11.4408 0.25 11.105 0.585786 11.105 1L12.605 1ZM11.3247 11.4658C11.6175 11.7587 12.0924 11.7587 12.3853 11.4658L17.1583 6.69284C17.4512 6.39995 17.4512 5.92508 17.1583 5.63218C16.8654 5.33929 16.3905 5.33929 16.0976 5.63218L11.855 9.87482L7.61234 5.63218C7.31945 5.33929 6.84457 5.33929 6.55168 5.63218C6.25879 5.92508 6.25879 6.39995 6.55168 6.69284L11.3247 11.4658ZM11.105 1L11.105 10.9355L12.605 10.9355L12.605 1L11.105 1Z" fill="#D8014E"/>
</svg>
