<svg width="96" height="95" viewBox="0 0 96 95" fill="none" xmlns="http://www.w3.org/2000/svg">
<circle cx="47.6562" cy="47.5" r="46.75" stroke="#27AE60" stroke-width="1.5"/>
<path d="M36.1426 49.9798C35.2964 47.0809 35.5342 43.9755 36.8121 41.2373C38.09 38.4992 40.3216 36.3134 43.0946 35.0838C45.0094 34.2347 47.0931 33.8813 49.1553 34.035M58.8879 39.8942C57.7246 38.0358 56.0991 36.5265 54.1865 35.5" stroke="#27AE60" stroke-width="1.5"/>
<path d="M31.4766 47.8462L36.1965 51.0691L39.2223 46.7397" stroke="#27AE60" stroke-width="1.5"/>
<path d="M60.5723 43.9853C61.4185 46.8842 61.1806 49.9896 59.9027 52.7278C58.6248 55.4659 56.3932 57.6517 53.6203 58.8813C50.8473 60.1109 47.7204 60.3011 44.8173 59.4168M37.827 54.0708C38.7009 55.4671 39.8358 56.6662 41.1572 57.6116" stroke="#27AE60" stroke-width="1.5"/>
<path d="M65.0234 46.6304L60.3577 43.2833L57.4663 48.2137" stroke="#27AE60" stroke-width="1.5"/>
<path d="M47.6562 10.7415L48.5634 12.6427L48.7387 13.0101L49.1423 13.0633L51.2308 13.3386L49.703 14.7889L49.4078 15.0691L49.4819 15.4694L49.8654 17.5407L48.014 16.5358L47.6562 16.3417L47.2985 16.5358L45.4471 17.5407L45.8306 15.4694L45.9047 15.0691L45.6095 14.7889L44.0817 13.3386L46.1702 13.0633L46.5738 13.0101L46.7491 12.6427L47.6562 10.7415Z" stroke="#27AE60" stroke-width="1.5"/>
<path d="M76.1562 27.6243L77.2191 29.666L77.4017 30.0168L77.7944 30.0643L80.0971 30.3425L78.46 31.767L78.1308 32.0535L78.2172 32.4813L78.6442 34.5951L76.4903 33.5235L76.1562 33.3573L75.8222 33.5235L73.6683 34.5951L74.0953 32.4813L74.1817 32.0535L73.8525 31.767L72.2154 30.3425L74.5181 30.0643L74.9108 30.0168L75.0934 29.666L76.1562 27.6243Z" stroke="#27AE60" stroke-width="1.5"/>
<path d="M76.6562 59.7415L77.5634 61.6427L77.7387 62.0101L78.1423 62.0633L80.2308 62.3386L78.703 63.7889L78.4078 64.0691L78.4819 64.4694L78.8654 66.5407L77.014 65.5358L76.6562 65.3417L76.2985 65.5358L74.4471 66.5407L74.8306 64.4694L74.9047 64.0691L74.6095 63.7889L73.0817 62.3386L75.1702 62.0633L75.5738 62.0101L75.7491 61.6427L76.6562 59.7415Z" stroke="#27AE60" stroke-width="1.5"/>
<path d="M19.1562 27.6243L20.2191 29.666L20.4017 30.0168L20.7944 30.0643L23.0971 30.3425L21.46 31.767L21.1308 32.0535L21.2172 32.4813L21.6442 34.5951L19.4903 33.5235L19.1562 33.3573L18.8222 33.5235L16.6683 34.5951L17.0953 32.4813L17.1817 32.0535L16.8525 31.767L15.2154 30.3425L17.5181 30.0643L17.9108 30.0168L18.0934 29.666L19.1562 27.6243Z" stroke="#27AE60" stroke-width="1.5"/>
<path d="M18.6562 59.7415L19.5634 61.6427L19.7387 62.0101L20.1423 62.0633L22.2308 62.3386L20.703 63.7889L20.4078 64.0691L20.4819 64.4694L20.8654 66.5407L19.014 65.5358L18.6562 65.3417L18.2985 65.5358L16.4471 66.5407L16.8306 64.4694L16.9047 64.0691L16.6095 63.7889L15.0817 62.3386L17.1702 62.0633L17.5738 62.0101L17.7491 61.6427L18.6562 59.7415Z" stroke="#27AE60" stroke-width="1.5"/>
<path d="M64.6562 14.8715L65.5532 16.9221L65.7205 17.3044L66.1336 17.3639L68.3291 17.6796L66.6798 19.3875L66.4165 19.6602L66.4799 20.034L66.8789 22.3844L65.0384 21.2946L64.6562 21.0684L64.2741 21.2946L62.4336 22.3844L62.8326 20.034L62.896 19.6602L62.6327 19.3875L60.9834 17.6796L63.1789 17.3639L63.592 17.3044L63.7593 16.9221L64.6562 14.8715Z" stroke="#27AE60" stroke-width="1.5"/>
<path d="M64.6562 71.7415L65.5634 73.6427L65.7387 74.0101L66.1423 74.0633L68.2308 74.3386L66.703 75.7889L66.4078 76.0691L66.4819 76.4694L66.8654 78.5407L65.014 77.5358L64.6562 77.3417L64.2985 77.5358L62.4471 78.5407L62.8306 76.4694L62.9047 76.0691L62.6095 75.7889L61.0817 74.3386L63.1702 74.0633L63.5738 74.0101L63.7491 73.6427L64.6562 71.7415Z" stroke="#27AE60" stroke-width="1.5"/>
<path d="M30.6562 14.8715L31.5532 16.9221L31.7205 17.3044L32.1336 17.3639L34.3291 17.6796L32.6798 19.3875L32.4165 19.6602L32.4799 20.034L32.8789 22.3844L31.0384 21.2946L30.6562 21.0684L30.2741 21.2946L28.4336 22.3844L28.8326 20.034L28.896 19.6602L28.6327 19.3875L26.9834 17.6796L29.1789 17.3639L29.592 17.3044L29.7593 16.9221L30.6562 14.8715Z" stroke="#27AE60" stroke-width="1.5"/>
<path d="M30.6562 71.7415L31.5634 73.6427L31.7387 74.0101L32.1423 74.0633L34.2308 74.3386L32.703 75.7889L32.4078 76.0691L32.4819 76.4694L32.8654 78.5407L31.014 77.5358L30.6562 77.3417L30.2985 77.5358L28.4471 78.5407L28.8306 76.4694L28.9047 76.0691L28.6095 75.7889L27.0817 74.3386L29.1702 74.0633L29.5738 74.0101L29.7491 73.6427L30.6562 71.7415Z" stroke="#27AE60" stroke-width="1.5"/>
<path d="M14.6562 43.7415L15.5634 45.6427L15.7387 46.0101L16.1423 46.0633L18.2308 46.3386L16.703 47.7889L16.4078 48.0691L16.4819 48.4694L16.8654 50.5407L15.014 49.5358L14.6562 49.3417L14.2985 49.5358L12.4471 50.5407L12.8306 48.4694L12.9047 48.0691L12.6095 47.7889L11.0817 46.3386L13.1702 46.0633L13.5738 46.0101L13.7491 45.6427L14.6562 43.7415Z" stroke="#27AE60" stroke-width="1.5"/>
<path d="M80.6562 43.7415L81.5634 45.6427L81.7387 46.0101L82.1423 46.0633L84.2308 46.3386L82.703 47.7889L82.4078 48.0691L82.4819 48.4694L82.8654 50.5407L81.014 49.5358L80.6562 49.3417L80.2985 49.5358L78.4471 50.5407L78.8306 48.4694L78.9047 48.0691L78.6095 47.7889L77.0817 46.3386L79.1702 46.0633L79.5738 46.0101L79.7491 45.6427L80.6562 43.7415Z" stroke="#27AE60" stroke-width="1.5"/>
<path d="M47.6562 77.7415L48.5634 79.6427L48.7387 80.0101L49.1423 80.0633L51.2308 80.3386L49.703 81.7889L49.4078 82.0691L49.4819 82.4694L49.8654 84.5407L48.014 83.5358L47.6562 83.3417L47.2985 83.5358L45.4471 84.5407L45.8306 82.4694L45.9047 82.0691L45.6095 81.7889L44.0817 80.3386L46.1702 80.0633L46.5738 80.0101L46.7491 79.6427L47.6562 77.7415Z" stroke="#27AE60" stroke-width="1.5"/>
</svg>
