<svg width="77" height="20" viewBox="0 0 77 20" fill="none" xmlns="http://www.w3.org/2000/svg">
<path d="M16.9606 6.32103H11.7373C11.7373 5.50688 11.6365 4.96066 11.4359 4.68236C11.125 4.27103 10.2672 4.0649 8.86321 4.0649C7.49941 4.0649 6.59551 4.1833 6.15448 4.42056C5.71346 4.65877 5.49245 5.17622 5.49245 5.97292C5.49245 6.69415 5.68813 7.16962 6.07998 7.39698C6.36059 7.55877 6.73159 7.65358 7.19347 7.68188L8.24687 7.75264C10.5046 7.89462 11.9146 7.99509 12.4768 8.05217C14.2623 8.22292 15.5566 8.67386 16.3596 9.40452C16.9914 9.97481 17.3683 10.7201 17.4885 11.6399C17.559 12.1904 17.5938 12.8135 17.5938 13.5055C17.5938 15.1008 17.4334 16.2687 17.1131 17.0088C16.5315 18.3673 15.2248 19.2253 13.192 19.5857C12.3403 19.738 11.0375 19.814 9.28486 19.814C6.3596 19.814 4.32135 19.6489 3.17011 19.3163C1.75764 18.9092 0.825928 18.0842 0.375467 16.8423C0.124162 16.1508 0 14.9989 0 13.3866H5.22326C5.22326 13.5663 5.22376 13.7041 5.22376 13.7989C5.22376 14.6592 5.484 15.2121 6.004 15.4588C6.36407 15.6286 6.79864 15.7177 7.30969 15.7286H9.23023C10.2101 15.7286 10.8354 15.6809 11.1051 15.5852C11.5853 15.4059 11.9007 15.1173 12.0512 14.7177C12.1312 14.4715 12.1709 14.1536 12.1709 13.764C12.1709 12.8918 11.8357 12.3611 11.1662 12.1706C10.9154 12.0956 9.75122 11.9904 7.67224 11.8578C6.00251 11.7446 4.84283 11.6357 4.19371 11.53C2.48374 11.2262 1.34393 10.6012 0.77527 9.65264C0.275144 8.84698 0.0253291 7.62764 0.0253291 5.99603C0.0253291 4.75405 0.160418 3.75783 0.430595 3.00877C0.700773 2.25924 1.13633 1.69037 1.73728 1.30122C2.61784 0.703582 3.74474 0.35311 5.11599 0.248393C6.25729 0.153582 7.52325 0.105469 8.91585 0.105469C11.1081 0.105469 12.6705 0.22528 13.6017 0.462544C15.8749 1.04273 17.0112 2.66726 17.0112 5.33707C17.0112 5.55594 16.9944 5.8833 16.9606 6.32103Z" fill="#858F9A"/>
<path d="M39.9297 19.8132V0H48.113H49.3973H50.3901C51.8249 0 52.9196 0.110849 53.672 0.333491C55.3924 0.845283 56.5466 1.89387 57.1381 3.47783C57.4431 4.30943 57.596 5.56132 57.596 7.23302C57.596 9.24292 57.4267 10.6868 57.0914 11.5665C56.4204 13.3052 55.0398 14.3071 52.9543 14.5665C52.709 14.6057 51.6655 14.6401 49.8234 14.6684L48.8917 14.6976H45.5443V19.8132H39.9297ZM45.5443 10.1014H49.0442C50.1542 10.0637 50.8292 9.98255 51.072 9.85566C51.4038 9.68255 51.6268 9.33538 51.7375 8.81509C51.8086 8.46887 51.8438 7.95377 51.8438 7.26981C51.8438 6.4316 51.7733 5.81038 51.6318 5.40472C51.4301 4.83632 50.9464 4.49057 50.1805 4.36462C50.0286 4.34575 49.666 4.33538 49.0914 4.33538H45.5443V10.1014Z" fill="#858F9A"/>
<path d="M69.5822 16.3892H62.0753L61.0666 19.8132H55.2578L61.526 0H69.9954L76.3401 19.8132H70.6534L69.5822 16.3892ZM68.4672 12.5292L65.8364 3.94057L63.2837 12.5292H68.4672Z" fill="#858F9A"/>
<path d="M32.181 2.7871C34.4964 2.7871 36.5635 3.80031 37.9218 5.3871L39.1322 2.92248C37.2394 1.22342 34.6633 0.175781 31.822 0.175781C27.3978 0.175781 23.6133 2.71352 22.0603 6.30597H19.7002L18.3066 9.14324H21.3427C21.3198 9.40644 21.3049 9.66965 21.3049 9.93852C21.3049 10.2635 21.3228 10.5852 21.3566 10.9027H19.8309L18.4378 13.7409H22.1328C23.7301 17.2423 27.4673 19.7003 31.822 19.7003C34.0167 19.7003 36.0529 19.0758 37.739 18.0088V14.5305C36.3812 15.9989 34.3951 16.9267 32.181 16.9267C29.593 16.9267 27.3164 15.6593 25.9908 13.7409H33.7276L35.1212 10.9027H24.8525C24.7993 10.5612 24.771 10.2121 24.771 9.85644C24.771 9.61588 24.7839 9.37814 24.8088 9.14324H35.9849L37.378 6.30597H25.7748C27.0581 4.20267 29.446 2.7871 32.181 2.7871Z" fill="#C5CCD3"/>
<path d="M32.181 2.87293C34.3876 2.87293 36.4546 3.80972 37.8522 5.4418L37.9426 5.54746L38.0037 5.42434L39.2135 2.95972L39.2404 2.90359L39.1942 2.86114C37.2046 1.07529 34.5862 0.0917969 31.8219 0.0917969C29.663 0.0917969 27.586 0.690853 25.8144 1.82434C24.0846 2.93095 22.7575 4.4701 21.9778 6.27434L22.0602 6.22151H19.7002H19.6426L19.6187 6.27057L18.2256 9.1083L18.166 9.22953H18.3066H21.3426L21.2532 9.13708C21.2279 9.43189 21.2154 9.69368 21.2154 9.93944C21.2154 10.2578 21.2328 10.5857 21.2671 10.9121L21.3565 10.8187H19.8308H19.7742L19.7503 10.8677L18.3562 13.7055L18.2971 13.8267H18.4377H22.1328L22.0503 13.7753C23.7161 17.4267 27.5517 19.7861 31.8219 19.7861C33.9625 19.7861 36.025 19.197 37.7886 18.0809L37.8279 18.0559V18.0097V14.5314V14.3055L37.6714 14.4753C36.2803 15.9795 34.2793 16.8418 32.181 16.8418C29.7126 16.8418 27.4265 15.6649 26.0652 13.6946L25.9907 13.8267H33.7275H33.7851L33.809 13.7781L35.2026 10.9394L35.2622 10.8187H35.1211H24.8524L24.9413 10.8913C24.8882 10.5475 24.8609 10.2003 24.8609 9.85736C24.8609 9.62387 24.8733 9.38708 24.8981 9.15265L24.8087 9.22953H35.9848H36.0424L36.0663 9.18048L37.4594 6.34274L37.5195 6.22151H37.3779H25.7747L25.8522 6.34934C27.1603 4.205 29.586 2.87293 32.181 2.87293ZM25.7747 6.3918H37.3779L37.2965 6.27057L35.9039 9.1083L35.9848 9.05925H24.8087H24.7278L24.7188 9.13614C24.694 9.37576 24.6816 9.61868 24.6816 9.85736C24.6816 10.2083 24.7094 10.5649 24.7635 10.9163L24.7754 10.989H24.8524H35.1211L35.0402 10.8677L33.6471 13.7055L33.7275 13.6564H25.9907H25.8244L25.9157 13.7875C27.3098 15.8074 29.6525 17.0116 32.181 17.0116C34.3305 17.0116 36.3811 16.1286 37.8065 14.5875L37.6491 14.5314V18.0097L37.6888 17.9394C35.955 19.0361 33.9267 19.6159 31.8219 19.6159C27.6227 19.6159 23.8522 17.2965 22.2152 13.7074L22.1914 13.6564H22.1328H18.4377L18.5196 13.7781L19.9122 10.9394L19.8308 10.989H21.3565H21.4553L21.4459 10.8951C21.4121 10.5743 21.3942 10.2522 21.3942 9.93944C21.3942 9.69887 21.4067 9.44085 21.432 9.15123L21.4399 9.05925H21.3426H18.3066L18.3875 9.18048L19.7811 6.34274L19.7002 6.3918H22.0602H22.1203L22.1427 6.33897C22.91 4.56585 24.2142 3.05359 25.9147 1.96538C27.656 0.851702 29.6992 0.262552 31.8219 0.262552C34.5406 0.262552 37.1142 1.22906 39.0705 2.98519L39.0506 2.88708L37.8413 5.35217L37.9918 5.33425C36.5589 3.66208 34.4417 2.70265 32.181 2.70265C29.5214 2.70265 27.0377 4.06727 25.6967 6.26397L25.6187 6.3918H25.7747Z" fill="#C5CCD3"/>
</svg>
