<svg width="35" height="38" viewBox="0 0 35 38" fill="none" xmlns="http://www.w3.org/2000/svg">
<path d="M12.3242 4.46387L12.3242 15.3203" stroke="#777777" stroke-width="1.27117" stroke-linecap="round" stroke-linejoin="round"/>
<path d="M12.3242 8.11133L12.3242 13.5181" stroke="#777777" stroke-width="3.81352" stroke-linejoin="round"/>
<path d="M22.1562 1L22.1563 17.2203" stroke="#777777" stroke-width="1.27117" stroke-linecap="round" stroke-linejoin="round"/>
<path d="M22.1562 4.21289L22.1563 13.2242" stroke="#777777" stroke-width="3.81352" stroke-linejoin="round"/>
<path d="M3.15625 3L3.15625 22.8267" stroke="#777777" stroke-width="1.27117" stroke-linecap="round" stroke-linejoin="round"/>
<path d="M3.15625 6.60645L3.15625 18.3211" stroke="#777777" stroke-width="3.81352" stroke-linejoin="round"/>
<path d="M30.668 4.50781L30.668 18.2577" stroke="#777777" stroke-width="1.27117" stroke-linecap="round" stroke-linejoin="round"/>
<path d="M30.668 7.21094L30.668 16.6728" stroke="#777777" stroke-width="3.81352" stroke-linejoin="round"/>
<path fill-rule="evenodd" clip-rule="evenodd" d="M16.1562 27.8262L10.1562 31.8262V36.8262H8.15625V31.8262H2.15625V36.8262H0.15625V37.8262H34.1562V36.8262H32.1562V27.8262H26.1562V36.8262H24.1562V27.8262H18.1562V36.8262H16.1562V27.8262Z" fill="#777777"/>
<path d="M2.15625 28.3262H8.15625L16.1562 23.3262H32.1562M32.1562 23.3262L29.1562 20.8262M32.1562 23.3262L29.1562 25.3262" stroke="#D8004E"/>
</svg>
