<svg width="17" height="20" viewBox="0 0 17 20" fill="none" xmlns="http://www.w3.org/2000/svg">
<path fill-rule="evenodd" clip-rule="evenodd" d="M1.14431 0.166851C0.540965 0.0788636 0 0.54666 0 1.15638V11.5185C0 11.7838 0.105356 12.0381 0.292893 12.2256L7.36012 19.2929C7.75064 19.6834 8.38381 19.6834 8.77433 19.2929L15.8416 12.2256C16.0291 12.0381 16.1345 11.7838 16.1345 11.5185V1.15638C16.1345 0.54666 15.5935 0.0788637 14.9901 0.166851L8.21153 1.1554C8.11584 1.16935 8.01862 1.16935 7.92292 1.1554L1.14431 0.166851ZM12.6575 7.71937C13.0548 7.33576 13.0659 6.70269 12.6823 6.30538C12.2987 5.90806 11.6656 5.89696 11.2683 6.28057L7.83032 9.6L5.66798 7.44995C5.27634 7.06054 4.64318 7.06234 4.25377 7.45397C3.86436 7.84561 3.86617 8.47877 4.2578 8.86818L7.11494 11.7091C7.50094 12.0929 8.12303 12.0975 8.51463 11.7194L12.6575 7.71937Z" fill="#3A3A3A"/>
</svg>
