<svg width="17" height="20" viewBox="0 0 17 20" fill="none" xmlns="http://www.w3.org/2000/svg">
<path fill-rule="evenodd" clip-rule="evenodd" d="M1.14431 0.166912C0.540965 0.0789246 0 0.546721 0 1.15645V11.5186C0 11.7838 0.105356 12.0382 0.292893 12.2257L7.36012 19.2929C7.75064 19.6835 8.38381 19.6835 8.77433 19.2929L15.8416 12.2257C16.0291 12.0382 16.1345 11.7838 16.1345 11.5186V1.15644C16.1345 0.546721 15.5935 0.0789247 14.9901 0.166912L8.21153 1.15546C8.11584 1.16942 8.01862 1.16942 7.92292 1.15546L1.14431 0.166912ZM12.6575 7.71944C13.0548 7.33582 13.0659 6.70275 12.6823 6.30544C12.2987 5.90812 11.6656 5.89702 11.2683 6.28063L7.83032 9.60006L5.66798 7.45001C5.27634 7.0606 4.64318 7.0624 4.25377 7.45404C3.86436 7.84567 3.86617 8.47883 4.2578 8.86824L7.11494 11.7092C7.50094 12.093 8.12303 12.0975 8.51463 11.7194L12.6575 7.71944Z" fill="white"/>
</svg>
