<svg width="36" height="37" viewBox="0 0 36 37" fill="none" xmlns="http://www.w3.org/2000/svg">
<mask id="mask0" mask-type="alpha" maskUnits="userSpaceOnUse" x="0" y="0" width="36" height="37">
<path d="M0 0.511719H35.9745V36.4861H0V0.511719Z" fill="white"/>
</mask>
<g mask="url(#mask0)">
<path fill-rule="evenodd" clip-rule="evenodd" d="M30.0355 30.6314C29.9833 30.6807 29.9326 30.732 29.9326 30.732C27.314 33.2848 23.8672 34.9704 20.2286 35.4784C20.2286 35.4784 20.0251 35.502 19.8507 35.5231C20.0303 35.4056 20.2521 35.2603 20.2521 35.2603C21.2486 34.5562 23.1635 33.022 24.788 30.6563C24.788 30.6563 24.7969 30.6436 24.8054 30.6314H30.0355ZM23.7483 30.6314C23.7135 30.6784 23.6787 30.7245 23.6787 30.7245C22.1755 32.7334 20.4862 34.1139 19.3336 34.9182C19.3336 34.9182 18.6371 35.3769 18.3908 35.5382V30.6314H23.7483ZM17.587 30.6314V35.5382C17.4371 35.4389 16.645 34.9196 16.6431 34.9182C15.4915 34.1139 13.8031 32.7334 12.3 30.7245C12.3 30.7245 12.2647 30.6784 12.23 30.6314H17.587ZM11.1723 30.6314C11.1813 30.6436 11.1898 30.6563 11.1898 30.6563C12.3667 32.3691 13.8943 33.9245 15.7289 35.2791C15.7308 35.2791 15.9084 35.3929 16.0626 35.4921C15.8906 35.4686 15.7111 35.4451 15.7111 35.4451C12.0453 34.952 8.70273 33.3219 6.04564 30.732C6.04564 30.732 5.99442 30.6807 5.94313 30.6314H11.1723ZM33.9556 24.6515C33.9406 24.691 33.9246 24.731 33.9246 24.731C33.2022 26.5674 32.1723 28.2568 30.8633 29.7501C30.8633 29.7501 30.8548 29.76 30.8459 29.7703H25.3595C25.3854 29.7266 25.4113 29.6819 25.4113 29.6819C26.3433 28.113 26.9981 26.4363 27.3558 24.6986C27.3558 24.6986 27.361 24.675 27.3662 24.6515H33.9556ZM26.4886 24.6515C26.4796 24.6863 26.4726 24.7221 26.4726 24.7221C26.0904 26.4758 25.3803 28.1651 24.3607 29.744C24.3607 29.744 24.3518 29.7561 24.3433 29.7703H18.3908V24.6515H26.4886ZM17.587 24.6515V29.7703H11.6349C11.6264 29.7561 11.6175 29.744 11.6175 29.744C10.598 28.1651 9.88772 26.4758 9.50607 24.7221C9.50607 24.7221 9.49805 24.6863 9.49061 24.6515H17.587ZM8.61205 24.6515C8.61678 24.675 8.62145 24.6986 8.62145 24.6986C8.98009 26.4363 9.63442 28.113 10.5665 29.6819C10.5665 29.6819 10.5928 29.7266 10.6191 29.7703H5.13287C5.12387 29.76 5.11545 29.7501 5.11545 29.7501C3.80591 28.2568 2.77558 26.5674 2.05363 24.731C2.05363 24.731 2.03806 24.691 2.02214 24.6515H8.61205ZM34.264 13.1774C34.2706 13.1976 34.2767 13.2174 34.2767 13.2174C34.828 14.9147 35.1096 16.6905 35.1129 18.4959C35.1096 20.3102 34.8257 22.095 34.2678 23.8003C34.2678 23.8003 34.2616 23.821 34.2555 23.8407H1.71992C1.71328 23.821 1.70671 23.8003 1.70671 23.8003C1.15021 22.095 0.865814 20.3102 0.862526 18.4959C0.865814 16.6919 1.14738 14.9156 1.69829 13.2174C1.69829 13.2174 1.70486 13.1976 1.71144 13.1774H34.264ZM30.8459 7.19664C30.8548 7.20651 30.8633 7.21643 30.8633 7.21643C32.1723 8.71062 33.2031 10.3994 33.9246 12.2354C33.9246 12.2354 33.9406 12.2754 33.9556 12.3154H27.3662C27.361 12.2918 27.3558 12.2689 27.3558 12.2684C26.9981 10.5306 26.3433 8.85397 25.4113 7.28502C25.4113 7.28502 25.3854 7.24037 25.3595 7.19664H30.8459ZM24.3433 7.19664C24.3518 7.20979 24.3607 7.22347 24.3607 7.22347C25.3803 8.80136 26.0904 10.4911 26.4726 12.2444C26.4726 12.2444 26.4796 12.2801 26.4886 12.3154H18.3908V7.19664H24.3433ZM17.587 7.19664V12.3154H9.49061C9.49805 12.2801 9.50607 12.2444 9.50607 12.2444C9.88772 10.4911 10.5985 8.80136 11.6175 7.22295C11.6175 7.22295 11.6264 7.20979 11.6349 7.19664H17.587ZM10.6191 7.19664C10.5928 7.24037 10.5665 7.28502 10.5665 7.28502C9.63442 8.85397 8.98009 10.5306 8.62145 12.2684C8.62145 12.2684 8.61678 12.2918 8.61205 12.3154H2.02214C2.03806 12.2754 2.05363 12.2354 2.05363 12.2354C2.77558 10.3994 3.80545 8.71062 5.11545 7.21643C5.11545 7.21643 5.12387 7.20651 5.13287 7.19664H10.6191ZM24.788 6.31018C23.6119 4.59781 22.0853 3.04242 20.2497 1.68829C20.2469 1.68685 20.0697 1.57315 19.916 1.47439C20.0871 1.49787 20.2672 1.52186 20.2672 1.52186C23.933 2.01399 27.2754 3.64409 29.9326 6.23541C29.9326 6.23541 29.9833 6.28572 30.0355 6.3355H24.8054C24.7969 6.32281 24.788 6.31018 24.788 6.31018ZM18.3908 1.42922C18.5417 1.52792 19.336 2.04923 19.336 2.04923C20.4862 2.85251 22.1755 4.23353 23.6787 6.24199C23.6787 6.24199 23.7135 6.289 23.7483 6.3355H18.3908V1.42922ZM12.3 6.24199C13.8031 4.23353 15.4921 2.85251 16.6441 2.04785C16.6441 2.04785 17.3416 1.59045 17.587 1.42922V6.3355H12.23C12.2647 6.289 12.3 6.24199 12.3 6.24199ZM6.04564 6.23541C8.6642 3.68216 12.1106 1.99616 15.7492 1.48852C15.7492 1.48852 15.9526 1.46406 16.128 1.44335C15.948 1.56132 15.728 1.7056 15.728 1.7056C14.7296 2.41069 12.8147 3.94492 11.1898 6.31018C11.1898 6.31018 11.1808 6.32281 11.1723 6.3355H5.94313C5.99442 6.28572 6.04564 6.23541 6.04564 6.23541ZM17.87 0.511719C8.01603 0.575635 0 8.64341 0 18.4959C0 28.4142 8.06916 36.4848 17.987 36.4862C27.9053 36.4848 35.9745 28.4142 35.9745 18.4959C35.9745 8.64341 27.9584 0.575635 18.1045 0.511719H17.87Z" fill="#858F9A"/>
</g>
<path fill-rule="evenodd" clip-rule="evenodd" d="M20.5716 14.7203C20.2422 14.8448 20.1534 15.3171 19.938 16.1322L18.7654 20.8352C18.5391 21.7724 18.5437 22.051 18.6758 22.2524L18.6767 22.3443H16.7157L16.7148 22.2524C17.0236 22.0754 17.0872 21.8225 17.3286 20.8994L18.5016 16.2153C18.7246 15.2995 18.7789 14.965 18.6102 14.7233V14.6323L20.5703 14.6309L20.5716 14.7203Z" fill="#858F9A"/>
<path fill-rule="evenodd" clip-rule="evenodd" d="M2.99942 20.3103C3.12449 21.3695 3.64999 21.8958 4.78319 21.8227C5.57584 21.7721 5.97718 21.1666 5.98024 20.523C5.98372 19.9916 5.67767 19.543 5.11805 19.1165L4.78887 18.8831C4.0972 18.363 3.47818 17.8117 3.48382 16.873C3.49127 15.5391 4.50734 14.6987 5.86396 14.6345C6.25871 14.6153 6.75582 14.6725 7.1379 14.7794C7.33594 14.8347 7.60438 14.9293 7.71459 14.9692L7.39496 16.2703L7.30359 16.2721C7.13001 15.475 6.81179 15.0283 5.78525 15.1178C5.06343 15.1801 4.72331 15.8011 4.71976 16.3326C4.71676 16.8861 5.02324 17.2334 5.60508 17.635L5.93431 17.8572C6.69197 18.3854 7.34077 18.9445 7.33466 19.9335C7.32591 21.4126 6.24341 22.343 4.65377 22.3443C3.73744 22.3443 2.89012 22.0144 2.57227 21.7131C2.58584 21.5757 2.76204 20.9454 2.91287 20.3155L2.99942 20.3103Z" fill="#858F9A"/>
<path fill-rule="evenodd" clip-rule="evenodd" d="M28.2834 14.6309C28.1871 14.9351 28.0142 15.5217 27.8751 15.9859H27.7909C27.456 15.0478 26.6489 15.1708 26.0782 15.1708L26.0178 15.1693C25.6226 15.1693 25.5132 15.267 25.4124 15.6651L24.775 18.1632H24.9898C25.9593 18.1632 26.6372 18.2589 26.9136 17.8497H26.9991L26.6292 19.2611H26.5445C26.3631 18.6346 25.6794 18.7022 24.8272 18.7007H24.6243L24.0521 20.8271C23.8424 21.6202 23.7721 22.028 23.9549 22.2403L23.9563 22.3405L21.8555 22.3443V22.2496C22.221 22.0955 22.2957 21.7407 22.5388 20.8528L23.8005 16.1303C24.031 15.2719 24.0746 14.9677 23.8977 14.7222L23.8954 14.6314L28.2834 14.6309Z" fill="#858F9A"/>
<path fill-rule="evenodd" clip-rule="evenodd" d="M34.7131 14.6309C34.5586 15.069 34.425 15.5008 34.2546 15.9867L34.1592 15.9857C33.8026 15.0583 32.844 15.1692 32.4262 15.1692H32.3254L30.6554 20.8402C30.4329 21.6815 30.3425 22.0341 30.5537 22.2486L30.5521 22.3443H28.2877L28.2852 22.2486C28.6795 22.0662 28.7699 21.68 29.0237 20.8276L30.7001 15.1692H30.5337C29.9903 15.1692 29.1271 15.0875 28.4947 15.9867L28.3899 15.9857C28.5325 15.5932 28.6885 15.1143 28.8613 14.6309H34.7131Z" fill="#858F9A"/>
<path fill-rule="evenodd" clip-rule="evenodd" d="M19.2831 14.7275C18.9398 14.9594 18.741 15.3457 18.3244 16.0879C17.6225 17.3373 15.1578 22.0012 14.9722 22.3443H14.0821L13.5903 17.4855H13.5511L10.7944 22.3443H10.059L9.38095 16.1379C9.29656 15.4099 9.2533 14.9341 9 14.7208L9.00306 14.6319H11.2979L11.2964 14.7208C11.0182 15.0075 10.949 15.3185 11.0146 16.0441L11.3981 19.7341H11.423L14.3003 14.7009H14.9467L15.4457 19.7443H15.4772C16.0992 18.6057 16.9786 16.9772 17.5259 15.9488C18.006 15.0478 17.8189 14.8437 17.7543 14.7275V14.6309L19.2846 14.6338L19.2831 14.7275Z" fill="#858F9A"/>
</svg>
