<svg width="21" height="19" viewBox="0 0 21 19" fill="none" xmlns="http://www.w3.org/2000/svg">
<path fill-rule="evenodd" clip-rule="evenodd" d="M15.8696 18.1659C17.0928 18.7011 17.5515 17.5798 17.5515 17.5798L20.7878 1.32166C20.7623 0.225894 19.2843 0.888452 19.2843 0.888452L1.1659 7.99821C1.1659 7.99821 0.299483 8.304 0.375932 8.83915C0.452381 9.37429 1.14042 9.62912 1.14042 9.62912L5.70188 11.1581C5.70188 11.1581 7.07796 15.6686 7.35827 16.535C7.6131 17.376 7.84245 17.4014 7.84245 17.4014C8.09728 17.5034 8.32663 17.325 8.32663 17.325L11.2827 14.6493L15.8696 18.1659ZM16.6593 4.20126C16.6593 4.20126 17.2964 3.81902 17.2709 4.20126C17.2709 4.20126 17.3729 4.25223 17.0416 4.60899C16.7358 4.91479 9.52409 11.3875 8.55574 12.2539C8.47929 12.3049 8.42832 12.3813 8.42832 12.4832L8.14801 14.8786C8.09704 15.1335 7.76576 15.159 7.68931 14.9296L6.49161 11.0052C6.44065 10.8523 6.49161 10.6739 6.64451 10.572L16.6593 4.20126Z" fill="#9C9C9C"/>
</svg>
