<svg width="15" height="13" viewBox="0 0 15 13" fill="none" xmlns="http://www.w3.org/2000/svg">
<path fill-rule="evenodd" clip-rule="evenodd" d="M11.2648 12.5428C12.1399 12.9256 12.468 12.1235 12.468 12.1235L14.7832 0.492929C14.7649 -0.290949 13.7076 0.183024 13.7076 0.183024L0.746274 5.26912C0.746274 5.26912 0.126463 5.48788 0.181152 5.8707C0.235841 6.25353 0.728044 6.43583 0.728044 6.43583L3.99117 7.52961C3.99117 7.52961 4.97557 10.7563 5.1761 11.3761C5.3584 11.9777 5.52247 11.9959 5.52247 11.9959C5.70476 12.0688 5.86883 11.9412 5.86883 11.9412L7.98348 10.0271L11.2648 12.5428ZM11.8298 2.55291C11.8298 2.55291 12.2855 2.27947 12.2673 2.55291C12.2673 2.55291 12.3402 2.58937 12.1032 2.84459C11.8845 3.06335 6.72545 7.6937 6.03272 8.31351C5.97803 8.34997 5.94157 8.40466 5.94157 8.47758L5.74104 10.1912C5.70459 10.3735 5.4676 10.3917 5.41291 10.2276L4.55611 7.42025C4.51965 7.31088 4.55611 7.18327 4.66549 7.11035L11.8298 2.55291Z" fill="white"/>
</svg>
