<svg width="27" height="23" viewBox="0 0 27 23" fill="none" xmlns="http://www.w3.org/2000/svg">
<path d="M25.8203 10.7575L26.1638 9.68906L25.0464 9.72404C24.5229 9.70349 24.0176 9.52853 23.5952 9.22162C23.6465 9.22162 23.6947 9.22162 23.7461 9.22162C24.0803 9.22039 24.4076 9.12689 24.6912 8.95164C24.9748 8.77639 25.2034 8.52632 25.3515 8.2295L25.8427 7.18969C25.4574 7.19288 25.0723 7.17057 24.69 7.12291C24.3246 7.03774 23.9954 6.84083 23.7493 6.56007C23.5844 6.38599 23.3856 6.24691 23.1648 6.15125C22.944 6.05559 22.7059 6.00535 22.465 6.00359C22.2742 6.00449 22.0846 6.03452 21.9031 6.09263C21.9302 6.0072 21.9517 5.92009 21.9673 5.83188C22.0428 5.21102 21.8674 4.58577 21.4792 4.09249L20.6316 3.05903L20.1114 4.26739C20.0289 4.44031 19.9014 4.58844 19.7422 4.69667C19.6538 4.26558 19.4394 3.86973 19.1257 3.55827C18.8651 3.29402 18.5534 3.08459 18.2091 2.94252C17.8648 2.80046 17.4951 2.72869 17.1222 2.73151C16.991 2.73088 16.8601 2.74045 16.7304 2.76013L15.7158 2.95728C15.8036 2.62063 15.9422 2.29902 16.1268 2.00332L16.6855 1.14157L15.2792 1.27195L14.8297 0.317987L13.9627 0.785428L13.16 0L12.3573 0.785428L11.4904 0.340246L11.0409 1.27195L9.63456 1.11295L10.1932 1.97788C10.3785 2.27327 10.5171 2.59497 10.6042 2.93184L9.64098 2.74423H9.60887C9.47499 2.72414 9.33972 2.71457 9.20431 2.71561C8.83133 2.7126 8.46159 2.78429 8.11729 2.92637C7.77299 3.06844 7.46124 3.27797 7.20077 3.54238C6.88214 3.85744 6.66532 4.25924 6.57787 4.69667C6.42219 4.59167 6.29708 4.44803 6.21505 4.28011L5.69169 3.06221L4.83761 4.09885C4.45613 4.59268 4.28446 5.21453 4.3592 5.83188C4.37508 5.92004 4.39653 6.00713 4.42342 6.09263C4.24194 6.03417 4.05236 6.00413 3.86152 6.00359C3.62055 6.00535 3.38245 6.05559 3.16168 6.15125C2.9409 6.24691 2.74205 6.38599 2.5772 6.56007C2.33234 6.83769 2.00732 7.03416 1.64607 7.12291C1.25928 7.17962 0.86814 7.20197 0.477331 7.18969L0.955742 8.2454C1.10407 8.54199 1.33278 8.79185 1.6163 8.96707C1.89982 9.14228 2.22696 9.23592 2.56115 9.23752C2.61252 9.23752 2.66068 9.23752 2.71205 9.23752C2.29456 9.53958 1.79652 9.71321 1.28003 9.73676L0.15625 9.68906L0.499807 10.7575C0.625458 11.1677 0.868034 11.5332 1.19839 11.8102C1.52874 12.0872 1.93282 12.2638 2.36208 12.3188C2.31766 12.5963 2.20712 12.8593 2.0396 13.086C1.87209 13.3127 1.65243 13.4967 1.39883 13.6226L0.538336 13.9692L1.00069 14.7673C1.18803 15.056 1.44623 15.2928 1.75114 15.4558C2.05605 15.6187 2.39771 15.7024 2.74416 15.699C2.92761 15.6986 3.11053 15.6794 3.29 15.6418C3.33597 15.8363 3.3917 16.0283 3.45696 16.2173C3.61644 16.6358 3.62776 17.0954 3.48907 17.5211L3.07167 18.3892L4.00601 18.634C4.21594 18.6866 4.43163 18.7133 4.64817 18.7135C4.80163 18.7142 4.95465 18.6972 5.10411 18.6627C5.21364 18.6384 5.32102 18.6055 5.42519 18.5641C5.54556 18.7772 5.69343 18.9739 5.86507 19.1492C6.46228 19.7565 7.30993 20.065 8.38556 20.065H9.15294L7.57001 20.7169L8.77085 21.3051C9.25411 21.5419 9.74921 21.7542 10.2542 21.9411L10.1098 22.3545L10.524 22.5421C11.2115 22.8096 11.9401 22.959 12.6784 22.9841C12.6784 22.9841 12.9995 22.9841 13.1729 22.9841C13.3463 22.9841 13.6641 22.9841 13.6641 22.9841C14.3994 22.9571 15.1246 22.8066 15.8089 22.5389L16.2103 22.3545L16.069 21.9411C16.5798 21.7471 17.0803 21.5274 17.5685 21.2829L18.7468 20.7169L17.1671 20.0809H17.9377C19.0133 20.0809 19.8642 19.7629 20.4582 19.1651C20.6301 18.99 20.778 18.7932 20.8981 18.58C21.0024 18.621 21.1097 18.654 21.2192 18.6786C21.3687 18.7129 21.5216 18.7299 21.6751 18.7294C21.8916 18.7288 22.1073 18.7021 22.3173 18.6499L23.2548 18.4051L22.847 17.5529C22.6942 17.1196 22.6999 16.6469 22.8631 16.2173C22.9305 16.0234 22.9851 15.8262 23.0301 15.6291C23.2106 15.6667 23.3946 15.6859 23.5791 15.6863C23.9284 15.6891 24.2726 15.6028 24.5785 15.4357C24.8844 15.2686 25.1418 15.0264 25.3258 14.7323L25.7817 13.9437L24.9341 13.6003C24.6801 13.4748 24.4602 13.291 24.2927 13.0642C24.1251 12.8374 24.0147 12.5742 23.9708 12.2966C24.4005 12.2413 24.8048 12.0642 25.1352 11.7866C25.4656 11.5091 25.708 11.1429 25.8331 10.7321L25.8203 10.7575Z" fill="white"/>
<path d="M13.1599 3.27539C12.2641 3.27539 11.5898 3.56794 11.4453 3.91136L13.1599 4.58232L14.8745 3.91136C14.73 3.56794 14.0557 3.27539 13.1599 3.27539Z" fill="white"/>
<path d="M13.1805 21.0243H13.1452C12.5875 21.0196 12.0324 20.9492 11.4916 20.8145L11.0742 21.9751C11.7591 22.1646 12.4662 22.264 13.1773 22.2708C13.8884 22.2641 14.5955 22.1646 15.2804 21.9751L14.8309 20.8145C14.29 20.949 13.7349 21.0195 13.1773 21.0243" fill="white"/>
<path d="M16.4602 19.8711C15.9892 20.1037 15.4994 20.2973 14.9961 20.4498L15.3493 21.4038C15.9095 21.2571 16.4538 21.0557 16.974 20.8028L16.2451 20.5611L16.4602 19.8711Z" fill="white"/>
<path d="M9.86069 19.8711L10.0758 20.5707L9.34375 20.8123C9.86405 21.0651 10.4082 21.2664 10.9684 21.4133L11.3216 20.4594C10.8183 20.3067 10.3286 20.1132 9.85748 19.8806" fill="white"/>
<path d="M13.1625 2.16441C13.8064 2.15754 14.442 2.30943 15.0119 2.60642C15.0666 2.42222 15.1331 2.24166 15.211 2.06584L15.0183 2.0881L14.816 2.11036L14.7293 1.9291L14.4725 1.38853L14.0037 1.6302L13.8207 1.72241L13.673 1.58886L13.1625 1.08008L12.652 1.58886L12.5075 1.73195L12.3245 1.63974L11.8525 1.39807L11.5988 1.93864L11.5121 2.1199L11.3098 2.09764L11.1172 2.07538C11.1947 2.25134 11.2612 2.43187 11.3163 2.61596C11.8844 2.31642 12.5188 2.16127 13.1625 2.16441Z" fill="white"/>
<path d="M23.4822 8.3983C23.5679 8.42795 23.658 8.443 23.7487 8.44282C23.9294 8.44145 24.1063 8.39203 24.2611 8.29973C24.4159 8.20743 24.5428 8.07564 24.6285 7.91814C24.0648 7.82529 23.5509 7.54217 23.174 7.11682C23.0842 7.01741 22.9744 6.93776 22.8516 6.88298C22.7288 6.82821 22.5958 6.79954 22.4612 6.79883C22.2503 6.80213 22.0445 6.86381 21.8672 6.9769C22.7791 7.45706 22.9653 8.22659 23.4726 8.40148" fill="white"/>
<path d="M2.57507 8.44405C2.66476 8.44418 2.7538 8.42912 2.83836 8.39953C3.35851 8.22464 3.54474 7.44557 4.44377 6.97495C4.26735 6.86242 4.06278 6.80077 3.85298 6.79688C3.71832 6.79759 3.58531 6.82626 3.46254 6.88103C3.33976 6.9358 3.22995 7.01546 3.14018 7.11486C2.76621 7.5395 2.25597 7.8236 1.69531 7.91937C1.78077 8.07709 1.90759 8.20906 2.06241 8.3014C2.21724 8.39374 2.39435 8.44302 2.57507 8.44405Z" fill="white"/>
<path d="M23.731 11.5305H23.7759C24.7392 11.5305 25.0603 10.5193 25.0603 10.5193H25.041C24.5378 10.5038 24.044 10.3797 23.5942 10.1556C23.1445 9.93148 22.7495 9.61282 22.437 9.22187C21.7756 8.39193 21.2362 7.66055 20.167 7.37437L20.0642 7.34893L20.0418 7.24399C20.0129 7.08182 20.1253 6.92601 20.3629 6.76701C21.8366 5.81305 20.8348 4.59198 20.8348 4.59198C20.8348 4.59198 20.4271 5.56502 19.4863 5.56502H19.4221C19.3144 5.56304 19.207 5.55241 19.101 5.53322L18.9276 5.50142C18.999 5.25764 19.0013 4.99915 18.9345 4.75411C18.8677 4.50908 18.7343 4.28691 18.5487 4.11182C18.3637 3.92334 18.1419 3.77402 17.8969 3.67291C17.6518 3.57179 17.3886 3.52098 17.1231 3.52354C17.0285 3.52244 16.9339 3.52989 16.8406 3.5458C17.1617 3.96873 17.4025 4.6683 17.0268 5.09758C16.7057 5.46962 15.9062 5.48552 15.9062 6.05154C15.9062 6.28685 16.1278 6.56032 16.5227 6.80517C17.7171 7.54926 18.9019 8.5382 19.3932 9.86103C20.0097 11.5114 19.3161 12.6084 18.324 13.2349C18.5394 13.4146 18.8047 13.5255 19.085 13.5529C19.1781 13.5529 19.2648 13.5529 19.3482 13.5529C19.8659 13.5745 20.3751 13.4183 20.7899 13.1109C20.7078 13.5468 20.5094 13.9531 20.2152 14.2874C19.9728 14.5661 19.6697 14.7867 19.3288 14.9327C18.9879 15.0786 18.618 15.1461 18.2469 15.1301C18.2495 15.2795 18.2844 15.4266 18.3492 15.5615C18.414 15.6964 18.5072 15.8161 18.6226 15.9123C18.8795 16.0828 19.1731 16.1917 19.4799 16.2303C19.4799 16.2303 18.3593 16.4561 18.2373 18.0937C18.2406 18.5104 18.1391 18.9213 17.9419 19.2893H17.9612C20.5587 19.2893 20.4913 17.0825 20.4913 17.0825C20.5585 17.285 20.6771 17.467 20.8356 17.6112C20.9941 17.7554 21.1873 17.8569 21.3967 17.9061C21.4849 17.9279 21.5755 17.9386 21.6664 17.9379C21.8136 17.9369 21.9602 17.9188 22.1031 17.8838C21.8689 17.269 21.8689 16.5907 22.1031 15.9759C22.2867 15.4659 22.3759 14.9273 22.3664 14.386C22.5153 14.5625 22.7045 14.7012 22.9184 14.7908C23.1322 14.8804 23.3646 14.9182 23.5961 14.9011C23.8012 14.9041 24.0038 14.8559 24.185 14.7608C24.3663 14.6658 24.5204 14.527 24.6332 14.3574C22.9026 13.6451 23.0728 11.346 23.0728 11.346C23.2727 11.4672 23.5031 11.53 23.7374 11.5273L23.731 11.5305ZM23.2173 13.9281C22.5141 13.5847 22.0678 12.6561 21.9586 12.3381C21.843 14.1507 20.9504 15.4067 19.9069 16.6151C19.5873 16.9787 19.339 17.3982 19.1749 17.852C19.2603 17.3983 19.4553 16.9717 19.7432 16.6087C20.7064 15.4512 21.644 14.0076 21.7114 12.3413C21.7648 11.3298 21.5121 10.3256 20.9858 9.45718C21.15 9.92753 21.1744 10.4347 21.056 10.9184C20.9376 11.4021 20.6814 11.8419 20.3179 12.1855C20.3179 12.1855 22.0999 10.0677 19.6083 7.89904C18.6098 7.07228 17.5181 6.5635 16.9562 6.20099C18.9854 6.85605 19.9776 6.13422 19.9776 6.13422C19.6965 6.35137 19.3713 6.5056 19.0243 6.5863C18.6774 6.667 18.3168 6.67224 17.9676 6.60166C18.1089 6.66844 18.2566 6.74157 18.4139 6.82425C20.1253 7.74641 21.6664 9.26003 21.9265 11.3587V11.3428C22.3247 13.4034 23.2108 13.9313 23.2108 13.9313" fill="white"/>
<path d="M6.8382 16.2174C7.14503 16.1788 7.43855 16.0699 7.69549 15.8994C7.81088 15.8031 7.90411 15.6835 7.96891 15.5486C8.03371 15.4136 8.06857 15.2665 8.07115 15.1171C7.69966 15.133 7.32936 15.0654 6.98796 14.9195C6.64656 14.7735 6.34291 14.553 6.09971 14.2745C5.80731 13.9394 5.61008 13.5333 5.52819 13.0979C5.94294 13.4054 6.45222 13.5615 6.96984 13.5399C7.05654 13.5399 7.14323 13.5399 7.23634 13.5399C7.51651 13.5121 7.78171 13.4013 7.9973 13.2219C7.00516 12.586 6.31163 11.4984 6.9281 9.84809C7.42257 8.52526 8.60415 7.53632 9.79857 6.79223C10.1935 6.55056 10.4279 6.27709 10.4279 6.04178C10.4279 5.48848 9.63482 5.4694 9.31052 5.08782C8.93486 4.65536 9.16925 3.95579 9.49354 3.53604C9.40024 3.5201 9.30566 3.51265 9.21099 3.51378C8.94554 3.51122 8.68232 3.56203 8.43728 3.66315C8.19224 3.76426 7.97046 3.91358 7.78539 4.10206C7.59985 4.27715 7.46641 4.49932 7.3996 4.74435C7.33279 4.98939 7.33518 5.24788 7.40651 5.49166L7.21708 5.533C7.11105 5.55189 7.0037 5.56253 6.896 5.5648H6.82857C5.88459 5.5648 5.46397 4.58858 5.46397 4.58858C5.46397 4.58858 4.47183 5.80965 5.93275 6.76679C6.18641 6.92897 6.29878 7.08478 6.25383 7.24377L6.23136 7.34871L6.1254 7.36779C5.05941 7.65398 4.52 8.38535 3.85536 9.21529C3.54432 9.60677 3.15072 9.92626 2.70206 10.1515C2.25341 10.3766 1.76051 10.5021 1.25781 10.519H1.26423C1.26423 10.519 1.58532 11.5302 2.54856 11.5302H2.59351C2.82784 11.5328 3.05816 11.47 3.25815 11.349C3.25815 11.349 3.42832 13.648 1.69769 14.3603C1.80967 14.5276 1.96194 14.6646 2.14076 14.7589C2.31958 14.8533 2.51932 14.9021 2.72194 14.9009C2.95247 14.9144 3.18295 14.8736 3.39448 14.7819C3.60601 14.6901 3.79256 14.55 3.93884 14.373C3.92862 14.9142 4.01671 15.4527 4.19891 15.963C4.43222 16.578 4.43222 17.2559 4.19891 17.8709C4.34077 17.9056 4.48625 17.9238 4.63237 17.925C4.72328 17.9258 4.81392 17.9151 4.90208 17.8932C5.11139 17.8437 5.30445 17.7421 5.46293 17.598C5.62141 17.4538 5.74003 17.2719 5.80753 17.0696C5.80753 17.0696 5.7401 19.2764 8.34086 19.2764H8.36012C8.16345 18.9081 8.06196 18.4974 8.06473 18.0808C7.95877 16.4495 6.8382 16.2174 6.8382 16.2174ZM6.4208 16.618C5.37728 15.4065 4.49431 14.1505 4.36588 12.3411C4.25671 12.6591 3.81362 13.5844 3.11045 13.931C3.11045 13.931 3.99663 13.4032 4.39477 11.3426V11.3585C4.65806 9.25981 6.19604 7.74301 7.91061 6.82403C8.06794 6.73817 8.21564 6.66822 8.35691 6.60144C8.00817 6.67154 7.64824 6.66606 7.30185 6.58537C6.95545 6.50468 6.63079 6.3507 6.35016 6.134C6.35016 6.134 7.3423 6.85583 9.37153 6.20078C8.80964 6.56328 7.71796 7.07206 6.72261 7.89883C4.22781 10.0675 6.01302 12.1853 6.01302 12.1853C5.64919 11.8419 5.39277 11.4021 5.27436 10.9183C5.15594 10.4345 5.18053 9.92726 5.34517 9.45696C4.81679 10.3245 4.56397 11.3294 4.61953 12.3411C4.68054 13.9915 5.61167 15.4478 6.57491 16.6085C6.86653 16.9736 7.06381 17.4037 7.14965 17.8614C6.98467 17.4079 6.73648 16.9885 6.41758 16.6244" fill="white"/>
<path d="M11.2399 8.15675C11.2816 8.20126 11.3234 8.25214 11.3651 8.29984L11.394 8.33482L11.5064 8.49063L11.5321 8.52561C11.5738 8.58921 11.6155 8.65917 11.6573 8.72912C11.8006 9.01185 12.0138 9.25403 12.2771 9.43308C12.5404 9.61212 12.8453 9.7222 13.1632 9.75304C13.481 9.72191 13.7857 9.61172 14.0489 9.43271C14.3122 9.25369 14.5255 9.01167 14.669 8.72912C14.7108 8.65917 14.7525 8.58921 14.7975 8.52561L14.8167 8.49699C14.8552 8.44293 14.8938 8.38888 14.9323 8.33482L14.958 8.30302C14.9997 8.25214 15.0415 8.20126 15.0864 8.15675L15.1089 8.13767C15.3042 7.93474 15.5518 7.7885 15.8249 7.71474L15.6868 7.63207L15.1603 7.31408L14.6176 6.99609L13.1696 7.77516L11.7151 7.02471L11.1724 7.3427L10.6427 7.66069L10.5078 7.737C10.781 7.81061 11.0286 7.95687 11.2238 8.15993L11.2463 8.18219L11.2399 8.15675ZM12.582 8.11859H13.8053V8.53515C13.7497 8.48192 13.6828 8.44172 13.6094 8.41751C13.5361 8.3933 13.4582 8.38568 13.3815 8.39524V8.99623C13.3846 9.14443 13.4243 9.28962 13.4971 9.41916H12.8838C12.9614 9.28235 13.0013 9.12771 12.9994 8.97079V8.3698C12.9227 8.36025 12.8448 8.36786 12.7714 8.39207C12.6981 8.41628 12.6312 8.45649 12.5756 8.50971L12.582 8.11859Z" fill="white"/>
<path d="M13.0356 7.28468V4.8489L11.4688 4.32422L11.8829 6.67732L13.0356 7.28468ZM12.7145 5.44671V5.83784L12.6375 5.80286C12.5196 5.76353 12.4106 5.70198 12.3164 5.62161C12.2325 5.56911 12.1607 5.49985 12.1054 5.41827C12.0501 5.33668 12.0126 5.24456 11.9953 5.14781L12.7145 5.44671Z" fill="white"/>
<path d="M14.4378 6.67782L14.8488 4.31836L13.2852 4.84304V7.27882L14.4378 6.67782ZM13.6223 5.44085L14.3351 5.14513C14.3178 5.24188 14.2803 5.334 14.225 5.41559C14.1698 5.49717 14.0979 5.56643 14.014 5.61893C13.9198 5.6993 13.8108 5.76085 13.6929 5.80018L13.6159 5.83516L13.6223 5.44085Z" fill="white"/>
<path d="M10.82 12.9326C10.96 12.9776 11.1063 13.0001 11.2535 12.9994V12.9549C11.2625 12.9266 11.27 12.898 11.276 12.869C11.299 12.7419 11.3119 12.6133 11.3145 12.4842C11.2271 12.4324 11.1559 12.3576 11.109 12.268C11.0895 12.2147 11.0536 12.1689 11.0064 12.1369C10.9591 12.105 10.9029 12.0885 10.8457 12.0899C10.7036 12.1019 10.5667 12.1489 10.4476 12.2267C10.4287 12.3664 10.4533 12.5086 10.5181 12.6342C10.583 12.7597 10.6849 12.8627 10.8104 12.9294" fill="white"/>
<path d="M14.2813 11.6426C13.9891 11.9606 13.4208 12.5011 13.3951 12.5298L13.3598 12.5647L11.5617 12.5361C11.5602 12.6831 11.5408 12.8294 11.5039 12.9718V13.029L13.6391 13.4074C13.8606 13.2548 14.4739 12.8096 14.7115 12.6379C14.5645 12.4144 14.5104 12.1432 14.5606 11.8811C14.4577 11.8172 14.3666 11.7366 14.2909 11.6426" fill="white"/>
<path d="M14.5283 9.49805C14.2231 9.82616 13.8099 10.0358 13.3627 10.0895C13.2975 10.0928 13.2321 10.0928 13.1669 10.0895C13.1016 10.0928 13.0363 10.0928 12.971 10.0895C12.9062 10.0843 12.8419 10.0747 12.7784 10.0609C12.737 10.2149 12.7483 10.3781 12.8105 10.5251C12.8565 10.6134 12.92 10.6916 12.9972 10.755C13.0745 10.8184 13.1638 10.8657 13.26 10.894L13.3338 10.9226V11.0021C13.342 11.1646 13.404 11.3199 13.5102 11.4441C13.6164 11.5682 13.7609 11.6543 13.9214 11.689C14.0145 11.5936 14.098 11.5077 14.1622 11.4346C14.1062 11.3227 14.0878 11.1959 14.1098 11.0729C14.1317 10.9499 14.1929 10.837 14.2842 10.7509C14.2582 10.938 14.2889 11.1286 14.3724 11.2984C14.4558 11.4682 14.5883 11.6097 14.753 11.7049L14.8429 11.7462L14.8172 11.8416C14.7589 12.0276 14.7758 12.2288 14.8645 12.4027C14.9532 12.5766 15.1066 12.7095 15.2924 12.7733L15.4112 12.8178L15.3599 12.9323C15.2834 13.1047 15.2763 13.2995 15.3402 13.4769C15.4041 13.6543 15.534 13.8007 15.7034 13.8863H17.0391V12.8369C16.8572 12.8136 16.6878 12.7326 16.5564 12.6058C16.425 12.4791 16.3386 12.3136 16.3103 12.1342C16.1099 12.108 15.9278 12.0053 15.803 11.848C15.7245 11.7457 15.6791 11.6223 15.6728 11.4941C15.6665 11.3658 15.6996 11.2386 15.7676 11.1293C15.7706 11.342 15.849 11.5469 15.9892 11.7081C16.1048 11.8269 16.2599 11.9003 16.4258 11.9147H16.5222V12.0133C16.5317 12.1513 16.5864 12.2824 16.6779 12.3869C16.7695 12.4913 16.8929 12.5633 17.0295 12.5921V10.4743C17.0417 10.1387 17.1146 9.80812 17.2446 9.49805H14.5283Z" fill="white"/>
<path d="M10.937 10.4806L10.8984 11.8479L11.0558 11.8702L11.4411 10.5601L11.2452 10.1562L10.937 10.4806Z" fill="white"/>
<path d="M15.1606 16.7449H15.1991C15.4367 16.8117 15.4977 17.6639 15.9151 17.7402C15.9525 17.744 15.9901 17.744 16.0275 17.7402C16.0809 17.7405 16.1336 17.7275 16.1807 17.7025C16.2277 17.6775 16.2678 17.6413 16.2972 17.5971C16.2972 17.5971 16.0853 17.2791 15.9279 17.047C15.7192 16.7576 15.5555 16.411 15.167 16.411H15.1381C15.0632 16.4141 14.9908 16.4384 14.9294 16.481C14.7995 16.3968 14.6479 16.3515 14.4927 16.3506C14.3131 16.372 14.1358 16.4093 13.9629 16.4619L13.0928 16.376C12.9759 16.3482 12.8745 16.2763 12.8102 16.1757V16.1535C12.8102 16.1312 12.8102 16.1058 12.8102 16.0835C12.8164 15.8525 12.7427 15.6264 12.6014 15.4425C12.4601 15.2586 12.2597 15.128 12.0332 15.0723C12.0332 15.0723 12.0557 14.9387 12.0043 14.8879L11.8117 15.1168L11.1695 14.7988L11.619 15.3171L11.2402 15.7401C11.2216 15.7578 11.2093 15.7811 11.2053 15.8063C11.2012 15.8315 11.2056 15.8574 11.2177 15.88L11.3814 16.0231L11.5901 15.8991C11.6069 15.8945 11.6247 15.8945 11.6415 15.8991C11.6993 15.8991 11.786 15.8991 11.8631 15.8991C11.9401 15.8991 12.0204 15.88 12.03 15.8037C12.0043 16.0644 11.7603 16.5191 11.9209 16.8753L12.0364 17.171L11.2691 17.0629L10.9094 17.6639C10.853 17.7409 10.8208 17.8326 10.8168 17.9276C10.8128 18.0227 10.8372 18.1168 10.887 18.1981L11.0218 18.3635C11.115 18.2699 11.193 18.1627 11.253 18.0455L11.192 17.9787C11.1698 17.9576 11.1559 17.9293 11.153 17.899C11.15 17.8686 11.1582 17.8382 11.1759 17.8133L11.4007 17.4413L12.3094 17.6544L12.3575 17.5749C12.3825 17.5325 12.4188 17.4979 12.4625 17.4749C12.5061 17.4519 12.5554 17.4413 12.6048 17.4445C12.6464 17.4412 12.6883 17.4412 12.73 17.4445C12.9679 17.492 13.2097 17.5176 13.4524 17.5208C13.5895 17.5347 13.728 17.5213 13.8598 17.4815C13.9915 17.4416 14.114 17.376 14.2198 17.2887C14.5409 17.772 15.2151 17.8483 15.1606 18.0932L14.984 18.9199C15.0996 18.9199 15.2119 18.9199 15.305 18.8913L15.472 18.0328C15.4913 17.9405 15.5073 17.8133 15.5073 17.8133C15.3821 17.7084 15.2738 17.5851 15.1862 17.4477C15.0674 17.2251 15.1317 17.1074 15.0225 16.8117C15.0332 16.7921 15.0489 16.7755 15.0681 16.7638C15.0872 16.7521 15.1092 16.7456 15.1317 16.7449H15.1606ZM11.7346 15.5366C11.7242 15.5362 11.714 15.5337 11.7046 15.5293C11.6952 15.5249 11.6868 15.5186 11.6798 15.5109C11.6729 15.5031 11.6677 15.4941 11.6644 15.4843C11.6611 15.4745 11.6599 15.4642 11.6608 15.4539C11.6612 15.4436 11.6637 15.4334 11.6681 15.4241C11.6726 15.4148 11.6789 15.4065 11.6867 15.3996C11.6945 15.3928 11.7036 15.3876 11.7135 15.3843C11.7234 15.3811 11.7339 15.3799 11.7443 15.3807C11.7651 15.3807 11.7851 15.389 11.7999 15.4036C11.8146 15.4182 11.8229 15.438 11.8229 15.4587C11.8229 15.4793 11.8146 15.4991 11.7999 15.5137C11.7851 15.5283 11.7651 15.5366 11.7443 15.5366" fill="white"/>
<path d="M10.5239 17.5273C10.5239 17.5273 10.8257 17.4033 10.845 17.3174L10.8064 17.2188C10.7901 17.1912 10.7843 17.1586 10.7902 17.1271C10.7961 17.0955 10.8133 17.0672 10.8386 17.0471L11.1596 16.8245L11.7023 16.9263C11.6412 16.8446 11.6095 16.7449 11.6124 16.6433L11.105 16.5352L10.617 16.8309C10.5319 16.8937 10.4705 16.983 10.4425 17.0844C10.4146 17.1858 10.4218 17.2936 10.4629 17.3905L10.5239 17.5273Z" fill="white"/>
<path d="M14.3633 18.9304H14.6844C14.6844 18.9304 14.9637 18.1227 14.9798 18.0973C14.7722 18.0014 14.5697 17.8953 14.3729 17.7793C14.4564 17.9033 14.6587 18.0432 14.6169 18.1513L14.3633 18.9304Z" fill="white"/>
<path d="M17.0184 14.1348H9.3125V16.9966C9.3125 18.1732 10.1698 18.9046 11.4381 18.9046C12.4976 18.9046 12.777 18.9459 13.1687 19.3338C13.2914 19.2028 13.4405 19.0988 13.6065 19.0287C13.7725 18.9586 13.9515 18.9239 14.1319 18.9268V18.8823L14.3759 18.1382L13.9618 17.6899C13.7954 17.7395 13.6215 17.76 13.448 17.7503C13.1892 17.7474 12.9313 17.7208 12.6774 17.6708H12.5972C12.5618 17.6708 12.5618 17.6708 12.5522 17.6899L12.504 17.7694L12.4174 17.9124L12.2504 17.8743L11.5087 17.7026L11.4059 17.8679V17.887L11.4959 17.9856L11.4573 18.1128C11.3899 18.2685 11.2929 18.4099 11.1716 18.5293L10.9853 18.7265L10.8152 18.5166L10.6899 18.3608C10.6239 18.275 10.5809 18.1739 10.5652 18.0671C10.5495 17.9603 10.5615 17.8512 10.6 17.7503L10.3913 17.8361L10.2982 17.6326L10.2468 17.4895C10.1835 17.3436 10.1722 17.1806 10.2148 17.0275C10.2574 16.8743 10.3514 16.7401 10.4812 16.6469L11.0784 16.3289L11.6468 16.4402C11.6468 16.3861 11.6821 16.1921 11.6981 16.1444H11.666L11.3449 16.2653L11.0239 16.049C11.0081 16.0337 10.9956 16.0153 10.9871 15.9951C10.9786 15.975 10.9742 15.9533 10.9742 15.9314C10.9742 15.9095 10.9786 15.8878 10.9871 15.8676C10.9956 15.8474 11.0081 15.8291 11.0239 15.8137L11.3289 15.3558L10.5551 14.4019L11.7142 14.8534L11.7945 14.758L11.955 14.5672L12.138 14.7389C12.1863 14.7857 12.2198 14.8453 12.2343 14.9107C12.5554 15.0378 13.1494 15.4099 13.1976 16.0141L13.0146 16.0872C13.0366 16.1186 13.0665 16.1437 13.1013 16.1603L13.9489 16.243L14.026 16.2208C14.1709 16.167 14.324 16.138 14.4787 16.1349C14.6322 16.1359 14.7835 16.1707 14.9218 16.2367C14.9838 16.2146 15.0487 16.2017 15.1144 16.1985H15.1562C15.6089 16.1985 15.8369 16.5356 16.0167 16.8027L16.1098 16.9362C16.2671 17.1588 16.4758 17.4832 16.4854 17.4959L16.5786 17.639L16.463 17.7725C16.4101 17.8409 16.3421 17.8962 16.2641 17.9343C16.1862 17.9723 16.1004 17.9921 16.0135 17.9919C15.9622 17.9967 15.9106 17.9967 15.8593 17.9919C15.813 17.9829 15.7678 17.9691 15.7245 17.9506C15.7245 17.9951 15.7245 18.0492 15.6988 18.0937L15.5672 18.8442C15.9904 18.7598 16.3694 18.5286 16.636 18.1923C16.9026 17.856 17.0393 17.4366 17.0217 17.0094L17.0184 14.1348Z" fill="#FCE527"/>
<path d="M9.30497 13.9022H15.306C15.186 13.7775 15.1024 13.623 15.064 13.455C15.0255 13.2871 15.0337 13.1119 15.0876 12.9482C15.0064 12.9097 14.9308 12.8605 14.8629 12.8019C14.6285 12.9736 13.8996 13.4888 13.7263 13.6192L13.6877 13.6446L11.331 13.2312H11.2828C11.2058 13.2357 11.1286 13.2357 11.0516 13.2312C11.0407 13.2814 11.0128 13.3264 10.9725 13.3588C10.9322 13.3912 10.882 13.409 10.8301 13.4093H10.7916C10.7309 13.3991 10.6767 13.3658 10.6407 13.3164C10.6046 13.267 10.5896 13.2056 10.5989 13.1454V13.0945C10.4502 12.9884 10.3361 12.8416 10.2705 12.6721C10.2049 12.5026 10.1907 12.3179 10.2297 12.1405V12.0992L10.265 12.0737C10.265 12.0737 10.31 12.0419 10.371 12.007L10.2008 11.9815C10.1703 11.9761 10.1432 11.9591 10.1252 11.9341C10.1072 11.9092 10.0998 11.8783 10.1045 11.848C10.1068 11.8328 10.1122 11.8183 10.1202 11.8053C10.1283 11.7923 10.139 11.781 10.1515 11.7721C10.1641 11.7632 10.1784 11.7569 10.1934 11.7535C10.2085 11.7502 10.2241 11.7499 10.2393 11.7526L10.6471 11.8162L10.6856 10.3948L11.2925 9.7588L11.6713 10.5474L11.2732 11.9147L11.6328 11.972C11.6633 11.9774 11.6904 11.9944 11.7084 12.0194C11.7264 12.0443 11.7338 12.0752 11.7291 12.1055C11.7245 12.1325 11.7104 12.1569 11.6892 12.1744C11.668 12.1919 11.6411 12.2013 11.6135 12.2009H11.5943L11.3021 12.1532V12.1755C11.3346 12.2323 11.3839 12.2778 11.4434 12.3059L13.2382 12.3345L13.6974 11.8861C13.5259 11.8274 13.3747 11.722 13.261 11.5819C13.1474 11.4418 13.0761 11.2728 13.0552 11.0943C12.8316 11.0096 12.649 10.8435 12.5447 10.6301C12.4576 10.4291 12.4428 10.2046 12.5029 9.99411C12.2202 9.88435 11.965 9.7151 11.7548 9.49805H9.08984C9.2188 9.80844 9.29162 10.1389 9.30497 10.4743V13.9022Z" fill="#FCE527"/>
<path d="M11.7752 15.3811C11.7648 15.3803 11.7543 15.3815 11.7444 15.3847C11.7346 15.388 11.7254 15.3932 11.7176 15.4C11.7098 15.4069 11.7035 15.4152 11.699 15.4245C11.6946 15.4338 11.6921 15.444 11.6917 15.4543C11.6908 15.4645 11.692 15.4749 11.6953 15.4847C11.6986 15.4945 11.7038 15.5035 11.7107 15.5112C11.7177 15.519 11.7261 15.5252 11.7355 15.5297C11.7449 15.5341 11.7551 15.5365 11.7655 15.5369C11.7864 15.5369 11.8064 15.5287 11.8212 15.5141C11.8359 15.4995 11.8442 15.4797 11.8442 15.459C11.8442 15.4384 11.8359 15.4186 11.8212 15.4039C11.8064 15.3893 11.7864 15.3811 11.7655 15.3811" fill="#222220"/>
<path d="M17.0086 20.5959L16.5655 20.4273L16.6875 19.9726L16.8223 19.4766C16.2156 19.784 15.5801 20.0321 14.9248 20.2175C14.6037 20.3065 14.3725 20.3478 14.3725 20.3478V20.669C13.9775 20.7325 13.5782 20.7665 13.1781 20.7708H13.1428C12.7426 20.7666 12.3433 20.7326 11.9483 20.669V20.351C11.9483 20.351 11.7139 20.3065 11.3929 20.2175C10.7375 20.0322 10.102 19.7841 9.49528 19.4766L9.62692 19.9726L9.75214 20.4273L9.30584 20.5959L8.82422 20.7771C9.48653 21.1174 10.1773 21.4004 10.8888 21.623L10.7186 22.0809C11.4938 22.3746 12.3194 22.5161 13.1492 22.4974H13.1684C13.9983 22.5163 14.8238 22.3748 15.599 22.0809L15.4321 21.623C16.1427 21.4008 16.8324 21.1178 17.4934 20.7771L17.0086 20.5959ZM9.34758 20.8089L10.0796 20.5673L9.86452 19.8677C10.3356 20.1002 10.8253 20.2938 11.3287 20.4464L10.9755 21.4004C10.4153 21.2532 9.87118 21.0519 9.35079 20.7994L9.34758 20.8089ZM13.162 22.259C12.4558 22.2551 11.7531 22.16 11.0718 21.9759L11.5052 20.8121C12.0461 20.9468 12.6012 21.0172 13.1588 21.022H13.1941C13.7518 21.0169 14.3068 20.9465 14.8477 20.8121L15.2812 21.9759C14.5963 22.1655 13.8892 22.2649 13.1781 22.2717L13.162 22.259ZM15.3678 21.4099L15.0147 20.456C15.518 20.3034 16.0077 20.1098 16.4788 19.8772L16.2637 20.5768L16.9925 20.8185C16.4722 21.0712 15.928 21.2725 15.3678 21.4195" fill="#222220"/>
<path d="M13.1581 2.44524C13.8839 2.42566 14.5963 2.64113 15.1873 3.05896C15.2793 2.58726 15.4566 2.13589 15.7107 1.72659L14.9818 1.80927L14.6029 1.00476L13.8677 1.37999L13.1581 0.683594L12.4485 1.37999L11.7132 1.00476L11.3343 1.80927L10.6055 1.72659C10.8597 2.1358 11.037 2.5872 11.1288 3.05896C11.72 2.64155 12.4323 2.42612 13.1581 2.44524ZM11.3022 2.0891L11.5045 2.11136L11.5912 1.9301L11.8448 1.38952L12.3168 1.63119L12.4998 1.72341L12.6475 1.58986L13.1581 1.0779L13.6686 1.58986L13.8163 1.73295L13.9993 1.64073L14.4681 1.39906L14.7249 1.93964L14.8116 2.12089L15.0139 2.09864L15.2066 2.07638C15.1287 2.2522 15.0622 2.43276 15.0075 2.61695C14.4356 2.32675 13.8022 2.1754 13.1597 2.1754C12.5171 2.1754 11.8837 2.32675 11.3118 2.61695C11.2568 2.43287 11.1903 2.25233 11.1128 2.07638L11.3022 2.0891Z" fill="#222220"/>
<path d="M23.777 11.8419C24.9457 11.8419 25.3374 10.6622 25.3535 10.6113L25.4851 10.1947H25.0453C24.5884 10.179 24.1406 10.0648 23.733 9.85991C23.3253 9.65505 22.9678 9.36452 22.6853 9.00863L22.5986 8.90369C22.0014 8.15006 21.4331 7.43459 20.4185 7.10706C20.4587 7.07198 20.5016 7.04008 20.5469 7.01167C20.7852 6.87825 20.9917 6.69559 21.1523 6.47612C21.313 6.25664 21.4241 6.00549 21.478 5.73972C21.533 5.25371 21.3948 4.76561 21.0927 4.37873L20.7717 3.98125L20.5694 4.45505C20.5694 4.48367 20.213 5.24366 19.4938 5.24366H19.4231H19.2818C19.3014 4.99645 19.2668 4.74798 19.1803 4.51527C19.0939 4.28255 18.9576 4.0711 18.781 3.89539C18.5661 3.67799 18.3093 3.50568 18.0257 3.38876C17.7422 3.27184 17.4377 3.21271 17.1306 3.2149C17.0156 3.21443 16.9007 3.22294 16.787 3.24034L16.2958 3.33574L16.6008 3.73322C16.8384 4.05121 17.0535 4.60133 16.7999 4.89705C16.6783 5.00174 16.5392 5.0846 16.3889 5.1419C16.0678 5.29136 15.6055 5.50441 15.6055 6.03863C15.6055 6.38523 15.8784 6.74774 16.3696 7.05619C17.8177 7.96563 18.7135 8.90369 19.102 9.95941C19.7025 11.5684 18.919 12.4842 18.1581 12.9676L17.8177 13.1838L18.1163 13.4541C18.3824 13.6798 18.7117 13.8197 19.0603 13.8547C19.163 13.8547 19.2594 13.8547 19.3525 13.8547C19.6505 13.8558 19.947 13.813 20.2322 13.7276C20.1603 13.8519 20.0765 13.969 19.9818 14.0773C19.7677 14.3236 19.4996 14.5181 19.198 14.646C18.8964 14.7738 18.5692 14.8317 18.2415 14.8151H17.9558L17.9333 15.0981C17.9321 15.294 17.9743 15.4878 18.0569 15.6659C18.1396 15.8439 18.2607 16.0018 18.4117 16.1284C18.4918 16.1979 18.5816 16.2557 18.6782 16.3001C18.4431 16.5272 18.2554 16.798 18.1259 17.097C17.9965 17.396 17.9277 17.7173 17.9237 18.0426C17.9232 18.4027 17.8409 18.7581 17.6829 19.0825L17.3618 19.5594H17.9333C18.8773 19.5594 19.5997 19.3029 20.1006 18.7899C20.3604 18.5191 20.5538 18.1927 20.6657 17.8359C20.8514 17.9907 21.0714 18.0997 21.3079 18.1539C21.4205 18.1797 21.5358 18.1925 21.6514 18.1921C21.8244 18.1916 21.9968 18.1713 22.1652 18.1317L22.5312 18.0363L22.3706 17.6992C22.169 17.1606 22.169 16.5683 22.3706 16.0298C22.4896 15.6786 22.5725 15.3163 22.6179 14.9486C22.9071 15.0945 23.2277 15.1687 23.5522 15.1649C23.8137 15.1686 24.0718 15.1068 24.3026 14.985C24.5334 14.8632 24.7292 14.6855 24.8719 14.4685L25.0485 14.1505L24.7274 14.0169C23.6518 13.5749 23.4142 12.3856 23.366 11.7433C23.4718 11.7646 23.5792 11.7773 23.6871 11.7815L23.777 11.8419ZM24.6311 14.3603C24.5182 14.529 24.3644 14.6668 24.1838 14.7613C24.0031 14.8557 23.8014 14.9037 23.5972 14.9009C23.3667 14.9145 23.1362 14.8737 22.9246 14.7819C22.7131 14.6902 22.5266 14.55 22.3803 14.3731C22.3897 14.9144 22.3005 15.453 22.117 15.963C21.8828 16.5778 21.8828 17.2561 22.117 17.8709C21.9741 17.9059 21.8275 17.924 21.6803 17.925C21.5894 17.9256 21.4988 17.915 21.4106 17.8932C21.2013 17.8437 21.0082 17.7421 20.8498 17.598C20.6913 17.4538 20.5727 17.2719 20.5052 17.0696C20.5052 17.0696 20.5726 19.2764 17.975 19.2764H17.9558C18.153 18.9084 18.2545 18.4974 18.2512 18.0808C18.3636 16.4495 19.4809 16.2174 19.4809 16.2174C19.1741 16.1789 18.8805 16.07 18.6236 15.8994C18.5082 15.8031 18.415 15.6835 18.3502 15.5486C18.2854 15.4137 18.2505 15.2665 18.248 15.1172C18.619 15.1332 18.9889 15.0657 19.3298 14.9198C19.6707 14.7738 19.9738 14.5532 20.2162 14.2745C20.5104 13.9402 20.7089 13.5339 20.7909 13.0979C20.3762 13.4054 19.8669 13.5616 19.3493 13.5399C19.2658 13.5399 19.1759 13.5399 19.086 13.5399C18.8057 13.5125 18.5404 13.4017 18.325 13.222C19.314 12.586 20.0075 11.4985 19.3942 9.84811C18.8998 8.52528 17.715 7.53635 16.5238 6.79226C16.1288 6.55059 15.8912 6.27712 15.8912 6.04181C15.8912 5.48851 16.6843 5.47261 17.0118 5.08785C17.3875 4.65538 17.1531 3.95581 16.8256 3.53607C16.9189 3.52016 17.0135 3.51271 17.1081 3.51381C17.3736 3.51124 17.6368 3.56205 17.8818 3.66317C18.1269 3.76429 18.3487 3.91361 18.5337 4.10209C18.7193 4.27717 18.8527 4.49934 18.9195 4.74438C18.9863 4.98941 18.9839 5.24791 18.9126 5.49169L19.086 5.52667C19.192 5.54572 19.2994 5.55635 19.4071 5.55847H19.4777C20.4185 5.55847 20.8423 4.58225 20.8423 4.58225C20.8423 4.58225 21.8441 5.80332 20.3703 6.75728C20.1167 6.91945 20.0043 7.07526 20.0492 7.23426L20.0717 7.33919L20.1777 7.35827C21.2469 7.64446 21.7831 8.37583 22.4477 9.20578C22.7589 9.59709 23.1525 9.91647 23.6011 10.1416C24.0498 10.3668 24.5426 10.4924 25.0453 10.5095H25.0645C25.0645 10.5095 24.7434 11.5207 23.7802 11.5207H23.7352C23.5009 11.5234 23.2705 11.4606 23.0706 11.3395C23.0706 11.3395 22.9004 13.6385 24.6311 14.3508" fill="#222220"/>
<path d="M21.7151 7.2495C22.0753 7.45174 22.3874 7.72827 22.6302 8.06036C22.8125 8.34055 23.0737 8.56166 23.3815 8.69634C23.4985 8.73511 23.6211 8.75445 23.7444 8.75357C23.9857 8.75284 24.2221 8.68627 24.4277 8.56118C24.6333 8.43608 24.8002 8.2573 24.9099 8.04446L25.0961 7.63108L24.6434 7.60564C24.1564 7.51805 23.7144 7.26777 23.3912 6.89653C23.2721 6.76847 23.1277 6.66598 22.967 6.59542C22.8063 6.52486 22.6326 6.48773 22.4568 6.48633C22.1821 6.49058 21.914 6.571 21.683 6.71846L21.2656 7.00783L21.7151 7.2495ZM22.4568 6.79796C22.5915 6.79867 22.7245 6.82734 22.8473 6.88211C22.97 6.93688 23.0799 7.01654 23.1696 7.11594C23.5467 7.54109 24.0605 7.82417 24.6241 7.91727C24.5384 8.07477 24.4115 8.20656 24.2568 8.29886C24.102 8.39116 23.925 8.44058 23.7444 8.44195C23.6536 8.44207 23.5635 8.42702 23.4779 8.39743C22.9577 8.22254 22.7747 7.44347 21.8725 6.97285C22.0498 6.85976 22.2556 6.79808 22.4665 6.79478" fill="#222220"/>
<path d="M21.9235 11.3417C21.6602 9.243 20.1222 7.7262 18.4108 6.80722C18.2535 6.72136 18.1058 6.65141 17.9645 6.58463C18.3138 6.65499 18.6743 6.64965 19.0212 6.56896C19.3682 6.48827 19.6934 6.33415 19.9745 6.11719C19.9745 6.11719 18.9824 6.83902 16.9531 6.18397C17.515 6.54647 18.6067 7.05525 19.6053 7.88202C22.0968 10.0507 20.3148 12.1685 20.3148 12.1685C20.6789 11.8252 20.9357 11.3855 21.0546 10.9018C21.1736 10.4182 21.1498 9.9108 20.9859 9.44015C21.5123 10.3086 21.7649 11.3128 21.7115 12.3243C21.6409 13.9905 20.7066 15.4469 19.7433 16.6076C19.4528 16.973 19.2567 17.403 19.1718 17.8604C19.336 17.4066 19.5842 16.9871 19.9039 16.6235C20.9474 15.4119 21.8303 14.1559 21.9556 12.3466C22.0647 12.6645 22.5078 13.5899 23.2142 13.9365C23.2142 13.9365 22.328 13.4086 21.9299 11.3481" fill="#222220"/>
<path d="M8.63499 19.1036C8.47932 18.7785 8.39714 18.4236 8.39418 18.0638C8.3897 17.7383 8.32046 17.4168 8.19044 17.1178C8.06042 16.8188 7.87216 16.5481 7.63643 16.3212C7.73321 16.2771 7.82298 16.2192 7.90293 16.1495C8.05412 16.0231 8.17535 15.8652 8.25803 15.6872C8.34071 15.5091 8.38281 15.3152 8.38134 15.1192L8.36208 14.8362H8.0731C7.74596 14.8523 7.41942 14.7942 7.11839 14.6664C6.81736 14.5385 6.54978 14.3443 6.33606 14.0985C6.24188 13.9898 6.15805 13.8727 6.08561 13.7487C6.37082 13.8343 6.66736 13.8772 6.96537 13.8759C7.05849 13.8759 7.15481 13.8759 7.25756 13.8759C7.60718 13.8412 7.93772 13.7014 8.20475 13.4752L8.50335 13.2049L8.16301 12.9887C7.39883 12.5054 6.61861 11.5896 7.21903 9.98056C7.60754 8.93438 8.50335 7.98996 9.96427 7.08052C10.4555 6.76253 10.7252 6.40956 10.7252 6.06296C10.7252 5.52874 10.2725 5.31569 9.94179 5.16623C9.79134 5.10917 9.65222 5.02628 9.53081 4.92138C9.27395 4.62566 9.48907 4.06282 9.72988 3.75755L10.051 3.36007L9.5565 3.26467C9.44284 3.24715 9.32796 3.23864 9.21294 3.23923C8.90382 3.23034 8.59611 3.28383 8.30853 3.39644C8.02094 3.50905 7.7595 3.67844 7.54011 3.89429C7.3603 4.06906 7.22095 4.28042 7.1317 4.51376C7.04245 4.74709 7.00542 4.99684 7.02317 5.24573H6.88189H6.83052C6.10809 5.24573 5.76774 4.48892 5.7549 4.45712L5.55262 3.98332L5.23154 4.38081C4.93304 4.76934 4.7963 5.25642 4.84945 5.74179C4.90264 6.00743 5.01307 6.25857 5.17321 6.47809C5.33335 6.6976 5.53943 6.8803 5.77737 7.01374C5.82279 7.04194 5.86575 7.07385 5.90581 7.10914C4.89119 7.42712 4.32288 8.15213 3.72567 8.90576L3.63897 9.01388C3.35614 9.37017 2.99808 9.66094 2.58988 9.86582C2.18168 10.0707 1.73319 10.1847 1.27582 10.2H0.835938L0.970792 10.6165C0.970792 10.6674 1.37535 11.8471 2.5473 11.8471H2.60509C2.71297 11.8428 2.82033 11.83 2.92617 11.809C2.87801 12.445 2.64041 13.6406 1.56158 14.0826L1.2405 14.2161L1.41709 14.5341C1.55974 14.7512 1.75559 14.9289 1.98636 15.0506C2.21712 15.1724 2.47528 15.2343 2.73674 15.2305C3.06016 15.2337 3.37958 15.1595 3.66787 15.0143C3.71303 15.3821 3.79587 15.7443 3.9151 16.0954C4.11675 16.634 4.11675 17.2263 3.9151 17.7649L3.75456 18.1019L4.1206 18.1973C4.28892 18.237 4.4613 18.2573 4.63433 18.2578C4.74995 18.2583 4.86525 18.2455 4.97788 18.2196C5.2144 18.1656 5.43452 18.0566 5.62004 17.9016C5.73185 18.2584 5.92523 18.5848 6.18515 18.8556C6.68817 19.3665 7.41061 19.623 8.35244 19.6251H8.92397L8.63499 19.1036ZM8.35886 19.2817C5.76132 19.2817 5.82554 17.0748 5.82554 17.0748C5.75804 17.2772 5.63941 17.4591 5.48094 17.6032C5.32246 17.7474 5.12939 17.849 4.92009 17.8984C4.83192 17.9204 4.74128 17.9311 4.65038 17.9302C4.50425 17.9291 4.35876 17.911 4.21692 17.8762C4.45022 17.2612 4.45022 16.5832 4.21692 15.9683C4.03472 15.458 3.94662 14.9195 3.95684 14.3783C3.81057 14.5553 3.62402 14.6954 3.41249 14.7872C3.20096 14.8789 2.97047 14.9197 2.73995 14.9062H2.72389C2.51881 14.9092 2.31628 14.8609 2.13501 14.7659C1.95374 14.6708 1.79959 14.5321 1.6868 14.3624C3.41743 13.6501 3.24726 11.3511 3.24726 11.3511C3.04727 11.4721 2.81695 11.5349 2.58262 11.5323H2.5473C1.58406 11.5323 1.26298 10.5211 1.26298 10.5211H1.28224C1.78523 10.505 2.27859 10.3803 2.72782 10.1556C3.17705 9.931 3.5713 9.61187 3.883 9.22057C4.54442 8.39062 5.08384 7.65925 6.15304 7.37306L6.259 7.35399L6.28147 7.24905C6.31037 7.08688 6.19799 6.93106 5.96039 6.77207C4.48663 5.81811 5.4884 4.59704 5.4884 4.59704C5.4884 4.59704 5.90581 5.57326 6.853 5.57326H6.89795C7.00565 5.57097 7.113 5.56034 7.21903 5.54146L7.39241 5.50648C7.32072 5.26273 7.31814 5.00413 7.38497 4.75903C7.4518 4.51392 7.58545 4.29176 7.77129 4.11688C7.95636 3.9284 8.17813 3.77908 8.42318 3.67796C8.66822 3.57684 8.93144 3.52603 9.19689 3.5286C9.29156 3.52743 9.38614 3.53488 9.47944 3.55086C9.15836 3.97378 8.92076 4.67335 9.29642 5.10264C9.6175 5.47468 10.4138 5.49058 10.4138 6.0566C10.4138 6.29191 10.1922 6.56538 9.79731 6.81023C8.60289 7.55432 7.4181 8.54326 6.92684 9.86608C6.31358 11.5164 7.00711 12.6135 7.99604 13.2399C7.78045 13.4193 7.51525 13.5301 7.23508 13.5579C7.14197 13.5579 7.05528 13.5579 6.96858 13.5579C6.45096 13.5795 5.94168 13.4234 5.52693 13.1159C5.60882 13.5513 5.80605 13.9574 6.09845 14.2925C6.34165 14.571 6.6453 14.7915 6.9867 14.9375C7.3281 15.0834 7.6984 15.151 8.06989 15.1351C8.06731 15.2845 8.03245 15.4316 7.96765 15.5666C7.90285 15.7015 7.80962 15.8211 7.69423 15.9174C7.43729 16.0879 7.14377 16.1968 6.83694 16.2354C6.83694 16.2354 7.95751 16.4611 8.07952 18.0988C8.07675 18.5154 8.17824 18.9261 8.37492 19.2944L8.35886 19.2817Z" fill="#222220"/>
<path d="M2.5751 8.7504C2.6984 8.75122 2.82099 8.73188 2.93792 8.69316C3.24587 8.55864 3.50713 8.33749 3.68925 8.05718C3.93118 7.72544 4.24213 7.44893 4.60112 7.24632L5.05064 7.00783L4.63323 6.71846C4.40333 6.57125 4.13636 6.49083 3.86264 6.48633C3.68661 6.48814 3.51283 6.52576 3.3521 6.59688C3.19136 6.66799 3.04711 6.77107 2.92829 6.89971C2.60571 7.27013 2.16505 7.52031 1.67929 7.60882L1.22656 7.63108L1.40958 8.04446C1.5195 8.25623 1.68602 8.43405 1.89098 8.55853C2.09594 8.68301 2.33147 8.74938 2.57189 8.7504H2.5751ZM3.14663 7.11594C3.2364 7.01654 3.34621 6.93688 3.46899 6.88211C3.59176 6.82734 3.72477 6.79867 3.85943 6.79796C4.0692 6.80201 4.27372 6.86366 4.45022 6.97603C3.54156 7.45619 3.35212 8.22572 2.84481 8.40061C2.76027 8.43027 2.67121 8.44532 2.58152 8.44513C2.39938 8.44494 2.22071 8.39572 2.06462 8.30275C1.90853 8.20977 1.78089 8.07653 1.69534 7.91727C2.25903 7.82442 2.77292 7.5413 3.14984 7.11594" fill="#222220"/>
<path d="M4.61594 12.338C4.56037 11.3263 4.8132 10.3214 5.34158 9.45382C5.17733 9.92442 5.15326 10.4319 5.27225 10.9157C5.39123 11.3994 5.64826 11.8391 6.01264 12.1822C6.01264 12.1822 4.22743 10.0644 6.72223 7.89569C7.72079 7.06892 8.80926 6.56014 9.37115 6.19764C7.34192 6.85269 6.34978 6.13086 6.34978 6.13086C6.63041 6.34756 6.95507 6.50154 7.30147 6.58223C7.64786 6.66292 8.00779 6.6684 8.35653 6.5983C8.21526 6.66508 8.06756 6.73821 7.91023 6.82089C6.19887 7.74305 4.65126 9.25985 4.39761 11.3586V11.3427C3.99946 13.4032 3.11328 13.9311 3.11328 13.9311C3.81645 13.5877 4.26275 12.6591 4.36871 12.3411C4.48751 14.1537 5.38011 15.4097 6.42363 16.6181C6.74259 16.9822 6.99078 17.4015 7.15569 17.855C7.06792 17.3993 6.86957 16.9715 6.57774 16.6085C5.6145 15.4479 4.68337 13.9915 4.61594 12.338Z" fill="#222220"/>
<path d="M12.5703 8.09375V8.51031C12.6263 8.45664 12.6937 8.41617 12.7677 8.39195C12.8416 8.36772 12.9201 8.36035 12.9974 8.3704V8.97139C12.9949 9.11968 12.9551 9.26503 12.8818 9.39432H13.4886C13.4158 9.26478 13.3762 9.11959 13.373 8.97139V8.3704C13.4497 8.36085 13.5276 8.36846 13.601 8.39267C13.6743 8.41689 13.7413 8.45709 13.7968 8.51031V8.09375H12.5703Z" fill="#222220"/>
<path d="M12.3147 5.62614C12.4089 5.70652 12.5179 5.76807 12.6357 5.8074L12.7128 5.84238V5.44807L12 5.15234C12.0173 5.2491 12.0548 5.34122 12.11 5.4228C12.1653 5.50439 12.2372 5.57365 12.3211 5.62614" fill="#222220"/>
<path d="M14.005 5.62614C14.0889 5.57365 14.1607 5.50439 14.216 5.4228C14.2713 5.34122 14.3088 5.2491 14.3261 5.15234L13.6133 5.44807V5.8392L13.6871 5.80422C13.805 5.76489 13.914 5.70334 14.0082 5.62296" fill="#222220"/>
<path d="M15.2876 4.02924C15.2876 3.43461 14.2761 2.90039 13.162 2.90039C12.0478 2.90039 11.0364 3.43461 11.0364 4.02924L11.0589 4.17552L11.5052 6.71941L11.0589 6.97698L9.89339 7.63204C9.89339 7.63204 9.63331 7.76559 9.5113 7.84509C9.07142 8.16307 8.97831 8.58918 9.23196 8.77361C9.26332 8.56413 9.37118 8.37333 9.5351 8.23736C9.69903 8.10139 9.90762 8.0297 10.1214 8.03588C10.3035 8.041 10.4819 8.08859 10.642 8.17478C10.8021 8.26097 10.9394 8.38333 11.0429 8.53194C11.1057 8.60881 11.1636 8.68953 11.2162 8.77361C11.2837 8.88173 11.3511 8.97712 11.4185 9.06934H8.44531C8.69543 9.49655 8.84164 9.97559 8.87235 10.4685V17.0095C8.87235 18.5994 10.1021 19.3467 11.441 19.3467C12.4685 19.3467 12.6065 19.299 13.1716 19.8586C13.7367 19.299 13.8748 19.3467 14.9023 19.3467C16.2315 19.3467 17.4709 18.593 17.4709 17.0095V10.4748C17.5016 9.98195 17.6478 9.50291 17.8979 9.0757H14.8926C14.96 8.98348 15.0275 8.88809 15.0949 8.77997C15.1483 8.69638 15.2061 8.61571 15.2683 8.5383C15.3722 8.38945 15.5101 8.26696 15.6708 8.18077C15.8314 8.09458 16.0103 8.04712 16.193 8.04224C16.4067 8.03606 16.6153 8.10775 16.7793 8.24372C16.9432 8.37969 17.051 8.57049 17.0824 8.77997C17.3393 8.59872 17.2461 8.144 16.8031 7.85145C16.6843 7.76877 16.4242 7.6384 16.4242 7.6384L15.2683 6.96426L14.822 6.70669L15.2683 4.1628L15.2876 4.02924ZM11.4667 4.32179L13.0336 4.84647V7.28225L11.8809 6.67808L11.4667 4.32179ZM11.7878 9.49862C11.9979 9.71575 12.2531 9.88502 12.5359 9.99468C12.4758 10.2051 12.4905 10.4297 12.5776 10.6307C12.6819 10.8441 12.8645 11.0101 13.0881 11.0949C13.109 11.2734 13.1804 11.4424 13.294 11.5825C13.4076 11.7226 13.5588 11.828 13.7303 11.8867C13.5377 12.0807 13.3482 12.2619 13.2712 12.3351L11.4763 12.3064C11.4168 12.2784 11.3675 12.2329 11.335 12.1761V12.1538L11.6272 12.2015H11.6465C11.6741 12.2019 11.7009 12.1925 11.7221 12.175C11.7433 12.1575 11.7575 12.1331 11.7621 12.1061C11.7668 12.0758 11.7593 12.0449 11.7413 12.02C11.7233 11.995 11.6962 11.978 11.6658 11.9726L11.3061 11.9153L11.7043 10.548L11.3254 9.75937L10.7186 10.3953L10.68 11.8167L10.2723 11.7531C10.2571 11.7504 10.2415 11.7507 10.2264 11.7541C10.2113 11.7574 10.1971 11.7637 10.1845 11.7726C10.1719 11.7815 10.1613 11.7928 10.1532 11.8059C10.1451 11.8189 10.1397 11.8334 10.1374 11.8485C10.1327 11.8788 10.1402 11.9098 10.1582 11.9347C10.1762 11.9596 10.2033 11.9767 10.2337 11.9821L10.4039 12.0075C10.3429 12.0425 10.3012 12.068 10.298 12.0743L10.2626 12.0998V12.1411C10.2241 12.3184 10.2385 12.5031 10.304 12.6724C10.3696 12.8418 10.4835 12.9887 10.6319 13.0951V13.1459C10.6226 13.2062 10.6376 13.2676 10.6736 13.317C10.7097 13.3663 10.7639 13.3997 10.8245 13.4099H10.8631C10.9149 13.4096 10.9652 13.3918 11.0054 13.3594C11.0457 13.327 11.0736 13.282 11.0846 13.2318C11.1605 13.2362 11.2366 13.2362 11.3126 13.2318H11.3607L13.7143 13.6547L13.7528 13.6293C13.939 13.4989 14.655 12.9933 14.8894 12.812C14.9573 12.8706 15.0329 12.9198 15.1142 12.9583C15.0602 13.122 15.052 13.2972 15.0905 13.4651C15.1289 13.6331 15.2126 13.7876 15.3325 13.9123H9.3026V10.4748C9.28925 10.1395 9.21643 9.80902 9.08747 9.49862H11.7878ZM14.6968 12.6372C14.4592 12.812 13.8459 13.254 13.6244 13.4067L11.4892 13.0378V12.9806C11.5259 12.8382 11.5453 12.6919 11.547 12.5449L13.345 12.5736L13.3803 12.5386C13.4092 12.51 13.9775 11.9662 14.2665 11.6514C14.3423 11.7453 14.4335 11.8259 14.5362 11.8899C14.4857 12.152 14.5398 12.4233 14.6871 12.6467L14.6968 12.6372ZM11.1199 12.2715C11.1668 12.361 11.238 12.4359 11.3254 12.4877C11.3227 12.6168 11.3099 12.7454 11.2869 12.8725C11.2869 12.9011 11.2869 12.9297 11.2644 12.9583V13.0028C11.1172 13.0036 10.9709 12.9811 10.8309 12.9361C10.7058 12.8693 10.6042 12.7661 10.5399 12.6405C10.4756 12.5149 10.4517 12.3728 10.4713 12.2333C10.5854 12.1528 10.7177 12.1015 10.8566 12.0839C10.9139 12.082 10.9703 12.0982 11.0177 12.1302C11.065 12.1623 11.1008 12.2084 11.1199 12.2619V12.2715ZM10.8984 11.839L10.9337 10.4939L11.2548 10.1759L11.4506 10.5798L11.0685 11.8899L10.8984 11.839ZM14.6839 18.9238H14.3628L14.6036 18.1447C14.6422 18.0366 14.4431 17.8967 14.3596 17.7726C14.5563 17.8888 14.7588 17.9949 14.9665 18.0906C14.9665 18.1161 14.6711 18.9238 14.6711 18.9238H14.6839ZM15.4706 18.0302L15.3036 18.8888C15.1976 18.8888 15.0853 18.911 14.9825 18.9174L15.1591 18.0906C15.2105 17.8458 14.5459 17.7726 14.2184 17.2861C14.1125 17.3735 13.9901 17.4391 13.8583 17.4789C13.7265 17.5188 13.588 17.5322 13.451 17.5183C13.2083 17.5151 12.9664 17.4895 12.7285 17.4419C12.6869 17.4386 12.645 17.4386 12.6033 17.4419C12.5539 17.4384 12.5045 17.4488 12.4607 17.4719C12.417 17.4949 12.3807 17.5297 12.3561 17.5723L12.3079 17.6518L11.3928 17.4324L11.1745 17.8076C11.1573 17.8327 11.1496 17.863 11.1525 17.8932C11.1554 17.9233 11.1689 17.9516 11.1906 17.973L11.2516 18.0397C11.1915 18.1569 11.1136 18.2642 11.0204 18.3577L10.8855 18.1924C10.8358 18.111 10.8114 18.0169 10.8154 17.9219C10.8194 17.8269 10.8516 17.7351 10.908 17.6582L11.2676 17.0572L12.035 17.1716L11.9162 16.9014C11.7557 16.5452 11.9997 16.0905 12.0254 15.8297C12.0254 15.9092 11.9419 15.9251 11.8584 15.9251C11.7749 15.9251 11.6947 15.9251 11.6369 15.9251C11.6201 15.9204 11.6023 15.9204 11.5855 15.9251L11.3768 16.0492L11.213 15.8997C11.2009 15.8771 11.1966 15.8513 11.2006 15.826C11.2047 15.8008 11.2169 15.7775 11.2355 15.7598L11.6144 15.3369L11.1649 14.8185L11.807 15.1365L11.9997 14.9076C12.0511 14.9585 12.0286 15.092 12.0286 15.092C12.255 15.1477 12.4555 15.2783 12.5968 15.4622C12.7381 15.6461 12.8117 15.8722 12.8056 16.1032C12.8056 16.1255 12.8056 16.1477 12.8056 16.1732V16.1954C12.8696 16.2963 12.9711 16.3682 13.0881 16.3958L13.9583 16.4816C14.1312 16.429 14.3085 16.3918 14.4881 16.3703C14.6433 16.3712 14.7949 16.4165 14.9247 16.5007C14.986 16.4579 15.0585 16.4336 15.1334 16.4307H15.1623C15.5508 16.4307 15.7146 16.7805 15.9233 17.0667C16.0806 17.2861 16.2925 17.6168 16.2925 17.6168C16.2631 17.661 16.2231 17.6972 16.176 17.7222C16.1289 17.7472 16.0763 17.7602 16.0228 17.7599C15.9855 17.7636 15.9478 17.7636 15.9104 17.7599C15.493 17.6836 15.432 16.8314 15.1944 16.7646H15.1559C15.1334 16.7653 15.1115 16.7718 15.0923 16.7835C15.0731 16.7953 15.0574 16.8118 15.0467 16.8314C15.1559 17.1208 15.0917 17.2384 15.2105 17.4674C15.298 17.6048 15.4063 17.7281 15.5316 17.8331C15.5316 17.8331 15.5155 17.9603 15.4963 18.0525L15.4706 18.0302ZM10.8117 17.2193L10.8502 17.3179C10.8245 17.4038 10.5291 17.5278 10.5291 17.5278L10.4649 17.3879C10.4238 17.2909 10.4166 17.1832 10.4446 17.0817C10.4725 16.9803 10.5339 16.891 10.619 16.8282L11.1039 16.5357L11.6208 16.6438C11.618 16.7454 11.6496 16.8451 11.7107 16.9268L11.1681 16.825L10.847 17.0476C10.8228 17.0685 10.8067 17.097 10.8014 17.1283C10.7961 17.1597 10.802 17.1919 10.8181 17.2193H10.8117ZM15.5669 18.8443L15.7146 18.0747C15.7146 18.0302 15.7306 17.9762 15.7371 17.9316C15.7804 17.9501 15.8256 17.964 15.8719 17.973C15.9232 17.9777 15.9748 17.9777 16.026 17.973C16.113 17.9731 16.1987 17.9534 16.2767 17.9153C16.3547 17.8773 16.4227 17.8219 16.4756 17.7536L16.5911 17.62L16.4948 17.4896C16.4948 17.4896 16.2797 17.1526 16.1192 16.93L16.0292 16.7964C15.8494 16.5293 15.6215 16.1922 15.1688 16.1922H15.127C15.0612 16.1953 14.9963 16.2082 14.9344 16.2304C14.7961 16.1644 14.6448 16.1297 14.4913 16.1286C14.3366 16.1319 14.1835 16.1609 14.0385 16.2145L13.9615 16.2368L13.1138 16.1541C13.0792 16.1374 13.0493 16.1122 13.0271 16.0809L13.2102 16.0078C13.1588 15.4005 12.568 15.0284 12.2469 14.9044C12.2324 14.8391 12.1989 14.7794 12.1506 14.7327L11.9676 14.561L11.807 14.7518L11.7268 14.8472L10.5388 14.3638L11.3126 15.3178L11.0075 15.7757C10.9918 15.7911 10.9793 15.8094 10.9708 15.8296C10.9623 15.8498 10.9579 15.8714 10.9579 15.8933C10.9579 15.9152 10.9623 15.9369 10.9708 15.9571C10.9793 15.9773 10.9918 15.9956 11.0075 16.011L11.3286 16.2272L11.6497 16.1064H11.6818C11.6818 16.1541 11.6465 16.3481 11.6304 16.4021L11.0718 16.3067L10.4745 16.6247C10.3406 16.7199 10.2445 16.8584 10.2029 17.0164C10.1612 17.1744 10.1767 17.3418 10.2466 17.4896L10.314 17.6327L10.4071 17.8362L10.6158 17.7504C10.5773 17.8513 10.5653 17.9604 10.581 18.0672C10.5967 18.174 10.6397 18.2751 10.7057 18.3609L10.8309 18.5199L10.9979 18.7298L11.1841 18.5326C11.3057 18.4134 11.4027 18.2719 11.4699 18.1161L11.5084 17.9889L11.4185 17.8903V17.8712L11.5213 17.7059L12.263 17.8776L12.4299 17.9157L12.5198 17.7695L12.568 17.69C12.568 17.6741 12.568 17.6709 12.6129 17.6709H12.6932C12.946 17.7208 13.2029 17.7474 13.4606 17.7504C13.6341 17.7601 13.808 17.7396 13.9743 17.69L14.3853 18.1542L14.1413 18.8983V18.9428C13.9609 18.9399 13.7818 18.9746 13.6159 19.0447C13.4499 19.1148 13.3007 19.2188 13.178 19.3499C12.7831 18.9619 12.5038 18.9206 11.4474 18.9206C10.1791 18.9206 9.32186 18.186 9.32186 17.0127V14.1508H17.0278V17.0127C17.0444 17.4402 16.9064 17.8596 16.6386 18.1954C16.3708 18.5312 15.9907 18.7613 15.5669 18.8443ZM17.2365 9.49862C17.1064 9.80865 17.0335 10.1393 17.0214 10.4748V12.6181C16.8848 12.5894 16.7614 12.5173 16.6698 12.4129C16.5783 12.3085 16.5236 12.1773 16.5141 12.0393V11.9408H16.4178C16.2517 11.9266 16.0965 11.8531 15.9811 11.7341C15.8409 11.5729 15.7625 11.368 15.7595 11.1553C15.6915 11.2646 15.6584 11.3918 15.6647 11.5201C15.671 11.6484 15.7164 11.7717 15.7949 11.874C15.9197 12.0313 16.1018 12.134 16.3022 12.1602C16.3305 12.3396 16.4169 12.5051 16.5483 12.6319C16.6797 12.7586 16.8491 12.8396 17.031 12.8629V13.9123H15.6825C15.5131 13.8267 15.3832 13.6803 15.3193 13.5029C15.2554 13.3256 15.2624 13.1307 15.3389 12.9583L15.3903 12.8438L15.2715 12.7993C15.0857 12.7355 14.9322 12.6026 14.8435 12.4287C14.7549 12.2548 14.7379 12.0536 14.7963 11.8676L14.822 11.7722L14.7321 11.7309C14.5674 11.6357 14.4349 11.4942 14.3514 11.3244C14.268 11.1546 14.2373 10.964 14.2633 10.7769C14.1768 10.8636 14.1198 10.9748 14.1003 11.0951C14.0807 11.2154 14.0995 11.3387 14.1541 11.4479C14.0899 11.521 14.0064 11.6069 13.9133 11.7023C13.7496 11.6682 13.6021 11.5808 13.4944 11.454C13.3867 11.3272 13.3251 11.1683 13.3193 11.0027V10.9232L13.2455 10.8946C13.1493 10.8662 13.06 10.819 12.9827 10.7556C12.9055 10.6922 12.8419 10.614 12.796 10.5257C12.734 10.3787 12.7228 10.2155 12.7639 10.0615C12.8273 10.0755 12.8917 10.085 12.9565 10.0901C13.0217 10.0934 13.0871 10.0934 13.1524 10.0901C13.4093 10.0893 13.6633 10.0351 13.8978 9.93105C14.1323 9.82698 14.3421 9.67533 14.5137 9.4859L17.2365 9.49862ZM15.1559 7.32995L15.6825 7.64794L15.8141 7.72425C15.541 7.79801 15.2934 7.94425 15.0981 8.14717L15.0756 8.16625C15.0307 8.21395 14.9889 8.26165 14.9472 8.31253L14.9215 8.34433C14.8808 8.3952 14.8423 8.44926 14.8059 8.5065L14.7867 8.53512C14.7417 8.59872 14.7 8.66867 14.6582 8.73863C14.5147 9.02117 14.3014 9.2632 14.0381 9.44221C13.7749 9.62123 13.4702 9.73142 13.1524 9.76255C12.8346 9.73142 12.5299 9.62123 12.2666 9.44221C12.0033 9.2632 11.79 9.02117 11.6465 8.73863C11.6048 8.66867 11.563 8.6019 11.5213 8.53512L11.4956 8.50014L11.3928 8.33479L11.3639 8.29981C11.3222 8.24893 11.2805 8.20123 11.2387 8.15671L11.2162 8.13446C11.0209 7.93153 10.7733 7.78529 10.5002 7.71153L10.6351 7.63522L11.1649 7.31723L11.7075 6.99924L13.1556 7.77831L14.6036 7.02468L15.1559 7.32995ZM14.4431 6.69397L13.2904 7.29497V4.84965L14.8541 4.32497L14.4431 6.69397ZM13.1588 4.59208L11.4442 3.91159C11.5887 3.56816 12.263 3.27562 13.1588 3.27562C14.0546 3.27562 14.7289 3.56816 14.8734 3.91159L13.1588 4.59208Z" fill="#222220"/>
</svg>
