<svg width="16" height="17" viewBox="0 0 16 17" fill="none" xmlns="http://www.w3.org/2000/svg">
<path d="M16 0.474782C15.3036 1.06039 14.5324 1.50828 13.7164 1.80122C13.2784 1.20086 12.6962 0.775347 12.0488 0.58222C11.4013 0.389093 10.7196 0.437673 10.0961 0.72139C9.47248 1.00511 8.93705 1.51027 8.56217 2.16856C8.18729 2.82685 7.99105 3.6065 8 4.40207V5.26902C6.72192 5.30853 5.45547 4.97063 4.31346 4.28542C3.17145 3.60021 2.18932 2.58896 1.45455 1.34173C1.45455 1.34173 -1.45455 9.1443 5.09091 12.6121C3.59311 13.8241 1.80884 14.4318 0 14.346C6.54545 18.6808 14.5455 14.346 14.5455 4.37606C14.5448 4.13458 14.5253 3.89369 14.4873 3.6565C15.2295 2.7839 15.7533 1.6822 16 0.474782Z" fill="#ffffff"/>
</svg>
