<svg width="76" height="24" viewBox="0 0 76 24" fill="none" xmlns="http://www.w3.org/2000/svg">
<path d="M39.051 7.67268C39.085 3.15566 43.3272 0 49.3584 0C51.7097 0 53.5984 0.50437 55.0677 1.03106L53.9952 5.95202C51.263 4.71341 48.8528 4.80045 47.9799 4.91426C46.2159 5.13967 45.411 6.02567 45.3905 6.85587C45.3316 9.5942 53.9658 9.93342 53.9408 16.0595C53.9181 20.8867 49.7258 24 43.3182 24C40.5882 23.9755 37.9558 23.4131 36.5342 22.7681L37.6384 17.682C39.0555 18.3336 40.8377 19.1951 43.9031 19.1482C45.6604 19.1214 47.5378 18.4341 47.5559 16.8763C47.565 15.8587 46.7668 15.1289 44.3906 13.9907C42.0779 12.8815 39.0079 11.0158 39.051 7.67268ZM65.3729 0.424028H70.5833L75.5081 23.6385H69.8646L69.1254 20.1726H61.3007L60.0264 23.6385H53.6234L62.7768 2.12684C63.2166 1.09578 64.2029 0.424028 65.3729 0.424028ZM66.2685 6.69518L63.0557 15.4123H68.1164L66.2685 6.69518ZM31.2875 0.424028H37.3867L32.3418 23.6385H26.2403L31.2875 0.424028ZM22.2611 0.424028H28.6687L18.7829 23.6385H12.3345L7.46873 5.11289C7.17397 3.97248 6.91776 3.55291 6.01988 3.07309C4.55289 2.28752 2.13133 1.55328 0 1.09801L0.145112 0.424028H10.5274C11.8493 0.424028 13.0397 1.28994 13.3412 2.78966L15.9102 16.2247L22.2611 0.424028Z" fill="#858F9A"/>
</svg>
