<svg width="31" height="32" viewBox="0 0 31 32" fill="none" xmlns="http://www.w3.org/2000/svg">
<path fill-rule="evenodd" clip-rule="evenodd" d="M3.5 25.5V6.5H28V25.5H3.5ZM2 6C2 5.44772 2.44772 5 3 5H28.5C29.0523 5 29.5 5.44772 29.5 6V26C29.5 26.5523 29.0523 27 28.5 27H3C2.44772 27 2 26.5523 2 26V6ZM23.5 17C24.3284 17 25 16.3284 25 15.5C25 14.6716 24.3284 14 23.5 14C22.6716 14 22 14.6716 22 15.5C22 16.3284 22.6716 17 23.5 17Z" fill="#999999"/>
<path d="M2.83537 4.76829C2.43126 4.85922 2.17737 5.26052 2.26829 5.66463C2.35922 6.06875 2.76052 6.32263 3.16463 6.23171L2.83537 4.76829ZM21.7805 1.27439L21.6159 0.542683L21.7805 1.27439ZM3.16463 6.23171L21.9451 2.0061L21.6159 0.542683L2.83537 4.76829L3.16463 6.23171ZM22.25 2.25V6H23.75V2.25H22.25ZM21.9451 2.0061C22.1014 1.97093 22.25 2.08979 22.25 2.25H23.75C23.75 1.12854 22.71 0.296509 21.6159 0.542683L21.9451 2.0061Z" fill="#999999"/>
</svg>
