<svg width="22" height="23" viewBox="0 0 22 23" fill="none" xmlns="http://www.w3.org/2000/svg">
<mask id="path-1-inside-1" fill="white">
<rect x="1.0625" y="3.48438" width="19.5161" height="15.6129" rx="0.709677"/>
</mask>
<rect x="1.0625" y="3.48438" width="19.5161" height="15.6129" rx="0.709677" stroke="#090909" stroke-width="3" mask="url(#path-1-inside-1)"/>
<circle cx="16.3223" cy="10.9356" r="1.06452" fill="#D8004E"/>
<path d="M1.96427 3.46184C1.56016 3.55277 1.30627 3.95407 1.3972 4.35818C1.48812 4.76229 1.88943 5.01618 2.29354 4.92526L1.96427 3.46184ZM2.29354 4.92526L15.6216 1.92644L15.2924 0.463021L1.96427 3.46184L2.29354 4.92526ZM15.5725 1.8871V4.54839H17.0725V1.8871H15.5725ZM15.6216 1.92644C15.6179 1.92727 15.6107 1.92767 15.6028 1.92575C15.5959 1.92408 15.591 1.9213 15.5876 1.91858C15.5842 1.91587 15.5804 1.91169 15.5773 1.90533C15.5737 1.89803 15.5725 1.89089 15.5725 1.8871H17.0725C17.0725 0.951688 16.205 0.257687 15.2924 0.463021L15.6216 1.92644Z" fill="#090909"/>
</svg>
