<svg width="20" height="20" viewBox="0 0 20 20" fill="none" xmlns="http://www.w3.org/2000/svg">
<circle cx="15.3223" cy="10.9356" r="1.06452" fill="#D8004E"/>
<path fill-rule="evenodd" clip-rule="evenodd" d="M14.5725 3.48432V1.93744L7.69745 3.48432H14.5725ZM16.0725 3.48432V1.88704C16.0725 0.951632 15.205 0.257631 14.2924 0.462965L0.964272 3.46178C0.937021 3.46792 0.910453 3.47546 0.884628 3.48432H0.772177C0.380233 3.48432 0.0625 3.80205 0.0625 4.194V18.3875C0.0625 18.7795 0.380233 19.0972 0.772177 19.0972H18.869C19.2609 19.0972 19.5786 18.7795 19.5786 18.3875V4.194C19.5786 3.80205 19.2609 3.48432 18.869 3.48432H16.0725ZM1.5625 17.5972V4.98432H18.0786V17.5972H1.5625Z" fill="#969696"/>
</svg>
