<svg width="28" height="26" viewBox="0 0 28 26" fill="none" xmlns="http://www.w3.org/2000/svg">
<g filter="url(#filter0_f)">
<circle cx="13.5778" cy="14.5007" r="2.76923" fill="#D8004E"/>
</g>
<path fill-rule="evenodd" clip-rule="evenodd" d="M12.4698 13.064L11.0712 10.6416L10.6382 10.8916L12.0409 13.3213C9.45145 14.9167 7.76223 16.7385 8.208 17.5106C8.65376 18.2827 11.0761 17.7306 13.7525 16.2858L15.1297 18.6712L15.5628 18.4212L14.1897 16.043C14.2205 16.0254 14.2512 16.0078 14.2821 15.99C17.1617 14.3274 19.111 12.3127 18.636 11.49C18.1609 10.6672 15.4415 11.348 12.5619 13.0106C12.5311 13.0284 12.5004 13.0462 12.4698 13.064ZM12.291 13.7545C11.1135 14.4811 10.1396 15.2479 9.4863 15.9232C9.11017 16.3119 8.8609 16.6493 8.7325 16.913C8.66882 17.0438 8.64411 17.1378 8.63819 17.1981C8.63538 17.2267 8.63719 17.2439 8.63871 17.2522C8.63947 17.2563 8.64022 17.2586 8.64055 17.2595L8.6409 17.2604L8.64101 17.2606L8.64114 17.2608L8.64172 17.2615C8.64235 17.2623 8.64395 17.264 8.64713 17.2668C8.65352 17.2722 8.66751 17.2824 8.69373 17.2943C8.74884 17.3192 8.84264 17.3449 8.98774 17.3551C9.28032 17.3758 9.69714 17.3286 10.2219 17.1972C11.1333 16.9691 12.2844 16.509 13.5024 15.8526L12.291 13.7545ZM13.9397 15.61L12.7198 13.4971C12.7504 13.4792 12.7811 13.4614 12.8119 13.4436C14.2232 12.6288 15.5794 12.0643 16.6221 11.8033C17.1468 11.672 17.5636 11.6248 17.8562 11.6454C18.0013 11.6557 18.0951 11.6813 18.1502 11.7063C18.1764 11.7182 18.1904 11.7283 18.1968 11.7338C18.2 11.7365 18.2016 11.7383 18.2022 11.739L18.2028 11.7398L18.2029 11.74L18.203 11.7402L18.2034 11.7411C18.2037 11.742 18.2045 11.7443 18.2052 11.7484C18.2068 11.7566 18.2086 11.7738 18.2058 11.8025C18.1998 11.8627 18.1751 11.9567 18.1114 12.0875C17.983 12.3512 17.7338 12.6886 17.3576 13.0774C16.6103 13.8498 15.4434 14.7421 14.0321 15.557C14.0012 15.5748 13.9704 15.5924 13.9397 15.61Z" fill="#D8004E"/>
<path fill-rule="evenodd" clip-rule="evenodd" d="M20.2416 1.99723C20.3778 1.9666 20.5072 2.07013 20.5072 2.20966V4.38768H9.61742L20.2416 1.99723ZM1.95312 6.10321C1.99088 6.1006 2.02892 6.0951 2.06698 6.08653L2.95076 5.88768H25.566V24.178H1.95312V6.10321ZM2.78409 4.38768L19.9124 0.533819C20.9863 0.292183 22.0072 1.10888 22.0072 2.20966V4.38768H26.0983C26.6328 4.38768 27.066 4.82096 27.066 5.35542V24.7103C27.066 25.2447 26.6328 25.678 26.0983 25.678H1.42087C0.886397 25.678 0.453125 25.2447 0.453125 24.7103V5.35542C0.453125 4.82095 0.886398 4.38768 1.42087 4.38768H2.78409Z" fill="#969696"/>
<defs>
<filter id="filter0_f" x="9.80859" y="10.7314" width="7.53846" height="7.53846" filterUnits="userSpaceOnUse" color-interpolation-filters="sRGB">
<feFlood flood-opacity="0" result="BackgroundImageFix"/>
<feBlend mode="normal" in="SourceGraphic" in2="BackgroundImageFix" result="shape"/>
<feGaussianBlur stdDeviation="0.5" result="effect1_foregroundBlur"/>
</filter>
</defs>
</svg>
