<svg width="25" height="24" viewBox="0 0 25 24" fill="none" xmlns="http://www.w3.org/2000/svg">
<path d="M12.1562 23C6.05625 23 1.15625 18.1 1.15625 12C1.15625 5.9 6.05625 1 12.1562 1C18.2563 1 23.1562 5.9 23.1562 12C23.1562 18.1 18.2563 23 12.1562 23ZM12.1562 3C7.15625 3 3.15625 7 3.15625 12C3.15625 17 7.15625 21 12.1562 21C17.1562 21 21.1562 17 21.1562 12C21.1562 7 17.1562 3 12.1562 3Z" fill="#D8004E"/>
<path d="M12.1562 13C11.5562 13 11.1562 12.6 11.1562 12V8C11.1562 7.4 11.5562 7 12.1562 7C12.7563 7 13.1562 7.4 13.1562 8V12C13.1562 12.6 12.7563 13 12.1562 13Z" fill="#D8004E"/>
<path d="M12.1562 17C11.8562 17 11.6562 16.9 11.4563 16.7C11.2563 16.5 11.1562 16.3 11.1562 16C11.1562 15.9 11.1562 15.7 11.2563 15.6C11.3563 15.5 11.3562 15.4 11.4563 15.3C11.7563 15 12.1562 14.9 12.5562 15.1C12.6562 15.1 12.6562 15.1 12.7563 15.2C12.7563 15.2 12.8562 15.3 12.9563 15.3C13.0563 15.4 13.1562 15.5 13.1562 15.6C13.1562 15.7 13.1562 15.9 13.1562 16C13.1562 16.1 13.1562 16.3 13.0562 16.4C12.9562 16.5 12.9563 16.6 12.8562 16.7C12.6562 16.9 12.4563 17 12.1562 17Z" fill="#D8004E"/>
</svg>
