<svg width="118" height="27" viewBox="0 0 118 27" fill="none" xmlns="http://www.w3.org/2000/svg">
<path fill-rule="evenodd" clip-rule="evenodd" d="M4.74081 22.0017V15.0657L0 2.62983H2.38425L5.87789 12.2209L9.89749 0.625H12.0879L6.9312 15.1471V22.0017H4.74081Z" fill="#C5CCD3"/>
<path fill-rule="evenodd" clip-rule="evenodd" d="M59.5249 8.34568L56.9188 14.7398L59.8297 22.0008H57.5844L55.4217 16.3652L53.3146 22.0008H51.1803L54.0912 14.9292L51.4575 8.34568H53.7031L55.505 13.3037L57.4178 8.34568H59.5249ZM44.3325 13.9269H47.9089C47.9089 11.5968 47.5208 9.88996 46.2729 9.88996C44.9424 9.88996 44.4709 11.4884 44.3325 13.9269ZM46.7167 22.1903C43.8333 22.1903 42.059 19.9416 42.059 15.7423C42.059 11.353 43.3066 8.156 46.2729 8.156C48.6018 8.156 50.1266 9.86289 50.1266 14.4959V15.6609H44.3048C44.3048 18.7494 45.1919 20.3753 46.9108 20.3753C48.1305 20.3753 49.0179 19.8331 49.5722 19.454L50.0712 21.0795C49.1838 21.757 48.1028 22.1903 46.7167 22.1903ZM37.7343 10.5404C37.2905 10.1067 36.8192 9.88996 36.0987 9.88996C34.3519 9.88996 33.5201 12.4638 33.5201 15.2544C33.5201 18.4515 34.1301 20.4024 35.7105 20.4024C36.7915 20.4024 37.3738 19.8873 37.7343 19.3455V10.5404ZM31.2192 15.6882C31.2192 10.6214 33.1596 8.156 35.96 8.156C36.6254 8.156 37.3182 8.37275 37.7343 8.67068V2.62891H39.8967V22.0008H38.2886L38.1225 20.9171H37.9838C37.3738 21.6756 36.5977 22.1903 35.461 22.1903C32.7163 22.1903 31.2192 19.9146 31.2192 15.6882ZM23.4009 22.0008H21.2389V8.31839H23.4009V9.5106H23.5398C23.928 8.99591 24.9813 8.156 26.2845 8.156C28.1144 8.156 29.0844 9.1583 29.0844 11.2446V22.0008H26.8945V11.4345C26.8945 10.4046 26.423 10.0523 25.5912 10.0523C24.6764 10.0523 23.9003 10.7299 23.4009 11.4074V22.0008ZM16.4147 14.8753H16.1653C13.4761 14.8753 12.8939 16.0404 12.8939 17.8015C12.8939 19.3726 13.4205 20.4024 14.5294 20.4024C15.2781 20.4024 16.0266 19.9146 16.4147 19.3185V14.8753ZM18.799 22.0008H16.9693C16.8862 21.7026 16.8031 21.2694 16.7752 20.9171H16.6365C16.0266 21.6756 15.2504 22.1903 14.0305 22.1903C12.0346 22.1903 10.6758 20.7272 10.6758 18.0453C10.6758 15.1191 12.2008 13.2767 16.1099 13.2767H16.4147V12.4638C16.4147 10.6757 15.8048 9.91725 14.5851 9.91725C13.4761 9.91725 12.5334 10.4861 11.8129 11.1095L11.3968 9.23972C12.0346 8.72504 13.31 8.156 14.7238 8.156C17.1909 8.156 18.5495 9.18537 18.5495 12.4911V18.9123C18.5495 20.2125 18.688 21.3503 18.799 22.0008Z" fill="#858F9A"/>
<path fill-rule="evenodd" clip-rule="evenodd" d="M67.2987 8.7521L66.7167 22.0008H65.5801L66.4393 2.62891H67.9639L70.9302 14.5774C71.1801 15.5253 71.3186 16.4464 71.4019 17.2593H71.4573C71.5401 16.4464 71.7068 15.5253 71.9562 14.5774L75.0058 2.62891H76.5581L77.4175 22.0008H76.0866L75.5048 8.64362C75.4219 7.12618 75.4494 5.96127 75.4494 4.76951H75.3656C75.1999 5.98833 75.0058 7.12618 74.701 8.26471L71.9285 18.9666H70.8473L68.1026 8.26471C67.8254 7.2076 67.6038 6.12411 67.4649 4.79658H67.3816C67.3816 5.85323 67.3544 7.42435 67.2987 8.7521Z" fill="#858F9A"/>
<path fill-rule="evenodd" clip-rule="evenodd" d="M86.8205 15.1731C86.8205 10.8919 85.4896 9.13133 83.8538 9.13133C82.2177 9.13133 80.8868 11.0277 80.8868 15.1731C80.8868 19.4266 82.2177 21.242 83.8538 21.242C85.4896 21.242 86.8205 19.2908 86.8205 15.1731ZM79.584 15.2541C79.584 10.7024 81.442 8.07422 83.8538 8.07422C86.2652 8.07422 88.1224 10.4043 88.1224 15.0917C88.1224 19.616 86.2652 22.2713 83.8538 22.2713C81.442 22.2713 79.584 19.9142 79.584 15.2541Z" fill="#858F9A"/>
<path fill-rule="evenodd" clip-rule="evenodd" d="M91.8115 12.0302V22.0004H90.5078V8.34532H91.7005L91.7559 10.594H91.8115C92.1992 9.59165 93.3082 8.07422 95.1935 8.07422C97.0515 8.07422 98.1323 9.2123 98.1323 11.38V22.0004H96.8295V11.5424C96.8295 9.91688 96.2195 9.15794 94.944 9.15794C93.5576 9.15794 92.5043 10.2962 91.8115 12.0302Z" fill="#858F9A"/>
<path fill-rule="evenodd" clip-rule="evenodd" d="M101.713 14.3871H106.787C107.009 10.7566 105.9 9.13133 104.486 9.13133C103.017 9.13133 101.824 10.9733 101.713 14.3871ZM104.763 21.1605C106.62 21.1605 107.59 19.6974 107.59 19.6974L108.006 20.7268C108.006 20.7268 106.953 22.2713 104.735 22.2713C101.769 22.2713 100.41 19.6433 100.41 15.1731C100.41 10.7024 102.129 8.07422 104.486 8.07422C106.898 8.07422 108.45 10.5401 108.006 15.3896H101.686C101.741 19.1286 102.739 21.1605 104.763 21.1605Z" fill="#858F9A"/>
<path fill-rule="evenodd" clip-rule="evenodd" d="M110.057 26.2814L109.919 25.0894C110.14 25.1435 110.418 25.1979 110.778 25.1979C111.721 25.1979 112.386 24.3036 112.802 22.7864L112.913 22.3802L109.447 8.3457H110.75L112.968 17.2593C113.217 18.2891 113.412 19.2912 113.55 20.3483H113.634C113.827 19.2641 114.049 18.2618 114.299 17.2593L116.462 8.3457H117.626L114.049 22.7054C113.578 24.5474 112.746 26.3357 110.778 26.3357C110.473 26.3357 110.251 26.3087 110.057 26.2814Z" fill="#858F9A"/>
</svg>
