<svg width="16" height="12" viewBox="0 0 16 12" fill="none" xmlns="http://www.w3.org/2000/svg">
<path fill-rule="evenodd" clip-rule="evenodd" d="M13.9037 1.20038C14.5594 1.38084 15.0764 1.90934 15.2529 2.57962C15.5808 3.80418 15.5682 6.35643 15.5682 6.35643C15.5682 6.35643 15.5682 8.89579 15.2529 10.1203C15.0764 10.7906 14.5594 11.3191 13.9037 11.4996C12.7057 11.8218 7.91398 11.8218 7.91398 11.8218C7.91398 11.8218 3.13482 11.8218 1.92427 11.4867C1.26856 11.3062 0.751552 10.7777 0.575013 10.1075C0.259766 8.89579 0.259766 6.34354 0.259766 6.34354C0.259766 6.34354 0.259766 3.80418 0.575013 2.57962C0.751552 1.90934 1.28117 1.36795 1.92427 1.18749C3.12221 0.865234 7.91398 0.865234 7.91398 0.865234C7.91398 0.865234 12.7057 0.865234 13.9037 1.20038ZM10.3732 6.34352L6.38848 8.68953V3.99752L10.3732 6.34352Z" fill="white"/>
</svg>
