<svg width="23" height="17" viewBox="0 0 23 17" fill="none" xmlns="http://www.w3.org/2000/svg">
<path fill-rule="evenodd" clip-rule="evenodd" d="M19.7314 1.31078C20.648 1.56304 21.3707 2.30181 21.6175 3.23879C22.0758 4.95059 22.0582 8.51832 22.0582 8.51832C22.0582 8.51832 22.0582 12.068 21.6175 13.7798C21.3707 14.7168 20.648 15.4556 19.7314 15.7078C18.0568 16.1583 11.3585 16.1583 11.3585 16.1583C11.3585 16.1583 4.6778 16.1583 2.9856 15.6898C2.06899 15.4376 1.34627 14.6988 1.09949 13.7618C0.658813 12.068 0.658813 8.5003 0.658813 8.5003C0.658813 8.5003 0.658813 4.95059 1.09949 3.23879C1.34627 2.30181 2.08661 1.54502 2.9856 1.29276C4.66018 0.842285 11.3585 0.842285 11.3585 0.842285C11.3585 0.842285 18.0568 0.842285 19.7314 1.31078ZM14.7962 8.5003L9.22601 11.7797V5.22087L14.7962 8.5003Z" fill="#9C9C9C"/>
</svg>
