<svg width="17" height="23" viewBox="0 0 17 23" fill="none" xmlns="http://www.w3.org/2000/svg">
<path d="M16.7495 1.52163C16.7642 1.10767 16.4405 0.760227 16.0265 0.745586L9.28073 0.507001C8.86677 0.49236 8.51933 0.816068 8.50469 1.23002C8.49005 1.64398 8.81375 1.99142 9.22771 2.00606L15.224 2.21814L15.0119 8.21439C14.9972 8.62834 15.321 8.97579 15.7349 8.99043C16.1489 9.00507 16.4963 8.68136 16.5109 8.26741L16.7495 1.52163ZM0.988619 14.4559C0.685557 14.7382 0.668772 15.2128 0.951129 15.5159C1.23349 15.8189 1.70806 15.8357 2.01113 15.5533L0.988619 14.4559ZM15.4887 0.946374L0.988619 14.4559L2.01113 15.5533L16.5113 2.04386L15.4887 0.946374Z" fill="#969696"/>
<path d="M6.75051 20.9762C6.73522 21.3902 7.05839 21.7381 7.47232 21.7534L14.2177 22.0025C14.6317 22.0178 14.9796 21.6946 14.9949 21.2807C15.0102 20.8668 14.687 20.5188 14.2731 20.5035L8.27717 20.2821L8.49861 14.2862C8.5139 13.8723 8.19074 13.5243 7.77681 13.509C7.36287 13.4937 7.01492 13.8169 6.99964 14.2308L6.75051 20.9762ZM13.3981 16.5495C13.7016 16.2677 13.7191 15.7931 13.4372 15.4896C13.1554 15.1861 12.6808 15.1686 12.3773 15.4505L13.3981 16.5495ZM14.3574 13.4697C14.0645 13.7626 14.0645 14.2374 14.3574 14.5303C14.6503 14.8232 15.1251 14.8232 15.418 14.5303L14.3574 13.4697ZM16.418 13.5303C16.7109 13.2374 16.7109 12.7626 16.418 12.4697C16.1251 12.1768 15.6503 12.1768 15.3574 12.4697L16.418 13.5303ZM8.0104 21.5534L13.3981 16.5495L12.3773 15.4505L6.9896 20.4544L8.0104 21.5534ZM15.418 14.5303L16.418 13.5303L15.3574 12.4697L14.3574 13.4697L15.418 14.5303Z" fill="#D8004E"/>
</svg>
