<svg width="40" height="27" viewBox="0 0 40 27" fill="none" xmlns="http://www.w3.org/2000/svg">
  <path d="M14.1672 13.0566C13.9719 13.2519 13.9719 13.5684 14.1672 13.7637L17.3491 16.9457C17.5444 17.141 17.861 17.141 18.0562 16.9457C18.2515 16.7504 18.2515 16.4338 18.0562 16.2386L15.2278 13.4102L18.0562 10.5817C18.2515 10.3865 18.2515 10.0699 18.0562 9.87462C17.861 9.67936 17.5444 9.67936 17.3491 9.87462L14.1672 13.0566ZM28.1328 12.9102L14.5207 12.9102L14.5207 13.9102L28.1328 13.9102L28.1328 12.9102Z" fill="white"/>
  <circle cx="33.5789" cy="13.409" r="5.85231" stroke="white"/>
  <path d="M0 26.1143C7.01657 26.1143 12.7046 20.4263 12.7046 13.4097C12.7046 6.39313 7.01657 0.705078 0 0.705078" stroke="white"/>
</svg>
