<svg width="54" height="53" viewBox="0 0 54 53" fill="none" xmlns="http://www.w3.org/2000/svg">
  <circle cx="27.5" cy="26.5" r="25.5" stroke="white" stroke-width="2"/>
  <path d="M48.368 14.5575C48.8318 15.3608 48.9024 16.4785 48.4106 17.9535C47.9193 19.427 46.9003 21.1396 45.3841 22.9826C42.3567 26.6624 37.4883 30.6917 31.4854 34.1575C25.4824 37.6233 19.5587 39.8248 14.8582 40.6067C12.5041 40.9983 10.5114 41.0245 8.98965 40.7132C7.46638 40.4016 6.53369 39.7816 6.06993 38.9783C5.60617 38.175 5.53551 37.0573 6.02731 35.5823C6.51862 34.1088 7.53768 32.3962 9.05386 30.5532C12.0812 26.8734 16.9496 22.8441 22.9526 19.3783C28.9555 15.9125 34.8792 13.711 39.5797 12.9291C41.9338 12.5375 43.9265 12.5113 45.4483 12.8226C46.9716 13.1342 47.9043 13.7542 48.368 14.5575Z" stroke="white" stroke-width="2"/>
  <path d="M34.3301 33.3785C34.4731 32.845 34.1565 32.2967 33.623 32.1537L24.9297 29.8244C24.3962 29.6814 23.8479 29.998 23.705 30.5315C23.562 31.0649 23.8786 31.6133 24.4121 31.7562L32.1395 33.8268L30.0689 41.5542C29.926 42.0876 30.2426 42.636 30.776 42.7789C31.3095 42.9219 31.8578 42.6053 32.0008 42.0718L34.3301 33.3785ZM32.4883 34.7801L33.8642 33.9857L32.8642 32.2536L31.4883 33.048L32.4883 34.7801Z" fill="white"/>
</svg>
