<svg width="72" height="21" viewBox="0 0 72 21" fill="none" xmlns="http://www.w3.org/2000/svg">
  <path d="M63.2929 20.7071C63.6834 21.0976 64.3166 21.0976 64.7071 20.7071L71.0711 14.3431C71.4616 13.9526 71.4616 13.3195 71.0711 12.9289C70.6805 12.5384 70.0474 12.5384 69.6569 12.9289L64 18.5858L58.3431 12.9289C57.9526 12.5384 57.3195 12.5384 56.9289 12.9289C56.5384 13.3195 56.5384 13.9526 56.9289 14.3431L63.2929 20.7071ZM28 20C28 10.0336 35.86 2 45.5 2V0C34.7055 0 26 8.97961 26 20H28ZM45.5 2C55.14 2 63 10.0336 63 20H65C65 8.97961 56.2945 0 45.5 0V2Z" fill="white"/>
  <path d="M8.70711 0.292893C8.31658 -0.0976308 7.68342 -0.0976309 7.29289 0.292893L0.928933 6.65685C0.538408 7.04738 0.538407 7.68054 0.928933 8.07107C1.31946 8.46159 1.95262 8.46159 2.34315 8.07107L8 2.41421L13.6569 8.07107C14.0474 8.46159 14.6805 8.46159 15.0711 8.07107C15.4616 7.68055 15.4616 7.04738 15.0711 6.65686L8.70711 0.292893ZM44 1C44 10.9664 36.14 19 26.5 19L26.5 21C37.2945 21 46 12.0204 46 1L44 1ZM26.5 19C16.86 19 9 10.9664 9 1L7 1C7 12.0204 15.7055 21 26.5 21L26.5 19Z" fill="white"/>
</svg>
